%TF.GenerationSoftware,KiCad,Pcbnew,(6.0.5-0)*%
%TF.CreationDate,2022-06-25T13:19:04+02:00*%
%TF.ProjectId,hoatzin,686f6174-7a69-46e2-9e6b-696361645f70,rev?*%
%TF.SameCoordinates,Original*%
%TF.FileFunction,Legend,Bot*%
%TF.FilePolarity,Positive*%
%FSLAX46Y46*%
G04 Gerber Fmt 4.6, Leading zero omitted, Abs format (unit mm)*
G04 Created by KiCad (PCBNEW (6.0.5-0)) date 2022-06-25 13:19:04*
%MOMM*%
%LPD*%
G01*
G04 APERTURE LIST*
%ADD10C,0.150000*%
%ADD11C,0.254000*%
%ADD12C,0.120000*%
%ADD13C,0.100000*%
G04 APERTURE END LIST*
D10*
X58347857Y-94432380D02*
X58347857Y-93432380D01*
X57776428Y-94432380D02*
X58205000Y-93860952D01*
X57776428Y-93432380D02*
X58347857Y-94003809D01*
X57347857Y-93908571D02*
X57014523Y-93908571D01*
X56871666Y-94432380D02*
X57347857Y-94432380D01*
X57347857Y-93432380D01*
X56871666Y-93432380D01*
X56252619Y-93956190D02*
X56252619Y-94432380D01*
X56585952Y-93432380D02*
X56252619Y-93956190D01*
X55919285Y-93432380D01*
X55252619Y-93908571D02*
X55109761Y-93956190D01*
X55062142Y-94003809D01*
X55014523Y-94099047D01*
X55014523Y-94241904D01*
X55062142Y-94337142D01*
X55109761Y-94384761D01*
X55205000Y-94432380D01*
X55585952Y-94432380D01*
X55585952Y-93432380D01*
X55252619Y-93432380D01*
X55157380Y-93480000D01*
X55109761Y-93527619D01*
X55062142Y-93622857D01*
X55062142Y-93718095D01*
X55109761Y-93813333D01*
X55157380Y-93860952D01*
X55252619Y-93908571D01*
X55585952Y-93908571D01*
X54395476Y-93432380D02*
X54205000Y-93432380D01*
X54109761Y-93480000D01*
X54014523Y-93575238D01*
X53966904Y-93765714D01*
X53966904Y-94099047D01*
X54014523Y-94289523D01*
X54109761Y-94384761D01*
X54205000Y-94432380D01*
X54395476Y-94432380D01*
X54490714Y-94384761D01*
X54585952Y-94289523D01*
X54633571Y-94099047D01*
X54633571Y-93765714D01*
X54585952Y-93575238D01*
X54490714Y-93480000D01*
X54395476Y-93432380D01*
X53585952Y-94146666D02*
X53109761Y-94146666D01*
X53681190Y-94432380D02*
X53347857Y-93432380D01*
X53014523Y-94432380D01*
X52109761Y-94432380D02*
X52443095Y-93956190D01*
X52681190Y-94432380D02*
X52681190Y-93432380D01*
X52300238Y-93432380D01*
X52205000Y-93480000D01*
X52157380Y-93527619D01*
X52109761Y-93622857D01*
X52109761Y-93765714D01*
X52157380Y-93860952D01*
X52205000Y-93908571D01*
X52300238Y-93956190D01*
X52681190Y-93956190D01*
X51681190Y-94432380D02*
X51681190Y-93432380D01*
X51443095Y-93432380D01*
X51300238Y-93480000D01*
X51205000Y-93575238D01*
X51157380Y-93670476D01*
X51109761Y-93860952D01*
X51109761Y-94003809D01*
X51157380Y-94194285D01*
X51205000Y-94289523D01*
X51300238Y-94384761D01*
X51443095Y-94432380D01*
X51681190Y-94432380D01*
X50919285Y-94527619D02*
X50157380Y-94527619D01*
X49443095Y-94432380D02*
X49919285Y-94432380D01*
X49919285Y-93432380D01*
X49109761Y-93908571D02*
X48776428Y-93908571D01*
X48633571Y-94432380D02*
X49109761Y-94432380D01*
X49109761Y-93432380D01*
X48633571Y-93432380D01*
X47871666Y-93908571D02*
X48205000Y-93908571D01*
X48205000Y-94432380D02*
X48205000Y-93432380D01*
X47728809Y-93432380D01*
X47490714Y-93432380D02*
X46919285Y-93432380D01*
X47205000Y-94432380D02*
X47205000Y-93432380D01*
X172203904Y-87590380D02*
X171632476Y-87590380D01*
X171918190Y-88590380D02*
X171918190Y-87590380D01*
X170727714Y-88590380D02*
X171061047Y-88114190D01*
X171299142Y-88590380D02*
X171299142Y-87590380D01*
X170918190Y-87590380D01*
X170822952Y-87638000D01*
X170775333Y-87685619D01*
X170727714Y-87780857D01*
X170727714Y-87923714D01*
X170775333Y-88018952D01*
X170822952Y-88066571D01*
X170918190Y-88114190D01*
X171299142Y-88114190D01*
X170346761Y-88542761D02*
X170203904Y-88590380D01*
X169965809Y-88590380D01*
X169870571Y-88542761D01*
X169822952Y-88495142D01*
X169775333Y-88399904D01*
X169775333Y-88304666D01*
X169822952Y-88209428D01*
X169870571Y-88161809D01*
X169965809Y-88114190D01*
X170156285Y-88066571D01*
X170251523Y-88018952D01*
X170299142Y-87971333D01*
X170346761Y-87876095D01*
X170346761Y-87780857D01*
X170299142Y-87685619D01*
X170251523Y-87638000D01*
X170156285Y-87590380D01*
X169918190Y-87590380D01*
X169775333Y-87638000D01*
X43060380Y-72302666D02*
X42584190Y-72302666D01*
X43155619Y-72588380D02*
X42822285Y-71588380D01*
X42488952Y-72588380D01*
X41822285Y-72064571D02*
X42155619Y-72064571D01*
X42155619Y-72588380D02*
X42155619Y-71588380D01*
X41679428Y-71588380D01*
X41441333Y-71588380D02*
X40869904Y-71588380D01*
X41155619Y-72588380D02*
X41155619Y-71588380D01*
X40536571Y-72064571D02*
X40203238Y-72064571D01*
X40060380Y-72588380D02*
X40536571Y-72588380D01*
X40536571Y-71588380D01*
X40060380Y-71588380D01*
X39060380Y-72588380D02*
X39393714Y-72112190D01*
X39631809Y-72588380D02*
X39631809Y-71588380D01*
X39250857Y-71588380D01*
X39155619Y-71636000D01*
X39108000Y-71683619D01*
X39060380Y-71778857D01*
X39060380Y-71921714D01*
X39108000Y-72016952D01*
X39155619Y-72064571D01*
X39250857Y-72112190D01*
X39631809Y-72112190D01*
X38774666Y-71588380D02*
X38203238Y-71588380D01*
X38488952Y-72588380D02*
X38488952Y-71588380D01*
X37679428Y-71588380D02*
X37488952Y-71588380D01*
X37393714Y-71636000D01*
X37298476Y-71731238D01*
X37250857Y-71921714D01*
X37250857Y-72255047D01*
X37298476Y-72445523D01*
X37393714Y-72540761D01*
X37488952Y-72588380D01*
X37679428Y-72588380D01*
X37774666Y-72540761D01*
X37869904Y-72445523D01*
X37917523Y-72255047D01*
X37917523Y-71921714D01*
X37869904Y-71731238D01*
X37774666Y-71636000D01*
X37679428Y-71588380D01*
X36822285Y-71588380D02*
X36822285Y-72397904D01*
X36774666Y-72493142D01*
X36727047Y-72540761D01*
X36631809Y-72588380D01*
X36441333Y-72588380D01*
X36346095Y-72540761D01*
X36298476Y-72493142D01*
X36250857Y-72397904D01*
X36250857Y-71588380D01*
X35203238Y-72493142D02*
X35250857Y-72540761D01*
X35393714Y-72588380D01*
X35488952Y-72588380D01*
X35631809Y-72540761D01*
X35727047Y-72445523D01*
X35774666Y-72350285D01*
X35822285Y-72159809D01*
X35822285Y-72016952D01*
X35774666Y-71826476D01*
X35727047Y-71731238D01*
X35631809Y-71636000D01*
X35488952Y-71588380D01*
X35393714Y-71588380D01*
X35250857Y-71636000D01*
X35203238Y-71683619D01*
X34774666Y-72588380D02*
X34774666Y-71588380D01*
X34774666Y-72064571D02*
X34203238Y-72064571D01*
X34203238Y-72588380D02*
X34203238Y-71588380D01*
X239799047Y-94432380D02*
X239799047Y-93432380D01*
X239227619Y-94432380D02*
X239656190Y-93860952D01*
X239227619Y-93432380D02*
X239799047Y-94003809D01*
X238799047Y-93908571D02*
X238465714Y-93908571D01*
X238322857Y-94432380D02*
X238799047Y-94432380D01*
X238799047Y-93432380D01*
X238322857Y-93432380D01*
X237703809Y-93956190D02*
X237703809Y-94432380D01*
X238037142Y-93432380D02*
X237703809Y-93956190D01*
X237370476Y-93432380D01*
X236703809Y-93908571D02*
X236560952Y-93956190D01*
X236513333Y-94003809D01*
X236465714Y-94099047D01*
X236465714Y-94241904D01*
X236513333Y-94337142D01*
X236560952Y-94384761D01*
X236656190Y-94432380D01*
X237037142Y-94432380D01*
X237037142Y-93432380D01*
X236703809Y-93432380D01*
X236608571Y-93480000D01*
X236560952Y-93527619D01*
X236513333Y-93622857D01*
X236513333Y-93718095D01*
X236560952Y-93813333D01*
X236608571Y-93860952D01*
X236703809Y-93908571D01*
X237037142Y-93908571D01*
X235846666Y-93432380D02*
X235656190Y-93432380D01*
X235560952Y-93480000D01*
X235465714Y-93575238D01*
X235418095Y-93765714D01*
X235418095Y-94099047D01*
X235465714Y-94289523D01*
X235560952Y-94384761D01*
X235656190Y-94432380D01*
X235846666Y-94432380D01*
X235941904Y-94384761D01*
X236037142Y-94289523D01*
X236084761Y-94099047D01*
X236084761Y-93765714D01*
X236037142Y-93575238D01*
X235941904Y-93480000D01*
X235846666Y-93432380D01*
X235037142Y-94146666D02*
X234560952Y-94146666D01*
X235132380Y-94432380D02*
X234799047Y-93432380D01*
X234465714Y-94432380D01*
X233560952Y-94432380D02*
X233894285Y-93956190D01*
X234132380Y-94432380D02*
X234132380Y-93432380D01*
X233751428Y-93432380D01*
X233656190Y-93480000D01*
X233608571Y-93527619D01*
X233560952Y-93622857D01*
X233560952Y-93765714D01*
X233608571Y-93860952D01*
X233656190Y-93908571D01*
X233751428Y-93956190D01*
X234132380Y-93956190D01*
X233132380Y-94432380D02*
X233132380Y-93432380D01*
X232894285Y-93432380D01*
X232751428Y-93480000D01*
X232656190Y-93575238D01*
X232608571Y-93670476D01*
X232560952Y-93860952D01*
X232560952Y-94003809D01*
X232608571Y-94194285D01*
X232656190Y-94289523D01*
X232751428Y-94384761D01*
X232894285Y-94432380D01*
X233132380Y-94432380D01*
X232370476Y-94527619D02*
X231608571Y-94527619D01*
X230799047Y-94432380D02*
X231132380Y-93956190D01*
X231370476Y-94432380D02*
X231370476Y-93432380D01*
X230989523Y-93432380D01*
X230894285Y-93480000D01*
X230846666Y-93527619D01*
X230799047Y-93622857D01*
X230799047Y-93765714D01*
X230846666Y-93860952D01*
X230894285Y-93908571D01*
X230989523Y-93956190D01*
X231370476Y-93956190D01*
X230370476Y-94432380D02*
X230370476Y-93432380D01*
X229370476Y-93480000D02*
X229465714Y-93432380D01*
X229608571Y-93432380D01*
X229751428Y-93480000D01*
X229846666Y-93575238D01*
X229894285Y-93670476D01*
X229941904Y-93860952D01*
X229941904Y-94003809D01*
X229894285Y-94194285D01*
X229846666Y-94289523D01*
X229751428Y-94384761D01*
X229608571Y-94432380D01*
X229513333Y-94432380D01*
X229370476Y-94384761D01*
X229322857Y-94337142D01*
X229322857Y-94003809D01*
X229513333Y-94003809D01*
X228894285Y-94432380D02*
X228894285Y-93432380D01*
X228894285Y-93908571D02*
X228322857Y-93908571D01*
X228322857Y-94432380D02*
X228322857Y-93432380D01*
X227989523Y-93432380D02*
X227418095Y-93432380D01*
X227703809Y-94432380D02*
X227703809Y-93432380D01*
X188467904Y-87590380D02*
X187896476Y-87590380D01*
X188182190Y-88590380D02*
X188182190Y-87590380D01*
X187610761Y-88542761D02*
X187467904Y-88590380D01*
X187229809Y-88590380D01*
X187134571Y-88542761D01*
X187086952Y-88495142D01*
X187039333Y-88399904D01*
X187039333Y-88304666D01*
X187086952Y-88209428D01*
X187134571Y-88161809D01*
X187229809Y-88114190D01*
X187420285Y-88066571D01*
X187515523Y-88018952D01*
X187563142Y-87971333D01*
X187610761Y-87876095D01*
X187610761Y-87780857D01*
X187563142Y-87685619D01*
X187515523Y-87638000D01*
X187420285Y-87590380D01*
X187182190Y-87590380D01*
X187039333Y-87638000D01*
%TO.C,J2*%
X220678333Y-93432380D02*
X220678333Y-94146666D01*
X220725952Y-94289523D01*
X220821190Y-94384761D01*
X220964047Y-94432380D01*
X221059285Y-94432380D01*
X220249761Y-93527619D02*
X220202142Y-93480000D01*
X220106904Y-93432380D01*
X219868809Y-93432380D01*
X219773571Y-93480000D01*
X219725952Y-93527619D01*
X219678333Y-93622857D01*
X219678333Y-93718095D01*
X219725952Y-93860952D01*
X220297380Y-94432380D01*
X219678333Y-94432380D01*
X218738485Y-88082380D02*
X219309914Y-88082380D01*
X219024200Y-88082380D02*
X219024200Y-87082380D01*
X219119438Y-87225238D01*
X219214676Y-87320476D01*
X219309914Y-87368095D01*
X247776904Y-92257619D02*
X247729285Y-92210000D01*
X247634047Y-92162380D01*
X247395952Y-92162380D01*
X247300714Y-92210000D01*
X247253095Y-92257619D01*
X247205476Y-92352857D01*
X247205476Y-92448095D01*
X247253095Y-92590952D01*
X247824523Y-93162380D01*
X247205476Y-93162380D01*
X246586428Y-92162380D02*
X246491190Y-92162380D01*
X246395952Y-92210000D01*
X246348333Y-92257619D01*
X246300714Y-92352857D01*
X246253095Y-92543333D01*
X246253095Y-92781428D01*
X246300714Y-92971904D01*
X246348333Y-93067142D01*
X246395952Y-93114761D01*
X246491190Y-93162380D01*
X246586428Y-93162380D01*
X246681666Y-93114761D01*
X246729285Y-93067142D01*
X246776904Y-92971904D01*
X246824523Y-92781428D01*
X246824523Y-92543333D01*
X246776904Y-92352857D01*
X246729285Y-92257619D01*
X246681666Y-92210000D01*
X246586428Y-92162380D01*
X247776904Y-92257619D02*
X247729285Y-92210000D01*
X247634047Y-92162380D01*
X247395952Y-92162380D01*
X247300714Y-92210000D01*
X247253095Y-92257619D01*
X247205476Y-92352857D01*
X247205476Y-92448095D01*
X247253095Y-92590952D01*
X247824523Y-93162380D01*
X247205476Y-93162380D01*
X246586428Y-92162380D02*
X246491190Y-92162380D01*
X246395952Y-92210000D01*
X246348333Y-92257619D01*
X246300714Y-92352857D01*
X246253095Y-92543333D01*
X246253095Y-92781428D01*
X246300714Y-92971904D01*
X246348333Y-93067142D01*
X246395952Y-93114761D01*
X246491190Y-93162380D01*
X246586428Y-93162380D01*
X246681666Y-93114761D01*
X246729285Y-93067142D01*
X246776904Y-92971904D01*
X246824523Y-92781428D01*
X246824523Y-92543333D01*
X246776904Y-92352857D01*
X246729285Y-92257619D01*
X246681666Y-92210000D01*
X246586428Y-92162380D01*
X218738485Y-88082380D02*
X219309914Y-88082380D01*
X219024200Y-88082380D02*
X219024200Y-87082380D01*
X219119438Y-87225238D01*
X219214676Y-87320476D01*
X219309914Y-87368095D01*
X219710000Y-87717380D02*
X219710000Y-87955476D01*
X219948095Y-87860238D02*
X219710000Y-87955476D01*
X219471904Y-87860238D01*
X219852857Y-88145952D02*
X219710000Y-87955476D01*
X219567142Y-88145952D01*
D11*
%TO.C,J9*%
X195368333Y-87569523D02*
X195368333Y-88476666D01*
X195428809Y-88658095D01*
X195549761Y-88779047D01*
X195731190Y-88839523D01*
X195852142Y-88839523D01*
X194703095Y-88839523D02*
X194461190Y-88839523D01*
X194340238Y-88779047D01*
X194279761Y-88718571D01*
X194158809Y-88537142D01*
X194098333Y-88295238D01*
X194098333Y-87811428D01*
X194158809Y-87690476D01*
X194219285Y-87630000D01*
X194340238Y-87569523D01*
X194582142Y-87569523D01*
X194703095Y-87630000D01*
X194763571Y-87690476D01*
X194824047Y-87811428D01*
X194824047Y-88113809D01*
X194763571Y-88234761D01*
X194703095Y-88295238D01*
X194582142Y-88355714D01*
X194340238Y-88355714D01*
X194219285Y-88295238D01*
X194158809Y-88234761D01*
X194098333Y-88113809D01*
%TO.C,J8*%
X176953333Y-87569523D02*
X176953333Y-88476666D01*
X177013809Y-88658095D01*
X177134761Y-88779047D01*
X177316190Y-88839523D01*
X177437142Y-88839523D01*
X176167142Y-88113809D02*
X176288095Y-88053333D01*
X176348571Y-87992857D01*
X176409047Y-87871904D01*
X176409047Y-87811428D01*
X176348571Y-87690476D01*
X176288095Y-87630000D01*
X176167142Y-87569523D01*
X175925238Y-87569523D01*
X175804285Y-87630000D01*
X175743809Y-87690476D01*
X175683333Y-87811428D01*
X175683333Y-87871904D01*
X175743809Y-87992857D01*
X175804285Y-88053333D01*
X175925238Y-88113809D01*
X176167142Y-88113809D01*
X176288095Y-88174285D01*
X176348571Y-88234761D01*
X176409047Y-88355714D01*
X176409047Y-88597619D01*
X176348571Y-88718571D01*
X176288095Y-88779047D01*
X176167142Y-88839523D01*
X175925238Y-88839523D01*
X175804285Y-88779047D01*
X175743809Y-88718571D01*
X175683333Y-88597619D01*
X175683333Y-88355714D01*
X175743809Y-88234761D01*
X175804285Y-88174285D01*
X175925238Y-88113809D01*
D10*
%TO.C,J15*%
X47037523Y-81240380D02*
X47037523Y-81954666D01*
X47085142Y-82097523D01*
X47180380Y-82192761D01*
X47323238Y-82240380D01*
X47418476Y-82240380D01*
X46037523Y-82240380D02*
X46608952Y-82240380D01*
X46323238Y-82240380D02*
X46323238Y-81240380D01*
X46418476Y-81383238D01*
X46513714Y-81478476D01*
X46608952Y-81526095D01*
X45132761Y-81240380D02*
X45608952Y-81240380D01*
X45656571Y-81716571D01*
X45608952Y-81668952D01*
X45513714Y-81621333D01*
X45275619Y-81621333D01*
X45180380Y-81668952D01*
X45132761Y-81716571D01*
X45085142Y-81811809D01*
X45085142Y-82049904D01*
X45132761Y-82145142D01*
X45180380Y-82192761D01*
X45275619Y-82240380D01*
X45513714Y-82240380D01*
X45608952Y-82192761D01*
X45656571Y-82145142D01*
%TO.C,J1*%
X40338333Y-93432380D02*
X40338333Y-94146666D01*
X40385952Y-94289523D01*
X40481190Y-94384761D01*
X40624047Y-94432380D01*
X40719285Y-94432380D01*
X39338333Y-94432380D02*
X39909761Y-94432380D01*
X39624047Y-94432380D02*
X39624047Y-93432380D01*
X39719285Y-93575238D01*
X39814523Y-93670476D01*
X39909761Y-93718095D01*
X38080985Y-88056980D02*
X38652414Y-88056980D01*
X38366700Y-88056980D02*
X38366700Y-87056980D01*
X38461938Y-87199838D01*
X38557176Y-87295076D01*
X38652414Y-87342695D01*
X38080985Y-88056980D02*
X38652414Y-88056980D01*
X38366700Y-88056980D02*
X38366700Y-87056980D01*
X38461938Y-87199838D01*
X38557176Y-87295076D01*
X38652414Y-87342695D01*
X67436904Y-91299882D02*
X67389285Y-91252263D01*
X67294047Y-91204643D01*
X67055952Y-91204643D01*
X66960714Y-91252263D01*
X66913095Y-91299882D01*
X66865476Y-91395120D01*
X66865476Y-91490358D01*
X66913095Y-91633215D01*
X67484523Y-92204643D01*
X66865476Y-92204643D01*
X66246428Y-91204643D02*
X66151190Y-91204643D01*
X66055952Y-91252263D01*
X66008333Y-91299882D01*
X65960714Y-91395120D01*
X65913095Y-91585596D01*
X65913095Y-91823691D01*
X65960714Y-92014167D01*
X66008333Y-92109405D01*
X66055952Y-92157024D01*
X66151190Y-92204643D01*
X66246428Y-92204643D01*
X66341666Y-92157024D01*
X66389285Y-92109405D01*
X66436904Y-92014167D01*
X66484523Y-91823691D01*
X66484523Y-91585596D01*
X66436904Y-91395120D01*
X66389285Y-91299882D01*
X66341666Y-91252263D01*
X66246428Y-91204643D01*
X67436904Y-91299882D02*
X67389285Y-91252263D01*
X67294047Y-91204643D01*
X67055952Y-91204643D01*
X66960714Y-91252263D01*
X66913095Y-91299882D01*
X66865476Y-91395120D01*
X66865476Y-91490358D01*
X66913095Y-91633215D01*
X67484523Y-92204643D01*
X66865476Y-92204643D01*
X66246428Y-91204643D02*
X66151190Y-91204643D01*
X66055952Y-91252263D01*
X66008333Y-91299882D01*
X65960714Y-91395120D01*
X65913095Y-91585596D01*
X65913095Y-91823691D01*
X65960714Y-92014167D01*
X66008333Y-92109405D01*
X66055952Y-92157024D01*
X66151190Y-92204643D01*
X66246428Y-92204643D01*
X66341666Y-92157024D01*
X66389285Y-92109405D01*
X66436904Y-92014167D01*
X66484523Y-91823691D01*
X66484523Y-91585596D01*
X66436904Y-91395120D01*
X66389285Y-91299882D01*
X66341666Y-91252263D01*
X66246428Y-91204643D01*
X39370000Y-87717380D02*
X39370000Y-87955476D01*
X39608095Y-87860238D02*
X39370000Y-87955476D01*
X39131904Y-87860238D01*
X39512857Y-88145952D02*
X39370000Y-87955476D01*
X39227142Y-88145952D01*
D12*
%TO.C,J2*%
X246240300Y-87477600D02*
X246240300Y-88605673D01*
X246240300Y-90667527D02*
X246240300Y-92837000D01*
X246240300Y-92837000D02*
X218579700Y-92837000D01*
X218579700Y-92837000D02*
X218579700Y-87477600D01*
X218579700Y-87477600D02*
X246240300Y-87477600D01*
X220726000Y-86995000D02*
G75*
G03*
X220726000Y-86995000I-381000J0D01*
G01*
D13*
%TO.C,J9*%
X180149000Y-89662000D02*
X180149000Y-117246000D01*
X180149000Y-117246000D02*
X195771000Y-117246000D01*
X195771000Y-89662000D02*
X180149000Y-89662000D01*
X195771000Y-117246000D02*
X195771000Y-89662000D01*
%TO.C,J8*%
X162429000Y-117246000D02*
X178051000Y-117246000D01*
X178051000Y-117246000D02*
X178051000Y-89662000D01*
X178051000Y-89662000D02*
X162429000Y-89662000D01*
X162429000Y-89662000D02*
X162429000Y-117246000D01*
D12*
%TO.C,J15*%
X42137071Y-82170000D02*
X41740000Y-82170000D01*
X42137071Y-79630000D02*
X41740000Y-79630000D01*
X44450000Y-74930000D02*
X44450000Y-73660000D01*
X42070000Y-74550000D02*
X41740000Y-74550000D01*
X41740000Y-78740000D02*
X39080000Y-78740000D01*
X33080000Y-79630000D02*
X33080000Y-80390000D01*
X33080000Y-75310000D02*
X39080000Y-75310000D01*
X42070000Y-75310000D02*
X41740000Y-75310000D01*
X39080000Y-74850000D02*
X33080000Y-74850000D01*
X33080000Y-82170000D02*
X33080000Y-82930000D01*
X39080000Y-77090000D02*
X33080000Y-77090000D01*
X39080000Y-74970000D02*
X33080000Y-74970000D01*
X42137071Y-80390000D02*
X41740000Y-80390000D01*
X39080000Y-73600000D02*
X41740000Y-73600000D01*
X41740000Y-81280000D02*
X39080000Y-81280000D01*
X33080000Y-82930000D02*
X39080000Y-82930000D01*
X39080000Y-83880000D02*
X39080000Y-73600000D01*
X33080000Y-74550000D02*
X33080000Y-75310000D01*
X39080000Y-75210000D02*
X33080000Y-75210000D01*
X39080000Y-74730000D02*
X33080000Y-74730000D01*
X39080000Y-82170000D02*
X33080000Y-82170000D01*
X33080000Y-77090000D02*
X33080000Y-77850000D01*
X42137071Y-82930000D02*
X41740000Y-82930000D01*
X39080000Y-74610000D02*
X33080000Y-74610000D01*
X42137071Y-77090000D02*
X41740000Y-77090000D01*
X41740000Y-83880000D02*
X39080000Y-83880000D01*
X42137071Y-77850000D02*
X41740000Y-77850000D01*
X44450000Y-73660000D02*
X43180000Y-73660000D01*
X33080000Y-80390000D02*
X39080000Y-80390000D01*
X41740000Y-76200000D02*
X39080000Y-76200000D01*
X39080000Y-75090000D02*
X33080000Y-75090000D01*
X33080000Y-77850000D02*
X39080000Y-77850000D01*
X41740000Y-73600000D02*
X41740000Y-83880000D01*
X39080000Y-74550000D02*
X33080000Y-74550000D01*
X39080000Y-79630000D02*
X33080000Y-79630000D01*
%TO.C,J1*%
X38239700Y-87477600D02*
X65900300Y-87477600D01*
X38239700Y-92837000D02*
X38239700Y-87477600D01*
X65900300Y-92837000D02*
X38239700Y-92837000D01*
X65900300Y-87477600D02*
X65900300Y-88605673D01*
X65900300Y-90667527D02*
X65900300Y-92837000D01*
X40386000Y-86995000D02*
G75*
G03*
X40386000Y-86995000I-381000J0D01*
G01*
%TD*%
M02*
