%TF.GenerationSoftware,KiCad,Pcbnew,(6.0.5-0)*%
%TF.CreationDate,2022-06-25T13:19:04+02:00*%
%TF.ProjectId,hoatzin,686f6174-7a69-46e2-9e6b-696361645f70,rev?*%
%TF.SameCoordinates,Original*%
%TF.FileFunction,Paste,Top*%
%TF.FilePolarity,Positive*%
%FSLAX46Y46*%
G04 Gerber Fmt 4.6, Leading zero omitted, Abs format (unit mm)*
G04 Created by KiCad (PCBNEW (6.0.5-0)) date 2022-06-25 13:19:04*
%MOMM*%
%LPD*%
G01*
G04 APERTURE LIST*
G04 Aperture macros list*
%AMRoundRect*
0 Rectangle with rounded corners*
0 $1 Rounding radius*
0 $2 $3 $4 $5 $6 $7 $8 $9 X,Y pos of 4 corners*
0 Add a 4 corners polygon primitive as box body*
4,1,4,$2,$3,$4,$5,$6,$7,$8,$9,$2,$3,0*
0 Add four circle primitives for the rounded corners*
1,1,$1+$1,$2,$3*
1,1,$1+$1,$4,$5*
1,1,$1+$1,$6,$7*
1,1,$1+$1,$8,$9*
0 Add four rect primitives between the rounded corners*
20,1,$1+$1,$2,$3,$4,$5,0*
20,1,$1+$1,$4,$5,$6,$7,0*
20,1,$1+$1,$6,$7,$8,$9,0*
20,1,$1+$1,$8,$9,$2,$3,0*%
G04 Aperture macros list end*
%ADD10RoundRect,0.250000X0.262500X0.450000X-0.262500X0.450000X-0.262500X-0.450000X0.262500X-0.450000X0*%
%ADD11RoundRect,0.250000X0.250000X0.475000X-0.250000X0.475000X-0.250000X-0.475000X0.250000X-0.475000X0*%
%ADD12RoundRect,0.250000X-0.262500X-0.450000X0.262500X-0.450000X0.262500X0.450000X-0.262500X0.450000X0*%
%ADD13RoundRect,0.075000X-0.700000X-0.075000X0.700000X-0.075000X0.700000X0.075000X-0.700000X0.075000X0*%
%ADD14RoundRect,0.075000X-0.075000X-0.700000X0.075000X-0.700000X0.075000X0.700000X-0.075000X0.700000X0*%
%ADD15RoundRect,0.250000X-0.475000X0.250000X-0.475000X-0.250000X0.475000X-0.250000X0.475000X0.250000X0*%
%ADD16RoundRect,0.250000X0.450000X-0.262500X0.450000X0.262500X-0.450000X0.262500X-0.450000X-0.262500X0*%
%ADD17RoundRect,0.250000X0.475000X-0.250000X0.475000X0.250000X-0.475000X0.250000X-0.475000X-0.250000X0*%
%ADD18R,0.600000X0.450000*%
%ADD19RoundRect,0.150000X-0.512500X-0.150000X0.512500X-0.150000X0.512500X0.150000X-0.512500X0.150000X0*%
%ADD20R,1.200000X0.900000*%
%ADD21RoundRect,0.250000X-0.250000X-0.475000X0.250000X-0.475000X0.250000X0.475000X-0.250000X0.475000X0*%
%ADD22RoundRect,0.250000X-0.450000X0.262500X-0.450000X-0.262500X0.450000X-0.262500X0.450000X0.262500X0*%
%ADD23RoundRect,0.218750X0.381250X-0.218750X0.381250X0.218750X-0.381250X0.218750X-0.381250X-0.218750X0*%
%ADD24RoundRect,0.150000X0.150000X-0.825000X0.150000X0.825000X-0.150000X0.825000X-0.150000X-0.825000X0*%
%ADD25R,1.780000X1.520000*%
G04 APERTURE END LIST*
D10*
%TO.C,R3*%
X86002500Y-84455000D03*
X84177500Y-84455000D03*
%TD*%
D11*
%TO.C,C9*%
X237170000Y-72390000D03*
X235270000Y-72390000D03*
%TD*%
D10*
%TO.C,R15*%
X180617500Y-95885000D03*
X178792500Y-95885000D03*
%TD*%
D12*
%TO.C,R2*%
X112752500Y-80010000D03*
X114577500Y-80010000D03*
%TD*%
D13*
%TO.C,U1*%
X136565000Y-92770000D03*
X136565000Y-93270000D03*
X136565000Y-93770000D03*
X136565000Y-94270000D03*
X136565000Y-94770000D03*
X136565000Y-95270000D03*
X136565000Y-95770000D03*
X136565000Y-96270000D03*
X136565000Y-96770000D03*
X136565000Y-97270000D03*
X136565000Y-97770000D03*
X136565000Y-98270000D03*
X136565000Y-98770000D03*
X136565000Y-99270000D03*
X136565000Y-99770000D03*
X136565000Y-100270000D03*
D14*
X138490000Y-102195000D03*
X138990000Y-102195000D03*
X139490000Y-102195000D03*
X139990000Y-102195000D03*
X140490000Y-102195000D03*
X140990000Y-102195000D03*
X141490000Y-102195000D03*
X141990000Y-102195000D03*
X142490000Y-102195000D03*
X142990000Y-102195000D03*
X143490000Y-102195000D03*
X143990000Y-102195000D03*
X144490000Y-102195000D03*
X144990000Y-102195000D03*
X145490000Y-102195000D03*
X145990000Y-102195000D03*
D13*
X147915000Y-100270000D03*
X147915000Y-99770000D03*
X147915000Y-99270000D03*
X147915000Y-98770000D03*
X147915000Y-98270000D03*
X147915000Y-97770000D03*
X147915000Y-97270000D03*
X147915000Y-96770000D03*
X147915000Y-96270000D03*
X147915000Y-95770000D03*
X147915000Y-95270000D03*
X147915000Y-94770000D03*
X147915000Y-94270000D03*
X147915000Y-93770000D03*
X147915000Y-93270000D03*
X147915000Y-92770000D03*
D14*
X145990000Y-90845000D03*
X145490000Y-90845000D03*
X144990000Y-90845000D03*
X144490000Y-90845000D03*
X143990000Y-90845000D03*
X143490000Y-90845000D03*
X142990000Y-90845000D03*
X142490000Y-90845000D03*
X141990000Y-90845000D03*
X141490000Y-90845000D03*
X140990000Y-90845000D03*
X140490000Y-90845000D03*
X139990000Y-90845000D03*
X139490000Y-90845000D03*
X138990000Y-90845000D03*
X138490000Y-90845000D03*
%TD*%
D15*
%TO.C,C15*%
X178247000Y-60452000D03*
X178247000Y-62352000D03*
%TD*%
D16*
%TO.C,R6*%
X68580000Y-79295000D03*
X68580000Y-77470000D03*
%TD*%
D11*
%TO.C,C8*%
X235900000Y-110490000D03*
X234000000Y-110490000D03*
%TD*%
D17*
%TO.C,C11*%
X176977000Y-71242000D03*
X176977000Y-69342000D03*
%TD*%
%TO.C,C12*%
X168087000Y-62352000D03*
X168087000Y-60452000D03*
%TD*%
D15*
%TO.C,C13*%
X168087000Y-64582000D03*
X168087000Y-66482000D03*
%TD*%
D17*
%TO.C,C10*%
X180787000Y-71242000D03*
X180787000Y-69342000D03*
%TD*%
D16*
%TO.C,R5*%
X90805000Y-72747500D03*
X90805000Y-74572500D03*
%TD*%
D18*
%TO.C,D2*%
X164057000Y-61402000D03*
X161957000Y-61402000D03*
%TD*%
D16*
%TO.C,R18*%
X233680000Y-64412500D03*
X233680000Y-62587500D03*
%TD*%
D19*
%TO.C,U4*%
X172029500Y-62992000D03*
X172029500Y-63942000D03*
X172029500Y-64892000D03*
X174304500Y-64892000D03*
X174304500Y-62992000D03*
%TD*%
D15*
%TO.C,C16*%
X246380000Y-73980000D03*
X246380000Y-75880000D03*
%TD*%
D20*
%TO.C,D1*%
X120650000Y-75945000D03*
X120650000Y-72645000D03*
%TD*%
D16*
%TO.C,R7*%
X93345000Y-72747500D03*
X93345000Y-74572500D03*
%TD*%
D11*
%TO.C,C5*%
X237170000Y-69850000D03*
X235270000Y-69850000D03*
%TD*%
D10*
%TO.C,R13*%
X162560000Y-104775000D03*
X160735000Y-104775000D03*
%TD*%
D16*
%TO.C,R1*%
X117475000Y-74215000D03*
X117475000Y-72390000D03*
%TD*%
D21*
%TO.C,C7*%
X48580000Y-110490000D03*
X50480000Y-110490000D03*
%TD*%
D12*
%TO.C,R10*%
X161012500Y-92710000D03*
X162837500Y-92710000D03*
%TD*%
D10*
%TO.C,R11*%
X162837500Y-94615000D03*
X161012500Y-94615000D03*
%TD*%
D17*
%TO.C,C14*%
X178247000Y-66482000D03*
X178247000Y-64582000D03*
%TD*%
D22*
%TO.C,R19*%
X233680000Y-57507500D03*
X233680000Y-59332500D03*
%TD*%
D23*
%TO.C,FB1*%
X135890000Y-103932500D03*
X135890000Y-101807500D03*
%TD*%
D12*
%TO.C,R12*%
X160735000Y-102235000D03*
X162560000Y-102235000D03*
%TD*%
D16*
%TO.C,R4*%
X66040000Y-79295000D03*
X66040000Y-77470000D03*
%TD*%
D21*
%TO.C,C4*%
X48580000Y-107950000D03*
X50480000Y-107950000D03*
%TD*%
D24*
%TO.C,U3*%
X77343000Y-74233000D03*
X78613000Y-74233000D03*
X79883000Y-74233000D03*
X81153000Y-74233000D03*
X82423000Y-74233000D03*
X83693000Y-74233000D03*
X84963000Y-74233000D03*
X84963000Y-79183000D03*
X83693000Y-79183000D03*
X82423000Y-79183000D03*
X81153000Y-79183000D03*
X79883000Y-79183000D03*
X78613000Y-79183000D03*
X77343000Y-79183000D03*
%TD*%
D12*
%TO.C,R14*%
X178792500Y-93980000D03*
X180617500Y-93980000D03*
%TD*%
D17*
%TO.C,C2*%
X123189998Y-94930000D03*
X123189998Y-93030000D03*
%TD*%
D21*
%TO.C,C6*%
X48260000Y-63500000D03*
X50160000Y-63500000D03*
%TD*%
D15*
%TO.C,C3*%
X123189998Y-96840000D03*
X123189998Y-98740000D03*
%TD*%
D25*
%TO.C,U2*%
X109855000Y-73660000D03*
X107315000Y-73660000D03*
X104775000Y-73660000D03*
X102235000Y-73660000D03*
X102235000Y-82670000D03*
X104775000Y-82670000D03*
X107315000Y-82670000D03*
X109855000Y-82670000D03*
%TD*%
D21*
%TO.C,C1*%
X92710000Y-78740000D03*
X90810000Y-78740000D03*
%TD*%
D22*
%TO.C,R20*%
X46990000Y-74017500D03*
X46990000Y-75842500D03*
%TD*%
M02*
