%TF.GenerationSoftware,KiCad,Pcbnew,(6.0.5-0)*%
%TF.CreationDate,2022-06-25T13:19:04+02:00*%
%TF.ProjectId,hoatzin,686f6174-7a69-46e2-9e6b-696361645f70,rev?*%
%TF.SameCoordinates,Original*%
%TF.FileFunction,Legend,Top*%
%TF.FilePolarity,Positive*%
%FSLAX46Y46*%
G04 Gerber Fmt 4.6, Leading zero omitted, Abs format (unit mm)*
G04 Created by KiCad (PCBNEW (6.0.5-0)) date 2022-06-25 13:19:04*
%MOMM*%
%LPD*%
G01*
G04 APERTURE LIST*
%ADD10C,0.150000*%
%ADD11C,0.300000*%
%ADD12C,0.254000*%
%ADD13C,0.120000*%
%ADD14C,0.127000*%
%ADD15C,0.200000*%
%ADD16C,0.100000*%
G04 APERTURE END LIST*
D10*
X180144523Y-55742571D02*
X180477857Y-55742571D01*
X180620714Y-56266380D02*
X180144523Y-56266380D01*
X180144523Y-55266380D01*
X180620714Y-55266380D01*
X180954047Y-55266380D02*
X181620714Y-56266380D01*
X181620714Y-55266380D02*
X180954047Y-56266380D01*
X181858809Y-55266380D02*
X182430238Y-55266380D01*
X182144523Y-56266380D02*
X182144523Y-55266380D01*
X182525476Y-56361619D02*
X183287380Y-56361619D01*
X183525476Y-55885428D02*
X184287380Y-55885428D01*
X183906428Y-56266380D02*
X183906428Y-55504476D01*
X184668333Y-55266380D02*
X185287380Y-55266380D01*
X184954047Y-55647333D01*
X185096904Y-55647333D01*
X185192142Y-55694952D01*
X185239761Y-55742571D01*
X185287380Y-55837809D01*
X185287380Y-56075904D01*
X185239761Y-56171142D01*
X185192142Y-56218761D01*
X185096904Y-56266380D01*
X184811190Y-56266380D01*
X184715952Y-56218761D01*
X184668333Y-56171142D01*
X185715952Y-56171142D02*
X185763571Y-56218761D01*
X185715952Y-56266380D01*
X185668333Y-56218761D01*
X185715952Y-56171142D01*
X185715952Y-56266380D01*
X186096904Y-55266380D02*
X186715952Y-55266380D01*
X186382619Y-55647333D01*
X186525476Y-55647333D01*
X186620714Y-55694952D01*
X186668333Y-55742571D01*
X186715952Y-55837809D01*
X186715952Y-56075904D01*
X186668333Y-56171142D01*
X186620714Y-56218761D01*
X186525476Y-56266380D01*
X186239761Y-56266380D01*
X186144523Y-56218761D01*
X186096904Y-56171142D01*
X187001666Y-55266380D02*
X187335000Y-56266380D01*
X187668333Y-55266380D01*
X65834952Y-71318380D02*
X65834952Y-70318380D01*
X66168285Y-71032666D01*
X66501619Y-70318380D01*
X66501619Y-71318380D01*
X66977809Y-71318380D02*
X66977809Y-70318380D01*
X67454000Y-71318380D02*
X67454000Y-70318380D01*
X67692095Y-70318380D01*
X67834952Y-70366000D01*
X67930190Y-70461238D01*
X67977809Y-70556476D01*
X68025428Y-70746952D01*
X68025428Y-70889809D01*
X67977809Y-71080285D01*
X67930190Y-71175523D01*
X67834952Y-71270761D01*
X67692095Y-71318380D01*
X67454000Y-71318380D01*
X68454000Y-71318380D02*
X68454000Y-70318380D01*
X68692095Y-71413619D02*
X69454000Y-71413619D01*
X69882571Y-70318380D02*
X70073047Y-70318380D01*
X70168285Y-70366000D01*
X70263523Y-70461238D01*
X70311142Y-70651714D01*
X70311142Y-70985047D01*
X70263523Y-71175523D01*
X70168285Y-71270761D01*
X70073047Y-71318380D01*
X69882571Y-71318380D01*
X69787333Y-71270761D01*
X69692095Y-71175523D01*
X69644476Y-70985047D01*
X69644476Y-70651714D01*
X69692095Y-70461238D01*
X69787333Y-70366000D01*
X69882571Y-70318380D01*
X70739714Y-70318380D02*
X70739714Y-71127904D01*
X70787333Y-71223142D01*
X70834952Y-71270761D01*
X70930190Y-71318380D01*
X71120666Y-71318380D01*
X71215904Y-71270761D01*
X71263523Y-71223142D01*
X71311142Y-71127904D01*
X71311142Y-70318380D01*
X71644476Y-70318380D02*
X72215904Y-70318380D01*
X71930190Y-71318380D02*
X71930190Y-70318380D01*
X186954428Y-66640285D02*
X186954428Y-65878380D01*
X187335380Y-66259333D02*
X186573476Y-66259333D01*
X186335380Y-65497428D02*
X186335380Y-64878380D01*
X186716333Y-65211714D01*
X186716333Y-65068857D01*
X186763952Y-64973619D01*
X186811571Y-64926000D01*
X186906809Y-64878380D01*
X187144904Y-64878380D01*
X187240142Y-64926000D01*
X187287761Y-64973619D01*
X187335380Y-65068857D01*
X187335380Y-65354571D01*
X187287761Y-65449809D01*
X187240142Y-65497428D01*
X187240142Y-64449809D02*
X187287761Y-64402190D01*
X187335380Y-64449809D01*
X187287761Y-64497428D01*
X187240142Y-64449809D01*
X187335380Y-64449809D01*
X186335380Y-64068857D02*
X186335380Y-63449809D01*
X186716333Y-63783142D01*
X186716333Y-63640285D01*
X186763952Y-63545047D01*
X186811571Y-63497428D01*
X186906809Y-63449809D01*
X187144904Y-63449809D01*
X187240142Y-63497428D01*
X187287761Y-63545047D01*
X187335380Y-63640285D01*
X187335380Y-63926000D01*
X187287761Y-64021238D01*
X187240142Y-64068857D01*
X186335380Y-63164095D02*
X187335380Y-62830761D01*
X186335380Y-62497428D01*
X187430619Y-62402190D02*
X187430619Y-61640285D01*
X187287761Y-61449809D02*
X187335380Y-61306952D01*
X187335380Y-61068857D01*
X187287761Y-60973619D01*
X187240142Y-60926000D01*
X187144904Y-60878380D01*
X187049666Y-60878380D01*
X186954428Y-60926000D01*
X186906809Y-60973619D01*
X186859190Y-61068857D01*
X186811571Y-61259333D01*
X186763952Y-61354571D01*
X186716333Y-61402190D01*
X186621095Y-61449809D01*
X186525857Y-61449809D01*
X186430619Y-61402190D01*
X186383000Y-61354571D01*
X186335380Y-61259333D01*
X186335380Y-61021238D01*
X186383000Y-60878380D01*
X186811571Y-60449809D02*
X186811571Y-60116476D01*
X187335380Y-59973619D02*
X187335380Y-60449809D01*
X186335380Y-60449809D01*
X186335380Y-59973619D01*
X187335380Y-59068857D02*
X187335380Y-59545047D01*
X186335380Y-59545047D01*
X91750952Y-71318380D02*
X91750952Y-70318380D01*
X92084285Y-71032666D01*
X92417619Y-70318380D01*
X92417619Y-71318380D01*
X92893809Y-71318380D02*
X92893809Y-70318380D01*
X93370000Y-71318380D02*
X93370000Y-70318380D01*
X93608095Y-70318380D01*
X93750952Y-70366000D01*
X93846190Y-70461238D01*
X93893809Y-70556476D01*
X93941428Y-70746952D01*
X93941428Y-70889809D01*
X93893809Y-71080285D01*
X93846190Y-71175523D01*
X93750952Y-71270761D01*
X93608095Y-71318380D01*
X93370000Y-71318380D01*
X94370000Y-71318380D02*
X94370000Y-70318380D01*
X94608095Y-71413619D02*
X95370000Y-71413619D01*
X95465238Y-70318380D02*
X96036666Y-70318380D01*
X95750952Y-71318380D02*
X95750952Y-70318380D01*
X96370000Y-71318380D02*
X96370000Y-70318380D01*
X96370000Y-70794571D02*
X96941428Y-70794571D01*
X96941428Y-71318380D02*
X96941428Y-70318380D01*
X97989047Y-71318380D02*
X97655714Y-70842190D01*
X97417619Y-71318380D02*
X97417619Y-70318380D01*
X97798571Y-70318380D01*
X97893809Y-70366000D01*
X97941428Y-70413619D01*
X97989047Y-70508857D01*
X97989047Y-70651714D01*
X97941428Y-70746952D01*
X97893809Y-70794571D01*
X97798571Y-70842190D01*
X97417619Y-70842190D01*
X98417619Y-70318380D02*
X98417619Y-71127904D01*
X98465238Y-71223142D01*
X98512857Y-71270761D01*
X98608095Y-71318380D01*
X98798571Y-71318380D01*
X98893809Y-71270761D01*
X98941428Y-71223142D01*
X98989047Y-71127904D01*
X98989047Y-70318380D01*
X118317619Y-71318380D02*
X118317619Y-70318380D01*
X118650952Y-71032666D01*
X118984285Y-70318380D01*
X118984285Y-71318380D01*
X119460476Y-71318380D02*
X119460476Y-70318380D01*
X119936666Y-71318380D02*
X119936666Y-70318380D01*
X120174761Y-70318380D01*
X120317619Y-70366000D01*
X120412857Y-70461238D01*
X120460476Y-70556476D01*
X120508095Y-70746952D01*
X120508095Y-70889809D01*
X120460476Y-71080285D01*
X120412857Y-71175523D01*
X120317619Y-71270761D01*
X120174761Y-71318380D01*
X119936666Y-71318380D01*
X120936666Y-71318380D02*
X120936666Y-70318380D01*
X121174761Y-71413619D02*
X121936666Y-71413619D01*
X122174761Y-71318380D02*
X122174761Y-70318380D01*
X122650952Y-71318380D02*
X122650952Y-70318380D01*
X123222380Y-71318380D01*
X123222380Y-70318380D01*
X228290666Y-65968571D02*
X228433523Y-66016190D01*
X228481142Y-66063809D01*
X228528761Y-66159047D01*
X228528761Y-66301904D01*
X228481142Y-66397142D01*
X228433523Y-66444761D01*
X228338285Y-66492380D01*
X227957333Y-66492380D01*
X227957333Y-65492380D01*
X228290666Y-65492380D01*
X228385904Y-65540000D01*
X228433523Y-65587619D01*
X228481142Y-65682857D01*
X228481142Y-65778095D01*
X228433523Y-65873333D01*
X228385904Y-65920952D01*
X228290666Y-65968571D01*
X227957333Y-65968571D01*
X229147809Y-65492380D02*
X229338285Y-65492380D01*
X229433523Y-65540000D01*
X229528761Y-65635238D01*
X229576380Y-65825714D01*
X229576380Y-66159047D01*
X229528761Y-66349523D01*
X229433523Y-66444761D01*
X229338285Y-66492380D01*
X229147809Y-66492380D01*
X229052571Y-66444761D01*
X228957333Y-66349523D01*
X228909714Y-66159047D01*
X228909714Y-65825714D01*
X228957333Y-65635238D01*
X229052571Y-65540000D01*
X229147809Y-65492380D01*
X230195428Y-65492380D02*
X230385904Y-65492380D01*
X230481142Y-65540000D01*
X230576380Y-65635238D01*
X230624000Y-65825714D01*
X230624000Y-66159047D01*
X230576380Y-66349523D01*
X230481142Y-66444761D01*
X230385904Y-66492380D01*
X230195428Y-66492380D01*
X230100190Y-66444761D01*
X230004952Y-66349523D01*
X229957333Y-66159047D01*
X229957333Y-65825714D01*
X230004952Y-65635238D01*
X230100190Y-65540000D01*
X230195428Y-65492380D01*
X230909714Y-65492380D02*
X231481142Y-65492380D01*
X231195428Y-66492380D02*
X231195428Y-65492380D01*
X232004952Y-65492380D02*
X232100190Y-65492380D01*
X232195428Y-65540000D01*
X232243047Y-65587619D01*
X232290666Y-65682857D01*
X232338285Y-65873333D01*
X232338285Y-66111428D01*
X232290666Y-66301904D01*
X232243047Y-66397142D01*
X232195428Y-66444761D01*
X232100190Y-66492380D01*
X232004952Y-66492380D01*
X231909714Y-66444761D01*
X231862095Y-66397142D01*
X231814476Y-66301904D01*
X231766857Y-66111428D01*
X231766857Y-65873333D01*
X231814476Y-65682857D01*
X231862095Y-65587619D01*
X231909714Y-65540000D01*
X232004952Y-65492380D01*
X159014428Y-65926000D02*
X159014428Y-65164095D01*
X159395380Y-65545047D02*
X158633476Y-65545047D01*
X158395380Y-64211714D02*
X158395380Y-64687904D01*
X158871571Y-64735523D01*
X158823952Y-64687904D01*
X158776333Y-64592666D01*
X158776333Y-64354571D01*
X158823952Y-64259333D01*
X158871571Y-64211714D01*
X158966809Y-64164095D01*
X159204904Y-64164095D01*
X159300142Y-64211714D01*
X159347761Y-64259333D01*
X159395380Y-64354571D01*
X159395380Y-64592666D01*
X159347761Y-64687904D01*
X159300142Y-64735523D01*
X158395380Y-63878380D02*
X159395380Y-63545047D01*
X158395380Y-63211714D01*
X159490619Y-63116476D02*
X159490619Y-62354571D01*
X159347761Y-62164095D02*
X159395380Y-62021238D01*
X159395380Y-61783142D01*
X159347761Y-61687904D01*
X159300142Y-61640285D01*
X159204904Y-61592666D01*
X159109666Y-61592666D01*
X159014428Y-61640285D01*
X158966809Y-61687904D01*
X158919190Y-61783142D01*
X158871571Y-61973619D01*
X158823952Y-62068857D01*
X158776333Y-62116476D01*
X158681095Y-62164095D01*
X158585857Y-62164095D01*
X158490619Y-62116476D01*
X158443000Y-62068857D01*
X158395380Y-61973619D01*
X158395380Y-61735523D01*
X158443000Y-61592666D01*
X158871571Y-61164095D02*
X158871571Y-60830761D01*
X159395380Y-60687904D02*
X159395380Y-61164095D01*
X158395380Y-61164095D01*
X158395380Y-60687904D01*
X159395380Y-59783142D02*
X159395380Y-60259333D01*
X158395380Y-60259333D01*
D11*
X60790714Y-114343571D02*
X60790714Y-112843571D01*
X60790714Y-113557857D02*
X61647857Y-113557857D01*
X61647857Y-114343571D02*
X61647857Y-112843571D01*
X62647857Y-112843571D02*
X62933571Y-112843571D01*
X63076428Y-112915000D01*
X63219285Y-113057857D01*
X63290714Y-113343571D01*
X63290714Y-113843571D01*
X63219285Y-114129285D01*
X63076428Y-114272142D01*
X62933571Y-114343571D01*
X62647857Y-114343571D01*
X62505000Y-114272142D01*
X62362142Y-114129285D01*
X62290714Y-113843571D01*
X62290714Y-113343571D01*
X62362142Y-113057857D01*
X62505000Y-112915000D01*
X62647857Y-112843571D01*
X63862142Y-113915000D02*
X64576428Y-113915000D01*
X63719285Y-114343571D02*
X64219285Y-112843571D01*
X64719285Y-114343571D01*
X65005000Y-112843571D02*
X65862142Y-112843571D01*
X65433571Y-114343571D02*
X65433571Y-112843571D01*
X66219285Y-112843571D02*
X67219285Y-112843571D01*
X66219285Y-114343571D01*
X67219285Y-114343571D01*
X67790714Y-114343571D02*
X67790714Y-112843571D01*
X68505000Y-114343571D02*
X68505000Y-112843571D01*
X69362142Y-114343571D01*
X69362142Y-112843571D01*
X71076428Y-113343571D02*
X71433571Y-114343571D01*
X71790714Y-113343571D01*
X73147857Y-114343571D02*
X72290714Y-114343571D01*
X72719285Y-114343571D02*
X72719285Y-112843571D01*
X72576428Y-113057857D01*
X72433571Y-113200714D01*
X72290714Y-113272142D01*
X73790714Y-114200714D02*
X73862142Y-114272142D01*
X73790714Y-114343571D01*
X73719285Y-114272142D01*
X73790714Y-114200714D01*
X73790714Y-114343571D01*
X74790714Y-112843571D02*
X74933571Y-112843571D01*
X75076428Y-112915000D01*
X75147857Y-112986428D01*
X75219285Y-113129285D01*
X75290714Y-113415000D01*
X75290714Y-113772142D01*
X75219285Y-114057857D01*
X75147857Y-114200714D01*
X75076428Y-114272142D01*
X74933571Y-114343571D01*
X74790714Y-114343571D01*
X74647857Y-114272142D01*
X74576428Y-114200714D01*
X74505000Y-114057857D01*
X74433571Y-113772142D01*
X74433571Y-113415000D01*
X74505000Y-113129285D01*
X74576428Y-112986428D01*
X74647857Y-112915000D01*
X74790714Y-112843571D01*
X77933571Y-114343571D02*
X77433571Y-113629285D01*
X77076428Y-114343571D02*
X77076428Y-112843571D01*
X77647857Y-112843571D01*
X77790714Y-112915000D01*
X77862142Y-112986428D01*
X77933571Y-113129285D01*
X77933571Y-113343571D01*
X77862142Y-113486428D01*
X77790714Y-113557857D01*
X77647857Y-113629285D01*
X77076428Y-113629285D01*
X79147857Y-114272142D02*
X79005000Y-114343571D01*
X78719285Y-114343571D01*
X78576428Y-114272142D01*
X78505000Y-114129285D01*
X78505000Y-113557857D01*
X78576428Y-113415000D01*
X78719285Y-113343571D01*
X79005000Y-113343571D01*
X79147857Y-113415000D01*
X79219285Y-113557857D01*
X79219285Y-113700714D01*
X78505000Y-113843571D01*
X79719285Y-113343571D02*
X80076428Y-114343571D01*
X80433571Y-113343571D01*
X82076428Y-113915000D02*
X82790714Y-113915000D01*
X81933571Y-114343571D02*
X82433571Y-112843571D01*
X82933571Y-114343571D01*
D10*
X247975619Y-78684380D02*
X247642285Y-78208190D01*
X247404190Y-78684380D02*
X247404190Y-77684380D01*
X247785142Y-77684380D01*
X247880380Y-77732000D01*
X247928000Y-77779619D01*
X247975619Y-77874857D01*
X247975619Y-78017714D01*
X247928000Y-78112952D01*
X247880380Y-78160571D01*
X247785142Y-78208190D01*
X247404190Y-78208190D01*
X248404190Y-78160571D02*
X248737523Y-78160571D01*
X248880380Y-78684380D02*
X248404190Y-78684380D01*
X248404190Y-77684380D01*
X248880380Y-77684380D01*
X249261333Y-78636761D02*
X249404190Y-78684380D01*
X249642285Y-78684380D01*
X249737523Y-78636761D01*
X249785142Y-78589142D01*
X249832761Y-78493904D01*
X249832761Y-78398666D01*
X249785142Y-78303428D01*
X249737523Y-78255809D01*
X249642285Y-78208190D01*
X249451809Y-78160571D01*
X249356571Y-78112952D01*
X249308952Y-78065333D01*
X249261333Y-77970095D01*
X249261333Y-77874857D01*
X249308952Y-77779619D01*
X249356571Y-77732000D01*
X249451809Y-77684380D01*
X249689904Y-77684380D01*
X249832761Y-77732000D01*
X250261333Y-78160571D02*
X250594666Y-78160571D01*
X250737523Y-78684380D02*
X250261333Y-78684380D01*
X250261333Y-77684380D01*
X250737523Y-77684380D01*
X251023238Y-77684380D02*
X251594666Y-77684380D01*
X251308952Y-78684380D02*
X251308952Y-77684380D01*
X192428761Y-62825142D02*
X192476380Y-62682285D01*
X192476380Y-62444190D01*
X192428761Y-62348952D01*
X192381142Y-62301333D01*
X192285904Y-62253714D01*
X192190666Y-62253714D01*
X192095428Y-62301333D01*
X192047809Y-62348952D01*
X192000190Y-62444190D01*
X191952571Y-62634666D01*
X191904952Y-62729904D01*
X191857333Y-62777523D01*
X191762095Y-62825142D01*
X191666857Y-62825142D01*
X191571619Y-62777523D01*
X191524000Y-62729904D01*
X191476380Y-62634666D01*
X191476380Y-62396571D01*
X191524000Y-62253714D01*
X191476380Y-61920380D02*
X192476380Y-61682285D01*
X191762095Y-61491809D01*
X192476380Y-61301333D01*
X191476380Y-61063238D01*
X192476380Y-60682285D02*
X191476380Y-60682285D01*
X191476380Y-60444190D01*
X191524000Y-60301333D01*
X191619238Y-60206095D01*
X191714476Y-60158476D01*
X191904952Y-60110857D01*
X192047809Y-60110857D01*
X192238285Y-60158476D01*
X192333523Y-60206095D01*
X192428761Y-60301333D01*
X192476380Y-60444190D01*
X192476380Y-60682285D01*
X141613095Y-67397380D02*
X141613095Y-68206904D01*
X141660714Y-68302142D01*
X141708333Y-68349761D01*
X141803571Y-68397380D01*
X141994047Y-68397380D01*
X142089285Y-68349761D01*
X142136904Y-68302142D01*
X142184523Y-68206904D01*
X142184523Y-67397380D01*
X142613095Y-68349761D02*
X142755952Y-68397380D01*
X142994047Y-68397380D01*
X143089285Y-68349761D01*
X143136904Y-68302142D01*
X143184523Y-68206904D01*
X143184523Y-68111666D01*
X143136904Y-68016428D01*
X143089285Y-67968809D01*
X142994047Y-67921190D01*
X142803571Y-67873571D01*
X142708333Y-67825952D01*
X142660714Y-67778333D01*
X142613095Y-67683095D01*
X142613095Y-67587857D01*
X142660714Y-67492619D01*
X142708333Y-67445000D01*
X142803571Y-67397380D01*
X143041666Y-67397380D01*
X143184523Y-67445000D01*
X143946428Y-67873571D02*
X144089285Y-67921190D01*
X144136904Y-67968809D01*
X144184523Y-68064047D01*
X144184523Y-68206904D01*
X144136904Y-68302142D01*
X144089285Y-68349761D01*
X143994047Y-68397380D01*
X143613095Y-68397380D01*
X143613095Y-67397380D01*
X143946428Y-67397380D01*
X144041666Y-67445000D01*
X144089285Y-67492619D01*
X144136904Y-67587857D01*
X144136904Y-67683095D01*
X144089285Y-67778333D01*
X144041666Y-67825952D01*
X143946428Y-67873571D01*
X143613095Y-67873571D01*
X152918809Y-55742571D02*
X153252142Y-55742571D01*
X153395000Y-56266380D02*
X152918809Y-56266380D01*
X152918809Y-55266380D01*
X153395000Y-55266380D01*
X153728333Y-55266380D02*
X154395000Y-56266380D01*
X154395000Y-55266380D02*
X153728333Y-56266380D01*
X154633095Y-55266380D02*
X155204523Y-55266380D01*
X154918809Y-56266380D02*
X154918809Y-55266380D01*
X155299761Y-56361619D02*
X156061666Y-56361619D01*
X156299761Y-55885428D02*
X157061666Y-55885428D01*
X156680714Y-56266380D02*
X156680714Y-55504476D01*
X158014047Y-55266380D02*
X157537857Y-55266380D01*
X157490238Y-55742571D01*
X157537857Y-55694952D01*
X157633095Y-55647333D01*
X157871190Y-55647333D01*
X157966428Y-55694952D01*
X158014047Y-55742571D01*
X158061666Y-55837809D01*
X158061666Y-56075904D01*
X158014047Y-56171142D01*
X157966428Y-56218761D01*
X157871190Y-56266380D01*
X157633095Y-56266380D01*
X157537857Y-56218761D01*
X157490238Y-56171142D01*
X158347380Y-55266380D02*
X158680714Y-56266380D01*
X159014047Y-55266380D01*
%TO.C,R3*%
X84923333Y-86557380D02*
X84590000Y-86081190D01*
X84351904Y-86557380D02*
X84351904Y-85557380D01*
X84732857Y-85557380D01*
X84828095Y-85605000D01*
X84875714Y-85652619D01*
X84923333Y-85747857D01*
X84923333Y-85890714D01*
X84875714Y-85985952D01*
X84828095Y-86033571D01*
X84732857Y-86081190D01*
X84351904Y-86081190D01*
X85256666Y-85557380D02*
X85875714Y-85557380D01*
X85542380Y-85938333D01*
X85685238Y-85938333D01*
X85780476Y-85985952D01*
X85828095Y-86033571D01*
X85875714Y-86128809D01*
X85875714Y-86366904D01*
X85828095Y-86462142D01*
X85780476Y-86509761D01*
X85685238Y-86557380D01*
X85399523Y-86557380D01*
X85304285Y-86509761D01*
X85256666Y-86462142D01*
%TO.C,J6*%
X145112691Y-67263462D02*
X145112691Y-67977759D01*
X145065071Y-68120618D01*
X144969831Y-68215858D01*
X144826972Y-68263478D01*
X144731732Y-68263478D01*
X146017467Y-67263462D02*
X145826988Y-67263462D01*
X145731748Y-67311082D01*
X145684129Y-67358701D01*
X145588889Y-67501561D01*
X145541269Y-67692040D01*
X145541269Y-68072998D01*
X145588889Y-68168238D01*
X145636509Y-68215858D01*
X145731748Y-68263478D01*
X145922228Y-68263478D01*
X146017467Y-68215858D01*
X146065087Y-68168238D01*
X146112707Y-68072998D01*
X146112707Y-67834899D01*
X146065087Y-67739660D01*
X146017467Y-67692040D01*
X145922228Y-67644420D01*
X145731748Y-67644420D01*
X145636509Y-67692040D01*
X145588889Y-67739660D01*
X145541269Y-67834899D01*
%TO.C,C9*%
X239228333Y-72747142D02*
X239180714Y-72794761D01*
X239037857Y-72842380D01*
X238942619Y-72842380D01*
X238799761Y-72794761D01*
X238704523Y-72699523D01*
X238656904Y-72604285D01*
X238609285Y-72413809D01*
X238609285Y-72270952D01*
X238656904Y-72080476D01*
X238704523Y-71985238D01*
X238799761Y-71890000D01*
X238942619Y-71842380D01*
X239037857Y-71842380D01*
X239180714Y-71890000D01*
X239228333Y-71937619D01*
X239704523Y-72842380D02*
X239895000Y-72842380D01*
X239990238Y-72794761D01*
X240037857Y-72747142D01*
X240133095Y-72604285D01*
X240180714Y-72413809D01*
X240180714Y-72032857D01*
X240133095Y-71937619D01*
X240085476Y-71890000D01*
X239990238Y-71842380D01*
X239799761Y-71842380D01*
X239704523Y-71890000D01*
X239656904Y-71937619D01*
X239609285Y-72032857D01*
X239609285Y-72270952D01*
X239656904Y-72366190D01*
X239704523Y-72413809D01*
X239799761Y-72461428D01*
X239990238Y-72461428D01*
X240085476Y-72413809D01*
X240133095Y-72366190D01*
X240180714Y-72270952D01*
%TO.C,J11*%
X183787476Y-67204380D02*
X183787476Y-67918666D01*
X183739857Y-68061523D01*
X183644619Y-68156761D01*
X183501761Y-68204380D01*
X183406523Y-68204380D01*
X184787476Y-68204380D02*
X184216047Y-68204380D01*
X184501761Y-68204380D02*
X184501761Y-67204380D01*
X184406523Y-67347238D01*
X184311285Y-67442476D01*
X184216047Y-67490095D01*
X185739857Y-68204380D02*
X185168428Y-68204380D01*
X185454142Y-68204380D02*
X185454142Y-67204380D01*
X185358904Y-67347238D01*
X185263666Y-67442476D01*
X185168428Y-67490095D01*
%TO.C,R15*%
X179062142Y-98242380D02*
X178728809Y-97766190D01*
X178490714Y-98242380D02*
X178490714Y-97242380D01*
X178871666Y-97242380D01*
X178966904Y-97290000D01*
X179014523Y-97337619D01*
X179062142Y-97432857D01*
X179062142Y-97575714D01*
X179014523Y-97670952D01*
X178966904Y-97718571D01*
X178871666Y-97766190D01*
X178490714Y-97766190D01*
X180014523Y-98242380D02*
X179443095Y-98242380D01*
X179728809Y-98242380D02*
X179728809Y-97242380D01*
X179633571Y-97385238D01*
X179538333Y-97480476D01*
X179443095Y-97528095D01*
X180919285Y-97242380D02*
X180443095Y-97242380D01*
X180395476Y-97718571D01*
X180443095Y-97670952D01*
X180538333Y-97623333D01*
X180776428Y-97623333D01*
X180871666Y-97670952D01*
X180919285Y-97718571D01*
X180966904Y-97813809D01*
X180966904Y-98051904D01*
X180919285Y-98147142D01*
X180871666Y-98194761D01*
X180776428Y-98242380D01*
X180538333Y-98242380D01*
X180443095Y-98194761D01*
X180395476Y-98147142D01*
%TO.C,R2*%
X113498333Y-78812380D02*
X113165000Y-78336190D01*
X112926904Y-78812380D02*
X112926904Y-77812380D01*
X113307857Y-77812380D01*
X113403095Y-77860000D01*
X113450714Y-77907619D01*
X113498333Y-78002857D01*
X113498333Y-78145714D01*
X113450714Y-78240952D01*
X113403095Y-78288571D01*
X113307857Y-78336190D01*
X112926904Y-78336190D01*
X113879285Y-77907619D02*
X113926904Y-77860000D01*
X114022142Y-77812380D01*
X114260238Y-77812380D01*
X114355476Y-77860000D01*
X114403095Y-77907619D01*
X114450714Y-78002857D01*
X114450714Y-78098095D01*
X114403095Y-78240952D01*
X113831666Y-78812380D01*
X114450714Y-78812380D01*
%TO.C,U1*%
X141478095Y-88572380D02*
X141478095Y-89381904D01*
X141525714Y-89477142D01*
X141573333Y-89524761D01*
X141668571Y-89572380D01*
X141859047Y-89572380D01*
X141954285Y-89524761D01*
X142001904Y-89477142D01*
X142049523Y-89381904D01*
X142049523Y-88572380D01*
X143049523Y-89572380D02*
X142478095Y-89572380D01*
X142763809Y-89572380D02*
X142763809Y-88572380D01*
X142668571Y-88715238D01*
X142573333Y-88810476D01*
X142478095Y-88858095D01*
%TO.C,C15*%
X180284142Y-62044857D02*
X180331761Y-62092476D01*
X180379380Y-62235333D01*
X180379380Y-62330571D01*
X180331761Y-62473428D01*
X180236523Y-62568666D01*
X180141285Y-62616285D01*
X179950809Y-62663904D01*
X179807952Y-62663904D01*
X179617476Y-62616285D01*
X179522238Y-62568666D01*
X179427000Y-62473428D01*
X179379380Y-62330571D01*
X179379380Y-62235333D01*
X179427000Y-62092476D01*
X179474619Y-62044857D01*
X180379380Y-61092476D02*
X180379380Y-61663904D01*
X180379380Y-61378190D02*
X179379380Y-61378190D01*
X179522238Y-61473428D01*
X179617476Y-61568666D01*
X179665095Y-61663904D01*
X179379380Y-60187714D02*
X179379380Y-60663904D01*
X179855571Y-60711523D01*
X179807952Y-60663904D01*
X179760333Y-60568666D01*
X179760333Y-60330571D01*
X179807952Y-60235333D01*
X179855571Y-60187714D01*
X179950809Y-60140095D01*
X180188904Y-60140095D01*
X180284142Y-60187714D01*
X180331761Y-60235333D01*
X180379380Y-60330571D01*
X180379380Y-60568666D01*
X180331761Y-60663904D01*
X180284142Y-60711523D01*
%TO.C,R6*%
X70937380Y-78549166D02*
X70461190Y-78882500D01*
X70937380Y-79120595D02*
X69937380Y-79120595D01*
X69937380Y-78739642D01*
X69985000Y-78644404D01*
X70032619Y-78596785D01*
X70127857Y-78549166D01*
X70270714Y-78549166D01*
X70365952Y-78596785D01*
X70413571Y-78644404D01*
X70461190Y-78739642D01*
X70461190Y-79120595D01*
X69937380Y-77692023D02*
X69937380Y-77882500D01*
X69985000Y-77977738D01*
X70032619Y-78025357D01*
X70175476Y-78120595D01*
X70365952Y-78168214D01*
X70746904Y-78168214D01*
X70842142Y-78120595D01*
X70889761Y-78072976D01*
X70937380Y-77977738D01*
X70937380Y-77787261D01*
X70889761Y-77692023D01*
X70842142Y-77644404D01*
X70746904Y-77596785D01*
X70508809Y-77596785D01*
X70413571Y-77644404D01*
X70365952Y-77692023D01*
X70318333Y-77787261D01*
X70318333Y-77977738D01*
X70365952Y-78072976D01*
X70413571Y-78120595D01*
X70508809Y-78168214D01*
%TO.C,C8*%
X234783333Y-112527142D02*
X234735714Y-112574761D01*
X234592857Y-112622380D01*
X234497619Y-112622380D01*
X234354761Y-112574761D01*
X234259523Y-112479523D01*
X234211904Y-112384285D01*
X234164285Y-112193809D01*
X234164285Y-112050952D01*
X234211904Y-111860476D01*
X234259523Y-111765238D01*
X234354761Y-111670000D01*
X234497619Y-111622380D01*
X234592857Y-111622380D01*
X234735714Y-111670000D01*
X234783333Y-111717619D01*
X235354761Y-112050952D02*
X235259523Y-112003333D01*
X235211904Y-111955714D01*
X235164285Y-111860476D01*
X235164285Y-111812857D01*
X235211904Y-111717619D01*
X235259523Y-111670000D01*
X235354761Y-111622380D01*
X235545238Y-111622380D01*
X235640476Y-111670000D01*
X235688095Y-111717619D01*
X235735714Y-111812857D01*
X235735714Y-111860476D01*
X235688095Y-111955714D01*
X235640476Y-112003333D01*
X235545238Y-112050952D01*
X235354761Y-112050952D01*
X235259523Y-112098571D01*
X235211904Y-112146190D01*
X235164285Y-112241428D01*
X235164285Y-112431904D01*
X235211904Y-112527142D01*
X235259523Y-112574761D01*
X235354761Y-112622380D01*
X235545238Y-112622380D01*
X235640476Y-112574761D01*
X235688095Y-112527142D01*
X235735714Y-112431904D01*
X235735714Y-112241428D01*
X235688095Y-112146190D01*
X235640476Y-112098571D01*
X235545238Y-112050952D01*
%TO.C,H3*%
X39878095Y-104072380D02*
X39878095Y-103072380D01*
X39878095Y-103548571D02*
X40449523Y-103548571D01*
X40449523Y-104072380D02*
X40449523Y-103072380D01*
X40830476Y-103072380D02*
X41449523Y-103072380D01*
X41116190Y-103453333D01*
X41259047Y-103453333D01*
X41354285Y-103500952D01*
X41401904Y-103548571D01*
X41449523Y-103643809D01*
X41449523Y-103881904D01*
X41401904Y-103977142D01*
X41354285Y-104024761D01*
X41259047Y-104072380D01*
X40973333Y-104072380D01*
X40878095Y-104024761D01*
X40830476Y-103977142D01*
%TO.C,J7*%
X226532380Y-61810833D02*
X227246666Y-61810833D01*
X227389523Y-61858452D01*
X227484761Y-61953690D01*
X227532380Y-62096547D01*
X227532380Y-62191785D01*
X226532380Y-61429880D02*
X226532380Y-60763214D01*
X227532380Y-61191785D01*
%TO.C,C11*%
X175654142Y-70934857D02*
X175701761Y-70982476D01*
X175749380Y-71125333D01*
X175749380Y-71220571D01*
X175701761Y-71363428D01*
X175606523Y-71458666D01*
X175511285Y-71506285D01*
X175320809Y-71553904D01*
X175177952Y-71553904D01*
X174987476Y-71506285D01*
X174892238Y-71458666D01*
X174797000Y-71363428D01*
X174749380Y-71220571D01*
X174749380Y-71125333D01*
X174797000Y-70982476D01*
X174844619Y-70934857D01*
X175749380Y-69982476D02*
X175749380Y-70553904D01*
X175749380Y-70268190D02*
X174749380Y-70268190D01*
X174892238Y-70363428D01*
X174987476Y-70458666D01*
X175035095Y-70553904D01*
X175749380Y-69030095D02*
X175749380Y-69601523D01*
X175749380Y-69315809D02*
X174749380Y-69315809D01*
X174892238Y-69411047D01*
X174987476Y-69506285D01*
X175035095Y-69601523D01*
%TO.C,e1*%
X132199761Y-96705712D02*
X132247380Y-96800950D01*
X132247380Y-96991426D01*
X132199761Y-97086664D01*
X132104523Y-97134283D01*
X131723571Y-97134283D01*
X131628333Y-97086664D01*
X131580714Y-96991426D01*
X131580714Y-96800950D01*
X131628333Y-96705712D01*
X131723571Y-96658093D01*
X131818809Y-96658093D01*
X131914047Y-97134283D01*
X132247380Y-95705712D02*
X132247380Y-96277140D01*
X132247380Y-95991426D02*
X131247380Y-95991426D01*
X131390238Y-96086664D01*
X131485476Y-96181902D01*
X131533095Y-96277140D01*
%TO.C,C12*%
X166764142Y-62044857D02*
X166811761Y-62092476D01*
X166859380Y-62235333D01*
X166859380Y-62330571D01*
X166811761Y-62473428D01*
X166716523Y-62568666D01*
X166621285Y-62616285D01*
X166430809Y-62663904D01*
X166287952Y-62663904D01*
X166097476Y-62616285D01*
X166002238Y-62568666D01*
X165907000Y-62473428D01*
X165859380Y-62330571D01*
X165859380Y-62235333D01*
X165907000Y-62092476D01*
X165954619Y-62044857D01*
X166859380Y-61092476D02*
X166859380Y-61663904D01*
X166859380Y-61378190D02*
X165859380Y-61378190D01*
X166002238Y-61473428D01*
X166097476Y-61568666D01*
X166145095Y-61663904D01*
X165954619Y-60711523D02*
X165907000Y-60663904D01*
X165859380Y-60568666D01*
X165859380Y-60330571D01*
X165907000Y-60235333D01*
X165954619Y-60187714D01*
X166049857Y-60140095D01*
X166145095Y-60140095D01*
X166287952Y-60187714D01*
X166859380Y-60759142D01*
X166859380Y-60140095D01*
%TO.C,C13*%
X170124142Y-66174857D02*
X170171761Y-66222476D01*
X170219380Y-66365333D01*
X170219380Y-66460571D01*
X170171761Y-66603428D01*
X170076523Y-66698666D01*
X169981285Y-66746285D01*
X169790809Y-66793904D01*
X169647952Y-66793904D01*
X169457476Y-66746285D01*
X169362238Y-66698666D01*
X169267000Y-66603428D01*
X169219380Y-66460571D01*
X169219380Y-66365333D01*
X169267000Y-66222476D01*
X169314619Y-66174857D01*
X170219380Y-65222476D02*
X170219380Y-65793904D01*
X170219380Y-65508190D02*
X169219380Y-65508190D01*
X169362238Y-65603428D01*
X169457476Y-65698666D01*
X169505095Y-65793904D01*
X169219380Y-64889142D02*
X169219380Y-64270095D01*
X169600333Y-64603428D01*
X169600333Y-64460571D01*
X169647952Y-64365333D01*
X169695571Y-64317714D01*
X169790809Y-64270095D01*
X170028904Y-64270095D01*
X170124142Y-64317714D01*
X170171761Y-64365333D01*
X170219380Y-64460571D01*
X170219380Y-64746285D01*
X170171761Y-64841523D01*
X170124142Y-64889142D01*
D12*
%TO.C,J4*%
X78436666Y-70678523D02*
X78436666Y-71585666D01*
X78376190Y-71767095D01*
X78255238Y-71888047D01*
X78073809Y-71948523D01*
X77952857Y-71948523D01*
X79585714Y-71101857D02*
X79585714Y-71948523D01*
X79283333Y-70618047D02*
X78980952Y-71525190D01*
X79767142Y-71525190D01*
D10*
%TO.C,C10*%
X179464142Y-70934857D02*
X179511761Y-70982476D01*
X179559380Y-71125333D01*
X179559380Y-71220571D01*
X179511761Y-71363428D01*
X179416523Y-71458666D01*
X179321285Y-71506285D01*
X179130809Y-71553904D01*
X178987952Y-71553904D01*
X178797476Y-71506285D01*
X178702238Y-71458666D01*
X178607000Y-71363428D01*
X178559380Y-71220571D01*
X178559380Y-71125333D01*
X178607000Y-70982476D01*
X178654619Y-70934857D01*
X179559380Y-69982476D02*
X179559380Y-70553904D01*
X179559380Y-70268190D02*
X178559380Y-70268190D01*
X178702238Y-70363428D01*
X178797476Y-70458666D01*
X178845095Y-70553904D01*
X178559380Y-69363428D02*
X178559380Y-69268190D01*
X178607000Y-69172952D01*
X178654619Y-69125333D01*
X178749857Y-69077714D01*
X178940333Y-69030095D01*
X179178428Y-69030095D01*
X179368904Y-69077714D01*
X179464142Y-69125333D01*
X179511761Y-69172952D01*
X179559380Y-69268190D01*
X179559380Y-69363428D01*
X179511761Y-69458666D01*
X179464142Y-69506285D01*
X179368904Y-69553904D01*
X179178428Y-69601523D01*
X178940333Y-69601523D01*
X178749857Y-69553904D01*
X178654619Y-69506285D01*
X178607000Y-69458666D01*
X178559380Y-69363428D01*
%TO.C,R5*%
X89607380Y-73826666D02*
X89131190Y-74160000D01*
X89607380Y-74398095D02*
X88607380Y-74398095D01*
X88607380Y-74017142D01*
X88655000Y-73921904D01*
X88702619Y-73874285D01*
X88797857Y-73826666D01*
X88940714Y-73826666D01*
X89035952Y-73874285D01*
X89083571Y-73921904D01*
X89131190Y-74017142D01*
X89131190Y-74398095D01*
X88607380Y-72921904D02*
X88607380Y-73398095D01*
X89083571Y-73445714D01*
X89035952Y-73398095D01*
X88988333Y-73302857D01*
X88988333Y-73064761D01*
X89035952Y-72969523D01*
X89083571Y-72921904D01*
X89178809Y-72874285D01*
X89416904Y-72874285D01*
X89512142Y-72921904D01*
X89559761Y-72969523D01*
X89607380Y-73064761D01*
X89607380Y-73302857D01*
X89559761Y-73398095D01*
X89512142Y-73445714D01*
%TO.C,J16*%
X248640476Y-70332380D02*
X248640476Y-71046666D01*
X248592857Y-71189523D01*
X248497619Y-71284761D01*
X248354761Y-71332380D01*
X248259523Y-71332380D01*
X249640476Y-71332380D02*
X249069047Y-71332380D01*
X249354761Y-71332380D02*
X249354761Y-70332380D01*
X249259523Y-70475238D01*
X249164285Y-70570476D01*
X249069047Y-70618095D01*
X250497619Y-70332380D02*
X250307142Y-70332380D01*
X250211904Y-70380000D01*
X250164285Y-70427619D01*
X250069047Y-70570476D01*
X250021428Y-70760952D01*
X250021428Y-71141904D01*
X250069047Y-71237142D01*
X250116666Y-71284761D01*
X250211904Y-71332380D01*
X250402380Y-71332380D01*
X250497619Y-71284761D01*
X250545238Y-71237142D01*
X250592857Y-71141904D01*
X250592857Y-70903809D01*
X250545238Y-70808571D01*
X250497619Y-70760952D01*
X250402380Y-70713333D01*
X250211904Y-70713333D01*
X250116666Y-70760952D01*
X250069047Y-70808571D01*
X250021428Y-70903809D01*
%TO.C,D2*%
X162268904Y-63704380D02*
X162268904Y-62704380D01*
X162507000Y-62704380D01*
X162649857Y-62752000D01*
X162745095Y-62847238D01*
X162792714Y-62942476D01*
X162840333Y-63132952D01*
X162840333Y-63275809D01*
X162792714Y-63466285D01*
X162745095Y-63561523D01*
X162649857Y-63656761D01*
X162507000Y-63704380D01*
X162268904Y-63704380D01*
X163221285Y-62799619D02*
X163268904Y-62752000D01*
X163364142Y-62704380D01*
X163602238Y-62704380D01*
X163697476Y-62752000D01*
X163745095Y-62799619D01*
X163792714Y-62894857D01*
X163792714Y-62990095D01*
X163745095Y-63132952D01*
X163173666Y-63704380D01*
X163792714Y-63704380D01*
%TO.C,R18*%
X232482380Y-64142857D02*
X232006190Y-64476190D01*
X232482380Y-64714285D02*
X231482380Y-64714285D01*
X231482380Y-64333333D01*
X231530000Y-64238095D01*
X231577619Y-64190476D01*
X231672857Y-64142857D01*
X231815714Y-64142857D01*
X231910952Y-64190476D01*
X231958571Y-64238095D01*
X232006190Y-64333333D01*
X232006190Y-64714285D01*
X232482380Y-63190476D02*
X232482380Y-63761904D01*
X232482380Y-63476190D02*
X231482380Y-63476190D01*
X231625238Y-63571428D01*
X231720476Y-63666666D01*
X231768095Y-63761904D01*
X231910952Y-62619047D02*
X231863333Y-62714285D01*
X231815714Y-62761904D01*
X231720476Y-62809523D01*
X231672857Y-62809523D01*
X231577619Y-62761904D01*
X231530000Y-62714285D01*
X231482380Y-62619047D01*
X231482380Y-62428571D01*
X231530000Y-62333333D01*
X231577619Y-62285714D01*
X231672857Y-62238095D01*
X231720476Y-62238095D01*
X231815714Y-62285714D01*
X231863333Y-62333333D01*
X231910952Y-62428571D01*
X231910952Y-62619047D01*
X231958571Y-62714285D01*
X232006190Y-62761904D01*
X232101428Y-62809523D01*
X232291904Y-62809523D01*
X232387142Y-62761904D01*
X232434761Y-62714285D01*
X232482380Y-62619047D01*
X232482380Y-62428571D01*
X232434761Y-62333333D01*
X232387142Y-62285714D01*
X232291904Y-62238095D01*
X232101428Y-62238095D01*
X232006190Y-62285714D01*
X231958571Y-62333333D01*
X231910952Y-62428571D01*
%TO.C,H1*%
X39878095Y-58352380D02*
X39878095Y-57352380D01*
X39878095Y-57828571D02*
X40449523Y-57828571D01*
X40449523Y-58352380D02*
X40449523Y-57352380D01*
X41449523Y-58352380D02*
X40878095Y-58352380D01*
X41163809Y-58352380D02*
X41163809Y-57352380D01*
X41068571Y-57495238D01*
X40973333Y-57590476D01*
X40878095Y-57638095D01*
%TO.C,J10*%
X229060476Y-55557380D02*
X229060476Y-56271666D01*
X229012857Y-56414523D01*
X228917619Y-56509761D01*
X228774761Y-56557380D01*
X228679523Y-56557380D01*
X230060476Y-56557380D02*
X229489047Y-56557380D01*
X229774761Y-56557380D02*
X229774761Y-55557380D01*
X229679523Y-55700238D01*
X229584285Y-55795476D01*
X229489047Y-55843095D01*
X230679523Y-55557380D02*
X230774761Y-55557380D01*
X230870000Y-55605000D01*
X230917619Y-55652619D01*
X230965238Y-55747857D01*
X231012857Y-55938333D01*
X231012857Y-56176428D01*
X230965238Y-56366904D01*
X230917619Y-56462142D01*
X230870000Y-56509761D01*
X230774761Y-56557380D01*
X230679523Y-56557380D01*
X230584285Y-56509761D01*
X230536666Y-56462142D01*
X230489047Y-56366904D01*
X230441428Y-56176428D01*
X230441428Y-55938333D01*
X230489047Y-55747857D01*
X230536666Y-55652619D01*
X230584285Y-55605000D01*
X230679523Y-55557380D01*
%TO.C,U4*%
X172405095Y-60994380D02*
X172405095Y-61803904D01*
X172452714Y-61899142D01*
X172500333Y-61946761D01*
X172595571Y-61994380D01*
X172786047Y-61994380D01*
X172881285Y-61946761D01*
X172928904Y-61899142D01*
X172976523Y-61803904D01*
X172976523Y-60994380D01*
X173881285Y-61327714D02*
X173881285Y-61994380D01*
X173643190Y-60946761D02*
X173405095Y-61661047D01*
X174024142Y-61661047D01*
%TO.C,C16*%
X244197142Y-75572857D02*
X244244761Y-75620476D01*
X244292380Y-75763333D01*
X244292380Y-75858571D01*
X244244761Y-76001428D01*
X244149523Y-76096666D01*
X244054285Y-76144285D01*
X243863809Y-76191904D01*
X243720952Y-76191904D01*
X243530476Y-76144285D01*
X243435238Y-76096666D01*
X243340000Y-76001428D01*
X243292380Y-75858571D01*
X243292380Y-75763333D01*
X243340000Y-75620476D01*
X243387619Y-75572857D01*
X244292380Y-74620476D02*
X244292380Y-75191904D01*
X244292380Y-74906190D02*
X243292380Y-74906190D01*
X243435238Y-75001428D01*
X243530476Y-75096666D01*
X243578095Y-75191904D01*
X243292380Y-73763333D02*
X243292380Y-73953809D01*
X243340000Y-74049047D01*
X243387619Y-74096666D01*
X243530476Y-74191904D01*
X243720952Y-74239523D01*
X244101904Y-74239523D01*
X244197142Y-74191904D01*
X244244761Y-74144285D01*
X244292380Y-74049047D01*
X244292380Y-73858571D01*
X244244761Y-73763333D01*
X244197142Y-73715714D01*
X244101904Y-73668095D01*
X243863809Y-73668095D01*
X243768571Y-73715714D01*
X243720952Y-73763333D01*
X243673333Y-73858571D01*
X243673333Y-74049047D01*
X243720952Y-74144285D01*
X243768571Y-74191904D01*
X243863809Y-74239523D01*
%TO.C,H2*%
X243078095Y-104072380D02*
X243078095Y-103072380D01*
X243078095Y-103548571D02*
X243649523Y-103548571D01*
X243649523Y-104072380D02*
X243649523Y-103072380D01*
X244078095Y-103167619D02*
X244125714Y-103120000D01*
X244220952Y-103072380D01*
X244459047Y-103072380D01*
X244554285Y-103120000D01*
X244601904Y-103167619D01*
X244649523Y-103262857D01*
X244649523Y-103358095D01*
X244601904Y-103500952D01*
X244030476Y-104072380D01*
X244649523Y-104072380D01*
%TO.C,J14*%
X155847476Y-66994380D02*
X155847476Y-67708666D01*
X155799857Y-67851523D01*
X155704619Y-67946761D01*
X155561761Y-67994380D01*
X155466523Y-67994380D01*
X156847476Y-67994380D02*
X156276047Y-67994380D01*
X156561761Y-67994380D02*
X156561761Y-66994380D01*
X156466523Y-67137238D01*
X156371285Y-67232476D01*
X156276047Y-67280095D01*
X157704619Y-67327714D02*
X157704619Y-67994380D01*
X157466523Y-66946761D02*
X157228428Y-67661047D01*
X157847476Y-67661047D01*
%TO.C,D1*%
X123007380Y-75033095D02*
X122007380Y-75033095D01*
X122007380Y-74795000D01*
X122055000Y-74652142D01*
X122150238Y-74556904D01*
X122245476Y-74509285D01*
X122435952Y-74461666D01*
X122578809Y-74461666D01*
X122769285Y-74509285D01*
X122864523Y-74556904D01*
X122959761Y-74652142D01*
X123007380Y-74795000D01*
X123007380Y-75033095D01*
X123007380Y-73509285D02*
X123007380Y-74080714D01*
X123007380Y-73795000D02*
X122007380Y-73795000D01*
X122150238Y-73890238D01*
X122245476Y-73985476D01*
X122293095Y-74080714D01*
%TO.C,J13*%
X180449380Y-54271523D02*
X181163666Y-54271523D01*
X181306523Y-54319142D01*
X181401761Y-54414380D01*
X181449380Y-54557238D01*
X181449380Y-54652476D01*
X181449380Y-53271523D02*
X181449380Y-53842952D01*
X181449380Y-53557238D02*
X180449380Y-53557238D01*
X180592238Y-53652476D01*
X180687476Y-53747714D01*
X180735095Y-53842952D01*
X180449380Y-52938190D02*
X180449380Y-52319142D01*
X180830333Y-52652476D01*
X180830333Y-52509619D01*
X180877952Y-52414380D01*
X180925571Y-52366761D01*
X181020809Y-52319142D01*
X181258904Y-52319142D01*
X181354142Y-52366761D01*
X181401761Y-52414380D01*
X181449380Y-52509619D01*
X181449380Y-52795333D01*
X181401761Y-52890571D01*
X181354142Y-52938190D01*
%TO.C,R7*%
X95702380Y-73549166D02*
X95226190Y-73882500D01*
X95702380Y-74120595D02*
X94702380Y-74120595D01*
X94702380Y-73739642D01*
X94750000Y-73644404D01*
X94797619Y-73596785D01*
X94892857Y-73549166D01*
X95035714Y-73549166D01*
X95130952Y-73596785D01*
X95178571Y-73644404D01*
X95226190Y-73739642D01*
X95226190Y-74120595D01*
X94702380Y-73215833D02*
X94702380Y-72549166D01*
X95702380Y-72977738D01*
%TO.C,C5*%
X239228333Y-70207142D02*
X239180714Y-70254761D01*
X239037857Y-70302380D01*
X238942619Y-70302380D01*
X238799761Y-70254761D01*
X238704523Y-70159523D01*
X238656904Y-70064285D01*
X238609285Y-69873809D01*
X238609285Y-69730952D01*
X238656904Y-69540476D01*
X238704523Y-69445238D01*
X238799761Y-69350000D01*
X238942619Y-69302380D01*
X239037857Y-69302380D01*
X239180714Y-69350000D01*
X239228333Y-69397619D01*
X240133095Y-69302380D02*
X239656904Y-69302380D01*
X239609285Y-69778571D01*
X239656904Y-69730952D01*
X239752142Y-69683333D01*
X239990238Y-69683333D01*
X240085476Y-69730952D01*
X240133095Y-69778571D01*
X240180714Y-69873809D01*
X240180714Y-70111904D01*
X240133095Y-70207142D01*
X240085476Y-70254761D01*
X239990238Y-70302380D01*
X239752142Y-70302380D01*
X239656904Y-70254761D01*
X239609285Y-70207142D01*
%TO.C,R13*%
X157472142Y-105227380D02*
X157138809Y-104751190D01*
X156900714Y-105227380D02*
X156900714Y-104227380D01*
X157281666Y-104227380D01*
X157376904Y-104275000D01*
X157424523Y-104322619D01*
X157472142Y-104417857D01*
X157472142Y-104560714D01*
X157424523Y-104655952D01*
X157376904Y-104703571D01*
X157281666Y-104751190D01*
X156900714Y-104751190D01*
X158424523Y-105227380D02*
X157853095Y-105227380D01*
X158138809Y-105227380D02*
X158138809Y-104227380D01*
X158043571Y-104370238D01*
X157948333Y-104465476D01*
X157853095Y-104513095D01*
X158757857Y-104227380D02*
X159376904Y-104227380D01*
X159043571Y-104608333D01*
X159186428Y-104608333D01*
X159281666Y-104655952D01*
X159329285Y-104703571D01*
X159376904Y-104798809D01*
X159376904Y-105036904D01*
X159329285Y-105132142D01*
X159281666Y-105179761D01*
X159186428Y-105227380D01*
X158900714Y-105227380D01*
X158805476Y-105179761D01*
X158757857Y-105132142D01*
%TO.C,R1*%
X116277380Y-73469166D02*
X115801190Y-73802500D01*
X116277380Y-74040595D02*
X115277380Y-74040595D01*
X115277380Y-73659642D01*
X115325000Y-73564404D01*
X115372619Y-73516785D01*
X115467857Y-73469166D01*
X115610714Y-73469166D01*
X115705952Y-73516785D01*
X115753571Y-73564404D01*
X115801190Y-73659642D01*
X115801190Y-74040595D01*
X116277380Y-72516785D02*
X116277380Y-73088214D01*
X116277380Y-72802500D02*
X115277380Y-72802500D01*
X115420238Y-72897738D01*
X115515476Y-72992976D01*
X115563095Y-73088214D01*
%TO.C,C7*%
X49363333Y-112752142D02*
X49315714Y-112799761D01*
X49172857Y-112847380D01*
X49077619Y-112847380D01*
X48934761Y-112799761D01*
X48839523Y-112704523D01*
X48791904Y-112609285D01*
X48744285Y-112418809D01*
X48744285Y-112275952D01*
X48791904Y-112085476D01*
X48839523Y-111990238D01*
X48934761Y-111895000D01*
X49077619Y-111847380D01*
X49172857Y-111847380D01*
X49315714Y-111895000D01*
X49363333Y-111942619D01*
X49696666Y-111847380D02*
X50363333Y-111847380D01*
X49934761Y-112847380D01*
%TO.C,R10*%
X158107142Y-93162380D02*
X157773809Y-92686190D01*
X157535714Y-93162380D02*
X157535714Y-92162380D01*
X157916666Y-92162380D01*
X158011904Y-92210000D01*
X158059523Y-92257619D01*
X158107142Y-92352857D01*
X158107142Y-92495714D01*
X158059523Y-92590952D01*
X158011904Y-92638571D01*
X157916666Y-92686190D01*
X157535714Y-92686190D01*
X159059523Y-93162380D02*
X158488095Y-93162380D01*
X158773809Y-93162380D02*
X158773809Y-92162380D01*
X158678571Y-92305238D01*
X158583333Y-92400476D01*
X158488095Y-92448095D01*
X159678571Y-92162380D02*
X159773809Y-92162380D01*
X159869047Y-92210000D01*
X159916666Y-92257619D01*
X159964285Y-92352857D01*
X160011904Y-92543333D01*
X160011904Y-92781428D01*
X159964285Y-92971904D01*
X159916666Y-93067142D01*
X159869047Y-93114761D01*
X159773809Y-93162380D01*
X159678571Y-93162380D01*
X159583333Y-93114761D01*
X159535714Y-93067142D01*
X159488095Y-92971904D01*
X159440476Y-92781428D01*
X159440476Y-92543333D01*
X159488095Y-92352857D01*
X159535714Y-92257619D01*
X159583333Y-92210000D01*
X159678571Y-92162380D01*
%TO.C,H4*%
X243078095Y-58352380D02*
X243078095Y-57352380D01*
X243078095Y-57828571D02*
X243649523Y-57828571D01*
X243649523Y-58352380D02*
X243649523Y-57352380D01*
X244554285Y-57685714D02*
X244554285Y-58352380D01*
X244316190Y-57304761D02*
X244078095Y-58019047D01*
X244697142Y-58019047D01*
%TO.C,R11*%
X158107142Y-95067380D02*
X157773809Y-94591190D01*
X157535714Y-95067380D02*
X157535714Y-94067380D01*
X157916666Y-94067380D01*
X158011904Y-94115000D01*
X158059523Y-94162619D01*
X158107142Y-94257857D01*
X158107142Y-94400714D01*
X158059523Y-94495952D01*
X158011904Y-94543571D01*
X157916666Y-94591190D01*
X157535714Y-94591190D01*
X159059523Y-95067380D02*
X158488095Y-95067380D01*
X158773809Y-95067380D02*
X158773809Y-94067380D01*
X158678571Y-94210238D01*
X158583333Y-94305476D01*
X158488095Y-94353095D01*
X160011904Y-95067380D02*
X159440476Y-95067380D01*
X159726190Y-95067380D02*
X159726190Y-94067380D01*
X159630952Y-94210238D01*
X159535714Y-94305476D01*
X159440476Y-94353095D01*
%TO.C,C14*%
X176924142Y-66174857D02*
X176971761Y-66222476D01*
X177019380Y-66365333D01*
X177019380Y-66460571D01*
X176971761Y-66603428D01*
X176876523Y-66698666D01*
X176781285Y-66746285D01*
X176590809Y-66793904D01*
X176447952Y-66793904D01*
X176257476Y-66746285D01*
X176162238Y-66698666D01*
X176067000Y-66603428D01*
X176019380Y-66460571D01*
X176019380Y-66365333D01*
X176067000Y-66222476D01*
X176114619Y-66174857D01*
X177019380Y-65222476D02*
X177019380Y-65793904D01*
X177019380Y-65508190D02*
X176019380Y-65508190D01*
X176162238Y-65603428D01*
X176257476Y-65698666D01*
X176305095Y-65793904D01*
X176352714Y-64365333D02*
X177019380Y-64365333D01*
X175971761Y-64603428D02*
X176686047Y-64841523D01*
X176686047Y-64222476D01*
%TO.C,R19*%
X235782380Y-59062857D02*
X235306190Y-59396190D01*
X235782380Y-59634285D02*
X234782380Y-59634285D01*
X234782380Y-59253333D01*
X234830000Y-59158095D01*
X234877619Y-59110476D01*
X234972857Y-59062857D01*
X235115714Y-59062857D01*
X235210952Y-59110476D01*
X235258571Y-59158095D01*
X235306190Y-59253333D01*
X235306190Y-59634285D01*
X235782380Y-58110476D02*
X235782380Y-58681904D01*
X235782380Y-58396190D02*
X234782380Y-58396190D01*
X234925238Y-58491428D01*
X235020476Y-58586666D01*
X235068095Y-58681904D01*
X235782380Y-57634285D02*
X235782380Y-57443809D01*
X235734761Y-57348571D01*
X235687142Y-57300952D01*
X235544285Y-57205714D01*
X235353809Y-57158095D01*
X234972857Y-57158095D01*
X234877619Y-57205714D01*
X234830000Y-57253333D01*
X234782380Y-57348571D01*
X234782380Y-57539047D01*
X234830000Y-57634285D01*
X234877619Y-57681904D01*
X234972857Y-57729523D01*
X235210952Y-57729523D01*
X235306190Y-57681904D01*
X235353809Y-57634285D01*
X235401428Y-57539047D01*
X235401428Y-57348571D01*
X235353809Y-57253333D01*
X235306190Y-57205714D01*
X235210952Y-57158095D01*
%TO.C,FB1*%
X134268571Y-103703333D02*
X134268571Y-104036666D01*
X134792380Y-104036666D02*
X133792380Y-104036666D01*
X133792380Y-103560476D01*
X134268571Y-102846190D02*
X134316190Y-102703333D01*
X134363809Y-102655714D01*
X134459047Y-102608095D01*
X134601904Y-102608095D01*
X134697142Y-102655714D01*
X134744761Y-102703333D01*
X134792380Y-102798571D01*
X134792380Y-103179523D01*
X133792380Y-103179523D01*
X133792380Y-102846190D01*
X133840000Y-102750952D01*
X133887619Y-102703333D01*
X133982857Y-102655714D01*
X134078095Y-102655714D01*
X134173333Y-102703333D01*
X134220952Y-102750952D01*
X134268571Y-102846190D01*
X134268571Y-103179523D01*
X134792380Y-101655714D02*
X134792380Y-102227142D01*
X134792380Y-101941428D02*
X133792380Y-101941428D01*
X133935238Y-102036666D01*
X134030476Y-102131904D01*
X134078095Y-102227142D01*
%TO.C,R12*%
X157472142Y-102687380D02*
X157138809Y-102211190D01*
X156900714Y-102687380D02*
X156900714Y-101687380D01*
X157281666Y-101687380D01*
X157376904Y-101735000D01*
X157424523Y-101782619D01*
X157472142Y-101877857D01*
X157472142Y-102020714D01*
X157424523Y-102115952D01*
X157376904Y-102163571D01*
X157281666Y-102211190D01*
X156900714Y-102211190D01*
X158424523Y-102687380D02*
X157853095Y-102687380D01*
X158138809Y-102687380D02*
X158138809Y-101687380D01*
X158043571Y-101830238D01*
X157948333Y-101925476D01*
X157853095Y-101973095D01*
X158805476Y-101782619D02*
X158853095Y-101735000D01*
X158948333Y-101687380D01*
X159186428Y-101687380D01*
X159281666Y-101735000D01*
X159329285Y-101782619D01*
X159376904Y-101877857D01*
X159376904Y-101973095D01*
X159329285Y-102115952D01*
X158757857Y-102687380D01*
X159376904Y-102687380D01*
%TO.C,R4*%
X64842380Y-78549166D02*
X64366190Y-78882500D01*
X64842380Y-79120595D02*
X63842380Y-79120595D01*
X63842380Y-78739642D01*
X63890000Y-78644404D01*
X63937619Y-78596785D01*
X64032857Y-78549166D01*
X64175714Y-78549166D01*
X64270952Y-78596785D01*
X64318571Y-78644404D01*
X64366190Y-78739642D01*
X64366190Y-79120595D01*
X64175714Y-77692023D02*
X64842380Y-77692023D01*
X63794761Y-77930119D02*
X64509047Y-78168214D01*
X64509047Y-77549166D01*
%TO.C,C4*%
X49363333Y-106627142D02*
X49315714Y-106674761D01*
X49172857Y-106722380D01*
X49077619Y-106722380D01*
X48934761Y-106674761D01*
X48839523Y-106579523D01*
X48791904Y-106484285D01*
X48744285Y-106293809D01*
X48744285Y-106150952D01*
X48791904Y-105960476D01*
X48839523Y-105865238D01*
X48934761Y-105770000D01*
X49077619Y-105722380D01*
X49172857Y-105722380D01*
X49315714Y-105770000D01*
X49363333Y-105817619D01*
X50220476Y-106055714D02*
X50220476Y-106722380D01*
X49982380Y-105674761D02*
X49744285Y-106389047D01*
X50363333Y-106389047D01*
%TO.C,U3*%
X75325380Y-77469904D02*
X76134904Y-77469904D01*
X76230142Y-77422285D01*
X76277761Y-77374666D01*
X76325380Y-77279428D01*
X76325380Y-77088952D01*
X76277761Y-76993714D01*
X76230142Y-76946095D01*
X76134904Y-76898476D01*
X75325380Y-76898476D01*
X75325380Y-76517523D02*
X75325380Y-75898476D01*
X75706333Y-76231809D01*
X75706333Y-76088952D01*
X75753952Y-75993714D01*
X75801571Y-75946095D01*
X75896809Y-75898476D01*
X76134904Y-75898476D01*
X76230142Y-75946095D01*
X76277761Y-75993714D01*
X76325380Y-76088952D01*
X76325380Y-76374666D01*
X76277761Y-76469904D01*
X76230142Y-76517523D01*
D12*
%TO.C,J3*%
X129871666Y-70678523D02*
X129871666Y-71585666D01*
X129811190Y-71767095D01*
X129690238Y-71888047D01*
X129508809Y-71948523D01*
X129387857Y-71948523D01*
X130355476Y-70678523D02*
X131141666Y-70678523D01*
X130718333Y-71162333D01*
X130899761Y-71162333D01*
X131020714Y-71222809D01*
X131081190Y-71283285D01*
X131141666Y-71404238D01*
X131141666Y-71706619D01*
X131081190Y-71827571D01*
X131020714Y-71888047D01*
X130899761Y-71948523D01*
X130536904Y-71948523D01*
X130415952Y-71888047D01*
X130355476Y-71827571D01*
D10*
%TO.C,J12*%
X152509380Y-54271523D02*
X153223666Y-54271523D01*
X153366523Y-54319142D01*
X153461761Y-54414380D01*
X153509380Y-54557238D01*
X153509380Y-54652476D01*
X153509380Y-53271523D02*
X153509380Y-53842952D01*
X153509380Y-53557238D02*
X152509380Y-53557238D01*
X152652238Y-53652476D01*
X152747476Y-53747714D01*
X152795095Y-53842952D01*
X152604619Y-52890571D02*
X152557000Y-52842952D01*
X152509380Y-52747714D01*
X152509380Y-52509619D01*
X152557000Y-52414380D01*
X152604619Y-52366761D01*
X152699857Y-52319142D01*
X152795095Y-52319142D01*
X152937952Y-52366761D01*
X153509380Y-52938190D01*
X153509380Y-52319142D01*
%TO.C,R14*%
X178427142Y-92527380D02*
X178093809Y-92051190D01*
X177855714Y-92527380D02*
X177855714Y-91527380D01*
X178236666Y-91527380D01*
X178331904Y-91575000D01*
X178379523Y-91622619D01*
X178427142Y-91717857D01*
X178427142Y-91860714D01*
X178379523Y-91955952D01*
X178331904Y-92003571D01*
X178236666Y-92051190D01*
X177855714Y-92051190D01*
X179379523Y-92527380D02*
X178808095Y-92527380D01*
X179093809Y-92527380D02*
X179093809Y-91527380D01*
X178998571Y-91670238D01*
X178903333Y-91765476D01*
X178808095Y-91813095D01*
X180236666Y-91860714D02*
X180236666Y-92527380D01*
X179998571Y-91479761D02*
X179760476Y-92194047D01*
X180379523Y-92194047D01*
%TO.C,C2*%
X121642142Y-93885414D02*
X121689761Y-93933033D01*
X121737380Y-94075890D01*
X121737380Y-94171128D01*
X121689761Y-94313986D01*
X121594523Y-94409224D01*
X121499285Y-94456843D01*
X121308809Y-94504462D01*
X121165952Y-94504462D01*
X120975476Y-94456843D01*
X120880238Y-94409224D01*
X120785000Y-94313986D01*
X120737380Y-94171128D01*
X120737380Y-94075890D01*
X120785000Y-93933033D01*
X120832619Y-93885414D01*
X120832619Y-93504462D02*
X120785000Y-93456843D01*
X120737380Y-93361605D01*
X120737380Y-93123509D01*
X120785000Y-93028271D01*
X120832619Y-92980652D01*
X120927857Y-92933033D01*
X121023095Y-92933033D01*
X121165952Y-92980652D01*
X121737380Y-93552081D01*
X121737380Y-92933033D01*
%TO.C,C6*%
X49043333Y-62177142D02*
X48995714Y-62224761D01*
X48852857Y-62272380D01*
X48757619Y-62272380D01*
X48614761Y-62224761D01*
X48519523Y-62129523D01*
X48471904Y-62034285D01*
X48424285Y-61843809D01*
X48424285Y-61700952D01*
X48471904Y-61510476D01*
X48519523Y-61415238D01*
X48614761Y-61320000D01*
X48757619Y-61272380D01*
X48852857Y-61272380D01*
X48995714Y-61320000D01*
X49043333Y-61367619D01*
X49900476Y-61272380D02*
X49710000Y-61272380D01*
X49614761Y-61320000D01*
X49567142Y-61367619D01*
X49471904Y-61510476D01*
X49424285Y-61700952D01*
X49424285Y-62081904D01*
X49471904Y-62177142D01*
X49519523Y-62224761D01*
X49614761Y-62272380D01*
X49805238Y-62272380D01*
X49900476Y-62224761D01*
X49948095Y-62177142D01*
X49995714Y-62081904D01*
X49995714Y-61843809D01*
X49948095Y-61748571D01*
X49900476Y-61700952D01*
X49805238Y-61653333D01*
X49614761Y-61653333D01*
X49519523Y-61700952D01*
X49471904Y-61748571D01*
X49424285Y-61843809D01*
%TO.C,C3*%
X121642142Y-97956666D02*
X121689761Y-98004285D01*
X121737380Y-98147142D01*
X121737380Y-98242380D01*
X121689761Y-98385238D01*
X121594523Y-98480476D01*
X121499285Y-98528095D01*
X121308809Y-98575714D01*
X121165952Y-98575714D01*
X120975476Y-98528095D01*
X120880238Y-98480476D01*
X120785000Y-98385238D01*
X120737380Y-98242380D01*
X120737380Y-98147142D01*
X120785000Y-98004285D01*
X120832619Y-97956666D01*
X120737380Y-97623333D02*
X120737380Y-97004285D01*
X121118333Y-97337619D01*
X121118333Y-97194761D01*
X121165952Y-97099523D01*
X121213571Y-97051904D01*
X121308809Y-97004285D01*
X121546904Y-97004285D01*
X121642142Y-97051904D01*
X121689761Y-97099523D01*
X121737380Y-97194761D01*
X121737380Y-97480476D01*
X121689761Y-97575714D01*
X121642142Y-97623333D01*
%TO.C,U2*%
X99401380Y-78926904D02*
X100210904Y-78926904D01*
X100306142Y-78879285D01*
X100353761Y-78831666D01*
X100401380Y-78736428D01*
X100401380Y-78545952D01*
X100353761Y-78450714D01*
X100306142Y-78403095D01*
X100210904Y-78355476D01*
X99401380Y-78355476D01*
X99496619Y-77926904D02*
X99449000Y-77879285D01*
X99401380Y-77784047D01*
X99401380Y-77545952D01*
X99449000Y-77450714D01*
X99496619Y-77403095D01*
X99591857Y-77355476D01*
X99687095Y-77355476D01*
X99829952Y-77403095D01*
X100401380Y-77974523D01*
X100401380Y-77355476D01*
%TO.C,C1*%
X91332081Y-77192142D02*
X91284462Y-77239761D01*
X91141605Y-77287380D01*
X91046367Y-77287380D01*
X90903509Y-77239761D01*
X90808271Y-77144523D01*
X90760652Y-77049285D01*
X90713033Y-76858809D01*
X90713033Y-76715952D01*
X90760652Y-76525476D01*
X90808271Y-76430238D01*
X90903509Y-76335000D01*
X91046367Y-76287380D01*
X91141605Y-76287380D01*
X91284462Y-76335000D01*
X91332081Y-76382619D01*
X92284462Y-77287380D02*
X91713033Y-77287380D01*
X91998748Y-77287380D02*
X91998748Y-76287380D01*
X91903509Y-76430238D01*
X91808271Y-76525476D01*
X91713033Y-76573095D01*
D12*
%TO.C,J5*%
X101042666Y-70678523D02*
X101042666Y-71585666D01*
X100982190Y-71767095D01*
X100861238Y-71888047D01*
X100679809Y-71948523D01*
X100558857Y-71948523D01*
X102252190Y-70678523D02*
X101647428Y-70678523D01*
X101586952Y-71283285D01*
X101647428Y-71222809D01*
X101768380Y-71162333D01*
X102070761Y-71162333D01*
X102191714Y-71222809D01*
X102252190Y-71283285D01*
X102312666Y-71404238D01*
X102312666Y-71706619D01*
X102252190Y-71827571D01*
X102191714Y-71888047D01*
X102070761Y-71948523D01*
X101768380Y-71948523D01*
X101647428Y-71888047D01*
X101586952Y-71827571D01*
D10*
%TO.C,R20*%
X49092380Y-75572857D02*
X48616190Y-75906190D01*
X49092380Y-76144285D02*
X48092380Y-76144285D01*
X48092380Y-75763333D01*
X48140000Y-75668095D01*
X48187619Y-75620476D01*
X48282857Y-75572857D01*
X48425714Y-75572857D01*
X48520952Y-75620476D01*
X48568571Y-75668095D01*
X48616190Y-75763333D01*
X48616190Y-76144285D01*
X48187619Y-75191904D02*
X48140000Y-75144285D01*
X48092380Y-75049047D01*
X48092380Y-74810952D01*
X48140000Y-74715714D01*
X48187619Y-74668095D01*
X48282857Y-74620476D01*
X48378095Y-74620476D01*
X48520952Y-74668095D01*
X49092380Y-75239523D01*
X49092380Y-74620476D01*
X48092380Y-74001428D02*
X48092380Y-73906190D01*
X48140000Y-73810952D01*
X48187619Y-73763333D01*
X48282857Y-73715714D01*
X48473333Y-73668095D01*
X48711428Y-73668095D01*
X48901904Y-73715714D01*
X48997142Y-73763333D01*
X49044761Y-73810952D01*
X49092380Y-73906190D01*
X49092380Y-74001428D01*
X49044761Y-74096666D01*
X48997142Y-74144285D01*
X48901904Y-74191904D01*
X48711428Y-74239523D01*
X48473333Y-74239523D01*
X48282857Y-74191904D01*
X48187619Y-74144285D01*
X48140000Y-74096666D01*
X48092380Y-74001428D01*
%TO.C,J2*%
X246253095Y-92257619D02*
X246300714Y-92210000D01*
X246395952Y-92162380D01*
X246634047Y-92162380D01*
X246729285Y-92210000D01*
X246776904Y-92257619D01*
X246824523Y-92352857D01*
X246824523Y-92448095D01*
X246776904Y-92590952D01*
X246205476Y-93162380D01*
X246824523Y-93162380D01*
X247443571Y-92162380D02*
X247538809Y-92162380D01*
X247634047Y-92210000D01*
X247681666Y-92257619D01*
X247729285Y-92352857D01*
X247776904Y-92543333D01*
X247776904Y-92781428D01*
X247729285Y-92971904D01*
X247681666Y-93067142D01*
X247634047Y-93114761D01*
X247538809Y-93162380D01*
X247443571Y-93162380D01*
X247348333Y-93114761D01*
X247300714Y-93067142D01*
X247253095Y-92971904D01*
X247205476Y-92781428D01*
X247205476Y-92543333D01*
X247253095Y-92352857D01*
X247300714Y-92257619D01*
X247348333Y-92210000D01*
X247443571Y-92162380D01*
X219360714Y-88082380D02*
X218789285Y-88082380D01*
X219075000Y-88082380D02*
X219075000Y-87082380D01*
X218979761Y-87225238D01*
X218884523Y-87320476D01*
X218789285Y-87368095D01*
X219360714Y-88082380D02*
X218789285Y-88082380D01*
X219075000Y-88082380D02*
X219075000Y-87082380D01*
X218979761Y-87225238D01*
X218884523Y-87320476D01*
X218789285Y-87368095D01*
X246253095Y-92257619D02*
X246300714Y-92210000D01*
X246395952Y-92162380D01*
X246634047Y-92162380D01*
X246729285Y-92210000D01*
X246776904Y-92257619D01*
X246824523Y-92352857D01*
X246824523Y-92448095D01*
X246776904Y-92590952D01*
X246205476Y-93162380D01*
X246824523Y-93162380D01*
X247443571Y-92162380D02*
X247538809Y-92162380D01*
X247634047Y-92210000D01*
X247681666Y-92257619D01*
X247729285Y-92352857D01*
X247776904Y-92543333D01*
X247776904Y-92781428D01*
X247729285Y-92971904D01*
X247681666Y-93067142D01*
X247634047Y-93114761D01*
X247538809Y-93162380D01*
X247443571Y-93162380D01*
X247348333Y-93114761D01*
X247300714Y-93067142D01*
X247253095Y-92971904D01*
X247205476Y-92781428D01*
X247205476Y-92543333D01*
X247253095Y-92352857D01*
X247300714Y-92257619D01*
X247348333Y-92210000D01*
X247443571Y-92162380D01*
%TO.C,J1*%
X65913095Y-91299882D02*
X65960714Y-91252263D01*
X66055952Y-91204643D01*
X66294047Y-91204643D01*
X66389285Y-91252263D01*
X66436904Y-91299882D01*
X66484523Y-91395120D01*
X66484523Y-91490358D01*
X66436904Y-91633215D01*
X65865476Y-92204643D01*
X66484523Y-92204643D01*
X67103571Y-91204643D02*
X67198809Y-91204643D01*
X67294047Y-91252263D01*
X67341666Y-91299882D01*
X67389285Y-91395120D01*
X67436904Y-91585596D01*
X67436904Y-91823691D01*
X67389285Y-92014167D01*
X67341666Y-92109405D01*
X67294047Y-92157024D01*
X67198809Y-92204643D01*
X67103571Y-92204643D01*
X67008333Y-92157024D01*
X66960714Y-92109405D01*
X66913095Y-92014167D01*
X66865476Y-91823691D01*
X66865476Y-91585596D01*
X66913095Y-91395120D01*
X66960714Y-91299882D01*
X67008333Y-91252263D01*
X67103571Y-91204643D01*
X65913095Y-91299882D02*
X65960714Y-91252263D01*
X66055952Y-91204643D01*
X66294047Y-91204643D01*
X66389285Y-91252263D01*
X66436904Y-91299882D01*
X66484523Y-91395120D01*
X66484523Y-91490358D01*
X66436904Y-91633215D01*
X65865476Y-92204643D01*
X66484523Y-92204643D01*
X67103571Y-91204643D02*
X67198809Y-91204643D01*
X67294047Y-91252263D01*
X67341666Y-91299882D01*
X67389285Y-91395120D01*
X67436904Y-91585596D01*
X67436904Y-91823691D01*
X67389285Y-92014167D01*
X67341666Y-92109405D01*
X67294047Y-92157024D01*
X67198809Y-92204643D01*
X67103571Y-92204643D01*
X67008333Y-92157024D01*
X66960714Y-92109405D01*
X66913095Y-92014167D01*
X66865476Y-91823691D01*
X66865476Y-91585596D01*
X66913095Y-91395120D01*
X66960714Y-91299882D01*
X67008333Y-91252263D01*
X67103571Y-91204643D01*
X38652414Y-88056980D02*
X38080985Y-88056980D01*
X38366700Y-88056980D02*
X38366700Y-87056980D01*
X38271461Y-87199838D01*
X38176223Y-87295076D01*
X38080985Y-87342695D01*
X38652414Y-88056980D02*
X38080985Y-88056980D01*
X38366700Y-88056980D02*
X38366700Y-87056980D01*
X38271461Y-87199838D01*
X38176223Y-87295076D01*
X38080985Y-87342695D01*
D13*
%TO.C,R3*%
X85317064Y-85190000D02*
X84862936Y-85190000D01*
X85317064Y-83720000D02*
X84862936Y-83720000D01*
D14*
%TO.C,J6*%
X136606000Y-50896000D02*
X148636000Y-50896000D01*
X144781000Y-66606000D02*
X148636000Y-66606000D01*
X148636000Y-66606000D02*
X148636000Y-62954000D01*
X148636000Y-59144000D02*
X148636000Y-50896000D01*
X136606000Y-66606000D02*
X136606000Y-62954000D01*
X140461000Y-66606000D02*
X136606000Y-66606000D01*
X136606000Y-59398000D02*
X136606000Y-50896000D01*
X140159488Y-65936000D02*
G75*
G03*
X140159488Y-65936000I-98488J0D01*
G01*
D13*
%TO.C,C9*%
X236481252Y-71655000D02*
X235958748Y-71655000D01*
X236481252Y-73125000D02*
X235958748Y-73125000D01*
%TO.C,J11*%
X185927000Y-63927000D02*
X183267000Y-63927000D01*
X185927000Y-63927000D02*
X185927000Y-58787000D01*
X183267000Y-63927000D02*
X183267000Y-58787000D01*
X185927000Y-65197000D02*
X185927000Y-66527000D01*
X185927000Y-58787000D02*
X183267000Y-58787000D01*
X185927000Y-66527000D02*
X184597000Y-66527000D01*
%TO.C,R15*%
X179932064Y-96620000D02*
X179477936Y-96620000D01*
X179932064Y-95150000D02*
X179477936Y-95150000D01*
%TO.C,R2*%
X113437936Y-80745000D02*
X113892064Y-80745000D01*
X113437936Y-79275000D02*
X113892064Y-79275000D01*
%TO.C,U1*%
X147350000Y-91410000D02*
X147350000Y-92360000D01*
X137130000Y-92360000D02*
X135790000Y-92360000D01*
X137130000Y-91410000D02*
X137130000Y-92360000D01*
X146400000Y-91410000D02*
X147350000Y-91410000D01*
X146400000Y-101630000D02*
X147350000Y-101630000D01*
X138080000Y-91410000D02*
X137130000Y-91410000D01*
X138080000Y-101630000D02*
X137130000Y-101630000D01*
X137130000Y-101630000D02*
X137130000Y-100680000D01*
X147350000Y-101630000D02*
X147350000Y-100680000D01*
%TO.C,C15*%
X177512000Y-61140748D02*
X177512000Y-61663252D01*
X178982000Y-61140748D02*
X178982000Y-61663252D01*
%TO.C,R6*%
X69315000Y-78609564D02*
X69315000Y-78155436D01*
X67845000Y-78609564D02*
X67845000Y-78155436D01*
%TO.C,C8*%
X235211252Y-109755000D02*
X234688748Y-109755000D01*
X235211252Y-111225000D02*
X234688748Y-111225000D01*
%TO.C,J7*%
X226190000Y-56917500D02*
X226190000Y-66037500D01*
X224890000Y-64727500D02*
X194210000Y-64727500D01*
X221480000Y-55527500D02*
X220480000Y-55527500D01*
X207500000Y-58227500D02*
X207500000Y-58227500D01*
X220480000Y-55527500D02*
X220980000Y-56527500D01*
X194210000Y-64727500D02*
X194210000Y-58227500D01*
X192910000Y-56917500D02*
X226190000Y-56917500D01*
X192910000Y-66037500D02*
X192910000Y-56917500D01*
X207500000Y-58227500D02*
X207500000Y-56917500D01*
X211600000Y-58227500D02*
X224890000Y-58227500D01*
X194210000Y-58227500D02*
X207500000Y-58227500D01*
X226190000Y-66037500D02*
X192910000Y-66037500D01*
X220980000Y-56527500D02*
X221480000Y-55527500D01*
X211600000Y-56917500D02*
X211600000Y-58227500D01*
X224890000Y-58227500D02*
X224890000Y-64727500D01*
%TO.C,C11*%
X176242000Y-70553252D02*
X176242000Y-70030748D01*
X177712000Y-70553252D02*
X177712000Y-70030748D01*
%TO.C,e1*%
X130795000Y-93294998D02*
X130795000Y-99544998D01*
X125745000Y-93294998D02*
X125745000Y-99544998D01*
X130795000Y-93294998D02*
G75*
G03*
X125745000Y-93294998I-2525000J0D01*
G01*
X125745000Y-99544998D02*
G75*
G03*
X130795000Y-99544998I2525000J0D01*
G01*
%TO.C,C12*%
X168822000Y-61663252D02*
X168822000Y-61140748D01*
X167352000Y-61663252D02*
X167352000Y-61140748D01*
%TO.C,C13*%
X167352000Y-65270748D02*
X167352000Y-65793252D01*
X168822000Y-65270748D02*
X168822000Y-65793252D01*
D15*
%TO.C,J4*%
X80350000Y-70029000D02*
X80350000Y-51129000D01*
X59350000Y-70029000D02*
X80350000Y-70029000D01*
X59350000Y-51129000D02*
X59350000Y-70029000D01*
D16*
X58850000Y-63529000D02*
X58850000Y-63529000D01*
D15*
X80350000Y-51129000D02*
X59350000Y-51129000D01*
D16*
X58750000Y-63529000D02*
X58750000Y-63529000D01*
X58750000Y-63529000D02*
G75*
G03*
X58850000Y-63529000I50000J0D01*
G01*
X58850000Y-63529000D02*
G75*
G03*
X58750000Y-63529000I-50000J0D01*
G01*
D13*
%TO.C,C10*%
X181522000Y-70553252D02*
X181522000Y-70030748D01*
X180052000Y-70553252D02*
X180052000Y-70030748D01*
%TO.C,R5*%
X90070000Y-73887064D02*
X90070000Y-73432936D01*
X91540000Y-73887064D02*
X91540000Y-73432936D01*
%TO.C,J16*%
X248120000Y-74480000D02*
X250780000Y-74480000D01*
X248120000Y-77080000D02*
X250780000Y-77080000D01*
X248120000Y-71880000D02*
X249450000Y-71880000D01*
X248120000Y-74480000D02*
X248120000Y-77080000D01*
X248120000Y-73210000D02*
X248120000Y-71880000D01*
X250780000Y-74480000D02*
X250780000Y-77080000D01*
%TO.C,D2*%
X164507000Y-62252000D02*
X161957000Y-62252000D01*
X164507000Y-60552000D02*
X161957000Y-60552000D01*
X164507000Y-62252000D02*
X164507000Y-60552000D01*
%TO.C,R18*%
X232945000Y-63727064D02*
X232945000Y-63272936D01*
X234415000Y-63727064D02*
X234415000Y-63272936D01*
%TO.C,J10*%
X228540000Y-58435000D02*
X228540000Y-57105000D01*
X228540000Y-59705000D02*
X231200000Y-59705000D01*
X231200000Y-59705000D02*
X231200000Y-64845000D01*
X228540000Y-59705000D02*
X228540000Y-64845000D01*
X228540000Y-57105000D02*
X229870000Y-57105000D01*
X228540000Y-64845000D02*
X231200000Y-64845000D01*
%TO.C,U4*%
X173167000Y-62382000D02*
X173967000Y-62382000D01*
X173167000Y-62382000D02*
X171367000Y-62382000D01*
X173167000Y-65502000D02*
X173967000Y-65502000D01*
X173167000Y-65502000D02*
X172367000Y-65502000D01*
%TO.C,C16*%
X247115000Y-74668748D02*
X247115000Y-75191252D01*
X245645000Y-74668748D02*
X245645000Y-75191252D01*
%TO.C,J14*%
X157987000Y-63942000D02*
X157987000Y-58802000D01*
X157987000Y-58802000D02*
X155327000Y-58802000D01*
X157987000Y-63942000D02*
X155327000Y-63942000D01*
X157987000Y-65212000D02*
X157987000Y-66542000D01*
X157987000Y-66542000D02*
X156657000Y-66542000D01*
X155327000Y-63942000D02*
X155327000Y-58802000D01*
%TO.C,D1*%
X121650000Y-76545000D02*
X121650000Y-72645000D01*
X119650000Y-76545000D02*
X121650000Y-76545000D01*
X119650000Y-76545000D02*
X119650000Y-72645000D01*
%TO.C,J13*%
X181997000Y-54792000D02*
X181997000Y-53462000D01*
X184597000Y-54792000D02*
X184597000Y-52132000D01*
X184597000Y-54792000D02*
X187197000Y-54792000D01*
X187197000Y-54792000D02*
X187197000Y-52132000D01*
X184597000Y-52132000D02*
X187197000Y-52132000D01*
X183327000Y-54792000D02*
X181997000Y-54792000D01*
%TO.C,R7*%
X92610000Y-73887064D02*
X92610000Y-73432936D01*
X94080000Y-73887064D02*
X94080000Y-73432936D01*
%TO.C,C5*%
X236481252Y-70585000D02*
X235958748Y-70585000D01*
X236481252Y-69115000D02*
X235958748Y-69115000D01*
%TO.C,R13*%
X161874564Y-104040000D02*
X161420436Y-104040000D01*
X161874564Y-105510000D02*
X161420436Y-105510000D01*
%TO.C,R1*%
X116740000Y-73529564D02*
X116740000Y-73075436D01*
X118210000Y-73529564D02*
X118210000Y-73075436D01*
%TO.C,C7*%
X49268748Y-109755000D02*
X49791252Y-109755000D01*
X49268748Y-111225000D02*
X49791252Y-111225000D01*
%TO.C,R10*%
X161697936Y-93445000D02*
X162152064Y-93445000D01*
X161697936Y-91975000D02*
X162152064Y-91975000D01*
%TO.C,R11*%
X162152064Y-93880000D02*
X161697936Y-93880000D01*
X162152064Y-95350000D02*
X161697936Y-95350000D01*
%TO.C,C14*%
X178982000Y-65793252D02*
X178982000Y-65270748D01*
X177512000Y-65793252D02*
X177512000Y-65270748D01*
%TO.C,R19*%
X232945000Y-58192936D02*
X232945000Y-58647064D01*
X234415000Y-58192936D02*
X234415000Y-58647064D01*
%TO.C,FB1*%
X136450000Y-103269622D02*
X136450000Y-102470378D01*
X135330000Y-103269622D02*
X135330000Y-102470378D01*
%TO.C,R12*%
X161420436Y-102970000D02*
X161874564Y-102970000D01*
X161420436Y-101500000D02*
X161874564Y-101500000D01*
%TO.C,R4*%
X65305000Y-78609564D02*
X65305000Y-78155436D01*
X66775000Y-78609564D02*
X66775000Y-78155436D01*
%TO.C,C4*%
X49268748Y-108685000D02*
X49791252Y-108685000D01*
X49268748Y-107215000D02*
X49791252Y-107215000D01*
%TO.C,U3*%
X85588000Y-76708000D02*
X85588000Y-74758000D01*
X76718000Y-76708000D02*
X76718000Y-80158000D01*
X76718000Y-76708000D02*
X76718000Y-74758000D01*
X85588000Y-76708000D02*
X85588000Y-78658000D01*
D16*
%TO.C,J3*%
X109550000Y-63529000D02*
X109550000Y-63529000D01*
X109650000Y-63529000D02*
X109650000Y-63529000D01*
D15*
X131150000Y-51129000D02*
X110150000Y-51129000D01*
X131150000Y-70029000D02*
X131150000Y-51129000D01*
X110150000Y-70029000D02*
X131150000Y-70029000D01*
X110150000Y-51129000D02*
X110150000Y-70029000D01*
D16*
X109650000Y-63529000D02*
G75*
G03*
X109550000Y-63529000I-50000J0D01*
G01*
X109550000Y-63529000D02*
G75*
G03*
X109650000Y-63529000I50000J0D01*
G01*
D13*
%TO.C,J12*%
X156657000Y-54792000D02*
X156657000Y-52132000D01*
X156657000Y-54792000D02*
X159257000Y-54792000D01*
X156657000Y-52132000D02*
X159257000Y-52132000D01*
X159257000Y-54792000D02*
X159257000Y-52132000D01*
X155387000Y-54792000D02*
X154057000Y-54792000D01*
X154057000Y-54792000D02*
X154057000Y-53462000D01*
%TO.C,R14*%
X179477936Y-93245000D02*
X179932064Y-93245000D01*
X179477936Y-94715000D02*
X179932064Y-94715000D01*
%TO.C,C2*%
X123924998Y-94241252D02*
X123924998Y-93718748D01*
X122454998Y-94241252D02*
X122454998Y-93718748D01*
%TO.C,C6*%
X48948748Y-64235000D02*
X49471252Y-64235000D01*
X48948748Y-62765000D02*
X49471252Y-62765000D01*
%TO.C,C3*%
X122454998Y-97528748D02*
X122454998Y-98051252D01*
X123924998Y-97528748D02*
X123924998Y-98051252D01*
D14*
%TO.C,U2*%
X110872500Y-74862500D02*
X110872500Y-81467500D01*
X101217500Y-74862500D02*
X101217500Y-81467500D01*
D15*
X110145000Y-72165000D02*
G75*
G03*
X110145000Y-72165000I-100000J0D01*
G01*
D13*
%TO.C,C1*%
X91498748Y-79475000D02*
X92021252Y-79475000D01*
X91498748Y-78005000D02*
X92021252Y-78005000D01*
D15*
%TO.C,J5*%
X84750000Y-70029000D02*
X105750000Y-70029000D01*
X105750000Y-51129000D02*
X84750000Y-51129000D01*
D16*
X84150000Y-63529000D02*
X84150000Y-63529000D01*
X84250000Y-63529000D02*
X84250000Y-63529000D01*
D15*
X105750000Y-70029000D02*
X105750000Y-51129000D01*
X84750000Y-51129000D02*
X84750000Y-70029000D01*
D16*
X84150000Y-63529000D02*
G75*
G03*
X84250000Y-63529000I50000J0D01*
G01*
X84250000Y-63529000D02*
G75*
G03*
X84150000Y-63529000I-50000J0D01*
G01*
D13*
%TO.C,R20*%
X47725000Y-74702936D02*
X47725000Y-75157064D01*
X46255000Y-74702936D02*
X46255000Y-75157064D01*
%TO.C,J2*%
X220726000Y-86995000D02*
G75*
G03*
X220726000Y-86995000I-381000J0D01*
G01*
%TO.C,J1*%
X40386000Y-86995000D02*
G75*
G03*
X40386000Y-86995000I-381000J0D01*
G01*
%TD*%
M02*
