M48
; DRILL file {KiCad (6.0.6-0)} date 2022 July 07, Thursday 15:16:15
; FORMAT={-:-/ absolute / inch / decimal}
; #@! TF.CreationDate,2022-07-07T15:16:15+02:00
; #@! TF.GenerationSoftware,Kicad,Pcbnew,(6.0.6-0)
; #@! TF.FileFunction,Plated,1,4,PTH
FMAT,2
INCH
; #@! TA.AperFunction,Plated,PTH,ViaDrill
T1C0.0157
; #@! TA.AperFunction,Plated,PTH,ComponentDrill
T2C0.0315
; #@! TA.AperFunction,Plated,PTH,ComponentDrill
T3C0.0320
; #@! TA.AperFunction,Plated,PTH,ComponentDrill
T4C0.0362
; #@! TA.AperFunction,Plated,PTH,ComponentDrill
T5C0.0394
; #@! TA.AperFunction,Plated,PTH,ComponentDrill
T6C0.0570
; #@! TA.AperFunction,Plated,PTH,ComponentDrill
T7C0.0591
; #@! TA.AperFunction,Plated,PTH,ComponentDrill
T8C0.0906
; #@! TA.AperFunction,Plated,PTH,ComponentDrill
T9C0.2087
%
G90
G05
T1
X1.85Y-2.85
X2.075Y-2.5
X2.075Y-4.25
X2.5Y-3.15
X2.975Y-2.925
X3.05Y-3.2
X3.45Y-3.325
X3.4576Y-3.1174
X3.75Y-3.1
X4.175Y-3.075
X4.6Y-3.15
X4.725Y-3.65
X5.24Y-3.3538
X5.25Y-4.025
X5.275Y-3.8
X5.275Y-4.1
X5.375Y-3.5
X5.375Y-3.575
X5.4Y-4.05
X5.475Y-3.675
X5.5Y-3.775
X5.55Y-3.65
X5.55Y-3.8035
X5.55Y-3.925
X5.6Y-3.85
X5.65Y-3.7
X5.7Y-3.7
X5.75Y-3.9
X5.75Y-4.125
X5.85Y-3.45
X5.9Y-3.45
X5.9Y-3.7
X5.925Y-3.625
X5.95Y-3.45
X6.25Y-3.725
X6.25Y-4.1
X6.3Y-3.975
X6.35Y-3.575
X6.6926Y-2.4924
X6.8926Y-2.7674
X6.9426Y-2.3674
X7.05Y-3.625
X7.1176Y-2.6174
X7.2176Y-2.7424
X9.15Y-4.35
X9.2Y-2.775
X9.275Y-2.55
T2
X5.05Y-3.7
X5.05Y-3.8921
T3
X1.575Y-3.5
X1.625Y-3.6
X1.675Y-3.5
X1.725Y-3.6
X1.775Y-3.5
X1.825Y-3.6
X1.875Y-3.5
X1.925Y-3.6
X1.975Y-3.5
X2.025Y-3.6
X2.075Y-3.5
X2.125Y-3.6
X2.175Y-3.5
X2.225Y-3.6
X2.275Y-3.5
X2.325Y-3.6
X2.375Y-3.5
X2.425Y-3.6
X2.475Y-3.5
X2.525Y-3.6
X8.675Y-3.5
X8.725Y-3.6
X8.775Y-3.5
X8.825Y-3.6
X8.875Y-3.5
X8.925Y-3.6
X8.975Y-3.5
X9.025Y-3.6
X9.075Y-3.5
X9.125Y-3.6
X9.175Y-3.5
X9.225Y-3.6
X9.275Y-3.5
X9.325Y-3.6
X9.375Y-3.5
X9.425Y-3.6
X9.475Y-3.5
X9.525Y-3.6
X9.575Y-3.5
X9.625Y-3.6
T4
X5.5658Y-2.5152
X5.5658Y-2.5939
X5.6642Y-2.5152
X5.6642Y-2.5939
T5
X1.7Y-2.95
X1.7Y-3.05
X1.7Y-3.15
X1.7Y-3.25
X6.1176Y-2.1048
X6.1676Y-2.3674
X6.1676Y-2.4674
X6.1676Y-2.5674
X6.2176Y-2.1048
X7.2176Y-2.1048
X7.2676Y-2.3668
X7.2676Y-2.4668
X7.2676Y-2.5668
X7.3176Y-2.1048
X7.8Y-2.3704
X7.8Y-2.4704
X7.9Y-2.3704
X7.9Y-2.4704
X8.0Y-2.3704
X8.0Y-2.4704
X8.1Y-2.3704
X8.1Y-2.4704
X8.2Y-2.3704
X8.2Y-2.4704
X8.3Y-2.3704
X8.3Y-2.4704
X8.4Y-2.3704
X8.4Y-2.4704
X8.5Y-2.3704
X8.5Y-2.4704
X8.6Y-2.3704
X8.6Y-2.4704
X8.7Y-2.3704
X8.7Y-2.4704
X9.05Y-2.3006
X9.05Y-2.4006
X9.05Y-2.5006
X9.8209Y-2.8823
X9.8209Y-2.9823
T6
X6.5154Y-3.708
X6.5154Y-4.108
X6.5154Y-4.408
X6.9054Y-3.708
X6.9054Y-4.108
X7.213Y-3.708
X7.213Y-4.108
X7.213Y-4.408
X7.603Y-3.708
X7.603Y-4.108
T7
X2.4547Y-2.5011
X2.5531Y-2.1114
X2.5531Y-2.5996
X2.75Y-2.5011
X2.9469Y-2.1114
X2.9469Y-2.5996
X3.0453Y-2.5011
X3.4547Y-2.5011
X3.5531Y-2.1114
X3.5531Y-2.5996
X3.75Y-2.5011
X3.9469Y-2.1114
X3.9469Y-2.5996
X4.0453Y-2.5011
X4.4547Y-2.5011
X4.5531Y-2.1114
X4.5531Y-2.5996
X4.75Y-2.5011
X4.9469Y-2.1114
X4.9469Y-2.5996
X5.0453Y-2.5011
T8
X5.378Y-2.4085
X5.852Y-2.4085
T9
X1.6Y-2.3425
X1.6Y-4.4575
X9.6Y-2.3425
X9.6Y-4.4575
T0
M30
