%TF.GenerationSoftware,KiCad,Pcbnew,7.0.1*%
%TF.CreationDate,2023-06-05T15:34:48+02:00*%
%TF.ProjectId,hoatzin,686f6174-7a69-46e2-9e6b-696361645f70,rev?*%
%TF.SameCoordinates,Original*%
%TF.FileFunction,Soldermask,Bot*%
%TF.FilePolarity,Negative*%
%FSLAX46Y46*%
G04 Gerber Fmt 4.6, Leading zero omitted, Abs format (unit mm)*
G04 Created by KiCad (PCBNEW 7.0.1) date 2023-06-05 15:34:48*
%MOMM*%
%LPD*%
G01*
G04 APERTURE LIST*
G04 Aperture macros list*
%AMRoundRect*
0 Rectangle with rounded corners*
0 $1 Rounding radius*
0 $2 $3 $4 $5 $6 $7 $8 $9 X,Y pos of 4 corners*
0 Add a 4 corners polygon primitive as box body*
4,1,4,$2,$3,$4,$5,$6,$7,$8,$9,$2,$3,0*
0 Add four circle primitives for the rounded corners*
1,1,$1+$1,$2,$3*
1,1,$1+$1,$4,$5*
1,1,$1+$1,$6,$7*
1,1,$1+$1,$8,$9*
0 Add four rect primitives between the rounded corners*
20,1,$1+$1,$2,$3,$4,$5,0*
20,1,$1+$1,$4,$5,$6,$7,0*
20,1,$1+$1,$6,$7,$8,$9,0*
20,1,$1+$1,$8,$9,$2,$3,0*%
G04 Aperture macros list end*
%ADD10C,3.316000*%
%ADD11C,1.428000*%
%ADD12R,1.700000X1.700000*%
%ADD13O,1.700000X1.700000*%
%ADD14C,9.200000*%
%ADD15RoundRect,0.250000X-0.600000X0.600000X-0.600000X-0.600000X0.600000X-0.600000X0.600000X0.600000X0*%
%ADD16C,1.700000*%
%ADD17C,1.500000*%
%ADD18R,2.250000X2.250000*%
%ADD19C,2.250000*%
%ADD20C,1.320800*%
%ADD21C,3.251200*%
%ADD22C,2.172000*%
G04 APERTURE END LIST*
D10*
%TO.C,J6*%
X136601000Y-61176000D03*
X148641000Y-61176000D03*
D11*
X141371000Y-65886000D03*
X143871000Y-65886000D03*
X143871000Y-63886000D03*
X141371000Y-63886000D03*
%TD*%
D12*
%TO.C,J11*%
X184597000Y-65197000D03*
D13*
X184597000Y-62657000D03*
X184597000Y-60117000D03*
%TD*%
D14*
%TO.C,H3*%
X40640000Y-113220000D03*
%TD*%
D15*
%TO.C,J7*%
X220980000Y-60207500D03*
D16*
X220980000Y-62747500D03*
X218440000Y-60207500D03*
X218440000Y-62747500D03*
X215900000Y-60207500D03*
X215900000Y-62747500D03*
X213360000Y-60207500D03*
X213360000Y-62747500D03*
X210820000Y-60207500D03*
X210820000Y-62747500D03*
X208280000Y-60207500D03*
X208280000Y-62747500D03*
X205740000Y-60207500D03*
X205740000Y-62747500D03*
X203200000Y-60207500D03*
X203200000Y-62747500D03*
X200660000Y-60207500D03*
X200660000Y-62747500D03*
X198120000Y-60207500D03*
X198120000Y-62747500D03*
%TD*%
D17*
%TO.C,e1*%
X128270000Y-93979998D03*
X128270000Y-98859998D03*
%TD*%
D18*
%TO.C,J4*%
X62350000Y-63529000D03*
D19*
X69850000Y-63529000D03*
X77350000Y-63529000D03*
X64850000Y-66029000D03*
X74850000Y-66029000D03*
X64850000Y-53629000D03*
X74850000Y-53629000D03*
%TD*%
D12*
%TO.C,J16*%
X249450000Y-73210000D03*
D13*
X249450000Y-75750000D03*
%TD*%
D14*
%TO.C,H1*%
X40640000Y-59500000D03*
%TD*%
D12*
%TO.C,J10*%
X229870000Y-58435000D03*
D13*
X229870000Y-60975000D03*
X229870000Y-63515000D03*
%TD*%
D14*
%TO.C,H2*%
X243840000Y-113220000D03*
%TD*%
D12*
%TO.C,J14*%
X156657000Y-65212000D03*
D13*
X156657000Y-62672000D03*
X156657000Y-60132000D03*
%TD*%
D12*
%TO.C,J13*%
X183327000Y-53462000D03*
D13*
X185867000Y-53462000D03*
%TD*%
D14*
%TO.C,H4*%
X243840000Y-59500000D03*
%TD*%
D18*
%TO.C,J3*%
X113150000Y-63529000D03*
D19*
X120650000Y-63529000D03*
X128150000Y-63529000D03*
X115650000Y-66029000D03*
X125650000Y-66029000D03*
X115650000Y-53629000D03*
X125650000Y-53629000D03*
%TD*%
D12*
%TO.C,J12*%
X155387000Y-53462000D03*
D13*
X157927000Y-53462000D03*
%TD*%
D18*
%TO.C,J5*%
X87750000Y-63529000D03*
D19*
X95250000Y-63529000D03*
X102750000Y-63529000D03*
X90250000Y-66029000D03*
X100250000Y-66029000D03*
X90250000Y-53629000D03*
X100250000Y-53629000D03*
%TD*%
D20*
%TO.C,J2*%
X220345000Y-88900000D03*
X221615000Y-91440000D03*
X222885000Y-88900000D03*
X224155000Y-91440000D03*
X225425000Y-88900000D03*
X226695000Y-91440000D03*
X227965000Y-88900000D03*
X229235000Y-91440000D03*
X230505000Y-88900000D03*
X231775000Y-91440000D03*
X233045000Y-88900000D03*
X234315000Y-91440000D03*
X235585000Y-88900000D03*
X236855000Y-91440000D03*
X238125000Y-88900000D03*
X239395000Y-91440000D03*
X240665000Y-88900000D03*
X241935000Y-91440000D03*
X243205000Y-88900000D03*
X244475000Y-91440000D03*
%TD*%
D21*
%TO.C,J9*%
X187960000Y-94183000D03*
X187960000Y-99263000D03*
X187960000Y-111963000D03*
D22*
X183210000Y-104343000D03*
X193116000Y-104343000D03*
X183210000Y-111963000D03*
X183210000Y-94183000D03*
X193116000Y-94183000D03*
%TD*%
D21*
%TO.C,J8*%
X170240000Y-94183000D03*
X170240000Y-99263000D03*
X170240000Y-111963000D03*
D22*
X165490000Y-104343000D03*
X175396000Y-104343000D03*
X165490000Y-111963000D03*
X165490000Y-94183000D03*
X175396000Y-94183000D03*
%TD*%
D12*
%TO.C,J15*%
X43180000Y-74930000D03*
D13*
X43180000Y-77470000D03*
X43180000Y-80010000D03*
X43180000Y-82550000D03*
%TD*%
D20*
%TO.C,J1*%
X40005000Y-88900000D03*
X41275000Y-91440000D03*
X42545000Y-88900000D03*
X43815000Y-91440000D03*
X45085000Y-88900000D03*
X46355000Y-91440000D03*
X47625000Y-88900000D03*
X48895000Y-91440000D03*
X50165000Y-88900000D03*
X51435000Y-91440000D03*
X52705000Y-88900000D03*
X53975000Y-91440000D03*
X55245000Y-88900000D03*
X56515000Y-91440000D03*
X57785000Y-88900000D03*
X59055000Y-91440000D03*
X60325000Y-88900000D03*
X61595000Y-91440000D03*
X62865000Y-88900000D03*
X64135000Y-91440000D03*
%TD*%
M02*
