%TF.GenerationSoftware,KiCad,Pcbnew,7.0.1*%
%TF.CreationDate,2023-06-05T15:34:48+02:00*%
%TF.ProjectId,hoatzin,686f6174-7a69-46e2-9e6b-696361645f70,rev?*%
%TF.SameCoordinates,Original*%
%TF.FileFunction,Soldermask,Top*%
%TF.FilePolarity,Negative*%
%FSLAX46Y46*%
G04 Gerber Fmt 4.6, Leading zero omitted, Abs format (unit mm)*
G04 Created by KiCad (PCBNEW 7.0.1) date 2023-06-05 15:34:48*
%MOMM*%
%LPD*%
G01*
G04 APERTURE LIST*
G04 Aperture macros list*
%AMRoundRect*
0 Rectangle with rounded corners*
0 $1 Rounding radius*
0 $2 $3 $4 $5 $6 $7 $8 $9 X,Y pos of 4 corners*
0 Add a 4 corners polygon primitive as box body*
4,1,4,$2,$3,$4,$5,$6,$7,$8,$9,$2,$3,0*
0 Add four circle primitives for the rounded corners*
1,1,$1+$1,$2,$3*
1,1,$1+$1,$4,$5*
1,1,$1+$1,$6,$7*
1,1,$1+$1,$8,$9*
0 Add four rect primitives between the rounded corners*
20,1,$1+$1,$2,$3,$4,$5,0*
20,1,$1+$1,$4,$5,$6,$7,0*
20,1,$1+$1,$6,$7,$8,$9,0*
20,1,$1+$1,$8,$9,$2,$3,0*%
G04 Aperture macros list end*
%ADD10C,3.316000*%
%ADD11C,1.428000*%
%ADD12RoundRect,0.250000X0.250000X0.475000X-0.250000X0.475000X-0.250000X-0.475000X0.250000X-0.475000X0*%
%ADD13R,1.700000X1.700000*%
%ADD14O,1.700000X1.700000*%
%ADD15RoundRect,0.250000X0.262500X0.450000X-0.262500X0.450000X-0.262500X-0.450000X0.262500X-0.450000X0*%
%ADD16RoundRect,0.250000X-0.262500X-0.450000X0.262500X-0.450000X0.262500X0.450000X-0.262500X0.450000X0*%
%ADD17RoundRect,0.250000X-0.475000X0.250000X-0.475000X-0.250000X0.475000X-0.250000X0.475000X0.250000X0*%
%ADD18RoundRect,0.250000X0.450000X-0.262500X0.450000X0.262500X-0.450000X0.262500X-0.450000X-0.262500X0*%
%ADD19C,9.200000*%
%ADD20RoundRect,0.250000X-0.600000X0.600000X-0.600000X-0.600000X0.600000X-0.600000X0.600000X0.600000X0*%
%ADD21C,1.700000*%
%ADD22RoundRect,0.250000X0.475000X-0.250000X0.475000X0.250000X-0.475000X0.250000X-0.475000X-0.250000X0*%
%ADD23C,1.500000*%
%ADD24R,2.250000X2.250000*%
%ADD25C,2.250000*%
%ADD26R,0.600000X0.450000*%
%ADD27RoundRect,0.075000X-0.700000X-0.075000X0.700000X-0.075000X0.700000X0.075000X-0.700000X0.075000X0*%
%ADD28RoundRect,0.075000X-0.075000X-0.700000X0.075000X-0.700000X0.075000X0.700000X-0.075000X0.700000X0*%
%ADD29RoundRect,0.150000X-0.512500X-0.150000X0.512500X-0.150000X0.512500X0.150000X-0.512500X0.150000X0*%
%ADD30R,1.200000X0.900000*%
%ADD31RoundRect,0.250000X-0.250000X-0.475000X0.250000X-0.475000X0.250000X0.475000X-0.250000X0.475000X0*%
%ADD32RoundRect,0.250000X-0.450000X0.262500X-0.450000X-0.262500X0.450000X-0.262500X0.450000X0.262500X0*%
%ADD33RoundRect,0.218750X0.381250X-0.218750X0.381250X0.218750X-0.381250X0.218750X-0.381250X-0.218750X0*%
%ADD34RoundRect,0.150000X0.150000X-0.825000X0.150000X0.825000X-0.150000X0.825000X-0.150000X-0.825000X0*%
%ADD35R,1.780000X1.520000*%
%ADD36C,1.320800*%
%ADD37C,3.251200*%
%ADD38C,2.172000*%
G04 APERTURE END LIST*
D10*
%TO.C,J6*%
X136601000Y-61176000D03*
X148641000Y-61176000D03*
D11*
X141371000Y-65886000D03*
X143871000Y-65886000D03*
X143871000Y-63886000D03*
X141371000Y-63886000D03*
%TD*%
D12*
%TO.C,C9*%
X237170000Y-72390000D03*
X235270000Y-72390000D03*
%TD*%
D13*
%TO.C,J11*%
X184597000Y-65197000D03*
D14*
X184597000Y-62657000D03*
X184597000Y-60117000D03*
%TD*%
D15*
%TO.C,R15*%
X180617500Y-95885000D03*
X178792500Y-95885000D03*
%TD*%
D16*
%TO.C,R2*%
X112752500Y-80010000D03*
X114577500Y-80010000D03*
%TD*%
D17*
%TO.C,C15*%
X178247000Y-60452000D03*
X178247000Y-62352000D03*
%TD*%
D18*
%TO.C,R6*%
X68580000Y-79295000D03*
X68580000Y-77470000D03*
%TD*%
D12*
%TO.C,C8*%
X235900000Y-110490000D03*
X234000000Y-110490000D03*
%TD*%
D19*
%TO.C,H3*%
X40640000Y-113220000D03*
%TD*%
D20*
%TO.C,J7*%
X220980000Y-60207500D03*
D21*
X220980000Y-62747500D03*
X218440000Y-60207500D03*
X218440000Y-62747500D03*
X215900000Y-60207500D03*
X215900000Y-62747500D03*
X213360000Y-60207500D03*
X213360000Y-62747500D03*
X210820000Y-60207500D03*
X210820000Y-62747500D03*
X208280000Y-60207500D03*
X208280000Y-62747500D03*
X205740000Y-60207500D03*
X205740000Y-62747500D03*
X203200000Y-60207500D03*
X203200000Y-62747500D03*
X200660000Y-60207500D03*
X200660000Y-62747500D03*
X198120000Y-60207500D03*
X198120000Y-62747500D03*
%TD*%
D22*
%TO.C,C11*%
X176977000Y-71242000D03*
X176977000Y-69342000D03*
%TD*%
D23*
%TO.C,e1*%
X128270000Y-93979998D03*
X128270000Y-98859998D03*
%TD*%
D22*
%TO.C,C12*%
X168087000Y-62352000D03*
X168087000Y-60452000D03*
%TD*%
D17*
%TO.C,C13*%
X168087000Y-64582000D03*
X168087000Y-66482000D03*
%TD*%
D24*
%TO.C,J4*%
X62350000Y-63529000D03*
D25*
X69850000Y-63529000D03*
X77350000Y-63529000D03*
X64850000Y-66029000D03*
X74850000Y-66029000D03*
X64850000Y-53629000D03*
X74850000Y-53629000D03*
%TD*%
D22*
%TO.C,C10*%
X180787000Y-71242000D03*
X180787000Y-69342000D03*
%TD*%
D18*
%TO.C,R5*%
X90805000Y-74572500D03*
X90805000Y-72747500D03*
%TD*%
D13*
%TO.C,J16*%
X249450000Y-73210000D03*
D14*
X249450000Y-75750000D03*
%TD*%
D26*
%TO.C,D2*%
X164057000Y-61402000D03*
X161957000Y-61402000D03*
%TD*%
D18*
%TO.C,R18*%
X233680000Y-64412500D03*
X233680000Y-62587500D03*
%TD*%
D19*
%TO.C,H1*%
X40640000Y-59500000D03*
%TD*%
D27*
%TO.C,U1*%
X136565000Y-92770000D03*
X136565000Y-93270000D03*
X136565000Y-93770000D03*
X136565000Y-94270000D03*
X136565000Y-94770000D03*
X136565000Y-95270000D03*
X136565000Y-95770000D03*
X136565000Y-96270000D03*
X136565000Y-96770000D03*
X136565000Y-97270000D03*
X136565000Y-97770000D03*
X136565000Y-98270000D03*
X136565000Y-98770000D03*
X136565000Y-99270000D03*
X136565000Y-99770000D03*
X136565000Y-100270000D03*
D28*
X138490000Y-102195000D03*
X138990000Y-102195000D03*
X139490000Y-102195000D03*
X139990000Y-102195000D03*
X140490000Y-102195000D03*
X140990000Y-102195000D03*
X141490000Y-102195000D03*
X141990000Y-102195000D03*
X142490000Y-102195000D03*
X142990000Y-102195000D03*
X143490000Y-102195000D03*
X143990000Y-102195000D03*
X144490000Y-102195000D03*
X144990000Y-102195000D03*
X145490000Y-102195000D03*
X145990000Y-102195000D03*
D27*
X147915000Y-100270000D03*
X147915000Y-99770000D03*
X147915000Y-99270000D03*
X147915000Y-98770000D03*
X147915000Y-98270000D03*
X147915000Y-97770000D03*
X147915000Y-97270000D03*
X147915000Y-96770000D03*
X147915000Y-96270000D03*
X147915000Y-95770000D03*
X147915000Y-95270000D03*
X147915000Y-94770000D03*
X147915000Y-94270000D03*
X147915000Y-93770000D03*
X147915000Y-93270000D03*
X147915000Y-92770000D03*
D28*
X145990000Y-90845000D03*
X145490000Y-90845000D03*
X144990000Y-90845000D03*
X144490000Y-90845000D03*
X143990000Y-90845000D03*
X143490000Y-90845000D03*
X142990000Y-90845000D03*
X142490000Y-90845000D03*
X141990000Y-90845000D03*
X141490000Y-90845000D03*
X140990000Y-90845000D03*
X140490000Y-90845000D03*
X139990000Y-90845000D03*
X139490000Y-90845000D03*
X138990000Y-90845000D03*
X138490000Y-90845000D03*
%TD*%
D13*
%TO.C,J10*%
X229870000Y-58435000D03*
D14*
X229870000Y-60975000D03*
X229870000Y-63515000D03*
%TD*%
D29*
%TO.C,U4*%
X172029500Y-62992000D03*
X172029500Y-63942000D03*
X172029500Y-64892000D03*
X174304500Y-64892000D03*
X174304500Y-62992000D03*
%TD*%
D17*
%TO.C,C16*%
X246380000Y-73980000D03*
X246380000Y-75880000D03*
%TD*%
D19*
%TO.C,H2*%
X243840000Y-113220000D03*
%TD*%
D13*
%TO.C,J14*%
X156657000Y-65212000D03*
D14*
X156657000Y-62672000D03*
X156657000Y-60132000D03*
%TD*%
D30*
%TO.C,D1*%
X120650000Y-75945000D03*
X120650000Y-72645000D03*
%TD*%
D13*
%TO.C,J13*%
X183327000Y-53462000D03*
D14*
X185867000Y-53462000D03*
%TD*%
D18*
%TO.C,R7*%
X93345000Y-74572500D03*
X93345000Y-72747500D03*
%TD*%
D15*
%TO.C,R3*%
X86002500Y-84455000D03*
X84177500Y-84455000D03*
%TD*%
D12*
%TO.C,C5*%
X237170000Y-69850000D03*
X235270000Y-69850000D03*
%TD*%
D15*
%TO.C,R13*%
X162560000Y-104775000D03*
X160735000Y-104775000D03*
%TD*%
D18*
%TO.C,R1*%
X117475000Y-74215000D03*
X117475000Y-72390000D03*
%TD*%
D31*
%TO.C,C7*%
X48580000Y-110490000D03*
X50480000Y-110490000D03*
%TD*%
D16*
%TO.C,R10*%
X161012500Y-92710000D03*
X162837500Y-92710000D03*
%TD*%
D19*
%TO.C,H4*%
X243840000Y-59500000D03*
%TD*%
D15*
%TO.C,R11*%
X162837500Y-94615000D03*
X161012500Y-94615000D03*
%TD*%
D22*
%TO.C,C14*%
X178247000Y-66482000D03*
X178247000Y-64582000D03*
%TD*%
D32*
%TO.C,R19*%
X233680000Y-57507500D03*
X233680000Y-59332500D03*
%TD*%
D33*
%TO.C,FB1*%
X135890000Y-103932500D03*
X135890000Y-101807500D03*
%TD*%
D16*
%TO.C,R12*%
X160735000Y-102235000D03*
X162560000Y-102235000D03*
%TD*%
D18*
%TO.C,R4*%
X66040000Y-79295000D03*
X66040000Y-77470000D03*
%TD*%
D31*
%TO.C,C4*%
X48580000Y-107950000D03*
X50480000Y-107950000D03*
%TD*%
D34*
%TO.C,U3*%
X77343000Y-79183000D03*
X78613000Y-79183000D03*
X79883000Y-79183000D03*
X81153000Y-79183000D03*
X82423000Y-79183000D03*
X83693000Y-79183000D03*
X84963000Y-79183000D03*
X84963000Y-74233000D03*
X83693000Y-74233000D03*
X82423000Y-74233000D03*
X81153000Y-74233000D03*
X79883000Y-74233000D03*
X78613000Y-74233000D03*
X77343000Y-74233000D03*
%TD*%
D24*
%TO.C,J3*%
X113150000Y-63529000D03*
D25*
X120650000Y-63529000D03*
X128150000Y-63529000D03*
X115650000Y-66029000D03*
X125650000Y-66029000D03*
X115650000Y-53629000D03*
X125650000Y-53629000D03*
%TD*%
D13*
%TO.C,J12*%
X155387000Y-53462000D03*
D14*
X157927000Y-53462000D03*
%TD*%
D16*
%TO.C,R14*%
X178792500Y-93980000D03*
X180617500Y-93980000D03*
%TD*%
D22*
%TO.C,C2*%
X123189998Y-94930000D03*
X123189998Y-93030000D03*
%TD*%
D31*
%TO.C,C6*%
X48260000Y-63500000D03*
X50160000Y-63500000D03*
%TD*%
D17*
%TO.C,C3*%
X123189998Y-96840000D03*
X123189998Y-98740000D03*
%TD*%
D35*
%TO.C,U2*%
X109855000Y-73660000D03*
X107315000Y-73660000D03*
X104775000Y-73660000D03*
X102235000Y-73660000D03*
X102235000Y-82670000D03*
X104775000Y-82670000D03*
X107315000Y-82670000D03*
X109855000Y-82670000D03*
%TD*%
D31*
%TO.C,C1*%
X90810000Y-78740000D03*
X92710000Y-78740000D03*
%TD*%
D24*
%TO.C,J5*%
X87750000Y-63529000D03*
D25*
X95250000Y-63529000D03*
X102750000Y-63529000D03*
X90250000Y-66029000D03*
X100250000Y-66029000D03*
X90250000Y-53629000D03*
X100250000Y-53629000D03*
%TD*%
D32*
%TO.C,R20*%
X46990000Y-74017500D03*
X46990000Y-75842500D03*
%TD*%
D36*
%TO.C,J2*%
X220345000Y-88900000D03*
X221615000Y-91440000D03*
X222885000Y-88900000D03*
X224155000Y-91440000D03*
X225425000Y-88900000D03*
X226695000Y-91440000D03*
X227965000Y-88900000D03*
X229235000Y-91440000D03*
X230505000Y-88900000D03*
X231775000Y-91440000D03*
X233045000Y-88900000D03*
X234315000Y-91440000D03*
X235585000Y-88900000D03*
X236855000Y-91440000D03*
X238125000Y-88900000D03*
X239395000Y-91440000D03*
X240665000Y-88900000D03*
X241935000Y-91440000D03*
X243205000Y-88900000D03*
X244475000Y-91440000D03*
%TD*%
D37*
%TO.C,J9*%
X187960000Y-94183000D03*
X187960000Y-99263000D03*
X187960000Y-111963000D03*
D38*
X183210000Y-104343000D03*
X193116000Y-104343000D03*
X183210000Y-111963000D03*
X183210000Y-94183000D03*
X193116000Y-94183000D03*
%TD*%
D37*
%TO.C,J8*%
X170240000Y-94183000D03*
X170240000Y-99263000D03*
X170240000Y-111963000D03*
D38*
X165490000Y-104343000D03*
X175396000Y-104343000D03*
X165490000Y-111963000D03*
X165490000Y-94183000D03*
X175396000Y-94183000D03*
%TD*%
D13*
%TO.C,J15*%
X43180000Y-74930000D03*
D14*
X43180000Y-77470000D03*
X43180000Y-80010000D03*
X43180000Y-82550000D03*
%TD*%
D36*
%TO.C,J1*%
X40005000Y-88900000D03*
X41275000Y-91440000D03*
X42545000Y-88900000D03*
X43815000Y-91440000D03*
X45085000Y-88900000D03*
X46355000Y-91440000D03*
X47625000Y-88900000D03*
X48895000Y-91440000D03*
X50165000Y-88900000D03*
X51435000Y-91440000D03*
X52705000Y-88900000D03*
X53975000Y-91440000D03*
X55245000Y-88900000D03*
X56515000Y-91440000D03*
X57785000Y-88900000D03*
X59055000Y-91440000D03*
X60325000Y-88900000D03*
X61595000Y-91440000D03*
X62865000Y-88900000D03*
X64135000Y-91440000D03*
%TD*%
M02*
