%TF.GenerationSoftware,KiCad,Pcbnew,(6.0.8)*%
%TF.CreationDate,2022-11-10T12:51:54+01:00*%
%TF.ProjectId,hoatzin,686f6174-7a69-46e2-9e6b-696361645f70,rev?*%
%TF.SameCoordinates,Original*%
%TF.FileFunction,Drillmap*%
%TF.FilePolarity,Positive*%
%FSLAX45Y45*%
G04 Gerber Fmt 4.5, Leading zero omitted, Abs format (unit mm)*
G04 Created by KiCad (PCBNEW (6.0.8)) date 2022-11-10 12:51:54*
%MOMM*%
%LPD*%
G01*
G04 APERTURE LIST*
%ADD10C,0.100000*%
%ADD11C,0.200000*%
%ADD12C,0.076200*%
%ADD13C,0.325120*%
G04 APERTURE END LIST*
D10*
X25273000Y-5950000D02*
G75*
G03*
X24384000Y-5061000I-889000J0D01*
G01*
X24384000Y-12211000D02*
G75*
G03*
X25273000Y-11322000I0J889000D01*
G01*
X24384000Y-5061000D02*
X4064000Y-5061000D01*
X4064000Y-5061000D02*
G75*
G03*
X3175000Y-5950000I0J-889000D01*
G01*
X24384000Y-12211000D02*
X4064000Y-12211000D01*
X3175000Y-11322000D02*
X3175000Y-5950000D01*
X3175000Y-11322000D02*
G75*
G03*
X4064000Y-12211000I889000J0D01*
G01*
X25273000Y-5950000D02*
X25273000Y-11322000D01*
D11*
D12*
X6515100Y-8925560D02*
X6591300Y-9001760D01*
X6591300Y-8925560D02*
X6515100Y-9001760D01*
X24549100Y-8925560D02*
X24625300Y-9001760D01*
X24625300Y-8925560D02*
X24549100Y-9001760D01*
D13*
X17186560Y-9418300D02*
G75*
G03*
X17186560Y-9418300I-162560J0D01*
G01*
X17186560Y-9926300D02*
G75*
G03*
X17186560Y-9926300I-162560J0D01*
G01*
X17186560Y-11196300D02*
G75*
G03*
X17186560Y-11196300I-162560J0D01*
G01*
X18958560Y-9418300D02*
G75*
G03*
X18958560Y-9418300I-162560J0D01*
G01*
X18958560Y-9926300D02*
G75*
G03*
X18958560Y-9926300I-162560J0D01*
G01*
X18958560Y-11196300D02*
G75*
G03*
X18958560Y-11196300I-162560J0D01*
G01*
D11*
X3427619Y-12526476D02*
X3427619Y-12326476D01*
X3475238Y-12326476D01*
X3503809Y-12336000D01*
X3522857Y-12355048D01*
X3532381Y-12374095D01*
X3541905Y-12412190D01*
X3541905Y-12440762D01*
X3532381Y-12478857D01*
X3522857Y-12497905D01*
X3503809Y-12516952D01*
X3475238Y-12526476D01*
X3427619Y-12526476D01*
X3627619Y-12526476D02*
X3627619Y-12393143D01*
X3627619Y-12431238D02*
X3637143Y-12412190D01*
X3646667Y-12402667D01*
X3665714Y-12393143D01*
X3684762Y-12393143D01*
X3751428Y-12526476D02*
X3751428Y-12393143D01*
X3751428Y-12326476D02*
X3741905Y-12336000D01*
X3751428Y-12345524D01*
X3760952Y-12336000D01*
X3751428Y-12326476D01*
X3751428Y-12345524D01*
X3875238Y-12526476D02*
X3856190Y-12516952D01*
X3846667Y-12497905D01*
X3846667Y-12326476D01*
X3980000Y-12526476D02*
X3960952Y-12516952D01*
X3951428Y-12497905D01*
X3951428Y-12326476D01*
X4208571Y-12526476D02*
X4208571Y-12326476D01*
X4275238Y-12469333D01*
X4341905Y-12326476D01*
X4341905Y-12526476D01*
X4522857Y-12526476D02*
X4522857Y-12421714D01*
X4513333Y-12402667D01*
X4494286Y-12393143D01*
X4456190Y-12393143D01*
X4437143Y-12402667D01*
X4522857Y-12516952D02*
X4503810Y-12526476D01*
X4456190Y-12526476D01*
X4437143Y-12516952D01*
X4427619Y-12497905D01*
X4427619Y-12478857D01*
X4437143Y-12459809D01*
X4456190Y-12450286D01*
X4503810Y-12450286D01*
X4522857Y-12440762D01*
X4618095Y-12393143D02*
X4618095Y-12593143D01*
X4618095Y-12402667D02*
X4637143Y-12393143D01*
X4675238Y-12393143D01*
X4694286Y-12402667D01*
X4703810Y-12412190D01*
X4713333Y-12431238D01*
X4713333Y-12488381D01*
X4703810Y-12507428D01*
X4694286Y-12516952D01*
X4675238Y-12526476D01*
X4637143Y-12526476D01*
X4618095Y-12516952D01*
X4799048Y-12507428D02*
X4808571Y-12516952D01*
X4799048Y-12526476D01*
X4789524Y-12516952D01*
X4799048Y-12507428D01*
X4799048Y-12526476D01*
X4799048Y-12402667D02*
X4808571Y-12412190D01*
X4799048Y-12421714D01*
X4789524Y-12412190D01*
X4799048Y-12402667D01*
X4799048Y-12421714D01*
D12*
X3093800Y-12817900D02*
X3170000Y-12894100D01*
X3170000Y-12817900D02*
X3093800Y-12894100D01*
D11*
X3465714Y-12746476D02*
X3484762Y-12746476D01*
X3503809Y-12756000D01*
X3513333Y-12765524D01*
X3522857Y-12784571D01*
X3532381Y-12822667D01*
X3532381Y-12870286D01*
X3522857Y-12908381D01*
X3513333Y-12927428D01*
X3503809Y-12936952D01*
X3484762Y-12946476D01*
X3465714Y-12946476D01*
X3446667Y-12936952D01*
X3437143Y-12927428D01*
X3427619Y-12908381D01*
X3418095Y-12870286D01*
X3418095Y-12822667D01*
X3427619Y-12784571D01*
X3437143Y-12765524D01*
X3446667Y-12756000D01*
X3465714Y-12746476D01*
X3618095Y-12927428D02*
X3627619Y-12936952D01*
X3618095Y-12946476D01*
X3608571Y-12936952D01*
X3618095Y-12927428D01*
X3618095Y-12946476D01*
X3694286Y-12746476D02*
X3827619Y-12746476D01*
X3741905Y-12946476D01*
X3989524Y-12746476D02*
X3951428Y-12746476D01*
X3932381Y-12756000D01*
X3922857Y-12765524D01*
X3903809Y-12794095D01*
X3894286Y-12832190D01*
X3894286Y-12908381D01*
X3903809Y-12927428D01*
X3913333Y-12936952D01*
X3932381Y-12946476D01*
X3970476Y-12946476D01*
X3989524Y-12936952D01*
X3999048Y-12927428D01*
X4008571Y-12908381D01*
X4008571Y-12860762D01*
X3999048Y-12841714D01*
X3989524Y-12832190D01*
X3970476Y-12822667D01*
X3932381Y-12822667D01*
X3913333Y-12832190D01*
X3903809Y-12841714D01*
X3894286Y-12860762D01*
X4084762Y-12765524D02*
X4094286Y-12756000D01*
X4113333Y-12746476D01*
X4160952Y-12746476D01*
X4180000Y-12756000D01*
X4189524Y-12765524D01*
X4199048Y-12784571D01*
X4199048Y-12803619D01*
X4189524Y-12832190D01*
X4075238Y-12946476D01*
X4199048Y-12946476D01*
X4284762Y-12946476D02*
X4284762Y-12813143D01*
X4284762Y-12832190D02*
X4294286Y-12822667D01*
X4313333Y-12813143D01*
X4341905Y-12813143D01*
X4360952Y-12822667D01*
X4370476Y-12841714D01*
X4370476Y-12946476D01*
X4370476Y-12841714D02*
X4380000Y-12822667D01*
X4399048Y-12813143D01*
X4427619Y-12813143D01*
X4446667Y-12822667D01*
X4456190Y-12841714D01*
X4456190Y-12946476D01*
X4551429Y-12946476D02*
X4551429Y-12813143D01*
X4551429Y-12832190D02*
X4560952Y-12822667D01*
X4580000Y-12813143D01*
X4608571Y-12813143D01*
X4627619Y-12822667D01*
X4637143Y-12841714D01*
X4637143Y-12946476D01*
X4637143Y-12841714D02*
X4646667Y-12822667D01*
X4665714Y-12813143D01*
X4694286Y-12813143D01*
X4713333Y-12822667D01*
X4722857Y-12841714D01*
X4722857Y-12946476D01*
X5113333Y-12736952D02*
X4941905Y-12994095D01*
X5370476Y-12746476D02*
X5389524Y-12746476D01*
X5408571Y-12756000D01*
X5418095Y-12765524D01*
X5427619Y-12784571D01*
X5437143Y-12822667D01*
X5437143Y-12870286D01*
X5427619Y-12908381D01*
X5418095Y-12927428D01*
X5408571Y-12936952D01*
X5389524Y-12946476D01*
X5370476Y-12946476D01*
X5351429Y-12936952D01*
X5341905Y-12927428D01*
X5332381Y-12908381D01*
X5322857Y-12870286D01*
X5322857Y-12822667D01*
X5332381Y-12784571D01*
X5341905Y-12765524D01*
X5351429Y-12756000D01*
X5370476Y-12746476D01*
X5522857Y-12927428D02*
X5532381Y-12936952D01*
X5522857Y-12946476D01*
X5513333Y-12936952D01*
X5522857Y-12927428D01*
X5522857Y-12946476D01*
X5656190Y-12746476D02*
X5675238Y-12746476D01*
X5694286Y-12756000D01*
X5703809Y-12765524D01*
X5713333Y-12784571D01*
X5722857Y-12822667D01*
X5722857Y-12870286D01*
X5713333Y-12908381D01*
X5703809Y-12927428D01*
X5694286Y-12936952D01*
X5675238Y-12946476D01*
X5656190Y-12946476D01*
X5637143Y-12936952D01*
X5627619Y-12927428D01*
X5618095Y-12908381D01*
X5608571Y-12870286D01*
X5608571Y-12822667D01*
X5618095Y-12784571D01*
X5627619Y-12765524D01*
X5637143Y-12756000D01*
X5656190Y-12746476D01*
X5789524Y-12746476D02*
X5913333Y-12746476D01*
X5846667Y-12822667D01*
X5875238Y-12822667D01*
X5894286Y-12832190D01*
X5903809Y-12841714D01*
X5913333Y-12860762D01*
X5913333Y-12908381D01*
X5903809Y-12927428D01*
X5894286Y-12936952D01*
X5875238Y-12946476D01*
X5818095Y-12946476D01*
X5799048Y-12936952D01*
X5789524Y-12927428D01*
X6037143Y-12746476D02*
X6056190Y-12746476D01*
X6075238Y-12756000D01*
X6084762Y-12765524D01*
X6094286Y-12784571D01*
X6103809Y-12822667D01*
X6103809Y-12870286D01*
X6094286Y-12908381D01*
X6084762Y-12927428D01*
X6075238Y-12936952D01*
X6056190Y-12946476D01*
X6037143Y-12946476D01*
X6018095Y-12936952D01*
X6008571Y-12927428D01*
X5999048Y-12908381D01*
X5989524Y-12870286D01*
X5989524Y-12822667D01*
X5999048Y-12784571D01*
X6008571Y-12765524D01*
X6018095Y-12756000D01*
X6037143Y-12746476D01*
X6227619Y-12746476D02*
X6246667Y-12746476D01*
X6265714Y-12756000D01*
X6275238Y-12765524D01*
X6284762Y-12784571D01*
X6294286Y-12822667D01*
X6294286Y-12870286D01*
X6284762Y-12908381D01*
X6275238Y-12927428D01*
X6265714Y-12936952D01*
X6246667Y-12946476D01*
X6227619Y-12946476D01*
X6208571Y-12936952D01*
X6199048Y-12927428D01*
X6189524Y-12908381D01*
X6180000Y-12870286D01*
X6180000Y-12822667D01*
X6189524Y-12784571D01*
X6199048Y-12765524D01*
X6208571Y-12756000D01*
X6227619Y-12746476D01*
X6370476Y-12746476D02*
X6370476Y-12784571D01*
X6446667Y-12746476D02*
X6446667Y-12784571D01*
X6741905Y-13022667D02*
X6732381Y-13013143D01*
X6713333Y-12984571D01*
X6703809Y-12965524D01*
X6694286Y-12936952D01*
X6684762Y-12889333D01*
X6684762Y-12851238D01*
X6694286Y-12803619D01*
X6703809Y-12775048D01*
X6713333Y-12756000D01*
X6732381Y-12727428D01*
X6741905Y-12717905D01*
X6808571Y-12765524D02*
X6818095Y-12756000D01*
X6837143Y-12746476D01*
X6884762Y-12746476D01*
X6903809Y-12756000D01*
X6913333Y-12765524D01*
X6922857Y-12784571D01*
X6922857Y-12803619D01*
X6913333Y-12832190D01*
X6799048Y-12946476D01*
X6922857Y-12946476D01*
X7160952Y-12946476D02*
X7160952Y-12746476D01*
X7246667Y-12946476D02*
X7246667Y-12841714D01*
X7237143Y-12822667D01*
X7218095Y-12813143D01*
X7189524Y-12813143D01*
X7170476Y-12822667D01*
X7160952Y-12832190D01*
X7370476Y-12946476D02*
X7351428Y-12936952D01*
X7341905Y-12927428D01*
X7332381Y-12908381D01*
X7332381Y-12851238D01*
X7341905Y-12832190D01*
X7351428Y-12822667D01*
X7370476Y-12813143D01*
X7399048Y-12813143D01*
X7418095Y-12822667D01*
X7427619Y-12832190D01*
X7437143Y-12851238D01*
X7437143Y-12908381D01*
X7427619Y-12927428D01*
X7418095Y-12936952D01*
X7399048Y-12946476D01*
X7370476Y-12946476D01*
X7551428Y-12946476D02*
X7532381Y-12936952D01*
X7522857Y-12917905D01*
X7522857Y-12746476D01*
X7703809Y-12936952D02*
X7684762Y-12946476D01*
X7646667Y-12946476D01*
X7627619Y-12936952D01*
X7618095Y-12917905D01*
X7618095Y-12841714D01*
X7627619Y-12822667D01*
X7646667Y-12813143D01*
X7684762Y-12813143D01*
X7703809Y-12822667D01*
X7713333Y-12841714D01*
X7713333Y-12860762D01*
X7618095Y-12879809D01*
X7789524Y-12936952D02*
X7808571Y-12946476D01*
X7846667Y-12946476D01*
X7865714Y-12936952D01*
X7875238Y-12917905D01*
X7875238Y-12908381D01*
X7865714Y-12889333D01*
X7846667Y-12879809D01*
X7818095Y-12879809D01*
X7799048Y-12870286D01*
X7789524Y-12851238D01*
X7789524Y-12841714D01*
X7799048Y-12822667D01*
X7818095Y-12813143D01*
X7846667Y-12813143D01*
X7865714Y-12822667D01*
X7941905Y-13022667D02*
X7951428Y-13013143D01*
X7970476Y-12984571D01*
X7980000Y-12965524D01*
X7989524Y-12936952D01*
X7999048Y-12889333D01*
X7999048Y-12851238D01*
X7989524Y-12803619D01*
X7980000Y-12775048D01*
X7970476Y-12756000D01*
X7951428Y-12727428D01*
X7941905Y-12717905D01*
X8303809Y-13022667D02*
X8294286Y-13013143D01*
X8275238Y-12984571D01*
X8265714Y-12965524D01*
X8256190Y-12936952D01*
X8246667Y-12889333D01*
X8246667Y-12851238D01*
X8256190Y-12803619D01*
X8265714Y-12775048D01*
X8275238Y-12756000D01*
X8294286Y-12727428D01*
X8303809Y-12717905D01*
X8380000Y-12813143D02*
X8380000Y-12946476D01*
X8380000Y-12832190D02*
X8389524Y-12822667D01*
X8408571Y-12813143D01*
X8437143Y-12813143D01*
X8456190Y-12822667D01*
X8465714Y-12841714D01*
X8465714Y-12946476D01*
X8589524Y-12946476D02*
X8570476Y-12936952D01*
X8560952Y-12927428D01*
X8551429Y-12908381D01*
X8551429Y-12851238D01*
X8560952Y-12832190D01*
X8570476Y-12822667D01*
X8589524Y-12813143D01*
X8618095Y-12813143D01*
X8637143Y-12822667D01*
X8646667Y-12832190D01*
X8656190Y-12851238D01*
X8656190Y-12908381D01*
X8646667Y-12927428D01*
X8637143Y-12936952D01*
X8618095Y-12946476D01*
X8589524Y-12946476D01*
X8713333Y-12813143D02*
X8789524Y-12813143D01*
X8741905Y-12746476D02*
X8741905Y-12917905D01*
X8751429Y-12936952D01*
X8770476Y-12946476D01*
X8789524Y-12946476D01*
X9008571Y-12813143D02*
X9008571Y-13013143D01*
X9008571Y-12822667D02*
X9027619Y-12813143D01*
X9065714Y-12813143D01*
X9084762Y-12822667D01*
X9094286Y-12832190D01*
X9103810Y-12851238D01*
X9103810Y-12908381D01*
X9094286Y-12927428D01*
X9084762Y-12936952D01*
X9065714Y-12946476D01*
X9027619Y-12946476D01*
X9008571Y-12936952D01*
X9218095Y-12946476D02*
X9199048Y-12936952D01*
X9189524Y-12917905D01*
X9189524Y-12746476D01*
X9380000Y-12946476D02*
X9380000Y-12841714D01*
X9370476Y-12822667D01*
X9351429Y-12813143D01*
X9313333Y-12813143D01*
X9294286Y-12822667D01*
X9380000Y-12936952D02*
X9360952Y-12946476D01*
X9313333Y-12946476D01*
X9294286Y-12936952D01*
X9284762Y-12917905D01*
X9284762Y-12898857D01*
X9294286Y-12879809D01*
X9313333Y-12870286D01*
X9360952Y-12870286D01*
X9380000Y-12860762D01*
X9446667Y-12813143D02*
X9522857Y-12813143D01*
X9475238Y-12746476D02*
X9475238Y-12917905D01*
X9484762Y-12936952D01*
X9503810Y-12946476D01*
X9522857Y-12946476D01*
X9665714Y-12936952D02*
X9646667Y-12946476D01*
X9608571Y-12946476D01*
X9589524Y-12936952D01*
X9580000Y-12917905D01*
X9580000Y-12841714D01*
X9589524Y-12822667D01*
X9608571Y-12813143D01*
X9646667Y-12813143D01*
X9665714Y-12822667D01*
X9675238Y-12841714D01*
X9675238Y-12860762D01*
X9580000Y-12879809D01*
X9846667Y-12946476D02*
X9846667Y-12746476D01*
X9846667Y-12936952D02*
X9827619Y-12946476D01*
X9789524Y-12946476D01*
X9770476Y-12936952D01*
X9760952Y-12927428D01*
X9751429Y-12908381D01*
X9751429Y-12851238D01*
X9760952Y-12832190D01*
X9770476Y-12822667D01*
X9789524Y-12813143D01*
X9827619Y-12813143D01*
X9846667Y-12822667D01*
X9922857Y-13022667D02*
X9932381Y-13013143D01*
X9951429Y-12984571D01*
X9960952Y-12965524D01*
X9970476Y-12936952D01*
X9980000Y-12889333D01*
X9980000Y-12851238D01*
X9970476Y-12803619D01*
X9960952Y-12775048D01*
X9951429Y-12756000D01*
X9932381Y-12727428D01*
X9922857Y-12717905D01*
X3170000Y-13120000D02*
G75*
G03*
X3170000Y-13120000I-100000J0D01*
G01*
X3408571Y-13010476D02*
X3532381Y-13010476D01*
X3465714Y-13086667D01*
X3494286Y-13086667D01*
X3513333Y-13096190D01*
X3522857Y-13105714D01*
X3532381Y-13124762D01*
X3532381Y-13172381D01*
X3522857Y-13191428D01*
X3513333Y-13200952D01*
X3494286Y-13210476D01*
X3437143Y-13210476D01*
X3418095Y-13200952D01*
X3408571Y-13191428D01*
X3618095Y-13191428D02*
X3627619Y-13200952D01*
X3618095Y-13210476D01*
X3608571Y-13200952D01*
X3618095Y-13191428D01*
X3618095Y-13210476D01*
X3703809Y-13029524D02*
X3713333Y-13020000D01*
X3732381Y-13010476D01*
X3780000Y-13010476D01*
X3799048Y-13020000D01*
X3808571Y-13029524D01*
X3818095Y-13048571D01*
X3818095Y-13067619D01*
X3808571Y-13096190D01*
X3694286Y-13210476D01*
X3818095Y-13210476D01*
X3999048Y-13010476D02*
X3903809Y-13010476D01*
X3894286Y-13105714D01*
X3903809Y-13096190D01*
X3922857Y-13086667D01*
X3970476Y-13086667D01*
X3989524Y-13096190D01*
X3999048Y-13105714D01*
X4008571Y-13124762D01*
X4008571Y-13172381D01*
X3999048Y-13191428D01*
X3989524Y-13200952D01*
X3970476Y-13210476D01*
X3922857Y-13210476D01*
X3903809Y-13200952D01*
X3894286Y-13191428D01*
X4199048Y-13210476D02*
X4084762Y-13210476D01*
X4141905Y-13210476D02*
X4141905Y-13010476D01*
X4122857Y-13039048D01*
X4103809Y-13058095D01*
X4084762Y-13067619D01*
X4284762Y-13210476D02*
X4284762Y-13077143D01*
X4284762Y-13096190D02*
X4294286Y-13086667D01*
X4313333Y-13077143D01*
X4341905Y-13077143D01*
X4360952Y-13086667D01*
X4370476Y-13105714D01*
X4370476Y-13210476D01*
X4370476Y-13105714D02*
X4380000Y-13086667D01*
X4399048Y-13077143D01*
X4427619Y-13077143D01*
X4446667Y-13086667D01*
X4456190Y-13105714D01*
X4456190Y-13210476D01*
X4551429Y-13210476D02*
X4551429Y-13077143D01*
X4551429Y-13096190D02*
X4560952Y-13086667D01*
X4580000Y-13077143D01*
X4608571Y-13077143D01*
X4627619Y-13086667D01*
X4637143Y-13105714D01*
X4637143Y-13210476D01*
X4637143Y-13105714D02*
X4646667Y-13086667D01*
X4665714Y-13077143D01*
X4694286Y-13077143D01*
X4713333Y-13086667D01*
X4722857Y-13105714D01*
X4722857Y-13210476D01*
X5113333Y-13000952D02*
X4941905Y-13258095D01*
X5370476Y-13010476D02*
X5389524Y-13010476D01*
X5408571Y-13020000D01*
X5418095Y-13029524D01*
X5427619Y-13048571D01*
X5437143Y-13086667D01*
X5437143Y-13134286D01*
X5427619Y-13172381D01*
X5418095Y-13191428D01*
X5408571Y-13200952D01*
X5389524Y-13210476D01*
X5370476Y-13210476D01*
X5351429Y-13200952D01*
X5341905Y-13191428D01*
X5332381Y-13172381D01*
X5322857Y-13134286D01*
X5322857Y-13086667D01*
X5332381Y-13048571D01*
X5341905Y-13029524D01*
X5351429Y-13020000D01*
X5370476Y-13010476D01*
X5522857Y-13191428D02*
X5532381Y-13200952D01*
X5522857Y-13210476D01*
X5513333Y-13200952D01*
X5522857Y-13191428D01*
X5522857Y-13210476D01*
X5722857Y-13210476D02*
X5608571Y-13210476D01*
X5665714Y-13210476D02*
X5665714Y-13010476D01*
X5646667Y-13039048D01*
X5627619Y-13058095D01*
X5608571Y-13067619D01*
X5799048Y-13029524D02*
X5808571Y-13020000D01*
X5827619Y-13010476D01*
X5875238Y-13010476D01*
X5894286Y-13020000D01*
X5903809Y-13029524D01*
X5913333Y-13048571D01*
X5913333Y-13067619D01*
X5903809Y-13096190D01*
X5789524Y-13210476D01*
X5913333Y-13210476D01*
X6027619Y-13096190D02*
X6008571Y-13086667D01*
X5999048Y-13077143D01*
X5989524Y-13058095D01*
X5989524Y-13048571D01*
X5999048Y-13029524D01*
X6008571Y-13020000D01*
X6027619Y-13010476D01*
X6065714Y-13010476D01*
X6084762Y-13020000D01*
X6094286Y-13029524D01*
X6103809Y-13048571D01*
X6103809Y-13058095D01*
X6094286Y-13077143D01*
X6084762Y-13086667D01*
X6065714Y-13096190D01*
X6027619Y-13096190D01*
X6008571Y-13105714D01*
X5999048Y-13115238D01*
X5989524Y-13134286D01*
X5989524Y-13172381D01*
X5999048Y-13191428D01*
X6008571Y-13200952D01*
X6027619Y-13210476D01*
X6065714Y-13210476D01*
X6084762Y-13200952D01*
X6094286Y-13191428D01*
X6103809Y-13172381D01*
X6103809Y-13134286D01*
X6094286Y-13115238D01*
X6084762Y-13105714D01*
X6065714Y-13096190D01*
X6227619Y-13010476D02*
X6246667Y-13010476D01*
X6265714Y-13020000D01*
X6275238Y-13029524D01*
X6284762Y-13048571D01*
X6294286Y-13086667D01*
X6294286Y-13134286D01*
X6284762Y-13172381D01*
X6275238Y-13191428D01*
X6265714Y-13200952D01*
X6246667Y-13210476D01*
X6227619Y-13210476D01*
X6208571Y-13200952D01*
X6199048Y-13191428D01*
X6189524Y-13172381D01*
X6180000Y-13134286D01*
X6180000Y-13086667D01*
X6189524Y-13048571D01*
X6199048Y-13029524D01*
X6208571Y-13020000D01*
X6227619Y-13010476D01*
X6370476Y-13010476D02*
X6370476Y-13048571D01*
X6446667Y-13010476D02*
X6446667Y-13048571D01*
X6741905Y-13286667D02*
X6732381Y-13277143D01*
X6713333Y-13248571D01*
X6703809Y-13229524D01*
X6694286Y-13200952D01*
X6684762Y-13153333D01*
X6684762Y-13115238D01*
X6694286Y-13067619D01*
X6703809Y-13039048D01*
X6713333Y-13020000D01*
X6732381Y-12991428D01*
X6741905Y-12981905D01*
X6903809Y-13010476D02*
X6865714Y-13010476D01*
X6846667Y-13020000D01*
X6837143Y-13029524D01*
X6818095Y-13058095D01*
X6808571Y-13096190D01*
X6808571Y-13172381D01*
X6818095Y-13191428D01*
X6827619Y-13200952D01*
X6846667Y-13210476D01*
X6884762Y-13210476D01*
X6903809Y-13200952D01*
X6913333Y-13191428D01*
X6922857Y-13172381D01*
X6922857Y-13124762D01*
X6913333Y-13105714D01*
X6903809Y-13096190D01*
X6884762Y-13086667D01*
X6846667Y-13086667D01*
X6827619Y-13096190D01*
X6818095Y-13105714D01*
X6808571Y-13124762D01*
X7160952Y-13210476D02*
X7160952Y-13010476D01*
X7246667Y-13210476D02*
X7246667Y-13105714D01*
X7237143Y-13086667D01*
X7218095Y-13077143D01*
X7189524Y-13077143D01*
X7170476Y-13086667D01*
X7160952Y-13096190D01*
X7370476Y-13210476D02*
X7351428Y-13200952D01*
X7341905Y-13191428D01*
X7332381Y-13172381D01*
X7332381Y-13115238D01*
X7341905Y-13096190D01*
X7351428Y-13086667D01*
X7370476Y-13077143D01*
X7399048Y-13077143D01*
X7418095Y-13086667D01*
X7427619Y-13096190D01*
X7437143Y-13115238D01*
X7437143Y-13172381D01*
X7427619Y-13191428D01*
X7418095Y-13200952D01*
X7399048Y-13210476D01*
X7370476Y-13210476D01*
X7551428Y-13210476D02*
X7532381Y-13200952D01*
X7522857Y-13181905D01*
X7522857Y-13010476D01*
X7703809Y-13200952D02*
X7684762Y-13210476D01*
X7646667Y-13210476D01*
X7627619Y-13200952D01*
X7618095Y-13181905D01*
X7618095Y-13105714D01*
X7627619Y-13086667D01*
X7646667Y-13077143D01*
X7684762Y-13077143D01*
X7703809Y-13086667D01*
X7713333Y-13105714D01*
X7713333Y-13124762D01*
X7618095Y-13143809D01*
X7789524Y-13200952D02*
X7808571Y-13210476D01*
X7846667Y-13210476D01*
X7865714Y-13200952D01*
X7875238Y-13181905D01*
X7875238Y-13172381D01*
X7865714Y-13153333D01*
X7846667Y-13143809D01*
X7818095Y-13143809D01*
X7799048Y-13134286D01*
X7789524Y-13115238D01*
X7789524Y-13105714D01*
X7799048Y-13086667D01*
X7818095Y-13077143D01*
X7846667Y-13077143D01*
X7865714Y-13086667D01*
X7941905Y-13286667D02*
X7951428Y-13277143D01*
X7970476Y-13248571D01*
X7980000Y-13229524D01*
X7989524Y-13200952D01*
X7999048Y-13153333D01*
X7999048Y-13115238D01*
X7989524Y-13067619D01*
X7980000Y-13039048D01*
X7970476Y-13020000D01*
X7951428Y-12991428D01*
X7941905Y-12981905D01*
X8303809Y-13286667D02*
X8294286Y-13277143D01*
X8275238Y-13248571D01*
X8265714Y-13229524D01*
X8256190Y-13200952D01*
X8246667Y-13153333D01*
X8246667Y-13115238D01*
X8256190Y-13067619D01*
X8265714Y-13039048D01*
X8275238Y-13020000D01*
X8294286Y-12991428D01*
X8303809Y-12981905D01*
X8380000Y-13077143D02*
X8380000Y-13210476D01*
X8380000Y-13096190D02*
X8389524Y-13086667D01*
X8408571Y-13077143D01*
X8437143Y-13077143D01*
X8456190Y-13086667D01*
X8465714Y-13105714D01*
X8465714Y-13210476D01*
X8589524Y-13210476D02*
X8570476Y-13200952D01*
X8560952Y-13191428D01*
X8551429Y-13172381D01*
X8551429Y-13115238D01*
X8560952Y-13096190D01*
X8570476Y-13086667D01*
X8589524Y-13077143D01*
X8618095Y-13077143D01*
X8637143Y-13086667D01*
X8646667Y-13096190D01*
X8656190Y-13115238D01*
X8656190Y-13172381D01*
X8646667Y-13191428D01*
X8637143Y-13200952D01*
X8618095Y-13210476D01*
X8589524Y-13210476D01*
X8713333Y-13077143D02*
X8789524Y-13077143D01*
X8741905Y-13010476D02*
X8741905Y-13181905D01*
X8751429Y-13200952D01*
X8770476Y-13210476D01*
X8789524Y-13210476D01*
X9008571Y-13077143D02*
X9008571Y-13277143D01*
X9008571Y-13086667D02*
X9027619Y-13077143D01*
X9065714Y-13077143D01*
X9084762Y-13086667D01*
X9094286Y-13096190D01*
X9103810Y-13115238D01*
X9103810Y-13172381D01*
X9094286Y-13191428D01*
X9084762Y-13200952D01*
X9065714Y-13210476D01*
X9027619Y-13210476D01*
X9008571Y-13200952D01*
X9218095Y-13210476D02*
X9199048Y-13200952D01*
X9189524Y-13181905D01*
X9189524Y-13010476D01*
X9380000Y-13210476D02*
X9380000Y-13105714D01*
X9370476Y-13086667D01*
X9351429Y-13077143D01*
X9313333Y-13077143D01*
X9294286Y-13086667D01*
X9380000Y-13200952D02*
X9360952Y-13210476D01*
X9313333Y-13210476D01*
X9294286Y-13200952D01*
X9284762Y-13181905D01*
X9284762Y-13162857D01*
X9294286Y-13143809D01*
X9313333Y-13134286D01*
X9360952Y-13134286D01*
X9380000Y-13124762D01*
X9446667Y-13077143D02*
X9522857Y-13077143D01*
X9475238Y-13010476D02*
X9475238Y-13181905D01*
X9484762Y-13200952D01*
X9503810Y-13210476D01*
X9522857Y-13210476D01*
X9665714Y-13200952D02*
X9646667Y-13210476D01*
X9608571Y-13210476D01*
X9589524Y-13200952D01*
X9580000Y-13181905D01*
X9580000Y-13105714D01*
X9589524Y-13086667D01*
X9608571Y-13077143D01*
X9646667Y-13077143D01*
X9665714Y-13086667D01*
X9675238Y-13105714D01*
X9675238Y-13124762D01*
X9580000Y-13143809D01*
X9846667Y-13210476D02*
X9846667Y-13010476D01*
X9846667Y-13200952D02*
X9827619Y-13210476D01*
X9789524Y-13210476D01*
X9770476Y-13200952D01*
X9760952Y-13191428D01*
X9751429Y-13172381D01*
X9751429Y-13115238D01*
X9760952Y-13096190D01*
X9770476Y-13086667D01*
X9789524Y-13077143D01*
X9827619Y-13077143D01*
X9846667Y-13086667D01*
X9922857Y-13286667D02*
X9932381Y-13277143D01*
X9951429Y-13248571D01*
X9960952Y-13229524D01*
X9970476Y-13200952D01*
X9980000Y-13153333D01*
X9980000Y-13115238D01*
X9970476Y-13067619D01*
X9960952Y-13039048D01*
X9951429Y-13020000D01*
X9932381Y-12991428D01*
X9922857Y-12981905D01*
M02*
