%TF.GenerationSoftware,KiCad,Pcbnew,(6.0.8)*%
%TF.CreationDate,2022-11-10T12:52:00+01:00*%
%TF.ProjectId,hoatzin,686f6174-7a69-46e2-9e6b-696361645f70,rev?*%
%TF.SameCoordinates,Original*%
%TF.FileFunction,Legend,Top*%
%TF.FilePolarity,Positive*%
%FSLAX46Y46*%
G04 Gerber Fmt 4.6, Leading zero omitted, Abs format (unit mm)*
G04 Created by KiCad (PCBNEW (6.0.8)) date 2022-11-10 12:52:00*
%MOMM*%
%LPD*%
G01*
G04 APERTURE LIST*
%ADD10C,0.150000*%
%ADD11C,0.300000*%
%ADD12C,0.254000*%
%ADD13C,0.120000*%
%ADD14C,0.200000*%
%ADD15C,0.100000*%
%ADD16C,0.127000*%
G04 APERTURE END LIST*
D10*
X180144523Y-55742571D02*
X180477857Y-55742571D01*
X180620714Y-56266380D02*
X180144523Y-56266380D01*
X180144523Y-55266380D01*
X180620714Y-55266380D01*
X180954047Y-55266380D02*
X181620714Y-56266380D01*
X181620714Y-55266380D02*
X180954047Y-56266380D01*
X181858809Y-55266380D02*
X182430238Y-55266380D01*
X182144523Y-56266380D02*
X182144523Y-55266380D01*
X182525476Y-56361619D02*
X183287380Y-56361619D01*
X183525476Y-55885428D02*
X184287380Y-55885428D01*
X183906428Y-56266380D02*
X183906428Y-55504476D01*
X184668333Y-55266380D02*
X185287380Y-55266380D01*
X184954047Y-55647333D01*
X185096904Y-55647333D01*
X185192142Y-55694952D01*
X185239761Y-55742571D01*
X185287380Y-55837809D01*
X185287380Y-56075904D01*
X185239761Y-56171142D01*
X185192142Y-56218761D01*
X185096904Y-56266380D01*
X184811190Y-56266380D01*
X184715952Y-56218761D01*
X184668333Y-56171142D01*
X185715952Y-56171142D02*
X185763571Y-56218761D01*
X185715952Y-56266380D01*
X185668333Y-56218761D01*
X185715952Y-56171142D01*
X185715952Y-56266380D01*
X186096904Y-55266380D02*
X186715952Y-55266380D01*
X186382619Y-55647333D01*
X186525476Y-55647333D01*
X186620714Y-55694952D01*
X186668333Y-55742571D01*
X186715952Y-55837809D01*
X186715952Y-56075904D01*
X186668333Y-56171142D01*
X186620714Y-56218761D01*
X186525476Y-56266380D01*
X186239761Y-56266380D01*
X186144523Y-56218761D01*
X186096904Y-56171142D01*
X187001666Y-55266380D02*
X187335000Y-56266380D01*
X187668333Y-55266380D01*
X65834952Y-71318380D02*
X65834952Y-70318380D01*
X66168285Y-71032666D01*
X66501619Y-70318380D01*
X66501619Y-71318380D01*
X66977809Y-71318380D02*
X66977809Y-70318380D01*
X67454000Y-71318380D02*
X67454000Y-70318380D01*
X67692095Y-70318380D01*
X67834952Y-70366000D01*
X67930190Y-70461238D01*
X67977809Y-70556476D01*
X68025428Y-70746952D01*
X68025428Y-70889809D01*
X67977809Y-71080285D01*
X67930190Y-71175523D01*
X67834952Y-71270761D01*
X67692095Y-71318380D01*
X67454000Y-71318380D01*
X68454000Y-71318380D02*
X68454000Y-70318380D01*
X68692095Y-71413619D02*
X69454000Y-71413619D01*
X69882571Y-70318380D02*
X70073047Y-70318380D01*
X70168285Y-70366000D01*
X70263523Y-70461238D01*
X70311142Y-70651714D01*
X70311142Y-70985047D01*
X70263523Y-71175523D01*
X70168285Y-71270761D01*
X70073047Y-71318380D01*
X69882571Y-71318380D01*
X69787333Y-71270761D01*
X69692095Y-71175523D01*
X69644476Y-70985047D01*
X69644476Y-70651714D01*
X69692095Y-70461238D01*
X69787333Y-70366000D01*
X69882571Y-70318380D01*
X70739714Y-70318380D02*
X70739714Y-71127904D01*
X70787333Y-71223142D01*
X70834952Y-71270761D01*
X70930190Y-71318380D01*
X71120666Y-71318380D01*
X71215904Y-71270761D01*
X71263523Y-71223142D01*
X71311142Y-71127904D01*
X71311142Y-70318380D01*
X71644476Y-70318380D02*
X72215904Y-70318380D01*
X71930190Y-71318380D02*
X71930190Y-70318380D01*
X186954428Y-66640285D02*
X186954428Y-65878380D01*
X187335380Y-66259333D02*
X186573476Y-66259333D01*
X186335380Y-65497428D02*
X186335380Y-64878380D01*
X186716333Y-65211714D01*
X186716333Y-65068857D01*
X186763952Y-64973619D01*
X186811571Y-64926000D01*
X186906809Y-64878380D01*
X187144904Y-64878380D01*
X187240142Y-64926000D01*
X187287761Y-64973619D01*
X187335380Y-65068857D01*
X187335380Y-65354571D01*
X187287761Y-65449809D01*
X187240142Y-65497428D01*
X187240142Y-64449809D02*
X187287761Y-64402190D01*
X187335380Y-64449809D01*
X187287761Y-64497428D01*
X187240142Y-64449809D01*
X187335380Y-64449809D01*
X186335380Y-64068857D02*
X186335380Y-63449809D01*
X186716333Y-63783142D01*
X186716333Y-63640285D01*
X186763952Y-63545047D01*
X186811571Y-63497428D01*
X186906809Y-63449809D01*
X187144904Y-63449809D01*
X187240142Y-63497428D01*
X187287761Y-63545047D01*
X187335380Y-63640285D01*
X187335380Y-63926000D01*
X187287761Y-64021238D01*
X187240142Y-64068857D01*
X186335380Y-63164095D02*
X187335380Y-62830761D01*
X186335380Y-62497428D01*
X187430619Y-62402190D02*
X187430619Y-61640285D01*
X187287761Y-61449809D02*
X187335380Y-61306952D01*
X187335380Y-61068857D01*
X187287761Y-60973619D01*
X187240142Y-60926000D01*
X187144904Y-60878380D01*
X187049666Y-60878380D01*
X186954428Y-60926000D01*
X186906809Y-60973619D01*
X186859190Y-61068857D01*
X186811571Y-61259333D01*
X186763952Y-61354571D01*
X186716333Y-61402190D01*
X186621095Y-61449809D01*
X186525857Y-61449809D01*
X186430619Y-61402190D01*
X186383000Y-61354571D01*
X186335380Y-61259333D01*
X186335380Y-61021238D01*
X186383000Y-60878380D01*
X186811571Y-60449809D02*
X186811571Y-60116476D01*
X187335380Y-59973619D02*
X187335380Y-60449809D01*
X186335380Y-60449809D01*
X186335380Y-59973619D01*
X187335380Y-59068857D02*
X187335380Y-59545047D01*
X186335380Y-59545047D01*
X91750952Y-71318380D02*
X91750952Y-70318380D01*
X92084285Y-71032666D01*
X92417619Y-70318380D01*
X92417619Y-71318380D01*
X92893809Y-71318380D02*
X92893809Y-70318380D01*
X93370000Y-71318380D02*
X93370000Y-70318380D01*
X93608095Y-70318380D01*
X93750952Y-70366000D01*
X93846190Y-70461238D01*
X93893809Y-70556476D01*
X93941428Y-70746952D01*
X93941428Y-70889809D01*
X93893809Y-71080285D01*
X93846190Y-71175523D01*
X93750952Y-71270761D01*
X93608095Y-71318380D01*
X93370000Y-71318380D01*
X94370000Y-71318380D02*
X94370000Y-70318380D01*
X94608095Y-71413619D02*
X95370000Y-71413619D01*
X95465238Y-70318380D02*
X96036666Y-70318380D01*
X95750952Y-71318380D02*
X95750952Y-70318380D01*
X96370000Y-71318380D02*
X96370000Y-70318380D01*
X96370000Y-70794571D02*
X96941428Y-70794571D01*
X96941428Y-71318380D02*
X96941428Y-70318380D01*
X97989047Y-71318380D02*
X97655714Y-70842190D01*
X97417619Y-71318380D02*
X97417619Y-70318380D01*
X97798571Y-70318380D01*
X97893809Y-70366000D01*
X97941428Y-70413619D01*
X97989047Y-70508857D01*
X97989047Y-70651714D01*
X97941428Y-70746952D01*
X97893809Y-70794571D01*
X97798571Y-70842190D01*
X97417619Y-70842190D01*
X98417619Y-70318380D02*
X98417619Y-71127904D01*
X98465238Y-71223142D01*
X98512857Y-71270761D01*
X98608095Y-71318380D01*
X98798571Y-71318380D01*
X98893809Y-71270761D01*
X98941428Y-71223142D01*
X98989047Y-71127904D01*
X98989047Y-70318380D01*
X118317619Y-71318380D02*
X118317619Y-70318380D01*
X118650952Y-71032666D01*
X118984285Y-70318380D01*
X118984285Y-71318380D01*
X119460476Y-71318380D02*
X119460476Y-70318380D01*
X119936666Y-71318380D02*
X119936666Y-70318380D01*
X120174761Y-70318380D01*
X120317619Y-70366000D01*
X120412857Y-70461238D01*
X120460476Y-70556476D01*
X120508095Y-70746952D01*
X120508095Y-70889809D01*
X120460476Y-71080285D01*
X120412857Y-71175523D01*
X120317619Y-71270761D01*
X120174761Y-71318380D01*
X119936666Y-71318380D01*
X120936666Y-71318380D02*
X120936666Y-70318380D01*
X121174761Y-71413619D02*
X121936666Y-71413619D01*
X122174761Y-71318380D02*
X122174761Y-70318380D01*
X122650952Y-71318380D02*
X122650952Y-70318380D01*
X123222380Y-71318380D01*
X123222380Y-70318380D01*
X228290666Y-65968571D02*
X228433523Y-66016190D01*
X228481142Y-66063809D01*
X228528761Y-66159047D01*
X228528761Y-66301904D01*
X228481142Y-66397142D01*
X228433523Y-66444761D01*
X228338285Y-66492380D01*
X227957333Y-66492380D01*
X227957333Y-65492380D01*
X228290666Y-65492380D01*
X228385904Y-65540000D01*
X228433523Y-65587619D01*
X228481142Y-65682857D01*
X228481142Y-65778095D01*
X228433523Y-65873333D01*
X228385904Y-65920952D01*
X228290666Y-65968571D01*
X227957333Y-65968571D01*
X229147809Y-65492380D02*
X229338285Y-65492380D01*
X229433523Y-65540000D01*
X229528761Y-65635238D01*
X229576380Y-65825714D01*
X229576380Y-66159047D01*
X229528761Y-66349523D01*
X229433523Y-66444761D01*
X229338285Y-66492380D01*
X229147809Y-66492380D01*
X229052571Y-66444761D01*
X228957333Y-66349523D01*
X228909714Y-66159047D01*
X228909714Y-65825714D01*
X228957333Y-65635238D01*
X229052571Y-65540000D01*
X229147809Y-65492380D01*
X230195428Y-65492380D02*
X230385904Y-65492380D01*
X230481142Y-65540000D01*
X230576380Y-65635238D01*
X230624000Y-65825714D01*
X230624000Y-66159047D01*
X230576380Y-66349523D01*
X230481142Y-66444761D01*
X230385904Y-66492380D01*
X230195428Y-66492380D01*
X230100190Y-66444761D01*
X230004952Y-66349523D01*
X229957333Y-66159047D01*
X229957333Y-65825714D01*
X230004952Y-65635238D01*
X230100190Y-65540000D01*
X230195428Y-65492380D01*
X230909714Y-65492380D02*
X231481142Y-65492380D01*
X231195428Y-66492380D02*
X231195428Y-65492380D01*
X232004952Y-65492380D02*
X232100190Y-65492380D01*
X232195428Y-65540000D01*
X232243047Y-65587619D01*
X232290666Y-65682857D01*
X232338285Y-65873333D01*
X232338285Y-66111428D01*
X232290666Y-66301904D01*
X232243047Y-66397142D01*
X232195428Y-66444761D01*
X232100190Y-66492380D01*
X232004952Y-66492380D01*
X231909714Y-66444761D01*
X231862095Y-66397142D01*
X231814476Y-66301904D01*
X231766857Y-66111428D01*
X231766857Y-65873333D01*
X231814476Y-65682857D01*
X231862095Y-65587619D01*
X231909714Y-65540000D01*
X232004952Y-65492380D01*
X159014428Y-65926000D02*
X159014428Y-65164095D01*
X159395380Y-65545047D02*
X158633476Y-65545047D01*
X158395380Y-64211714D02*
X158395380Y-64687904D01*
X158871571Y-64735523D01*
X158823952Y-64687904D01*
X158776333Y-64592666D01*
X158776333Y-64354571D01*
X158823952Y-64259333D01*
X158871571Y-64211714D01*
X158966809Y-64164095D01*
X159204904Y-64164095D01*
X159300142Y-64211714D01*
X159347761Y-64259333D01*
X159395380Y-64354571D01*
X159395380Y-64592666D01*
X159347761Y-64687904D01*
X159300142Y-64735523D01*
X158395380Y-63878380D02*
X159395380Y-63545047D01*
X158395380Y-63211714D01*
X159490619Y-63116476D02*
X159490619Y-62354571D01*
X159347761Y-62164095D02*
X159395380Y-62021238D01*
X159395380Y-61783142D01*
X159347761Y-61687904D01*
X159300142Y-61640285D01*
X159204904Y-61592666D01*
X159109666Y-61592666D01*
X159014428Y-61640285D01*
X158966809Y-61687904D01*
X158919190Y-61783142D01*
X158871571Y-61973619D01*
X158823952Y-62068857D01*
X158776333Y-62116476D01*
X158681095Y-62164095D01*
X158585857Y-62164095D01*
X158490619Y-62116476D01*
X158443000Y-62068857D01*
X158395380Y-61973619D01*
X158395380Y-61735523D01*
X158443000Y-61592666D01*
X158871571Y-61164095D02*
X158871571Y-60830761D01*
X159395380Y-60687904D02*
X159395380Y-61164095D01*
X158395380Y-61164095D01*
X158395380Y-60687904D01*
X159395380Y-59783142D02*
X159395380Y-60259333D01*
X158395380Y-60259333D01*
D11*
X60790714Y-114343571D02*
X60790714Y-112843571D01*
X60790714Y-113557857D02*
X61647857Y-113557857D01*
X61647857Y-114343571D02*
X61647857Y-112843571D01*
X62647857Y-112843571D02*
X62933571Y-112843571D01*
X63076428Y-112915000D01*
X63219285Y-113057857D01*
X63290714Y-113343571D01*
X63290714Y-113843571D01*
X63219285Y-114129285D01*
X63076428Y-114272142D01*
X62933571Y-114343571D01*
X62647857Y-114343571D01*
X62505000Y-114272142D01*
X62362142Y-114129285D01*
X62290714Y-113843571D01*
X62290714Y-113343571D01*
X62362142Y-113057857D01*
X62505000Y-112915000D01*
X62647857Y-112843571D01*
X63862142Y-113915000D02*
X64576428Y-113915000D01*
X63719285Y-114343571D02*
X64219285Y-112843571D01*
X64719285Y-114343571D01*
X65005000Y-112843571D02*
X65862142Y-112843571D01*
X65433571Y-114343571D02*
X65433571Y-112843571D01*
X66219285Y-112843571D02*
X67219285Y-112843571D01*
X66219285Y-114343571D01*
X67219285Y-114343571D01*
X67790714Y-114343571D02*
X67790714Y-112843571D01*
X68505000Y-114343571D02*
X68505000Y-112843571D01*
X69362142Y-114343571D01*
X69362142Y-112843571D01*
X71076428Y-113343571D02*
X71433571Y-114343571D01*
X71790714Y-113343571D01*
X73147857Y-114343571D02*
X72290714Y-114343571D01*
X72719285Y-114343571D02*
X72719285Y-112843571D01*
X72576428Y-113057857D01*
X72433571Y-113200714D01*
X72290714Y-113272142D01*
X73790714Y-114200714D02*
X73862142Y-114272142D01*
X73790714Y-114343571D01*
X73719285Y-114272142D01*
X73790714Y-114200714D01*
X73790714Y-114343571D01*
X74790714Y-112843571D02*
X74933571Y-112843571D01*
X75076428Y-112915000D01*
X75147857Y-112986428D01*
X75219285Y-113129285D01*
X75290714Y-113415000D01*
X75290714Y-113772142D01*
X75219285Y-114057857D01*
X75147857Y-114200714D01*
X75076428Y-114272142D01*
X74933571Y-114343571D01*
X74790714Y-114343571D01*
X74647857Y-114272142D01*
X74576428Y-114200714D01*
X74505000Y-114057857D01*
X74433571Y-113772142D01*
X74433571Y-113415000D01*
X74505000Y-113129285D01*
X74576428Y-112986428D01*
X74647857Y-112915000D01*
X74790714Y-112843571D01*
X77933571Y-114343571D02*
X77433571Y-113629285D01*
X77076428Y-114343571D02*
X77076428Y-112843571D01*
X77647857Y-112843571D01*
X77790714Y-112915000D01*
X77862142Y-112986428D01*
X77933571Y-113129285D01*
X77933571Y-113343571D01*
X77862142Y-113486428D01*
X77790714Y-113557857D01*
X77647857Y-113629285D01*
X77076428Y-113629285D01*
X79147857Y-114272142D02*
X79005000Y-114343571D01*
X78719285Y-114343571D01*
X78576428Y-114272142D01*
X78505000Y-114129285D01*
X78505000Y-113557857D01*
X78576428Y-113415000D01*
X78719285Y-113343571D01*
X79005000Y-113343571D01*
X79147857Y-113415000D01*
X79219285Y-113557857D01*
X79219285Y-113700714D01*
X78505000Y-113843571D01*
X79719285Y-113343571D02*
X80076428Y-114343571D01*
X80433571Y-113343571D01*
X82076428Y-113915000D02*
X82790714Y-113915000D01*
X81933571Y-114343571D02*
X82433571Y-112843571D01*
X82933571Y-114343571D01*
D10*
X247975619Y-78684380D02*
X247642285Y-78208190D01*
X247404190Y-78684380D02*
X247404190Y-77684380D01*
X247785142Y-77684380D01*
X247880380Y-77732000D01*
X247928000Y-77779619D01*
X247975619Y-77874857D01*
X247975619Y-78017714D01*
X247928000Y-78112952D01*
X247880380Y-78160571D01*
X247785142Y-78208190D01*
X247404190Y-78208190D01*
X248404190Y-78160571D02*
X248737523Y-78160571D01*
X248880380Y-78684380D02*
X248404190Y-78684380D01*
X248404190Y-77684380D01*
X248880380Y-77684380D01*
X249261333Y-78636761D02*
X249404190Y-78684380D01*
X249642285Y-78684380D01*
X249737523Y-78636761D01*
X249785142Y-78589142D01*
X249832761Y-78493904D01*
X249832761Y-78398666D01*
X249785142Y-78303428D01*
X249737523Y-78255809D01*
X249642285Y-78208190D01*
X249451809Y-78160571D01*
X249356571Y-78112952D01*
X249308952Y-78065333D01*
X249261333Y-77970095D01*
X249261333Y-77874857D01*
X249308952Y-77779619D01*
X249356571Y-77732000D01*
X249451809Y-77684380D01*
X249689904Y-77684380D01*
X249832761Y-77732000D01*
X250261333Y-78160571D02*
X250594666Y-78160571D01*
X250737523Y-78684380D02*
X250261333Y-78684380D01*
X250261333Y-77684380D01*
X250737523Y-77684380D01*
X251023238Y-77684380D02*
X251594666Y-77684380D01*
X251308952Y-78684380D02*
X251308952Y-77684380D01*
X192428761Y-62825142D02*
X192476380Y-62682285D01*
X192476380Y-62444190D01*
X192428761Y-62348952D01*
X192381142Y-62301333D01*
X192285904Y-62253714D01*
X192190666Y-62253714D01*
X192095428Y-62301333D01*
X192047809Y-62348952D01*
X192000190Y-62444190D01*
X191952571Y-62634666D01*
X191904952Y-62729904D01*
X191857333Y-62777523D01*
X191762095Y-62825142D01*
X191666857Y-62825142D01*
X191571619Y-62777523D01*
X191524000Y-62729904D01*
X191476380Y-62634666D01*
X191476380Y-62396571D01*
X191524000Y-62253714D01*
X191476380Y-61920380D02*
X192476380Y-61682285D01*
X191762095Y-61491809D01*
X192476380Y-61301333D01*
X191476380Y-61063238D01*
X192476380Y-60682285D02*
X191476380Y-60682285D01*
X191476380Y-60444190D01*
X191524000Y-60301333D01*
X191619238Y-60206095D01*
X191714476Y-60158476D01*
X191904952Y-60110857D01*
X192047809Y-60110857D01*
X192238285Y-60158476D01*
X192333523Y-60206095D01*
X192428761Y-60301333D01*
X192476380Y-60444190D01*
X192476380Y-60682285D01*
X141613095Y-67397380D02*
X141613095Y-68206904D01*
X141660714Y-68302142D01*
X141708333Y-68349761D01*
X141803571Y-68397380D01*
X141994047Y-68397380D01*
X142089285Y-68349761D01*
X142136904Y-68302142D01*
X142184523Y-68206904D01*
X142184523Y-67397380D01*
X142613095Y-68349761D02*
X142755952Y-68397380D01*
X142994047Y-68397380D01*
X143089285Y-68349761D01*
X143136904Y-68302142D01*
X143184523Y-68206904D01*
X143184523Y-68111666D01*
X143136904Y-68016428D01*
X143089285Y-67968809D01*
X142994047Y-67921190D01*
X142803571Y-67873571D01*
X142708333Y-67825952D01*
X142660714Y-67778333D01*
X142613095Y-67683095D01*
X142613095Y-67587857D01*
X142660714Y-67492619D01*
X142708333Y-67445000D01*
X142803571Y-67397380D01*
X143041666Y-67397380D01*
X143184523Y-67445000D01*
X143946428Y-67873571D02*
X144089285Y-67921190D01*
X144136904Y-67968809D01*
X144184523Y-68064047D01*
X144184523Y-68206904D01*
X144136904Y-68302142D01*
X144089285Y-68349761D01*
X143994047Y-68397380D01*
X143613095Y-68397380D01*
X143613095Y-67397380D01*
X143946428Y-67397380D01*
X144041666Y-67445000D01*
X144089285Y-67492619D01*
X144136904Y-67587857D01*
X144136904Y-67683095D01*
X144089285Y-67778333D01*
X144041666Y-67825952D01*
X143946428Y-67873571D01*
X143613095Y-67873571D01*
X152918809Y-55742571D02*
X153252142Y-55742571D01*
X153395000Y-56266380D02*
X152918809Y-56266380D01*
X152918809Y-55266380D01*
X153395000Y-55266380D01*
X153728333Y-55266380D02*
X154395000Y-56266380D01*
X154395000Y-55266380D02*
X153728333Y-56266380D01*
X154633095Y-55266380D02*
X155204523Y-55266380D01*
X154918809Y-56266380D02*
X154918809Y-55266380D01*
X155299761Y-56361619D02*
X156061666Y-56361619D01*
X156299761Y-55885428D02*
X157061666Y-55885428D01*
X156680714Y-56266380D02*
X156680714Y-55504476D01*
X158014047Y-55266380D02*
X157537857Y-55266380D01*
X157490238Y-55742571D01*
X157537857Y-55694952D01*
X157633095Y-55647333D01*
X157871190Y-55647333D01*
X157966428Y-55694952D01*
X158014047Y-55742571D01*
X158061666Y-55837809D01*
X158061666Y-56075904D01*
X158014047Y-56171142D01*
X157966428Y-56218761D01*
X157871190Y-56266380D01*
X157633095Y-56266380D01*
X157537857Y-56218761D01*
X157490238Y-56171142D01*
X158347380Y-55266380D02*
X158680714Y-56266380D01*
X159014047Y-55266380D01*
%TO.C,C9*%
X236053333Y-74427142D02*
X236005714Y-74474761D01*
X235862857Y-74522380D01*
X235767619Y-74522380D01*
X235624761Y-74474761D01*
X235529523Y-74379523D01*
X235481904Y-74284285D01*
X235434285Y-74093809D01*
X235434285Y-73950952D01*
X235481904Y-73760476D01*
X235529523Y-73665238D01*
X235624761Y-73570000D01*
X235767619Y-73522380D01*
X235862857Y-73522380D01*
X236005714Y-73570000D01*
X236053333Y-73617619D01*
X236529523Y-74522380D02*
X236720000Y-74522380D01*
X236815238Y-74474761D01*
X236862857Y-74427142D01*
X236958095Y-74284285D01*
X237005714Y-74093809D01*
X237005714Y-73712857D01*
X236958095Y-73617619D01*
X236910476Y-73570000D01*
X236815238Y-73522380D01*
X236624761Y-73522380D01*
X236529523Y-73570000D01*
X236481904Y-73617619D01*
X236434285Y-73712857D01*
X236434285Y-73950952D01*
X236481904Y-74046190D01*
X236529523Y-74093809D01*
X236624761Y-74141428D01*
X236815238Y-74141428D01*
X236910476Y-74093809D01*
X236958095Y-74046190D01*
X237005714Y-73950952D01*
%TO.C,J11*%
X183787476Y-66979380D02*
X183787476Y-67693666D01*
X183739857Y-67836523D01*
X183644619Y-67931761D01*
X183501761Y-67979380D01*
X183406523Y-67979380D01*
X184787476Y-67979380D02*
X184216047Y-67979380D01*
X184501761Y-67979380D02*
X184501761Y-66979380D01*
X184406523Y-67122238D01*
X184311285Y-67217476D01*
X184216047Y-67265095D01*
X185739857Y-67979380D02*
X185168428Y-67979380D01*
X185454142Y-67979380D02*
X185454142Y-66979380D01*
X185358904Y-67122238D01*
X185263666Y-67217476D01*
X185168428Y-67265095D01*
%TO.C,R15*%
X179062142Y-97987380D02*
X178728809Y-97511190D01*
X178490714Y-97987380D02*
X178490714Y-96987380D01*
X178871666Y-96987380D01*
X178966904Y-97035000D01*
X179014523Y-97082619D01*
X179062142Y-97177857D01*
X179062142Y-97320714D01*
X179014523Y-97415952D01*
X178966904Y-97463571D01*
X178871666Y-97511190D01*
X178490714Y-97511190D01*
X180014523Y-97987380D02*
X179443095Y-97987380D01*
X179728809Y-97987380D02*
X179728809Y-96987380D01*
X179633571Y-97130238D01*
X179538333Y-97225476D01*
X179443095Y-97273095D01*
X180919285Y-96987380D02*
X180443095Y-96987380D01*
X180395476Y-97463571D01*
X180443095Y-97415952D01*
X180538333Y-97368333D01*
X180776428Y-97368333D01*
X180871666Y-97415952D01*
X180919285Y-97463571D01*
X180966904Y-97558809D01*
X180966904Y-97796904D01*
X180919285Y-97892142D01*
X180871666Y-97939761D01*
X180776428Y-97987380D01*
X180538333Y-97987380D01*
X180443095Y-97939761D01*
X180395476Y-97892142D01*
%TO.C,R2*%
X113498333Y-78812380D02*
X113165000Y-78336190D01*
X112926904Y-78812380D02*
X112926904Y-77812380D01*
X113307857Y-77812380D01*
X113403095Y-77860000D01*
X113450714Y-77907619D01*
X113498333Y-78002857D01*
X113498333Y-78145714D01*
X113450714Y-78240952D01*
X113403095Y-78288571D01*
X113307857Y-78336190D01*
X112926904Y-78336190D01*
X113879285Y-77907619D02*
X113926904Y-77860000D01*
X114022142Y-77812380D01*
X114260238Y-77812380D01*
X114355476Y-77860000D01*
X114403095Y-77907619D01*
X114450714Y-78002857D01*
X114450714Y-78098095D01*
X114403095Y-78240952D01*
X113831666Y-78812380D01*
X114450714Y-78812380D01*
%TO.C,C15*%
X180284142Y-62044857D02*
X180331761Y-62092476D01*
X180379380Y-62235333D01*
X180379380Y-62330571D01*
X180331761Y-62473428D01*
X180236523Y-62568666D01*
X180141285Y-62616285D01*
X179950809Y-62663904D01*
X179807952Y-62663904D01*
X179617476Y-62616285D01*
X179522238Y-62568666D01*
X179427000Y-62473428D01*
X179379380Y-62330571D01*
X179379380Y-62235333D01*
X179427000Y-62092476D01*
X179474619Y-62044857D01*
X180379380Y-61092476D02*
X180379380Y-61663904D01*
X180379380Y-61378190D02*
X179379380Y-61378190D01*
X179522238Y-61473428D01*
X179617476Y-61568666D01*
X179665095Y-61663904D01*
X179379380Y-60187714D02*
X179379380Y-60663904D01*
X179855571Y-60711523D01*
X179807952Y-60663904D01*
X179760333Y-60568666D01*
X179760333Y-60330571D01*
X179807952Y-60235333D01*
X179855571Y-60187714D01*
X179950809Y-60140095D01*
X180188904Y-60140095D01*
X180284142Y-60187714D01*
X180331761Y-60235333D01*
X180379380Y-60330571D01*
X180379380Y-60568666D01*
X180331761Y-60663904D01*
X180284142Y-60711523D01*
%TO.C,R6*%
X70937380Y-78322102D02*
X70461190Y-78655436D01*
X70937380Y-78893531D02*
X69937380Y-78893531D01*
X69937380Y-78512578D01*
X69985000Y-78417340D01*
X70032619Y-78369721D01*
X70127857Y-78322102D01*
X70270714Y-78322102D01*
X70365952Y-78369721D01*
X70413571Y-78417340D01*
X70461190Y-78512578D01*
X70461190Y-78893531D01*
X69937380Y-77464959D02*
X69937380Y-77655436D01*
X69985000Y-77750674D01*
X70032619Y-77798293D01*
X70175476Y-77893531D01*
X70365952Y-77941150D01*
X70746904Y-77941150D01*
X70842142Y-77893531D01*
X70889761Y-77845912D01*
X70937380Y-77750674D01*
X70937380Y-77560197D01*
X70889761Y-77464959D01*
X70842142Y-77417340D01*
X70746904Y-77369721D01*
X70508809Y-77369721D01*
X70413571Y-77417340D01*
X70365952Y-77464959D01*
X70318333Y-77560197D01*
X70318333Y-77750674D01*
X70365952Y-77845912D01*
X70413571Y-77893531D01*
X70508809Y-77941150D01*
%TO.C,C8*%
X234783333Y-112527142D02*
X234735714Y-112574761D01*
X234592857Y-112622380D01*
X234497619Y-112622380D01*
X234354761Y-112574761D01*
X234259523Y-112479523D01*
X234211904Y-112384285D01*
X234164285Y-112193809D01*
X234164285Y-112050952D01*
X234211904Y-111860476D01*
X234259523Y-111765238D01*
X234354761Y-111670000D01*
X234497619Y-111622380D01*
X234592857Y-111622380D01*
X234735714Y-111670000D01*
X234783333Y-111717619D01*
X235354761Y-112050952D02*
X235259523Y-112003333D01*
X235211904Y-111955714D01*
X235164285Y-111860476D01*
X235164285Y-111812857D01*
X235211904Y-111717619D01*
X235259523Y-111670000D01*
X235354761Y-111622380D01*
X235545238Y-111622380D01*
X235640476Y-111670000D01*
X235688095Y-111717619D01*
X235735714Y-111812857D01*
X235735714Y-111860476D01*
X235688095Y-111955714D01*
X235640476Y-112003333D01*
X235545238Y-112050952D01*
X235354761Y-112050952D01*
X235259523Y-112098571D01*
X235211904Y-112146190D01*
X235164285Y-112241428D01*
X235164285Y-112431904D01*
X235211904Y-112527142D01*
X235259523Y-112574761D01*
X235354761Y-112622380D01*
X235545238Y-112622380D01*
X235640476Y-112574761D01*
X235688095Y-112527142D01*
X235735714Y-112431904D01*
X235735714Y-112241428D01*
X235688095Y-112146190D01*
X235640476Y-112098571D01*
X235545238Y-112050952D01*
%TO.C,H3*%
X39878095Y-108072380D02*
X39878095Y-107072380D01*
X39878095Y-107548571D02*
X40449523Y-107548571D01*
X40449523Y-108072380D02*
X40449523Y-107072380D01*
X40830476Y-107072380D02*
X41449523Y-107072380D01*
X41116190Y-107453333D01*
X41259047Y-107453333D01*
X41354285Y-107500952D01*
X41401904Y-107548571D01*
X41449523Y-107643809D01*
X41449523Y-107881904D01*
X41401904Y-107977142D01*
X41354285Y-108024761D01*
X41259047Y-108072380D01*
X40973333Y-108072380D01*
X40878095Y-108024761D01*
X40830476Y-107977142D01*
%TO.C,J7*%
X226532380Y-61810833D02*
X227246666Y-61810833D01*
X227389523Y-61858452D01*
X227484761Y-61953690D01*
X227532380Y-62096547D01*
X227532380Y-62191785D01*
X226532380Y-61429880D02*
X226532380Y-60763214D01*
X227532380Y-61191785D01*
%TO.C,C11*%
X175654142Y-70934857D02*
X175701761Y-70982476D01*
X175749380Y-71125333D01*
X175749380Y-71220571D01*
X175701761Y-71363428D01*
X175606523Y-71458666D01*
X175511285Y-71506285D01*
X175320809Y-71553904D01*
X175177952Y-71553904D01*
X174987476Y-71506285D01*
X174892238Y-71458666D01*
X174797000Y-71363428D01*
X174749380Y-71220571D01*
X174749380Y-71125333D01*
X174797000Y-70982476D01*
X174844619Y-70934857D01*
X175749380Y-69982476D02*
X175749380Y-70553904D01*
X175749380Y-70268190D02*
X174749380Y-70268190D01*
X174892238Y-70363428D01*
X174987476Y-70458666D01*
X175035095Y-70553904D01*
X175749380Y-69030095D02*
X175749380Y-69601523D01*
X175749380Y-69315809D02*
X174749380Y-69315809D01*
X174892238Y-69411047D01*
X174987476Y-69506285D01*
X175035095Y-69601523D01*
%TO.C,e1*%
X132199761Y-96705712D02*
X132247380Y-96800950D01*
X132247380Y-96991426D01*
X132199761Y-97086664D01*
X132104523Y-97134283D01*
X131723571Y-97134283D01*
X131628333Y-97086664D01*
X131580714Y-96991426D01*
X131580714Y-96800950D01*
X131628333Y-96705712D01*
X131723571Y-96658093D01*
X131818809Y-96658093D01*
X131914047Y-97134283D01*
X132247380Y-95705712D02*
X132247380Y-96277140D01*
X132247380Y-95991426D02*
X131247380Y-95991426D01*
X131390238Y-96086664D01*
X131485476Y-96181902D01*
X131533095Y-96277140D01*
%TO.C,C12*%
X166764142Y-62044857D02*
X166811761Y-62092476D01*
X166859380Y-62235333D01*
X166859380Y-62330571D01*
X166811761Y-62473428D01*
X166716523Y-62568666D01*
X166621285Y-62616285D01*
X166430809Y-62663904D01*
X166287952Y-62663904D01*
X166097476Y-62616285D01*
X166002238Y-62568666D01*
X165907000Y-62473428D01*
X165859380Y-62330571D01*
X165859380Y-62235333D01*
X165907000Y-62092476D01*
X165954619Y-62044857D01*
X166859380Y-61092476D02*
X166859380Y-61663904D01*
X166859380Y-61378190D02*
X165859380Y-61378190D01*
X166002238Y-61473428D01*
X166097476Y-61568666D01*
X166145095Y-61663904D01*
X165954619Y-60711523D02*
X165907000Y-60663904D01*
X165859380Y-60568666D01*
X165859380Y-60330571D01*
X165907000Y-60235333D01*
X165954619Y-60187714D01*
X166049857Y-60140095D01*
X166145095Y-60140095D01*
X166287952Y-60187714D01*
X166859380Y-60759142D01*
X166859380Y-60140095D01*
%TO.C,C13*%
X170124142Y-66174857D02*
X170171761Y-66222476D01*
X170219380Y-66365333D01*
X170219380Y-66460571D01*
X170171761Y-66603428D01*
X170076523Y-66698666D01*
X169981285Y-66746285D01*
X169790809Y-66793904D01*
X169647952Y-66793904D01*
X169457476Y-66746285D01*
X169362238Y-66698666D01*
X169267000Y-66603428D01*
X169219380Y-66460571D01*
X169219380Y-66365333D01*
X169267000Y-66222476D01*
X169314619Y-66174857D01*
X170219380Y-65222476D02*
X170219380Y-65793904D01*
X170219380Y-65508190D02*
X169219380Y-65508190D01*
X169362238Y-65603428D01*
X169457476Y-65698666D01*
X169505095Y-65793904D01*
X169219380Y-64889142D02*
X169219380Y-64270095D01*
X169600333Y-64603428D01*
X169600333Y-64460571D01*
X169647952Y-64365333D01*
X169695571Y-64317714D01*
X169790809Y-64270095D01*
X170028904Y-64270095D01*
X170124142Y-64317714D01*
X170171761Y-64365333D01*
X170219380Y-64460571D01*
X170219380Y-64746285D01*
X170171761Y-64841523D01*
X170124142Y-64889142D01*
D12*
%TO.C,J4*%
X69426666Y-59883523D02*
X69426666Y-60790666D01*
X69366190Y-60972095D01*
X69245238Y-61093047D01*
X69063809Y-61153523D01*
X68942857Y-61153523D01*
X70575714Y-60306857D02*
X70575714Y-61153523D01*
X70273333Y-59823047D02*
X69970952Y-60730190D01*
X70757142Y-60730190D01*
D10*
%TO.C,C10*%
X179464142Y-70934857D02*
X179511761Y-70982476D01*
X179559380Y-71125333D01*
X179559380Y-71220571D01*
X179511761Y-71363428D01*
X179416523Y-71458666D01*
X179321285Y-71506285D01*
X179130809Y-71553904D01*
X178987952Y-71553904D01*
X178797476Y-71506285D01*
X178702238Y-71458666D01*
X178607000Y-71363428D01*
X178559380Y-71220571D01*
X178559380Y-71125333D01*
X178607000Y-70982476D01*
X178654619Y-70934857D01*
X179559380Y-69982476D02*
X179559380Y-70553904D01*
X179559380Y-70268190D02*
X178559380Y-70268190D01*
X178702238Y-70363428D01*
X178797476Y-70458666D01*
X178845095Y-70553904D01*
X178559380Y-69363428D02*
X178559380Y-69268190D01*
X178607000Y-69172952D01*
X178654619Y-69125333D01*
X178749857Y-69077714D01*
X178940333Y-69030095D01*
X179178428Y-69030095D01*
X179368904Y-69077714D01*
X179464142Y-69125333D01*
X179511761Y-69172952D01*
X179559380Y-69268190D01*
X179559380Y-69363428D01*
X179511761Y-69458666D01*
X179464142Y-69506285D01*
X179368904Y-69553904D01*
X179178428Y-69601523D01*
X178940333Y-69601523D01*
X178749857Y-69553904D01*
X178654619Y-69506285D01*
X178607000Y-69458666D01*
X178559380Y-69363428D01*
%TO.C,R5*%
X89607380Y-73826666D02*
X89131190Y-74160000D01*
X89607380Y-74398095D02*
X88607380Y-74398095D01*
X88607380Y-74017142D01*
X88655000Y-73921904D01*
X88702619Y-73874285D01*
X88797857Y-73826666D01*
X88940714Y-73826666D01*
X89035952Y-73874285D01*
X89083571Y-73921904D01*
X89131190Y-74017142D01*
X89131190Y-74398095D01*
X88607380Y-72921904D02*
X88607380Y-73398095D01*
X89083571Y-73445714D01*
X89035952Y-73398095D01*
X88988333Y-73302857D01*
X88988333Y-73064761D01*
X89035952Y-72969523D01*
X89083571Y-72921904D01*
X89178809Y-72874285D01*
X89416904Y-72874285D01*
X89512142Y-72921904D01*
X89559761Y-72969523D01*
X89607380Y-73064761D01*
X89607380Y-73302857D01*
X89559761Y-73398095D01*
X89512142Y-73445714D01*
%TO.C,J16*%
X248640476Y-70332380D02*
X248640476Y-71046666D01*
X248592857Y-71189523D01*
X248497619Y-71284761D01*
X248354761Y-71332380D01*
X248259523Y-71332380D01*
X249640476Y-71332380D02*
X249069047Y-71332380D01*
X249354761Y-71332380D02*
X249354761Y-70332380D01*
X249259523Y-70475238D01*
X249164285Y-70570476D01*
X249069047Y-70618095D01*
X250497619Y-70332380D02*
X250307142Y-70332380D01*
X250211904Y-70380000D01*
X250164285Y-70427619D01*
X250069047Y-70570476D01*
X250021428Y-70760952D01*
X250021428Y-71141904D01*
X250069047Y-71237142D01*
X250116666Y-71284761D01*
X250211904Y-71332380D01*
X250402380Y-71332380D01*
X250497619Y-71284761D01*
X250545238Y-71237142D01*
X250592857Y-71141904D01*
X250592857Y-70903809D01*
X250545238Y-70808571D01*
X250497619Y-70760952D01*
X250402380Y-70713333D01*
X250211904Y-70713333D01*
X250116666Y-70760952D01*
X250069047Y-70808571D01*
X250021428Y-70903809D01*
%TO.C,D2*%
X162268904Y-63704380D02*
X162268904Y-62704380D01*
X162507000Y-62704380D01*
X162649857Y-62752000D01*
X162745095Y-62847238D01*
X162792714Y-62942476D01*
X162840333Y-63132952D01*
X162840333Y-63275809D01*
X162792714Y-63466285D01*
X162745095Y-63561523D01*
X162649857Y-63656761D01*
X162507000Y-63704380D01*
X162268904Y-63704380D01*
X163221285Y-62799619D02*
X163268904Y-62752000D01*
X163364142Y-62704380D01*
X163602238Y-62704380D01*
X163697476Y-62752000D01*
X163745095Y-62799619D01*
X163792714Y-62894857D01*
X163792714Y-62990095D01*
X163745095Y-63132952D01*
X163173666Y-63704380D01*
X163792714Y-63704380D01*
%TO.C,R18*%
X232482380Y-64142857D02*
X232006190Y-64476190D01*
X232482380Y-64714285D02*
X231482380Y-64714285D01*
X231482380Y-64333333D01*
X231530000Y-64238095D01*
X231577619Y-64190476D01*
X231672857Y-64142857D01*
X231815714Y-64142857D01*
X231910952Y-64190476D01*
X231958571Y-64238095D01*
X232006190Y-64333333D01*
X232006190Y-64714285D01*
X232482380Y-63190476D02*
X232482380Y-63761904D01*
X232482380Y-63476190D02*
X231482380Y-63476190D01*
X231625238Y-63571428D01*
X231720476Y-63666666D01*
X231768095Y-63761904D01*
X231910952Y-62619047D02*
X231863333Y-62714285D01*
X231815714Y-62761904D01*
X231720476Y-62809523D01*
X231672857Y-62809523D01*
X231577619Y-62761904D01*
X231530000Y-62714285D01*
X231482380Y-62619047D01*
X231482380Y-62428571D01*
X231530000Y-62333333D01*
X231577619Y-62285714D01*
X231672857Y-62238095D01*
X231720476Y-62238095D01*
X231815714Y-62285714D01*
X231863333Y-62333333D01*
X231910952Y-62428571D01*
X231910952Y-62619047D01*
X231958571Y-62714285D01*
X232006190Y-62761904D01*
X232101428Y-62809523D01*
X232291904Y-62809523D01*
X232387142Y-62761904D01*
X232434761Y-62714285D01*
X232482380Y-62619047D01*
X232482380Y-62428571D01*
X232434761Y-62333333D01*
X232387142Y-62285714D01*
X232291904Y-62238095D01*
X232101428Y-62238095D01*
X232006190Y-62285714D01*
X231958571Y-62333333D01*
X231910952Y-62428571D01*
%TO.C,H1*%
X39878095Y-54352380D02*
X39878095Y-53352380D01*
X39878095Y-53828571D02*
X40449523Y-53828571D01*
X40449523Y-54352380D02*
X40449523Y-53352380D01*
X41449523Y-54352380D02*
X40878095Y-54352380D01*
X41163809Y-54352380D02*
X41163809Y-53352380D01*
X41068571Y-53495238D01*
X40973333Y-53590476D01*
X40878095Y-53638095D01*
%TO.C,U1*%
X141478095Y-88572380D02*
X141478095Y-89381904D01*
X141525714Y-89477142D01*
X141573333Y-89524761D01*
X141668571Y-89572380D01*
X141859047Y-89572380D01*
X141954285Y-89524761D01*
X142001904Y-89477142D01*
X142049523Y-89381904D01*
X142049523Y-88572380D01*
X143049523Y-89572380D02*
X142478095Y-89572380D01*
X142763809Y-89572380D02*
X142763809Y-88572380D01*
X142668571Y-88715238D01*
X142573333Y-88810476D01*
X142478095Y-88858095D01*
%TO.C,J10*%
X229060476Y-55557380D02*
X229060476Y-56271666D01*
X229012857Y-56414523D01*
X228917619Y-56509761D01*
X228774761Y-56557380D01*
X228679523Y-56557380D01*
X230060476Y-56557380D02*
X229489047Y-56557380D01*
X229774761Y-56557380D02*
X229774761Y-55557380D01*
X229679523Y-55700238D01*
X229584285Y-55795476D01*
X229489047Y-55843095D01*
X230679523Y-55557380D02*
X230774761Y-55557380D01*
X230870000Y-55605000D01*
X230917619Y-55652619D01*
X230965238Y-55747857D01*
X231012857Y-55938333D01*
X231012857Y-56176428D01*
X230965238Y-56366904D01*
X230917619Y-56462142D01*
X230870000Y-56509761D01*
X230774761Y-56557380D01*
X230679523Y-56557380D01*
X230584285Y-56509761D01*
X230536666Y-56462142D01*
X230489047Y-56366904D01*
X230441428Y-56176428D01*
X230441428Y-55938333D01*
X230489047Y-55747857D01*
X230536666Y-55652619D01*
X230584285Y-55605000D01*
X230679523Y-55557380D01*
%TO.C,U4*%
X172405095Y-60994380D02*
X172405095Y-61803904D01*
X172452714Y-61899142D01*
X172500333Y-61946761D01*
X172595571Y-61994380D01*
X172786047Y-61994380D01*
X172881285Y-61946761D01*
X172928904Y-61899142D01*
X172976523Y-61803904D01*
X172976523Y-60994380D01*
X173881285Y-61327714D02*
X173881285Y-61994380D01*
X173643190Y-60946761D02*
X173405095Y-61661047D01*
X174024142Y-61661047D01*
%TO.C,C16*%
X244832142Y-75834109D02*
X244879761Y-75881728D01*
X244927380Y-76024585D01*
X244927380Y-76119823D01*
X244879761Y-76262680D01*
X244784523Y-76357918D01*
X244689285Y-76405537D01*
X244498809Y-76453156D01*
X244355952Y-76453156D01*
X244165476Y-76405537D01*
X244070238Y-76357918D01*
X243975000Y-76262680D01*
X243927380Y-76119823D01*
X243927380Y-76024585D01*
X243975000Y-75881728D01*
X244022619Y-75834109D01*
X244927380Y-74881728D02*
X244927380Y-75453156D01*
X244927380Y-75167442D02*
X243927380Y-75167442D01*
X244070238Y-75262680D01*
X244165476Y-75357918D01*
X244213095Y-75453156D01*
X243927380Y-74024585D02*
X243927380Y-74215061D01*
X243975000Y-74310299D01*
X244022619Y-74357918D01*
X244165476Y-74453156D01*
X244355952Y-74500775D01*
X244736904Y-74500775D01*
X244832142Y-74453156D01*
X244879761Y-74405537D01*
X244927380Y-74310299D01*
X244927380Y-74119823D01*
X244879761Y-74024585D01*
X244832142Y-73976966D01*
X244736904Y-73929347D01*
X244498809Y-73929347D01*
X244403571Y-73976966D01*
X244355952Y-74024585D01*
X244308333Y-74119823D01*
X244308333Y-74310299D01*
X244355952Y-74405537D01*
X244403571Y-74453156D01*
X244498809Y-74500775D01*
%TO.C,H2*%
X243078095Y-108072380D02*
X243078095Y-107072380D01*
X243078095Y-107548571D02*
X243649523Y-107548571D01*
X243649523Y-108072380D02*
X243649523Y-107072380D01*
X244078095Y-107167619D02*
X244125714Y-107120000D01*
X244220952Y-107072380D01*
X244459047Y-107072380D01*
X244554285Y-107120000D01*
X244601904Y-107167619D01*
X244649523Y-107262857D01*
X244649523Y-107358095D01*
X244601904Y-107500952D01*
X244030476Y-108072380D01*
X244649523Y-108072380D01*
%TO.C,J14*%
X155847476Y-66994380D02*
X155847476Y-67708666D01*
X155799857Y-67851523D01*
X155704619Y-67946761D01*
X155561761Y-67994380D01*
X155466523Y-67994380D01*
X156847476Y-67994380D02*
X156276047Y-67994380D01*
X156561761Y-67994380D02*
X156561761Y-66994380D01*
X156466523Y-67137238D01*
X156371285Y-67232476D01*
X156276047Y-67280095D01*
X157704619Y-67327714D02*
X157704619Y-67994380D01*
X157466523Y-66946761D02*
X157228428Y-67661047D01*
X157847476Y-67661047D01*
%TO.C,D1*%
X123007380Y-74398095D02*
X122007380Y-74398095D01*
X122007380Y-74160000D01*
X122055000Y-74017142D01*
X122150238Y-73921904D01*
X122245476Y-73874285D01*
X122435952Y-73826666D01*
X122578809Y-73826666D01*
X122769285Y-73874285D01*
X122864523Y-73921904D01*
X122959761Y-74017142D01*
X123007380Y-74160000D01*
X123007380Y-74398095D01*
X123007380Y-72874285D02*
X123007380Y-73445714D01*
X123007380Y-73160000D02*
X122007380Y-73160000D01*
X122150238Y-73255238D01*
X122245476Y-73350476D01*
X122293095Y-73445714D01*
%TO.C,J13*%
X180449380Y-54271523D02*
X181163666Y-54271523D01*
X181306523Y-54319142D01*
X181401761Y-54414380D01*
X181449380Y-54557238D01*
X181449380Y-54652476D01*
X181449380Y-53271523D02*
X181449380Y-53842952D01*
X181449380Y-53557238D02*
X180449380Y-53557238D01*
X180592238Y-53652476D01*
X180687476Y-53747714D01*
X180735095Y-53842952D01*
X180449380Y-52938190D02*
X180449380Y-52319142D01*
X180830333Y-52652476D01*
X180830333Y-52509619D01*
X180877952Y-52414380D01*
X180925571Y-52366761D01*
X181020809Y-52319142D01*
X181258904Y-52319142D01*
X181354142Y-52366761D01*
X181401761Y-52414380D01*
X181449380Y-52509619D01*
X181449380Y-52795333D01*
X181401761Y-52890571D01*
X181354142Y-52938190D01*
%TO.C,R7*%
X95702380Y-73826666D02*
X95226190Y-74160000D01*
X95702380Y-74398095D02*
X94702380Y-74398095D01*
X94702380Y-74017142D01*
X94750000Y-73921904D01*
X94797619Y-73874285D01*
X94892857Y-73826666D01*
X95035714Y-73826666D01*
X95130952Y-73874285D01*
X95178571Y-73921904D01*
X95226190Y-74017142D01*
X95226190Y-74398095D01*
X94702380Y-73493333D02*
X94702380Y-72826666D01*
X95702380Y-73255238D01*
%TO.C,R3*%
X84923333Y-86557380D02*
X84590000Y-86081190D01*
X84351904Y-86557380D02*
X84351904Y-85557380D01*
X84732857Y-85557380D01*
X84828095Y-85605000D01*
X84875714Y-85652619D01*
X84923333Y-85747857D01*
X84923333Y-85890714D01*
X84875714Y-85985952D01*
X84828095Y-86033571D01*
X84732857Y-86081190D01*
X84351904Y-86081190D01*
X85256666Y-85557380D02*
X85875714Y-85557380D01*
X85542380Y-85938333D01*
X85685238Y-85938333D01*
X85780476Y-85985952D01*
X85828095Y-86033571D01*
X85875714Y-86128809D01*
X85875714Y-86366904D01*
X85828095Y-86462142D01*
X85780476Y-86509761D01*
X85685238Y-86557380D01*
X85399523Y-86557380D01*
X85304285Y-86509761D01*
X85256666Y-86462142D01*
%TO.C,C5*%
X236314585Y-68302142D02*
X236266966Y-68349761D01*
X236124109Y-68397380D01*
X236028871Y-68397380D01*
X235886013Y-68349761D01*
X235790775Y-68254523D01*
X235743156Y-68159285D01*
X235695537Y-67968809D01*
X235695537Y-67825952D01*
X235743156Y-67635476D01*
X235790775Y-67540238D01*
X235886013Y-67445000D01*
X236028871Y-67397380D01*
X236124109Y-67397380D01*
X236266966Y-67445000D01*
X236314585Y-67492619D01*
X237219347Y-67397380D02*
X236743156Y-67397380D01*
X236695537Y-67873571D01*
X236743156Y-67825952D01*
X236838394Y-67778333D01*
X237076490Y-67778333D01*
X237171728Y-67825952D01*
X237219347Y-67873571D01*
X237266966Y-67968809D01*
X237266966Y-68206904D01*
X237219347Y-68302142D01*
X237171728Y-68349761D01*
X237076490Y-68397380D01*
X236838394Y-68397380D01*
X236743156Y-68349761D01*
X236695537Y-68302142D01*
%TO.C,R13*%
X161004642Y-106877380D02*
X160671309Y-106401190D01*
X160433214Y-106877380D02*
X160433214Y-105877380D01*
X160814166Y-105877380D01*
X160909404Y-105925000D01*
X160957023Y-105972619D01*
X161004642Y-106067857D01*
X161004642Y-106210714D01*
X160957023Y-106305952D01*
X160909404Y-106353571D01*
X160814166Y-106401190D01*
X160433214Y-106401190D01*
X161957023Y-106877380D02*
X161385595Y-106877380D01*
X161671309Y-106877380D02*
X161671309Y-105877380D01*
X161576071Y-106020238D01*
X161480833Y-106115476D01*
X161385595Y-106163095D01*
X162290357Y-105877380D02*
X162909404Y-105877380D01*
X162576071Y-106258333D01*
X162718928Y-106258333D01*
X162814166Y-106305952D01*
X162861785Y-106353571D01*
X162909404Y-106448809D01*
X162909404Y-106686904D01*
X162861785Y-106782142D01*
X162814166Y-106829761D01*
X162718928Y-106877380D01*
X162433214Y-106877380D01*
X162337976Y-106829761D01*
X162290357Y-106782142D01*
%TO.C,R1*%
X116277380Y-73469166D02*
X115801190Y-73802500D01*
X116277380Y-74040595D02*
X115277380Y-74040595D01*
X115277380Y-73659642D01*
X115325000Y-73564404D01*
X115372619Y-73516785D01*
X115467857Y-73469166D01*
X115610714Y-73469166D01*
X115705952Y-73516785D01*
X115753571Y-73564404D01*
X115801190Y-73659642D01*
X115801190Y-74040595D01*
X116277380Y-72516785D02*
X116277380Y-73088214D01*
X116277380Y-72802500D02*
X115277380Y-72802500D01*
X115420238Y-72897738D01*
X115515476Y-72992976D01*
X115563095Y-73088214D01*
%TO.C,C7*%
X49363333Y-112752142D02*
X49315714Y-112799761D01*
X49172857Y-112847380D01*
X49077619Y-112847380D01*
X48934761Y-112799761D01*
X48839523Y-112704523D01*
X48791904Y-112609285D01*
X48744285Y-112418809D01*
X48744285Y-112275952D01*
X48791904Y-112085476D01*
X48839523Y-111990238D01*
X48934761Y-111895000D01*
X49077619Y-111847380D01*
X49172857Y-111847380D01*
X49315714Y-111895000D01*
X49363333Y-111942619D01*
X49696666Y-111847380D02*
X50363333Y-111847380D01*
X49934761Y-112847380D01*
%TO.C,R10*%
X161282142Y-91512380D02*
X160948809Y-91036190D01*
X160710714Y-91512380D02*
X160710714Y-90512380D01*
X161091666Y-90512380D01*
X161186904Y-90560000D01*
X161234523Y-90607619D01*
X161282142Y-90702857D01*
X161282142Y-90845714D01*
X161234523Y-90940952D01*
X161186904Y-90988571D01*
X161091666Y-91036190D01*
X160710714Y-91036190D01*
X162234523Y-91512380D02*
X161663095Y-91512380D01*
X161948809Y-91512380D02*
X161948809Y-90512380D01*
X161853571Y-90655238D01*
X161758333Y-90750476D01*
X161663095Y-90798095D01*
X162853571Y-90512380D02*
X162948809Y-90512380D01*
X163044047Y-90560000D01*
X163091666Y-90607619D01*
X163139285Y-90702857D01*
X163186904Y-90893333D01*
X163186904Y-91131428D01*
X163139285Y-91321904D01*
X163091666Y-91417142D01*
X163044047Y-91464761D01*
X162948809Y-91512380D01*
X162853571Y-91512380D01*
X162758333Y-91464761D01*
X162710714Y-91417142D01*
X162663095Y-91321904D01*
X162615476Y-91131428D01*
X162615476Y-90893333D01*
X162663095Y-90702857D01*
X162710714Y-90607619D01*
X162758333Y-90560000D01*
X162853571Y-90512380D01*
%TO.C,H4*%
X243078095Y-54352380D02*
X243078095Y-53352380D01*
X243078095Y-53828571D02*
X243649523Y-53828571D01*
X243649523Y-54352380D02*
X243649523Y-53352380D01*
X244554285Y-53685714D02*
X244554285Y-54352380D01*
X244316190Y-53304761D02*
X244078095Y-54019047D01*
X244697142Y-54019047D01*
%TO.C,R11*%
X161282142Y-96717380D02*
X160948809Y-96241190D01*
X160710714Y-96717380D02*
X160710714Y-95717380D01*
X161091666Y-95717380D01*
X161186904Y-95765000D01*
X161234523Y-95812619D01*
X161282142Y-95907857D01*
X161282142Y-96050714D01*
X161234523Y-96145952D01*
X161186904Y-96193571D01*
X161091666Y-96241190D01*
X160710714Y-96241190D01*
X162234523Y-96717380D02*
X161663095Y-96717380D01*
X161948809Y-96717380D02*
X161948809Y-95717380D01*
X161853571Y-95860238D01*
X161758333Y-95955476D01*
X161663095Y-96003095D01*
X163186904Y-96717380D02*
X162615476Y-96717380D01*
X162901190Y-96717380D02*
X162901190Y-95717380D01*
X162805952Y-95860238D01*
X162710714Y-95955476D01*
X162615476Y-96003095D01*
%TO.C,C14*%
X176924142Y-66174857D02*
X176971761Y-66222476D01*
X177019380Y-66365333D01*
X177019380Y-66460571D01*
X176971761Y-66603428D01*
X176876523Y-66698666D01*
X176781285Y-66746285D01*
X176590809Y-66793904D01*
X176447952Y-66793904D01*
X176257476Y-66746285D01*
X176162238Y-66698666D01*
X176067000Y-66603428D01*
X176019380Y-66460571D01*
X176019380Y-66365333D01*
X176067000Y-66222476D01*
X176114619Y-66174857D01*
X177019380Y-65222476D02*
X177019380Y-65793904D01*
X177019380Y-65508190D02*
X176019380Y-65508190D01*
X176162238Y-65603428D01*
X176257476Y-65698666D01*
X176305095Y-65793904D01*
X176352714Y-64365333D02*
X177019380Y-64365333D01*
X175971761Y-64603428D02*
X176686047Y-64841523D01*
X176686047Y-64222476D01*
%TO.C,R19*%
X235782380Y-59062857D02*
X235306190Y-59396190D01*
X235782380Y-59634285D02*
X234782380Y-59634285D01*
X234782380Y-59253333D01*
X234830000Y-59158095D01*
X234877619Y-59110476D01*
X234972857Y-59062857D01*
X235115714Y-59062857D01*
X235210952Y-59110476D01*
X235258571Y-59158095D01*
X235306190Y-59253333D01*
X235306190Y-59634285D01*
X235782380Y-58110476D02*
X235782380Y-58681904D01*
X235782380Y-58396190D02*
X234782380Y-58396190D01*
X234925238Y-58491428D01*
X235020476Y-58586666D01*
X235068095Y-58681904D01*
X235782380Y-57634285D02*
X235782380Y-57443809D01*
X235734761Y-57348571D01*
X235687142Y-57300952D01*
X235544285Y-57205714D01*
X235353809Y-57158095D01*
X234972857Y-57158095D01*
X234877619Y-57205714D01*
X234830000Y-57253333D01*
X234782380Y-57348571D01*
X234782380Y-57539047D01*
X234830000Y-57634285D01*
X234877619Y-57681904D01*
X234972857Y-57729523D01*
X235210952Y-57729523D01*
X235306190Y-57681904D01*
X235353809Y-57634285D01*
X235401428Y-57539047D01*
X235401428Y-57348571D01*
X235353809Y-57253333D01*
X235306190Y-57205714D01*
X235210952Y-57158095D01*
%TO.C,FB1*%
X134268571Y-103703333D02*
X134268571Y-104036666D01*
X134792380Y-104036666D02*
X133792380Y-104036666D01*
X133792380Y-103560476D01*
X134268571Y-102846190D02*
X134316190Y-102703333D01*
X134363809Y-102655714D01*
X134459047Y-102608095D01*
X134601904Y-102608095D01*
X134697142Y-102655714D01*
X134744761Y-102703333D01*
X134792380Y-102798571D01*
X134792380Y-103179523D01*
X133792380Y-103179523D01*
X133792380Y-102846190D01*
X133840000Y-102750952D01*
X133887619Y-102703333D01*
X133982857Y-102655714D01*
X134078095Y-102655714D01*
X134173333Y-102703333D01*
X134220952Y-102750952D01*
X134268571Y-102846190D01*
X134268571Y-103179523D01*
X134792380Y-101655714D02*
X134792380Y-102227142D01*
X134792380Y-101941428D02*
X133792380Y-101941428D01*
X133935238Y-102036666D01*
X134030476Y-102131904D01*
X134078095Y-102227142D01*
%TO.C,R12*%
X161004642Y-101037380D02*
X160671309Y-100561190D01*
X160433214Y-101037380D02*
X160433214Y-100037380D01*
X160814166Y-100037380D01*
X160909404Y-100085000D01*
X160957023Y-100132619D01*
X161004642Y-100227857D01*
X161004642Y-100370714D01*
X160957023Y-100465952D01*
X160909404Y-100513571D01*
X160814166Y-100561190D01*
X160433214Y-100561190D01*
X161957023Y-101037380D02*
X161385595Y-101037380D01*
X161671309Y-101037380D02*
X161671309Y-100037380D01*
X161576071Y-100180238D01*
X161480833Y-100275476D01*
X161385595Y-100323095D01*
X162337976Y-100132619D02*
X162385595Y-100085000D01*
X162480833Y-100037380D01*
X162718928Y-100037380D01*
X162814166Y-100085000D01*
X162861785Y-100132619D01*
X162909404Y-100227857D01*
X162909404Y-100323095D01*
X162861785Y-100465952D01*
X162290357Y-101037380D01*
X162909404Y-101037380D01*
%TO.C,R4*%
X64842380Y-78549166D02*
X64366190Y-78882500D01*
X64842380Y-79120595D02*
X63842380Y-79120595D01*
X63842380Y-78739642D01*
X63890000Y-78644404D01*
X63937619Y-78596785D01*
X64032857Y-78549166D01*
X64175714Y-78549166D01*
X64270952Y-78596785D01*
X64318571Y-78644404D01*
X64366190Y-78739642D01*
X64366190Y-79120595D01*
X64175714Y-77692023D02*
X64842380Y-77692023D01*
X63794761Y-77930119D02*
X64509047Y-78168214D01*
X64509047Y-77549166D01*
%TO.C,C4*%
X49363333Y-106627142D02*
X49315714Y-106674761D01*
X49172857Y-106722380D01*
X49077619Y-106722380D01*
X48934761Y-106674761D01*
X48839523Y-106579523D01*
X48791904Y-106484285D01*
X48744285Y-106293809D01*
X48744285Y-106150952D01*
X48791904Y-105960476D01*
X48839523Y-105865238D01*
X48934761Y-105770000D01*
X49077619Y-105722380D01*
X49172857Y-105722380D01*
X49315714Y-105770000D01*
X49363333Y-105817619D01*
X50220476Y-106055714D02*
X50220476Y-106722380D01*
X49982380Y-105674761D02*
X49744285Y-106389047D01*
X50363333Y-106389047D01*
%TO.C,U3*%
X75325380Y-77469904D02*
X76134904Y-77469904D01*
X76230142Y-77422285D01*
X76277761Y-77374666D01*
X76325380Y-77279428D01*
X76325380Y-77088952D01*
X76277761Y-76993714D01*
X76230142Y-76946095D01*
X76134904Y-76898476D01*
X75325380Y-76898476D01*
X75325380Y-76517523D02*
X75325380Y-75898476D01*
X75706333Y-76231809D01*
X75706333Y-76088952D01*
X75753952Y-75993714D01*
X75801571Y-75946095D01*
X75896809Y-75898476D01*
X76134904Y-75898476D01*
X76230142Y-75946095D01*
X76277761Y-75993714D01*
X76325380Y-76088952D01*
X76325380Y-76374666D01*
X76277761Y-76469904D01*
X76230142Y-76517523D01*
D12*
%TO.C,J3*%
X120226666Y-59883523D02*
X120226666Y-60790666D01*
X120166190Y-60972095D01*
X120045238Y-61093047D01*
X119863809Y-61153523D01*
X119742857Y-61153523D01*
X120710476Y-59883523D02*
X121496666Y-59883523D01*
X121073333Y-60367333D01*
X121254761Y-60367333D01*
X121375714Y-60427809D01*
X121436190Y-60488285D01*
X121496666Y-60609238D01*
X121496666Y-60911619D01*
X121436190Y-61032571D01*
X121375714Y-61093047D01*
X121254761Y-61153523D01*
X120891904Y-61153523D01*
X120770952Y-61093047D01*
X120710476Y-61032571D01*
D10*
%TO.C,J12*%
X152509380Y-54271523D02*
X153223666Y-54271523D01*
X153366523Y-54319142D01*
X153461761Y-54414380D01*
X153509380Y-54557238D01*
X153509380Y-54652476D01*
X153509380Y-53271523D02*
X153509380Y-53842952D01*
X153509380Y-53557238D02*
X152509380Y-53557238D01*
X152652238Y-53652476D01*
X152747476Y-53747714D01*
X152795095Y-53842952D01*
X152604619Y-52890571D02*
X152557000Y-52842952D01*
X152509380Y-52747714D01*
X152509380Y-52509619D01*
X152557000Y-52414380D01*
X152604619Y-52366761D01*
X152699857Y-52319142D01*
X152795095Y-52319142D01*
X152937952Y-52366761D01*
X153509380Y-52938190D01*
X153509380Y-52319142D01*
%TO.C,R14*%
X179062142Y-92782380D02*
X178728809Y-92306190D01*
X178490714Y-92782380D02*
X178490714Y-91782380D01*
X178871666Y-91782380D01*
X178966904Y-91830000D01*
X179014523Y-91877619D01*
X179062142Y-91972857D01*
X179062142Y-92115714D01*
X179014523Y-92210952D01*
X178966904Y-92258571D01*
X178871666Y-92306190D01*
X178490714Y-92306190D01*
X180014523Y-92782380D02*
X179443095Y-92782380D01*
X179728809Y-92782380D02*
X179728809Y-91782380D01*
X179633571Y-91925238D01*
X179538333Y-92020476D01*
X179443095Y-92068095D01*
X180871666Y-92115714D02*
X180871666Y-92782380D01*
X180633571Y-91734761D02*
X180395476Y-92449047D01*
X181014523Y-92449047D01*
%TO.C,C2*%
X121867140Y-94146666D02*
X121914759Y-94194285D01*
X121962378Y-94337142D01*
X121962378Y-94432380D01*
X121914759Y-94575238D01*
X121819521Y-94670476D01*
X121724283Y-94718095D01*
X121533807Y-94765714D01*
X121390950Y-94765714D01*
X121200474Y-94718095D01*
X121105236Y-94670476D01*
X121009998Y-94575238D01*
X120962378Y-94432380D01*
X120962378Y-94337142D01*
X121009998Y-94194285D01*
X121057617Y-94146666D01*
X121057617Y-93765714D02*
X121009998Y-93718095D01*
X120962378Y-93622857D01*
X120962378Y-93384761D01*
X121009998Y-93289523D01*
X121057617Y-93241904D01*
X121152855Y-93194285D01*
X121248093Y-93194285D01*
X121390950Y-93241904D01*
X121962378Y-93813333D01*
X121962378Y-93194285D01*
%TO.C,C6*%
X49043333Y-62177142D02*
X48995714Y-62224761D01*
X48852857Y-62272380D01*
X48757619Y-62272380D01*
X48614761Y-62224761D01*
X48519523Y-62129523D01*
X48471904Y-62034285D01*
X48424285Y-61843809D01*
X48424285Y-61700952D01*
X48471904Y-61510476D01*
X48519523Y-61415238D01*
X48614761Y-61320000D01*
X48757619Y-61272380D01*
X48852857Y-61272380D01*
X48995714Y-61320000D01*
X49043333Y-61367619D01*
X49900476Y-61272380D02*
X49710000Y-61272380D01*
X49614761Y-61320000D01*
X49567142Y-61367619D01*
X49471904Y-61510476D01*
X49424285Y-61700952D01*
X49424285Y-62081904D01*
X49471904Y-62177142D01*
X49519523Y-62224761D01*
X49614761Y-62272380D01*
X49805238Y-62272380D01*
X49900476Y-62224761D01*
X49948095Y-62177142D01*
X49995714Y-62081904D01*
X49995714Y-61843809D01*
X49948095Y-61748571D01*
X49900476Y-61700952D01*
X49805238Y-61653333D01*
X49614761Y-61653333D01*
X49519523Y-61700952D01*
X49471904Y-61748571D01*
X49424285Y-61843809D01*
%TO.C,C3*%
X125227140Y-97956666D02*
X125274759Y-98004285D01*
X125322378Y-98147142D01*
X125322378Y-98242380D01*
X125274759Y-98385238D01*
X125179521Y-98480476D01*
X125084283Y-98528095D01*
X124893807Y-98575714D01*
X124750950Y-98575714D01*
X124560474Y-98528095D01*
X124465236Y-98480476D01*
X124369998Y-98385238D01*
X124322378Y-98242380D01*
X124322378Y-98147142D01*
X124369998Y-98004285D01*
X124417617Y-97956666D01*
X124322378Y-97623333D02*
X124322378Y-97004285D01*
X124703331Y-97337619D01*
X124703331Y-97194761D01*
X124750950Y-97099523D01*
X124798569Y-97051904D01*
X124893807Y-97004285D01*
X125131902Y-97004285D01*
X125227140Y-97051904D01*
X125274759Y-97099523D01*
X125322378Y-97194761D01*
X125322378Y-97480476D01*
X125274759Y-97575714D01*
X125227140Y-97623333D01*
%TO.C,U2*%
X111632380Y-77101904D02*
X112441904Y-77101904D01*
X112537142Y-77054285D01*
X112584761Y-77006666D01*
X112632380Y-76911428D01*
X112632380Y-76720952D01*
X112584761Y-76625714D01*
X112537142Y-76578095D01*
X112441904Y-76530476D01*
X111632380Y-76530476D01*
X111727619Y-76101904D02*
X111680000Y-76054285D01*
X111632380Y-75959047D01*
X111632380Y-75720952D01*
X111680000Y-75625714D01*
X111727619Y-75578095D01*
X111822857Y-75530476D01*
X111918095Y-75530476D01*
X112060952Y-75578095D01*
X112632380Y-76149523D01*
X112632380Y-75530476D01*
%TO.C,C1*%
X91593333Y-77417142D02*
X91545714Y-77464761D01*
X91402857Y-77512380D01*
X91307619Y-77512380D01*
X91164761Y-77464761D01*
X91069523Y-77369523D01*
X91021904Y-77274285D01*
X90974285Y-77083809D01*
X90974285Y-76940952D01*
X91021904Y-76750476D01*
X91069523Y-76655238D01*
X91164761Y-76560000D01*
X91307619Y-76512380D01*
X91402857Y-76512380D01*
X91545714Y-76560000D01*
X91593333Y-76607619D01*
X92545714Y-77512380D02*
X91974285Y-77512380D01*
X92260000Y-77512380D02*
X92260000Y-76512380D01*
X92164761Y-76655238D01*
X92069523Y-76750476D01*
X91974285Y-76798095D01*
%TO.C,J6*%
X145112691Y-67263462D02*
X145112691Y-67977759D01*
X145065071Y-68120618D01*
X144969831Y-68215858D01*
X144826972Y-68263478D01*
X144731732Y-68263478D01*
X146017467Y-67263462D02*
X145826988Y-67263462D01*
X145731748Y-67311082D01*
X145684129Y-67358701D01*
X145588889Y-67501561D01*
X145541269Y-67692040D01*
X145541269Y-68072998D01*
X145588889Y-68168238D01*
X145636509Y-68215858D01*
X145731748Y-68263478D01*
X145922228Y-68263478D01*
X146017467Y-68215858D01*
X146065087Y-68168238D01*
X146112707Y-68072998D01*
X146112707Y-67834899D01*
X146065087Y-67739660D01*
X146017467Y-67692040D01*
X145922228Y-67644420D01*
X145731748Y-67644420D01*
X145636509Y-67692040D01*
X145588889Y-67739660D01*
X145541269Y-67834899D01*
D12*
%TO.C,J5*%
X94826666Y-59883523D02*
X94826666Y-60790666D01*
X94766190Y-60972095D01*
X94645238Y-61093047D01*
X94463809Y-61153523D01*
X94342857Y-61153523D01*
X96036190Y-59883523D02*
X95431428Y-59883523D01*
X95370952Y-60488285D01*
X95431428Y-60427809D01*
X95552380Y-60367333D01*
X95854761Y-60367333D01*
X95975714Y-60427809D01*
X96036190Y-60488285D01*
X96096666Y-60609238D01*
X96096666Y-60911619D01*
X96036190Y-61032571D01*
X95975714Y-61093047D01*
X95854761Y-61153523D01*
X95552380Y-61153523D01*
X95431428Y-61093047D01*
X95370952Y-61032571D01*
D10*
%TO.C,R20*%
X49092380Y-75572857D02*
X48616190Y-75906190D01*
X49092380Y-76144285D02*
X48092380Y-76144285D01*
X48092380Y-75763333D01*
X48140000Y-75668095D01*
X48187619Y-75620476D01*
X48282857Y-75572857D01*
X48425714Y-75572857D01*
X48520952Y-75620476D01*
X48568571Y-75668095D01*
X48616190Y-75763333D01*
X48616190Y-76144285D01*
X48187619Y-75191904D02*
X48140000Y-75144285D01*
X48092380Y-75049047D01*
X48092380Y-74810952D01*
X48140000Y-74715714D01*
X48187619Y-74668095D01*
X48282857Y-74620476D01*
X48378095Y-74620476D01*
X48520952Y-74668095D01*
X49092380Y-75239523D01*
X49092380Y-74620476D01*
X48092380Y-74001428D02*
X48092380Y-73906190D01*
X48140000Y-73810952D01*
X48187619Y-73763333D01*
X48282857Y-73715714D01*
X48473333Y-73668095D01*
X48711428Y-73668095D01*
X48901904Y-73715714D01*
X48997142Y-73763333D01*
X49044761Y-73810952D01*
X49092380Y-73906190D01*
X49092380Y-74001428D01*
X49044761Y-74096666D01*
X48997142Y-74144285D01*
X48901904Y-74191904D01*
X48711428Y-74239523D01*
X48473333Y-74239523D01*
X48282857Y-74191904D01*
X48187619Y-74144285D01*
X48140000Y-74096666D01*
X48092380Y-74001428D01*
D13*
%TO.C,C9*%
X236481252Y-73125000D02*
X235958748Y-73125000D01*
X236481252Y-71655000D02*
X235958748Y-71655000D01*
%TO.C,J11*%
X183267000Y-63927000D02*
X183267000Y-58787000D01*
X185927000Y-63927000D02*
X183267000Y-63927000D01*
X185927000Y-65197000D02*
X185927000Y-66527000D01*
X185927000Y-58787000D02*
X183267000Y-58787000D01*
X185927000Y-66527000D02*
X184597000Y-66527000D01*
X185927000Y-63927000D02*
X185927000Y-58787000D01*
%TO.C,R15*%
X179932064Y-95150000D02*
X179477936Y-95150000D01*
X179932064Y-96620000D02*
X179477936Y-96620000D01*
%TO.C,R2*%
X113437936Y-79275000D02*
X113892064Y-79275000D01*
X113437936Y-80745000D02*
X113892064Y-80745000D01*
%TO.C,C15*%
X177512000Y-61140748D02*
X177512000Y-61663252D01*
X178982000Y-61140748D02*
X178982000Y-61663252D01*
%TO.C,R6*%
X69315000Y-78609564D02*
X69315000Y-78155436D01*
X67845000Y-78609564D02*
X67845000Y-78155436D01*
%TO.C,C8*%
X235211252Y-109755000D02*
X234688748Y-109755000D01*
X235211252Y-111225000D02*
X234688748Y-111225000D01*
%TO.C,J7*%
X226190000Y-56917500D02*
X226190000Y-66037500D01*
X194210000Y-64727500D02*
X194210000Y-58227500D01*
X207500000Y-58227500D02*
X207500000Y-58227500D01*
X226190000Y-66037500D02*
X192910000Y-66037500D01*
X224890000Y-58227500D02*
X224890000Y-64727500D01*
X207500000Y-58227500D02*
X207500000Y-56917500D01*
X192910000Y-66037500D02*
X192910000Y-56917500D01*
X211600000Y-56917500D02*
X211600000Y-58227500D01*
X211600000Y-58227500D02*
X224890000Y-58227500D01*
X224890000Y-64727500D02*
X194210000Y-64727500D01*
X220980000Y-56527500D02*
X221480000Y-55527500D01*
X194210000Y-58227500D02*
X207500000Y-58227500D01*
X220480000Y-55527500D02*
X220980000Y-56527500D01*
X221480000Y-55527500D02*
X220480000Y-55527500D01*
X192910000Y-56917500D02*
X226190000Y-56917500D01*
%TO.C,C11*%
X176242000Y-70553252D02*
X176242000Y-70030748D01*
X177712000Y-70553252D02*
X177712000Y-70030748D01*
%TO.C,G\u002A\u002A\u002A*%
G36*
X96661021Y-111687730D02*
G01*
X96755367Y-111755346D01*
X96880097Y-111863866D01*
X96954560Y-111934948D01*
X97105509Y-112076474D01*
X97263290Y-112213462D01*
X97402499Y-112324232D01*
X97452605Y-112359944D01*
X97580916Y-112457638D01*
X97636317Y-112529739D01*
X97636637Y-112558972D01*
X97600522Y-112611716D01*
X97583717Y-112618800D01*
X97537129Y-112643564D01*
X97461506Y-112704415D01*
X97447782Y-112716890D01*
X97341774Y-112814980D01*
X97341774Y-115132993D01*
X97448440Y-115216764D01*
X97555106Y-115300536D01*
X97641322Y-115219668D01*
X97740737Y-115154327D01*
X97828822Y-115143895D01*
X97884873Y-115190494D01*
X97886538Y-115194555D01*
X97875149Y-115246945D01*
X97830765Y-115350843D01*
X97762388Y-115489624D01*
X97679017Y-115646664D01*
X97589652Y-115805338D01*
X97503294Y-115949021D01*
X97428943Y-116061088D01*
X97391588Y-116108800D01*
X97298684Y-116172119D01*
X97183643Y-116172108D01*
X97040115Y-116107096D01*
X96861753Y-115975413D01*
X96851439Y-115966738D01*
X96668588Y-115790060D01*
X96534209Y-115614295D01*
X96501942Y-115556738D01*
X96474746Y-115500385D01*
X96452947Y-115445965D01*
X96435817Y-115384068D01*
X96422627Y-115305284D01*
X96412652Y-115200205D01*
X96405164Y-115059419D01*
X96399435Y-114873518D01*
X96394738Y-114633091D01*
X96390346Y-114328729D01*
X96387031Y-114069977D01*
X96381784Y-113685765D01*
X96375924Y-113374977D01*
X96368276Y-113131041D01*
X96357663Y-112947383D01*
X96342911Y-112817431D01*
X96322844Y-112734609D01*
X96296286Y-112692346D01*
X96262061Y-112684068D01*
X96218993Y-112703202D01*
X96165908Y-112743174D01*
X96151818Y-112754909D01*
X96026830Y-112838917D01*
X95937080Y-112851217D01*
X95882345Y-112791841D01*
X95881920Y-112790747D01*
X95894883Y-112737088D01*
X95945867Y-112632918D01*
X96025700Y-112492379D01*
X96125207Y-112329611D01*
X96235217Y-112158754D01*
X96346556Y-111993949D01*
X96450051Y-111849336D01*
X96536530Y-111739056D01*
X96596818Y-111677250D01*
X96608896Y-111670089D01*
X96661021Y-111687730D01*
G37*
G36*
X101073638Y-115969821D02*
G01*
X101089962Y-115839688D01*
X101120513Y-115715238D01*
X101148286Y-115628467D01*
X101299009Y-115276770D01*
X101511653Y-114938521D01*
X101663782Y-114745765D01*
X101756199Y-114633103D01*
X101798892Y-114558166D01*
X101785621Y-114506474D01*
X101710146Y-114463545D01*
X101566226Y-114414898D01*
X101514237Y-114398723D01*
X101309915Y-114332823D01*
X101179257Y-114279642D01*
X101118816Y-114230161D01*
X101125143Y-114175364D01*
X101194791Y-114106232D01*
X101324313Y-114013747D01*
X101358299Y-113990848D01*
X101683574Y-113752965D01*
X101931136Y-113528324D01*
X102100805Y-113317249D01*
X102192403Y-113120064D01*
X102205749Y-112937094D01*
X102140666Y-112768662D01*
X102077532Y-112688800D01*
X101946426Y-112604028D01*
X101780645Y-112576597D01*
X101603503Y-112608639D01*
X101533804Y-112639046D01*
X101398502Y-112692102D01*
X101308151Y-112689540D01*
X101269067Y-112631946D01*
X101267957Y-112614358D01*
X101298988Y-112546913D01*
X101390883Y-112431671D01*
X101541846Y-112270698D01*
X101718667Y-112096181D01*
X101922218Y-111905558D01*
X102079380Y-111771806D01*
X102196394Y-111691477D01*
X102279503Y-111661120D01*
X102334947Y-111677286D01*
X102368969Y-111736525D01*
X102369042Y-111736753D01*
X102425033Y-111811572D01*
X102478866Y-111841656D01*
X102565236Y-111890259D01*
X102681082Y-111982091D01*
X102805953Y-112097808D01*
X102919402Y-112218067D01*
X103000978Y-112323524D01*
X103016752Y-112350481D01*
X103069274Y-112525885D01*
X103068427Y-112719725D01*
X103018181Y-112884359D01*
X102927730Y-113021844D01*
X102790756Y-113185719D01*
X102626043Y-113356025D01*
X102452377Y-113512803D01*
X102353092Y-113591044D01*
X102131489Y-113754494D01*
X102347212Y-113852228D01*
X102474862Y-113905841D01*
X102556352Y-113925180D01*
X102616067Y-113913902D01*
X102646598Y-113897161D01*
X102911497Y-113739189D01*
X103126375Y-113630733D01*
X103288897Y-113572543D01*
X103396724Y-113565370D01*
X103447520Y-113609962D01*
X103451396Y-113638800D01*
X103414890Y-113718024D01*
X103331206Y-113779989D01*
X103194829Y-113852908D01*
X103058683Y-113931394D01*
X102940664Y-114004408D01*
X102858666Y-114060908D01*
X102830418Y-114088984D01*
X102856138Y-114126613D01*
X102924264Y-114205885D01*
X103021245Y-114311184D01*
X103044197Y-114335339D01*
X103183389Y-114492999D01*
X103287501Y-114644937D01*
X103361320Y-114806777D01*
X103409629Y-114994139D01*
X103437214Y-115222646D01*
X103448860Y-115507919D01*
X103450179Y-115660760D01*
X103451396Y-116282721D01*
X103302625Y-116583378D01*
X103187075Y-116783879D01*
X103039658Y-116993955D01*
X102912877Y-117146606D01*
X102670645Y-117372699D01*
X102430855Y-117519549D01*
X102191684Y-117587799D01*
X101951309Y-117578092D01*
X101808809Y-117536301D01*
X101567926Y-117402861D01*
X101352431Y-117202262D01*
X101198443Y-116986723D01*
X101149140Y-116895687D01*
X101116061Y-116808674D01*
X101095192Y-116705118D01*
X101082519Y-116564449D01*
X101074026Y-116366102D01*
X101073367Y-116345874D01*
X101071995Y-116278693D01*
X101511716Y-116278693D01*
X101516439Y-116436493D01*
X101543942Y-116736387D01*
X101598802Y-116968560D01*
X101684527Y-117141667D01*
X101804628Y-117264362D01*
X101868279Y-117304080D01*
X101990803Y-117361019D01*
X102086303Y-117373128D01*
X102193393Y-117341457D01*
X102252833Y-117314541D01*
X102395323Y-117207268D01*
X102515929Y-117038826D01*
X102594548Y-116850219D01*
X102617243Y-116721586D01*
X102629456Y-116535800D01*
X102631575Y-116314970D01*
X102623990Y-116081203D01*
X102607089Y-115856608D01*
X102581261Y-115663291D01*
X102572910Y-115619815D01*
X102511266Y-115400150D01*
X102421809Y-115177036D01*
X102316319Y-114974939D01*
X102206578Y-114818328D01*
X102166827Y-114776408D01*
X102107310Y-114730027D01*
X102054929Y-114719463D01*
X102001570Y-114752456D01*
X101939116Y-114836747D01*
X101859455Y-114980075D01*
X101773285Y-115151795D01*
X101647070Y-115437444D01*
X101565168Y-115701651D01*
X101521931Y-115972655D01*
X101511716Y-116278693D01*
X101071995Y-116278693D01*
X101068966Y-116130321D01*
X101073638Y-115969821D01*
G37*
G36*
X97197973Y-110198441D02*
G01*
X97348329Y-110260472D01*
X97443993Y-110378312D01*
X97483595Y-110515506D01*
X97493366Y-110642909D01*
X97470881Y-110748247D01*
X97407119Y-110873462D01*
X97406306Y-110874848D01*
X97279678Y-111050597D01*
X97131126Y-111194090D01*
X96975609Y-111295392D01*
X96828086Y-111344566D01*
X96712909Y-111335457D01*
X96600564Y-111254668D01*
X96517096Y-111104300D01*
X96460794Y-110881244D01*
X96459843Y-110875465D01*
X96441460Y-110726293D01*
X96447559Y-110620394D01*
X96480977Y-110524013D01*
X96491162Y-110502964D01*
X96608027Y-110338723D01*
X96768017Y-110236635D01*
X96980705Y-110190691D01*
X96989561Y-110190001D01*
X97197973Y-110198441D01*
G37*
G36*
X110429275Y-112021977D02*
G01*
X110594917Y-112162645D01*
X110729629Y-112259355D01*
X110857049Y-112326730D01*
X111000818Y-112379393D01*
X111013362Y-112383294D01*
X111151285Y-112430261D01*
X111257127Y-112474627D01*
X111308837Y-112507099D01*
X111309525Y-112508110D01*
X111296617Y-112555446D01*
X111236522Y-112634513D01*
X111169246Y-112702591D01*
X111003288Y-112855589D01*
X111005550Y-113927194D01*
X111007500Y-114294567D01*
X111012363Y-114589792D01*
X111021224Y-114820700D01*
X111035169Y-114995123D01*
X111055284Y-115120892D01*
X111082656Y-115205839D01*
X111118371Y-115257795D01*
X111163514Y-115284590D01*
X111194797Y-115291740D01*
X111298361Y-115268496D01*
X111358825Y-115215069D01*
X111439805Y-115154507D01*
X111514197Y-115158493D01*
X111559360Y-115221717D01*
X111564172Y-115263222D01*
X111543456Y-115338590D01*
X111488888Y-115455854D01*
X111411840Y-115590869D01*
X111403919Y-115603497D01*
X111326798Y-115728131D01*
X111269998Y-115825094D01*
X111244203Y-115876041D01*
X111243667Y-115878677D01*
X111223413Y-115922063D01*
X111171979Y-116007516D01*
X111138185Y-116059657D01*
X111039397Y-116176688D01*
X110949236Y-116218730D01*
X110945714Y-116218800D01*
X110842439Y-116191743D01*
X110706586Y-116120017D01*
X110559868Y-116017786D01*
X110424002Y-115899212D01*
X110373044Y-115845273D01*
X110301072Y-115762730D01*
X110243097Y-115690001D01*
X110197460Y-115617511D01*
X110162503Y-115535688D01*
X110136567Y-115434957D01*
X110117994Y-115305747D01*
X110105125Y-115138484D01*
X110096302Y-114923594D01*
X110089867Y-114651505D01*
X110084160Y-114312642D01*
X110081837Y-114164342D01*
X110061806Y-112889884D01*
X109921585Y-112771554D01*
X109798061Y-112671316D01*
X109710730Y-112621821D01*
X109635539Y-112621064D01*
X109548435Y-112667045D01*
X109458201Y-112732973D01*
X109260544Y-112882098D01*
X109248894Y-113880449D01*
X109246565Y-114162298D01*
X109246213Y-114423716D01*
X109247712Y-114652090D01*
X109250935Y-114834810D01*
X109255756Y-114959265D01*
X109260162Y-115005805D01*
X109306703Y-115125534D01*
X109381294Y-115225805D01*
X109448539Y-115299768D01*
X109479914Y-115354516D01*
X109480199Y-115357426D01*
X109454326Y-115403823D01*
X109386042Y-115487226D01*
X109296831Y-115582628D01*
X109166623Y-115725803D01*
X109032631Y-115890296D01*
X108963621Y-115983971D01*
X108876985Y-116096891D01*
X108798360Y-116179242D01*
X108749152Y-116211298D01*
X108684341Y-116185254D01*
X108602827Y-116092610D01*
X108575410Y-116051328D01*
X108492305Y-115935511D01*
X108375937Y-115793541D01*
X108250582Y-115654940D01*
X108242788Y-115646841D01*
X108136013Y-115533280D01*
X108052825Y-115439011D01*
X108007780Y-115380699D01*
X108004161Y-115373627D01*
X108019811Y-115320325D01*
X108076885Y-115241763D01*
X108091754Y-115225586D01*
X108147271Y-115162465D01*
X108190637Y-115096139D01*
X108223339Y-115016199D01*
X108246862Y-114912236D01*
X108262694Y-114773840D01*
X108272320Y-114590602D01*
X108277227Y-114352114D01*
X108278901Y-114047964D01*
X108278998Y-113914209D01*
X108278157Y-113594460D01*
X108275268Y-113344853D01*
X108269783Y-113155544D01*
X108261153Y-113016690D01*
X108248830Y-112918448D01*
X108232266Y-112850972D01*
X108217875Y-112816813D01*
X108143552Y-112722897D01*
X108055707Y-112706870D01*
X107950344Y-112768269D01*
X107933067Y-112783860D01*
X107842291Y-112839011D01*
X107764518Y-112837407D01*
X107721198Y-112782070D01*
X107718115Y-112753573D01*
X107738124Y-112691287D01*
X107791527Y-112579051D01*
X107868390Y-112434208D01*
X107958777Y-112274101D01*
X108052753Y-112116075D01*
X108140382Y-111977472D01*
X108211731Y-111875636D01*
X108240700Y-111841308D01*
X108287149Y-111798734D01*
X108331692Y-111785971D01*
X108398816Y-111804506D01*
X108513010Y-111855822D01*
X108517938Y-111858127D01*
X108717401Y-111976860D01*
X108905485Y-112133808D01*
X109058193Y-112306678D01*
X109133430Y-112429879D01*
X109169612Y-112498219D01*
X109206838Y-112537414D01*
X109254145Y-112542831D01*
X109320574Y-112509839D01*
X109415160Y-112433804D01*
X109546944Y-112310096D01*
X109724963Y-112134082D01*
X109740114Y-112118959D01*
X110115672Y-111743992D01*
X110429275Y-112021977D01*
G37*
G36*
X98278633Y-116000786D02*
G01*
X98300735Y-115848045D01*
X98368603Y-115608152D01*
X98479275Y-115342524D01*
X98617844Y-115080916D01*
X98769400Y-114853087D01*
X98845236Y-114761306D01*
X98936218Y-114657103D01*
X99000714Y-114575738D01*
X99024424Y-114535649D01*
X98988240Y-114502873D01*
X98890318Y-114456874D01*
X98746608Y-114404023D01*
X98573056Y-114350696D01*
X98536215Y-114340546D01*
X98421813Y-114300101D01*
X98343912Y-114254824D01*
X98327174Y-114234404D01*
X98349090Y-114183034D01*
X98437229Y-114094825D01*
X98588367Y-113972833D01*
X98658506Y-113920553D01*
X98944217Y-113697825D01*
X99158997Y-113498851D01*
X99306655Y-113318557D01*
X99391002Y-113151866D01*
X99415848Y-112993703D01*
X99408245Y-112921877D01*
X99342383Y-112761243D01*
X99222636Y-112649563D01*
X99062473Y-112592459D01*
X98875366Y-112595556D01*
X98730130Y-112638800D01*
X98620710Y-112678135D01*
X98535425Y-112698157D01*
X98524922Y-112698800D01*
X98474335Y-112670123D01*
X98466750Y-112600584D01*
X98499306Y-112514917D01*
X98553683Y-112450214D01*
X98616663Y-112392787D01*
X98722472Y-112293218D01*
X98856613Y-112165257D01*
X99004590Y-112022656D01*
X99011953Y-112015523D01*
X99197458Y-111842854D01*
X99338526Y-111729289D01*
X99441184Y-111671787D01*
X99511458Y-111667310D01*
X99555373Y-111712817D01*
X99564625Y-111736753D01*
X99620617Y-111811572D01*
X99674449Y-111841656D01*
X99759762Y-111889711D01*
X99874856Y-111980696D01*
X99999198Y-112095283D01*
X100112253Y-112214143D01*
X100193485Y-112317946D01*
X100209784Y-112345554D01*
X100243867Y-112451944D01*
X100264031Y-112593310D01*
X100266380Y-112654736D01*
X100261128Y-112765582D01*
X100237647Y-112853885D01*
X100184344Y-112945474D01*
X100089628Y-113066181D01*
X100072529Y-113086723D01*
X99777991Y-113402343D01*
X99471528Y-113661966D01*
X99445106Y-113681159D01*
X99330149Y-113763519D01*
X99551256Y-113853118D01*
X99772364Y-113942718D01*
X100086929Y-113757035D01*
X100244713Y-113670302D01*
X100393546Y-113599529D01*
X100508688Y-113556114D01*
X100537801Y-113549267D01*
X100628533Y-113539831D01*
X100662226Y-113560288D01*
X100660544Y-113618110D01*
X100625148Y-113685635D01*
X100532219Y-113764888D01*
X100372937Y-113863335D01*
X100366538Y-113866947D01*
X100230126Y-113945540D01*
X100119911Y-114012329D01*
X100055548Y-114055315D01*
X100049167Y-114060698D01*
X100055789Y-114106910D01*
X100114970Y-114195387D01*
X100219395Y-114315230D01*
X100221603Y-114317564D01*
X100345530Y-114465229D01*
X100462039Y-114632157D01*
X100538974Y-114768694D01*
X100579613Y-114859213D01*
X100608540Y-114940515D01*
X100627739Y-115028623D01*
X100639194Y-115139562D01*
X100644890Y-115289355D01*
X100646812Y-115494025D01*
X100646979Y-115640735D01*
X100646979Y-116282670D01*
X100491551Y-116596802D01*
X100361421Y-116821344D01*
X100201507Y-117038058D01*
X100025370Y-117232880D01*
X99846574Y-117391742D01*
X99678679Y-117500579D01*
X99585007Y-117537027D01*
X99435349Y-117574749D01*
X99336904Y-117594457D01*
X99263450Y-117598685D01*
X99188764Y-117589966D01*
X99136566Y-117580361D01*
X98923276Y-117503764D01*
X98714679Y-117364711D01*
X98530108Y-117179401D01*
X98388894Y-116964031D01*
X98380447Y-116946819D01*
X98319001Y-116761756D01*
X98280303Y-116525220D01*
X98270166Y-116336399D01*
X98706402Y-116336399D01*
X98726171Y-116628407D01*
X98782654Y-116888815D01*
X98876642Y-117104281D01*
X98989548Y-117244806D01*
X99142874Y-117336062D01*
X99309768Y-117352647D01*
X99477623Y-117295503D01*
X99602391Y-117199076D01*
X99721506Y-117026450D01*
X99801017Y-116788621D01*
X99840105Y-116490390D01*
X99837948Y-116136561D01*
X99819724Y-115927438D01*
X99753207Y-115553698D01*
X99644489Y-115224726D01*
X99506756Y-114967333D01*
X99412241Y-114838148D01*
X99330173Y-114745303D01*
X99271941Y-114700619D01*
X99252198Y-114703099D01*
X99224110Y-114741923D01*
X99165145Y-114822331D01*
X99130544Y-114869316D01*
X98978623Y-115119199D01*
X98859457Y-115404191D01*
X98773837Y-115710949D01*
X98722555Y-116026132D01*
X98706402Y-116336399D01*
X98270166Y-116336399D01*
X98266224Y-116262975D01*
X98278633Y-116000786D01*
G37*
G36*
X104039186Y-113386154D02*
G01*
X104201102Y-113152349D01*
X104419669Y-112908982D01*
X104700580Y-112645356D01*
X104882475Y-112488896D01*
X105019651Y-112360166D01*
X105170700Y-112197783D01*
X105305138Y-112034719D01*
X105317052Y-112018896D01*
X105413738Y-111893190D01*
X105493791Y-111796689D01*
X105544688Y-111744180D01*
X105554273Y-111738800D01*
X105594907Y-111763715D01*
X105679977Y-111830506D01*
X105794629Y-111927236D01*
X105859254Y-111983849D01*
X106143269Y-112220686D01*
X106397991Y-112399327D01*
X106637464Y-112528863D01*
X106803665Y-112595232D01*
X106932571Y-112644776D01*
X107026911Y-112690863D01*
X107064668Y-112721547D01*
X107048443Y-112773653D01*
X106991482Y-112857627D01*
X106956138Y-112899669D01*
X106875805Y-113003180D01*
X106820814Y-113098965D01*
X106811566Y-113124963D01*
X106805926Y-113188504D01*
X106801925Y-113319918D01*
X106799659Y-113507093D01*
X106799225Y-113737916D01*
X106800719Y-114000277D01*
X106803008Y-114199387D01*
X106807649Y-114506790D01*
X106812540Y-114744000D01*
X106818531Y-114920822D01*
X106826472Y-115047059D01*
X106837213Y-115132516D01*
X106851606Y-115186998D01*
X106870500Y-115220310D01*
X106893377Y-115241265D01*
X106954105Y-115272945D01*
X107017388Y-115262774D01*
X107098422Y-115218007D01*
X107200307Y-115165389D01*
X107283232Y-115139390D01*
X107292166Y-115138800D01*
X107346085Y-115168287D01*
X107354271Y-115246402D01*
X107318869Y-115357623D01*
X107244662Y-115482798D01*
X107168335Y-115596922D01*
X107074146Y-115749820D01*
X106981726Y-115909563D01*
X106976593Y-115918800D01*
X106878172Y-116088787D01*
X106805325Y-116195000D01*
X106750903Y-116246684D01*
X106716538Y-116255079D01*
X106673906Y-116236685D01*
X106579173Y-116190241D01*
X106451118Y-116125004D01*
X106422815Y-116110336D01*
X106251563Y-116010991D01*
X106132269Y-115912645D01*
X106039861Y-115794277D01*
X106032961Y-115783443D01*
X105967723Y-115671305D01*
X105925233Y-115582101D01*
X105916037Y-115548800D01*
X105902285Y-115502194D01*
X105894857Y-115498800D01*
X105854000Y-115521467D01*
X105764729Y-115582145D01*
X105641971Y-115669851D01*
X105500653Y-115773598D01*
X105355701Y-115882402D01*
X105222043Y-115985279D01*
X105114604Y-116071244D01*
X105096787Y-116086106D01*
X104986732Y-116162081D01*
X104880363Y-116208642D01*
X104796784Y-116220558D01*
X104755099Y-116192597D01*
X104753446Y-116180128D01*
X104728636Y-116136522D01*
X104661010Y-116045986D01*
X104560772Y-115921569D01*
X104438129Y-115776319D01*
X104432787Y-115770128D01*
X104198108Y-115469443D01*
X104029218Y-115181100D01*
X103917954Y-114886646D01*
X103856152Y-114567630D01*
X103844186Y-114439645D01*
X103836421Y-114137142D01*
X103862538Y-113867855D01*
X103904574Y-113709950D01*
X104747051Y-113709950D01*
X104758570Y-114030959D01*
X104808845Y-114345121D01*
X104894628Y-114639346D01*
X105012670Y-114900547D01*
X105159724Y-115115635D01*
X105332541Y-115271520D01*
X105402120Y-115311454D01*
X105547737Y-115354973D01*
X105675971Y-115326170D01*
X105782799Y-115244691D01*
X105809727Y-115215667D01*
X105830616Y-115181070D01*
X105846338Y-115130940D01*
X105857764Y-115055317D01*
X105865767Y-114944243D01*
X105871218Y-114787758D01*
X105874990Y-114575903D01*
X105877954Y-114298718D01*
X105879324Y-114142030D01*
X105887979Y-113125261D01*
X105695919Y-113015434D01*
X105548233Y-112919963D01*
X105399548Y-112807138D01*
X105347645Y-112762203D01*
X105250087Y-112680991D01*
X105170182Y-112629013D01*
X105140069Y-112618800D01*
X105087596Y-112653797D01*
X105019062Y-112747526D01*
X104944539Y-112883096D01*
X104874101Y-113043613D01*
X104853270Y-113099745D01*
X104777534Y-113395183D01*
X104747051Y-113709950D01*
X103904574Y-113709950D01*
X103928229Y-113621091D01*
X104039186Y-113386154D01*
G37*
G36*
X94127094Y-111683990D02*
G01*
X94212962Y-111752026D01*
X94330149Y-111851600D01*
X94426871Y-111937122D01*
X94608012Y-112090693D01*
X94756784Y-112194091D01*
X94891343Y-112259233D01*
X94944829Y-112277122D01*
X95070451Y-112311853D01*
X95167655Y-112334224D01*
X95201384Y-112338800D01*
X95255157Y-112371226D01*
X95276068Y-112406830D01*
X95267657Y-112479540D01*
X95190975Y-112575760D01*
X95164492Y-112600833D01*
X95026770Y-112726804D01*
X94997164Y-113199894D01*
X94986172Y-113446543D01*
X94981710Y-113716275D01*
X94983199Y-113996400D01*
X94990059Y-114274227D01*
X95001712Y-114537064D01*
X95017579Y-114772219D01*
X95037082Y-114967002D01*
X95059643Y-115108720D01*
X95084681Y-115184683D01*
X95087845Y-115188800D01*
X95183523Y-115251909D01*
X95282352Y-115235696D01*
X95351666Y-115176105D01*
X95430145Y-115114601D01*
X95487126Y-115127720D01*
X95513006Y-115210973D01*
X95513155Y-115251608D01*
X95489100Y-115349445D01*
X95430567Y-115485597D01*
X95347863Y-115643308D01*
X95251293Y-115805816D01*
X95151165Y-115956364D01*
X95057782Y-116078191D01*
X94981453Y-116154540D01*
X94947362Y-116171666D01*
X94833571Y-116154201D01*
X94691204Y-116084148D01*
X94536901Y-115974961D01*
X94387301Y-115840097D01*
X94259045Y-115693010D01*
X94168774Y-115547156D01*
X94165094Y-115539107D01*
X94142432Y-115483128D01*
X94124154Y-115420996D01*
X94109614Y-115343290D01*
X94098168Y-115240586D01*
X94089170Y-115103462D01*
X94081974Y-114922495D01*
X94075936Y-114688262D01*
X94070411Y-114391341D01*
X94065711Y-114087807D01*
X94046981Y-112816814D01*
X93861491Y-112658065D01*
X93760075Y-112574274D01*
X93683617Y-112516647D01*
X93652529Y-112499058D01*
X93610795Y-112521616D01*
X93526648Y-112580352D01*
X93442198Y-112644150D01*
X93255339Y-112789501D01*
X93256650Y-113674150D01*
X93259372Y-114069153D01*
X93266765Y-114391764D01*
X93279597Y-114649497D01*
X93298637Y-114849865D01*
X93324653Y-115000382D01*
X93358412Y-115108562D01*
X93400684Y-115181918D01*
X93412179Y-115195173D01*
X93480584Y-115297001D01*
X93482250Y-115396750D01*
X93414687Y-115507659D01*
X93338625Y-115586251D01*
X93232477Y-115698890D01*
X93112282Y-115845465D01*
X93016694Y-115976251D01*
X92928946Y-116094633D01*
X92851144Y-116181002D01*
X92798767Y-116218403D01*
X92795262Y-116218800D01*
X92745177Y-116187639D01*
X92670771Y-116106432D01*
X92597812Y-116006724D01*
X92488138Y-115860095D01*
X92352184Y-115702957D01*
X92255134Y-115603990D01*
X92154038Y-115501499D01*
X92081668Y-115414917D01*
X92053454Y-115362738D01*
X92053446Y-115362266D01*
X92081020Y-115300285D01*
X92139102Y-115234999D01*
X92195871Y-115178790D01*
X92240482Y-115116228D01*
X92274380Y-115037398D01*
X92299010Y-114932383D01*
X92315816Y-114791270D01*
X92326243Y-114604141D01*
X92331736Y-114361081D01*
X92333739Y-114052175D01*
X92333888Y-113898098D01*
X92333188Y-113578252D01*
X92330699Y-113328262D01*
X92325838Y-113137991D01*
X92318019Y-112997303D01*
X92306659Y-112896062D01*
X92291174Y-112824133D01*
X92270980Y-112771379D01*
X92268701Y-112766813D01*
X92169265Y-112613399D01*
X92062245Y-112521432D01*
X91981570Y-112498800D01*
X91910592Y-112523312D01*
X91805617Y-112585106D01*
X91690929Y-112666561D01*
X91590813Y-112750062D01*
X91529555Y-112817989D01*
X91522722Y-112831676D01*
X91519275Y-112882648D01*
X91517712Y-113002838D01*
X91517970Y-113181488D01*
X91519984Y-113407840D01*
X91523691Y-113671135D01*
X91529027Y-113960616D01*
X91529557Y-113986255D01*
X91552658Y-115093711D01*
X91662831Y-115208444D01*
X91732884Y-115288015D01*
X91770797Y-115343962D01*
X91773005Y-115351997D01*
X91747868Y-115392842D01*
X91680812Y-115476955D01*
X91584368Y-115588914D01*
X91542642Y-115635527D01*
X91419036Y-115777452D01*
X91301985Y-115920774D01*
X91213679Y-116038159D01*
X91202486Y-116054518D01*
X91127356Y-116150225D01*
X91059366Y-116209443D01*
X91033449Y-116218800D01*
X90983115Y-116187240D01*
X90908862Y-116104638D01*
X90829517Y-115992972D01*
X90724372Y-115846299D01*
X90604114Y-115703619D01*
X90523904Y-115622972D01*
X90396233Y-115501903D01*
X90328369Y-115412404D01*
X90316186Y-115337824D01*
X90355557Y-115261512D01*
X90417171Y-115192365D01*
X90551080Y-115054492D01*
X90563440Y-113933196D01*
X90566626Y-113597244D01*
X90567673Y-113332022D01*
X90566193Y-113128280D01*
X90561799Y-112976766D01*
X90554104Y-112868229D01*
X90542719Y-112793420D01*
X90527258Y-112743087D01*
X90512437Y-112715350D01*
X90438123Y-112637728D01*
X90351815Y-112627820D01*
X90238601Y-112685035D01*
X90212730Y-112703510D01*
X90108819Y-112757906D01*
X90038320Y-112748529D01*
X90010357Y-112676909D01*
X90010229Y-112669574D01*
X90029547Y-112612181D01*
X90082360Y-112501328D01*
X90160955Y-112352162D01*
X90257619Y-112179834D01*
X90273776Y-112151934D01*
X90392253Y-111953812D01*
X90481680Y-111818618D01*
X90548692Y-111737651D01*
X90599925Y-111702212D01*
X90619451Y-111698800D01*
X90744724Y-111728632D01*
X90898386Y-111808052D01*
X91061711Y-111921939D01*
X91215968Y-112055176D01*
X91342429Y-112192642D01*
X91422365Y-112319221D01*
X91435795Y-112357791D01*
X91466381Y-112433133D01*
X91495877Y-112458800D01*
X91545350Y-112432890D01*
X91636729Y-112364028D01*
X91754945Y-112265507D01*
X91884931Y-112150626D01*
X92011617Y-112032681D01*
X92119936Y-111924968D01*
X92191503Y-111844978D01*
X92277531Y-111757068D01*
X92359110Y-111704956D01*
X92386443Y-111698800D01*
X92497646Y-111727139D01*
X92640748Y-111802429D01*
X92796454Y-111910079D01*
X92945469Y-112035498D01*
X93068498Y-112164094D01*
X93140201Y-112268800D01*
X93199213Y-112361961D01*
X93254555Y-112414504D01*
X93269150Y-112418800D01*
X93316247Y-112392221D01*
X93404826Y-112321301D01*
X93520727Y-112219263D01*
X93649791Y-112099327D01*
X93777855Y-111974717D01*
X93890762Y-111858656D01*
X93974349Y-111764365D01*
X93986673Y-111748800D01*
X94046674Y-111683277D01*
X94086374Y-111658800D01*
X94127094Y-111683990D01*
G37*
%TO.C,e1*%
X125745000Y-93294998D02*
X125745000Y-99544998D01*
X130795000Y-93294998D02*
X130795000Y-99544998D01*
X130795000Y-93294998D02*
G75*
G03*
X125745000Y-93294998I-2525000J0D01*
G01*
X125745000Y-99544998D02*
G75*
G03*
X130795000Y-99544998I2525000J0D01*
G01*
%TO.C,C12*%
X167352000Y-61663252D02*
X167352000Y-61140748D01*
X168822000Y-61663252D02*
X168822000Y-61140748D01*
%TO.C,C13*%
X167352000Y-65270748D02*
X167352000Y-65793252D01*
X168822000Y-65270748D02*
X168822000Y-65793252D01*
D14*
%TO.C,J4*%
X80350000Y-70029000D02*
X80350000Y-51129000D01*
X80350000Y-51129000D02*
X59350000Y-51129000D01*
D15*
X58750000Y-63529000D02*
X58750000Y-63529000D01*
D14*
X59350000Y-51129000D02*
X59350000Y-70029000D01*
X59350000Y-70029000D02*
X80350000Y-70029000D01*
D15*
X58850000Y-63529000D02*
X58850000Y-63529000D01*
X58850000Y-63529000D02*
G75*
G03*
X58750000Y-63529000I-50000J0D01*
G01*
X58750000Y-63529000D02*
G75*
G03*
X58850000Y-63529000I50000J0D01*
G01*
D13*
%TO.C,C10*%
X180052000Y-70553252D02*
X180052000Y-70030748D01*
X181522000Y-70553252D02*
X181522000Y-70030748D01*
%TO.C,R5*%
X90070000Y-73887064D02*
X90070000Y-73432936D01*
X91540000Y-73887064D02*
X91540000Y-73432936D01*
%TO.C,J16*%
X248120000Y-74480000D02*
X250780000Y-74480000D01*
X250780000Y-74480000D02*
X250780000Y-77080000D01*
X248120000Y-77080000D02*
X250780000Y-77080000D01*
X248120000Y-73210000D02*
X248120000Y-71880000D01*
X248120000Y-74480000D02*
X248120000Y-77080000D01*
X248120000Y-71880000D02*
X249450000Y-71880000D01*
%TO.C,D2*%
X164507000Y-60552000D02*
X161957000Y-60552000D01*
X164507000Y-62252000D02*
X161957000Y-62252000D01*
X164507000Y-62252000D02*
X164507000Y-60552000D01*
%TO.C,R18*%
X232945000Y-63727064D02*
X232945000Y-63272936D01*
X234415000Y-63727064D02*
X234415000Y-63272936D01*
%TO.C,U1*%
X138080000Y-101630000D02*
X137130000Y-101630000D01*
X146400000Y-91410000D02*
X147350000Y-91410000D01*
X138080000Y-91410000D02*
X137130000Y-91410000D01*
X137130000Y-91410000D02*
X137130000Y-92360000D01*
X137130000Y-101630000D02*
X137130000Y-100680000D01*
X146400000Y-101630000D02*
X147350000Y-101630000D01*
X147350000Y-101630000D02*
X147350000Y-100680000D01*
X137130000Y-92360000D02*
X135790000Y-92360000D01*
X147350000Y-91410000D02*
X147350000Y-92360000D01*
%TO.C,J10*%
X228540000Y-59705000D02*
X231200000Y-59705000D01*
X228540000Y-64845000D02*
X231200000Y-64845000D01*
X228540000Y-58435000D02*
X228540000Y-57105000D01*
X228540000Y-59705000D02*
X228540000Y-64845000D01*
X228540000Y-57105000D02*
X229870000Y-57105000D01*
X231200000Y-59705000D02*
X231200000Y-64845000D01*
%TO.C,U4*%
X173167000Y-62382000D02*
X173967000Y-62382000D01*
X173167000Y-62382000D02*
X171367000Y-62382000D01*
X173167000Y-65502000D02*
X173967000Y-65502000D01*
X173167000Y-65502000D02*
X172367000Y-65502000D01*
%TO.C,C16*%
X247115000Y-74668748D02*
X247115000Y-75191252D01*
X245645000Y-74668748D02*
X245645000Y-75191252D01*
%TO.C,J14*%
X157987000Y-65212000D02*
X157987000Y-66542000D01*
X157987000Y-63942000D02*
X155327000Y-63942000D01*
X157987000Y-66542000D02*
X156657000Y-66542000D01*
X157987000Y-63942000D02*
X157987000Y-58802000D01*
X155327000Y-63942000D02*
X155327000Y-58802000D01*
X157987000Y-58802000D02*
X155327000Y-58802000D01*
%TO.C,D1*%
X119650000Y-76545000D02*
X121650000Y-76545000D01*
X119650000Y-76545000D02*
X119650000Y-72645000D01*
X121650000Y-76545000D02*
X121650000Y-72645000D01*
%TO.C,J13*%
X184597000Y-52132000D02*
X187197000Y-52132000D01*
X187197000Y-54792000D02*
X187197000Y-52132000D01*
X184597000Y-54792000D02*
X184597000Y-52132000D01*
X184597000Y-54792000D02*
X187197000Y-54792000D01*
X181997000Y-54792000D02*
X181997000Y-53462000D01*
X183327000Y-54792000D02*
X181997000Y-54792000D01*
%TO.C,R7*%
X92610000Y-73887064D02*
X92610000Y-73432936D01*
X94080000Y-73887064D02*
X94080000Y-73432936D01*
%TO.C,R3*%
X85317064Y-83720000D02*
X84862936Y-83720000D01*
X85317064Y-85190000D02*
X84862936Y-85190000D01*
%TO.C,C5*%
X236481252Y-69115000D02*
X235958748Y-69115000D01*
X236481252Y-70585000D02*
X235958748Y-70585000D01*
%TO.C,R13*%
X161874564Y-104040000D02*
X161420436Y-104040000D01*
X161874564Y-105510000D02*
X161420436Y-105510000D01*
%TO.C,R1*%
X118210000Y-73529564D02*
X118210000Y-73075436D01*
X116740000Y-73529564D02*
X116740000Y-73075436D01*
%TO.C,C7*%
X49268748Y-109755000D02*
X49791252Y-109755000D01*
X49268748Y-111225000D02*
X49791252Y-111225000D01*
%TO.C,R10*%
X161697936Y-91975000D02*
X162152064Y-91975000D01*
X161697936Y-93445000D02*
X162152064Y-93445000D01*
%TO.C,R11*%
X162152064Y-95350000D02*
X161697936Y-95350000D01*
X162152064Y-93880000D02*
X161697936Y-93880000D01*
%TO.C,C14*%
X178982000Y-65793252D02*
X178982000Y-65270748D01*
X177512000Y-65793252D02*
X177512000Y-65270748D01*
%TO.C,R19*%
X232945000Y-58192936D02*
X232945000Y-58647064D01*
X234415000Y-58192936D02*
X234415000Y-58647064D01*
%TO.C,FB1*%
X136450000Y-103269622D02*
X136450000Y-102470378D01*
X135330000Y-103269622D02*
X135330000Y-102470378D01*
%TO.C,R12*%
X161420436Y-102970000D02*
X161874564Y-102970000D01*
X161420436Y-101500000D02*
X161874564Y-101500000D01*
%TO.C,R4*%
X65305000Y-78609564D02*
X65305000Y-78155436D01*
X66775000Y-78609564D02*
X66775000Y-78155436D01*
%TO.C,C4*%
X49268748Y-107215000D02*
X49791252Y-107215000D01*
X49268748Y-108685000D02*
X49791252Y-108685000D01*
%TO.C,U3*%
X85588000Y-76708000D02*
X85588000Y-74758000D01*
X76718000Y-76708000D02*
X76718000Y-74758000D01*
X85588000Y-76708000D02*
X85588000Y-78658000D01*
X76718000Y-76708000D02*
X76718000Y-80158000D01*
D15*
%TO.C,J3*%
X109550000Y-63529000D02*
X109550000Y-63529000D01*
D14*
X110150000Y-51129000D02*
X110150000Y-70029000D01*
X131150000Y-70029000D02*
X131150000Y-51129000D01*
X110150000Y-70029000D02*
X131150000Y-70029000D01*
D15*
X109650000Y-63529000D02*
X109650000Y-63529000D01*
D14*
X131150000Y-51129000D02*
X110150000Y-51129000D01*
D15*
X109550000Y-63529000D02*
G75*
G03*
X109650000Y-63529000I50000J0D01*
G01*
X109650000Y-63529000D02*
G75*
G03*
X109550000Y-63529000I-50000J0D01*
G01*
D13*
%TO.C,J12*%
X156657000Y-54792000D02*
X156657000Y-52132000D01*
X156657000Y-54792000D02*
X159257000Y-54792000D01*
X156657000Y-52132000D02*
X159257000Y-52132000D01*
X155387000Y-54792000D02*
X154057000Y-54792000D01*
X159257000Y-54792000D02*
X159257000Y-52132000D01*
X154057000Y-54792000D02*
X154057000Y-53462000D01*
%TO.C,R14*%
X179477936Y-93245000D02*
X179932064Y-93245000D01*
X179477936Y-94715000D02*
X179932064Y-94715000D01*
%TO.C,C2*%
X122454998Y-94241252D02*
X122454998Y-93718748D01*
X123924998Y-94241252D02*
X123924998Y-93718748D01*
%TO.C,C6*%
X48948748Y-64235000D02*
X49471252Y-64235000D01*
X48948748Y-62765000D02*
X49471252Y-62765000D01*
%TO.C,C3*%
X122454998Y-97528748D02*
X122454998Y-98051252D01*
X123924998Y-97528748D02*
X123924998Y-98051252D01*
D16*
%TO.C,U2*%
X101217500Y-74862500D02*
X101217500Y-81467500D01*
X110872500Y-74862500D02*
X110872500Y-81467500D01*
D14*
X110145000Y-72165000D02*
G75*
G03*
X110145000Y-72165000I-100000J0D01*
G01*
D13*
%TO.C,C1*%
X91498748Y-79475000D02*
X92021252Y-79475000D01*
X91498748Y-78005000D02*
X92021252Y-78005000D01*
D16*
%TO.C,J6*%
X136606000Y-66606000D02*
X136606000Y-62954000D01*
X148636000Y-59144000D02*
X148636000Y-50896000D01*
X144781000Y-66606000D02*
X148636000Y-66606000D01*
X148636000Y-66606000D02*
X148636000Y-62954000D01*
X140461000Y-66606000D02*
X136606000Y-66606000D01*
X136606000Y-59398000D02*
X136606000Y-50896000D01*
X136606000Y-50896000D02*
X148636000Y-50896000D01*
X140159488Y-65936000D02*
G75*
G03*
X140159488Y-65936000I-98488J0D01*
G01*
D15*
%TO.C,J5*%
X84150000Y-63529000D02*
X84150000Y-63529000D01*
D14*
X105750000Y-51129000D02*
X84750000Y-51129000D01*
X84750000Y-70029000D02*
X105750000Y-70029000D01*
X84750000Y-51129000D02*
X84750000Y-70029000D01*
D15*
X84250000Y-63529000D02*
X84250000Y-63529000D01*
D14*
X105750000Y-70029000D02*
X105750000Y-51129000D01*
D15*
X84150000Y-63529000D02*
G75*
G03*
X84250000Y-63529000I50000J0D01*
G01*
X84250000Y-63529000D02*
G75*
G03*
X84150000Y-63529000I-50000J0D01*
G01*
D13*
%TO.C,R20*%
X47725000Y-74702936D02*
X47725000Y-75157064D01*
X46255000Y-74702936D02*
X46255000Y-75157064D01*
%TO.C,J2*%
X220726000Y-86614000D02*
G75*
G03*
X220726000Y-86614000I-381000J0D01*
G01*
%TO.C,J1*%
X40386000Y-86614000D02*
G75*
G03*
X40386000Y-86614000I-381000J0D01*
G01*
%TD*%
M02*
