M48
; DRILL file {KiCad (6.0.8)} date Thu Nov 10 12:51:53 2022
; FORMAT={-:-/ absolute / metric / decimal}
; #@! TF.CreationDate,2022-11-10T12:51:53+01:00
; #@! TF.GenerationSoftware,Kicad,Pcbnew,(6.0.8)
; #@! TF.FileFunction,Plated,1,4,PTH
FMAT,2
METRIC
; #@! TA.AperFunction,Plated,PTH,ViaDrill
T1C0.400
; #@! TA.AperFunction,Plated,PTH,ComponentDrill
T2C0.800
; #@! TA.AperFunction,Plated,PTH,ComponentDrill
T3C0.813
; #@! TA.AperFunction,Plated,PTH,ComponentDrill
T4C0.920
; #@! TA.AperFunction,Plated,PTH,ComponentDrill
T5C1.000
; #@! TA.AperFunction,Plated,PTH,ComponentDrill
T6C1.448
; #@! TA.AperFunction,Plated,PTH,ComponentDrill
T7C1.500
; #@! TA.AperFunction,Plated,PTH,ComponentDrill
T8C2.300
; #@! TA.AperFunction,Plated,PTH,ComponentDrill
T9C5.300
%
G90
G05
T1
X46.99Y-72.39
X52.705Y-63.5
X52.705Y-107.95
X63.5Y-80.01
X75.565Y-74.295
X77.47Y-81.28
X87.63Y-84.455
X87.822Y-79.183
X95.25Y-78.74
X106.045Y-78.105
X116.84Y-80.01
X120.015Y-92.71
X133.096Y-85.186
X133.35Y-102.235
X133.985Y-96.52
X133.985Y-104.14
X136.525Y-88.9
X136.525Y-90.805
X137.16Y-102.87
X139.065Y-93.345
X139.7Y-95.885
X140.97Y-92.71
X140.97Y-96.609
X140.97Y-99.695
X142.24Y-97.79
X143.51Y-93.98
X144.78Y-93.98
X146.05Y-99.06
X146.05Y-104.775
X148.59Y-87.63
X149.86Y-87.63
X149.86Y-93.98
X150.495Y-92.075
X151.13Y-87.63
X158.75Y-94.615
X158.75Y-104.14
X160.02Y-100.965
X161.29Y-90.805
X169.992Y-63.307
X175.072Y-70.292
X176.342Y-60.132
X179.07Y-92.075
X180.787Y-66.482
X183.327Y-69.657
X232.41Y-110.49
X233.68Y-70.485
X235.585Y-64.77
T2
X128.27Y-93.98
X128.27Y-98.86
T3
X40.005Y-88.9
X41.275Y-91.44
X42.545Y-88.9
X43.815Y-91.44
X45.085Y-88.9
X46.355Y-91.44
X47.625Y-88.9
X48.895Y-91.44
X50.165Y-88.9
X51.435Y-91.44
X52.705Y-88.9
X53.975Y-91.44
X55.245Y-88.9
X56.515Y-91.44
X57.785Y-88.9
X59.055Y-91.44
X60.325Y-88.9
X61.595Y-91.44
X62.865Y-88.9
X64.135Y-91.44
X220.345Y-88.9
X221.615Y-91.44
X222.885Y-88.9
X224.155Y-91.44
X225.425Y-88.9
X226.695Y-91.44
X227.965Y-88.9
X229.235Y-91.44
X230.505Y-88.9
X231.775Y-91.44
X233.045Y-88.9
X234.315Y-91.44
X235.585Y-88.9
X236.855Y-91.44
X238.125Y-88.9
X239.395Y-91.44
X240.665Y-88.9
X241.935Y-91.44
X243.205Y-88.9
X244.475Y-91.44
T4
X141.371Y-63.886
X141.371Y-65.886
X143.871Y-63.886
X143.871Y-65.886
T5
X43.18Y-74.93
X43.18Y-77.47
X43.18Y-80.01
X43.18Y-82.55
X155.387Y-53.462
X156.657Y-60.132
X156.657Y-62.672
X156.657Y-65.212
X157.927Y-53.462
X183.327Y-53.462
X184.597Y-60.117
X184.597Y-62.657
X184.597Y-65.197
X185.867Y-53.462
X198.12Y-60.207
X198.12Y-62.747
X200.66Y-60.207
X200.66Y-62.747
X203.2Y-60.207
X203.2Y-62.747
X205.74Y-60.207
X205.74Y-62.747
X208.28Y-60.207
X208.28Y-62.747
X210.82Y-60.207
X210.82Y-62.747
X213.36Y-60.207
X213.36Y-62.747
X215.9Y-60.207
X215.9Y-62.747
X218.44Y-60.207
X218.44Y-62.747
X220.98Y-60.207
X220.98Y-62.747
X229.87Y-58.435
X229.87Y-60.975
X229.87Y-63.515
X249.45Y-73.21
X249.45Y-75.75
T6
X165.49Y-94.183
X165.49Y-104.343
X165.49Y-111.963
X175.396Y-94.183
X175.396Y-104.343
X183.21Y-94.183
X183.21Y-104.343
X183.21Y-111.963
X193.116Y-94.183
X193.116Y-104.343
T7
X62.35Y-63.529
X64.85Y-53.629
X64.85Y-66.029
X69.85Y-63.529
X74.85Y-53.629
X74.85Y-66.029
X77.35Y-63.529
X87.75Y-63.529
X90.25Y-53.629
X90.25Y-66.029
X95.25Y-63.529
X100.25Y-53.629
X100.25Y-66.029
X102.75Y-63.529
X113.15Y-63.529
X115.65Y-53.629
X115.65Y-66.029
X120.65Y-63.529
X125.65Y-53.629
X125.65Y-66.029
X128.15Y-63.529
T8
X136.601Y-61.176
X148.641Y-61.176
T9
X40.64Y-59.5
X40.64Y-113.22
X243.84Y-59.5
X243.84Y-113.22
T0
M30
