%TF.GenerationSoftware,KiCad,Pcbnew,(6.0.8)*%
%TF.CreationDate,2022-11-10T12:51:54+01:00*%
%TF.ProjectId,hoatzin,686f6174-7a69-46e2-9e6b-696361645f70,rev?*%
%TF.SameCoordinates,Original*%
%TF.FileFunction,Drillmap*%
%TF.FilePolarity,Positive*%
%FSLAX45Y45*%
G04 Gerber Fmt 4.5, Leading zero omitted, Abs format (unit mm)*
G04 Created by KiCad (PCBNEW (6.0.8)) date 2022-11-10 12:51:54*
%MOMM*%
%LPD*%
G01*
G04 APERTURE LIST*
%ADD10C,0.100000*%
%ADD11C,0.200000*%
%ADD12C,0.040000*%
%ADD13C,0.080000*%
%ADD14C,0.081280*%
%ADD15C,0.092000*%
%ADD16C,0.144780*%
%ADD17C,0.150000*%
%ADD18C,0.230000*%
%ADD19C,0.530000*%
G04 APERTURE END LIST*
D10*
X25273000Y-5950000D02*
G75*
G03*
X24384000Y-5061000I-889000J0D01*
G01*
X24384000Y-12211000D02*
G75*
G03*
X25273000Y-11322000I0J889000D01*
G01*
X24384000Y-5061000D02*
X4064000Y-5061000D01*
X4064000Y-5061000D02*
G75*
G03*
X3175000Y-5950000I0J-889000D01*
G01*
X24384000Y-12211000D02*
X4064000Y-12211000D01*
X3175000Y-11322000D02*
X3175000Y-5950000D01*
X3175000Y-11322000D02*
G75*
G03*
X4064000Y-12211000I889000J0D01*
G01*
X25273000Y-5950000D02*
X25273000Y-11322000D01*
D11*
D12*
X4679000Y-7219000D02*
X4719000Y-7259000D01*
X4719000Y-7219000D02*
X4679000Y-7259000D01*
X5250500Y-6330000D02*
X5290500Y-6370000D01*
X5290500Y-6330000D02*
X5250500Y-6370000D01*
X5250500Y-10775000D02*
X5290500Y-10815000D01*
X5290500Y-10775000D02*
X5250500Y-10815000D01*
X6330000Y-7981000D02*
X6370000Y-8021000D01*
X6370000Y-7981000D02*
X6330000Y-8021000D01*
X7536500Y-7409500D02*
X7576500Y-7449500D01*
X7576500Y-7409500D02*
X7536500Y-7449500D01*
X7727000Y-8108000D02*
X7767000Y-8148000D01*
X7767000Y-8108000D02*
X7727000Y-8148000D01*
X8743000Y-8425500D02*
X8783000Y-8465500D01*
X8783000Y-8425500D02*
X8743000Y-8465500D01*
X8762200Y-7898300D02*
X8802200Y-7938300D01*
X8802200Y-7898300D02*
X8762200Y-7938300D01*
X9505000Y-7854000D02*
X9545000Y-7894000D01*
X9545000Y-7854000D02*
X9505000Y-7894000D01*
X10584500Y-7790500D02*
X10624500Y-7830500D01*
X10624500Y-7790500D02*
X10584500Y-7830500D01*
X11664000Y-7981000D02*
X11704000Y-8021000D01*
X11704000Y-7981000D02*
X11664000Y-8021000D01*
X11981500Y-9251000D02*
X12021500Y-9291000D01*
X12021500Y-9251000D02*
X11981500Y-9291000D01*
X13289600Y-8498598D02*
X13329600Y-8538598D01*
X13329600Y-8498598D02*
X13289600Y-8538598D01*
X13315000Y-10203500D02*
X13355000Y-10243500D01*
X13355000Y-10203500D02*
X13315000Y-10243500D01*
X13378500Y-9632000D02*
X13418500Y-9672000D01*
X13418500Y-9632000D02*
X13378500Y-9672000D01*
X13378500Y-10394000D02*
X13418500Y-10434000D01*
X13418500Y-10394000D02*
X13378500Y-10434000D01*
X13632500Y-8870000D02*
X13672500Y-8910000D01*
X13672500Y-8870000D02*
X13632500Y-8910000D01*
X13632500Y-9060500D02*
X13672500Y-9100500D01*
X13672500Y-9060500D02*
X13632500Y-9100500D01*
X13696000Y-10267000D02*
X13736000Y-10307000D01*
X13736000Y-10267000D02*
X13696000Y-10307000D01*
X13886500Y-9314500D02*
X13926500Y-9354500D01*
X13926500Y-9314500D02*
X13886500Y-9354500D01*
X13950000Y-9568500D02*
X13990000Y-9608500D01*
X13990000Y-9568500D02*
X13950000Y-9608500D01*
X14077000Y-9251000D02*
X14117000Y-9291000D01*
X14117000Y-9251000D02*
X14077000Y-9291000D01*
X14077000Y-9640950D02*
X14117000Y-9680950D01*
X14117000Y-9640950D02*
X14077000Y-9680950D01*
X14077000Y-9949500D02*
X14117000Y-9989500D01*
X14117000Y-9949500D02*
X14077000Y-9989500D01*
X14204000Y-9759000D02*
X14244000Y-9799000D01*
X14244000Y-9759000D02*
X14204000Y-9799000D01*
X14331000Y-9378000D02*
X14371000Y-9418000D01*
X14371000Y-9378000D02*
X14331000Y-9418000D01*
X14458000Y-9378000D02*
X14498000Y-9418000D01*
X14498000Y-9378000D02*
X14458000Y-9418000D01*
X14585000Y-9886000D02*
X14625000Y-9926000D01*
X14625000Y-9886000D02*
X14585000Y-9926000D01*
X14585000Y-10457500D02*
X14625000Y-10497500D01*
X14625000Y-10457500D02*
X14585000Y-10497500D01*
X14839000Y-8743000D02*
X14879000Y-8783000D01*
X14879000Y-8743000D02*
X14839000Y-8783000D01*
X14966000Y-8743000D02*
X15006000Y-8783000D01*
X15006000Y-8743000D02*
X14966000Y-8783000D01*
X14966000Y-9378000D02*
X15006000Y-9418000D01*
X15006000Y-9378000D02*
X14966000Y-9418000D01*
X15029500Y-9187500D02*
X15069500Y-9227500D01*
X15069500Y-9187500D02*
X15029500Y-9227500D01*
X15093000Y-8743000D02*
X15133000Y-8783000D01*
X15133000Y-8743000D02*
X15093000Y-8783000D01*
X15855000Y-9441500D02*
X15895000Y-9481500D01*
X15895000Y-9441500D02*
X15855000Y-9481500D01*
X15855000Y-10394000D02*
X15895000Y-10434000D01*
X15895000Y-10394000D02*
X15855000Y-10434000D01*
X15982000Y-10076500D02*
X16022000Y-10116500D01*
X16022000Y-10076500D02*
X15982000Y-10116500D01*
X16109000Y-9060500D02*
X16149000Y-9100500D01*
X16149000Y-9060500D02*
X16109000Y-9100500D01*
X16979200Y-6310700D02*
X17019200Y-6350700D01*
X17019200Y-6310700D02*
X16979200Y-6350700D01*
X17487200Y-7009200D02*
X17527200Y-7049200D01*
X17527200Y-7009200D02*
X17487200Y-7049200D01*
X17614200Y-5993200D02*
X17654200Y-6033200D01*
X17654200Y-5993200D02*
X17614200Y-6033200D01*
X17887000Y-9187500D02*
X17927000Y-9227500D01*
X17927000Y-9187500D02*
X17887000Y-9227500D01*
X18058700Y-6628200D02*
X18098700Y-6668200D01*
X18098700Y-6628200D02*
X18058700Y-6668200D01*
X18312700Y-6945700D02*
X18352700Y-6985700D01*
X18352700Y-6945700D02*
X18312700Y-6985700D01*
X23221000Y-11029000D02*
X23261000Y-11069000D01*
X23261000Y-11029000D02*
X23221000Y-11069000D01*
X23348000Y-7028500D02*
X23388000Y-7068500D01*
X23388000Y-7028500D02*
X23348000Y-7068500D01*
X23538500Y-6457000D02*
X23578500Y-6497000D01*
X23578500Y-6457000D02*
X23538500Y-6497000D01*
D13*
X12867000Y-9398000D02*
G75*
G03*
X12867000Y-9398000I-40000J0D01*
G01*
X12867000Y-9886000D02*
G75*
G03*
X12867000Y-9886000I-40000J0D01*
G01*
D14*
X4000500Y-8849360D02*
X4000500Y-8930640D01*
X3959860Y-8890000D02*
X4041140Y-8890000D01*
X4127500Y-9103360D02*
X4127500Y-9184640D01*
X4086860Y-9144000D02*
X4168140Y-9144000D01*
X4254500Y-8849360D02*
X4254500Y-8930640D01*
X4213860Y-8890000D02*
X4295140Y-8890000D01*
X4381500Y-9103360D02*
X4381500Y-9184640D01*
X4340860Y-9144000D02*
X4422140Y-9144000D01*
X4508500Y-8849360D02*
X4508500Y-8930640D01*
X4467860Y-8890000D02*
X4549140Y-8890000D01*
X4635500Y-9103360D02*
X4635500Y-9184640D01*
X4594860Y-9144000D02*
X4676140Y-9144000D01*
X4762500Y-8849360D02*
X4762500Y-8930640D01*
X4721860Y-8890000D02*
X4803140Y-8890000D01*
X4889500Y-9103360D02*
X4889500Y-9184640D01*
X4848860Y-9144000D02*
X4930140Y-9144000D01*
X5016500Y-8849360D02*
X5016500Y-8930640D01*
X4975860Y-8890000D02*
X5057140Y-8890000D01*
X5143500Y-9103360D02*
X5143500Y-9184640D01*
X5102860Y-9144000D02*
X5184140Y-9144000D01*
X5270500Y-8849360D02*
X5270500Y-8930640D01*
X5229860Y-8890000D02*
X5311140Y-8890000D01*
X5397500Y-9103360D02*
X5397500Y-9184640D01*
X5356860Y-9144000D02*
X5438140Y-9144000D01*
X5524500Y-8849360D02*
X5524500Y-8930640D01*
X5483860Y-8890000D02*
X5565140Y-8890000D01*
X5651500Y-9103360D02*
X5651500Y-9184640D01*
X5610860Y-9144000D02*
X5692140Y-9144000D01*
X5778500Y-8849360D02*
X5778500Y-8930640D01*
X5737860Y-8890000D02*
X5819140Y-8890000D01*
X5905500Y-9103360D02*
X5905500Y-9184640D01*
X5864860Y-9144000D02*
X5946140Y-9144000D01*
X6032500Y-8849360D02*
X6032500Y-8930640D01*
X5991860Y-8890000D02*
X6073140Y-8890000D01*
X6159500Y-9103360D02*
X6159500Y-9184640D01*
X6118860Y-9144000D02*
X6200140Y-9144000D01*
X6286500Y-8849360D02*
X6286500Y-8930640D01*
X6245860Y-8890000D02*
X6327140Y-8890000D01*
X6413500Y-9103360D02*
X6413500Y-9184640D01*
X6372860Y-9144000D02*
X6454140Y-9144000D01*
X22034500Y-8849360D02*
X22034500Y-8930640D01*
X21993860Y-8890000D02*
X22075140Y-8890000D01*
X22161500Y-9103360D02*
X22161500Y-9184640D01*
X22120860Y-9144000D02*
X22202140Y-9144000D01*
X22288500Y-8849360D02*
X22288500Y-8930640D01*
X22247860Y-8890000D02*
X22329140Y-8890000D01*
X22415500Y-9103360D02*
X22415500Y-9184640D01*
X22374860Y-9144000D02*
X22456140Y-9144000D01*
X22542500Y-8849360D02*
X22542500Y-8930640D01*
X22501860Y-8890000D02*
X22583140Y-8890000D01*
X22669500Y-9103360D02*
X22669500Y-9184640D01*
X22628860Y-9144000D02*
X22710140Y-9144000D01*
X22796500Y-8849360D02*
X22796500Y-8930640D01*
X22755860Y-8890000D02*
X22837140Y-8890000D01*
X22923500Y-9103360D02*
X22923500Y-9184640D01*
X22882860Y-9144000D02*
X22964140Y-9144000D01*
X23050500Y-8849360D02*
X23050500Y-8930640D01*
X23009860Y-8890000D02*
X23091140Y-8890000D01*
X23177500Y-9103360D02*
X23177500Y-9184640D01*
X23136860Y-9144000D02*
X23218140Y-9144000D01*
X23304500Y-8849360D02*
X23304500Y-8930640D01*
X23263860Y-8890000D02*
X23345140Y-8890000D01*
X23431500Y-9103360D02*
X23431500Y-9184640D01*
X23390860Y-9144000D02*
X23472140Y-9144000D01*
X23558500Y-8849360D02*
X23558500Y-8930640D01*
X23517860Y-8890000D02*
X23599140Y-8890000D01*
X23685500Y-9103360D02*
X23685500Y-9184640D01*
X23644860Y-9144000D02*
X23726140Y-9144000D01*
X23812500Y-8849360D02*
X23812500Y-8930640D01*
X23771860Y-8890000D02*
X23853140Y-8890000D01*
X23939500Y-9103360D02*
X23939500Y-9184640D01*
X23898860Y-9144000D02*
X23980140Y-9144000D01*
X24066500Y-8849360D02*
X24066500Y-8930640D01*
X24025860Y-8890000D02*
X24107140Y-8890000D01*
X24193500Y-9103360D02*
X24193500Y-9184640D01*
X24152860Y-9144000D02*
X24234140Y-9144000D01*
X24320500Y-8849360D02*
X24320500Y-8930640D01*
X24279860Y-8890000D02*
X24361140Y-8890000D01*
X24447500Y-9103360D02*
X24447500Y-9184640D01*
X24406860Y-9144000D02*
X24488140Y-9144000D01*
D15*
X14169627Y-6421127D02*
X14169627Y-6356073D01*
X14104573Y-6356073D01*
X14104573Y-6421127D01*
X14169627Y-6421127D01*
X14169627Y-6621127D02*
X14169627Y-6556073D01*
X14104573Y-6556073D01*
X14104573Y-6621127D01*
X14169627Y-6621127D01*
X14419627Y-6421127D02*
X14419627Y-6356073D01*
X14354573Y-6356073D01*
X14354573Y-6421127D01*
X14419627Y-6421127D01*
X14419627Y-6621127D02*
X14419627Y-6556073D01*
X14354573Y-6556073D01*
X14354573Y-6621127D01*
X14419627Y-6621127D01*
D10*
X4318000Y-7543000D02*
X4368000Y-7493000D01*
X4318000Y-7443000D01*
X4268000Y-7493000D01*
X4318000Y-7543000D01*
X4318000Y-7797000D02*
X4368000Y-7747000D01*
X4318000Y-7697000D01*
X4268000Y-7747000D01*
X4318000Y-7797000D01*
X4318000Y-8051000D02*
X4368000Y-8001000D01*
X4318000Y-7951000D01*
X4268000Y-8001000D01*
X4318000Y-8051000D01*
X4318000Y-8305000D02*
X4368000Y-8255000D01*
X4318000Y-8205000D01*
X4268000Y-8255000D01*
X4318000Y-8305000D01*
X15538700Y-5396200D02*
X15588700Y-5346200D01*
X15538700Y-5296200D01*
X15488700Y-5346200D01*
X15538700Y-5396200D01*
X15665700Y-6063200D02*
X15715700Y-6013200D01*
X15665700Y-5963200D01*
X15615700Y-6013200D01*
X15665700Y-6063200D01*
X15665700Y-6317200D02*
X15715700Y-6267200D01*
X15665700Y-6217200D01*
X15615700Y-6267200D01*
X15665700Y-6317200D01*
X15665700Y-6571200D02*
X15715700Y-6521200D01*
X15665700Y-6471200D01*
X15615700Y-6521200D01*
X15665700Y-6571200D01*
X15792700Y-5396200D02*
X15842700Y-5346200D01*
X15792700Y-5296200D01*
X15742700Y-5346200D01*
X15792700Y-5396200D01*
X18332700Y-5396200D02*
X18382700Y-5346200D01*
X18332700Y-5296200D01*
X18282700Y-5346200D01*
X18332700Y-5396200D01*
X18459700Y-6061700D02*
X18509700Y-6011700D01*
X18459700Y-5961700D01*
X18409700Y-6011700D01*
X18459700Y-6061700D01*
X18459700Y-6315700D02*
X18509700Y-6265700D01*
X18459700Y-6215700D01*
X18409700Y-6265700D01*
X18459700Y-6315700D01*
X18459700Y-6569700D02*
X18509700Y-6519700D01*
X18459700Y-6469700D01*
X18409700Y-6519700D01*
X18459700Y-6569700D01*
X18586700Y-5396200D02*
X18636700Y-5346200D01*
X18586700Y-5296200D01*
X18536700Y-5346200D01*
X18586700Y-5396200D01*
X19812000Y-6070750D02*
X19862000Y-6020750D01*
X19812000Y-5970750D01*
X19762000Y-6020750D01*
X19812000Y-6070750D01*
X19812000Y-6324750D02*
X19862000Y-6274750D01*
X19812000Y-6224750D01*
X19762000Y-6274750D01*
X19812000Y-6324750D01*
X20066000Y-6070750D02*
X20116000Y-6020750D01*
X20066000Y-5970750D01*
X20016000Y-6020750D01*
X20066000Y-6070750D01*
X20066000Y-6324750D02*
X20116000Y-6274750D01*
X20066000Y-6224750D01*
X20016000Y-6274750D01*
X20066000Y-6324750D01*
X20320000Y-6070750D02*
X20370000Y-6020750D01*
X20320000Y-5970750D01*
X20270000Y-6020750D01*
X20320000Y-6070750D01*
X20320000Y-6324750D02*
X20370000Y-6274750D01*
X20320000Y-6224750D01*
X20270000Y-6274750D01*
X20320000Y-6324750D01*
X20574000Y-6070750D02*
X20624000Y-6020750D01*
X20574000Y-5970750D01*
X20524000Y-6020750D01*
X20574000Y-6070750D01*
X20574000Y-6324750D02*
X20624000Y-6274750D01*
X20574000Y-6224750D01*
X20524000Y-6274750D01*
X20574000Y-6324750D01*
X20828000Y-6070750D02*
X20878000Y-6020750D01*
X20828000Y-5970750D01*
X20778000Y-6020750D01*
X20828000Y-6070750D01*
X20828000Y-6324750D02*
X20878000Y-6274750D01*
X20828000Y-6224750D01*
X20778000Y-6274750D01*
X20828000Y-6324750D01*
X21082000Y-6070750D02*
X21132000Y-6020750D01*
X21082000Y-5970750D01*
X21032000Y-6020750D01*
X21082000Y-6070750D01*
X21082000Y-6324750D02*
X21132000Y-6274750D01*
X21082000Y-6224750D01*
X21032000Y-6274750D01*
X21082000Y-6324750D01*
X21336000Y-6070750D02*
X21386000Y-6020750D01*
X21336000Y-5970750D01*
X21286000Y-6020750D01*
X21336000Y-6070750D01*
X21336000Y-6324750D02*
X21386000Y-6274750D01*
X21336000Y-6224750D01*
X21286000Y-6274750D01*
X21336000Y-6324750D01*
X21590000Y-6070750D02*
X21640000Y-6020750D01*
X21590000Y-5970750D01*
X21540000Y-6020750D01*
X21590000Y-6070750D01*
X21590000Y-6324750D02*
X21640000Y-6274750D01*
X21590000Y-6224750D01*
X21540000Y-6274750D01*
X21590000Y-6324750D01*
X21844000Y-6070750D02*
X21894000Y-6020750D01*
X21844000Y-5970750D01*
X21794000Y-6020750D01*
X21844000Y-6070750D01*
X21844000Y-6324750D02*
X21894000Y-6274750D01*
X21844000Y-6224750D01*
X21794000Y-6274750D01*
X21844000Y-6324750D01*
X22098000Y-6070750D02*
X22148000Y-6020750D01*
X22098000Y-5970750D01*
X22048000Y-6020750D01*
X22098000Y-6070750D01*
X22098000Y-6324750D02*
X22148000Y-6274750D01*
X22098000Y-6224750D01*
X22048000Y-6274750D01*
X22098000Y-6324750D01*
X22987000Y-5893500D02*
X23037000Y-5843500D01*
X22987000Y-5793500D01*
X22937000Y-5843500D01*
X22987000Y-5893500D01*
X22987000Y-6147500D02*
X23037000Y-6097500D01*
X22987000Y-6047500D01*
X22937000Y-6097500D01*
X22987000Y-6147500D01*
X22987000Y-6401500D02*
X23037000Y-6351500D01*
X22987000Y-6301500D01*
X22937000Y-6351500D01*
X22987000Y-6401500D01*
X24945000Y-7371000D02*
X24995000Y-7321000D01*
X24945000Y-7271000D01*
X24895000Y-7321000D01*
X24945000Y-7371000D01*
X24945000Y-7625000D02*
X24995000Y-7575000D01*
X24945000Y-7525000D01*
X24895000Y-7575000D01*
X24945000Y-7625000D01*
D16*
X16476610Y-9345910D02*
X16621390Y-9490690D01*
X16621390Y-9345910D02*
X16476610Y-9490690D01*
X16621390Y-9418300D02*
G75*
G03*
X16621390Y-9418300I-72390J0D01*
G01*
X16476610Y-10361910D02*
X16621390Y-10506690D01*
X16621390Y-10361910D02*
X16476610Y-10506690D01*
X16621390Y-10434300D02*
G75*
G03*
X16621390Y-10434300I-72390J0D01*
G01*
X16476610Y-11123910D02*
X16621390Y-11268690D01*
X16621390Y-11123910D02*
X16476610Y-11268690D01*
X16621390Y-11196300D02*
G75*
G03*
X16621390Y-11196300I-72390J0D01*
G01*
X17467210Y-9345910D02*
X17611990Y-9490690D01*
X17611990Y-9345910D02*
X17467210Y-9490690D01*
X17611990Y-9418300D02*
G75*
G03*
X17611990Y-9418300I-72390J0D01*
G01*
X17467210Y-10361910D02*
X17611990Y-10506690D01*
X17611990Y-10361910D02*
X17467210Y-10506690D01*
X17611990Y-10434300D02*
G75*
G03*
X17611990Y-10434300I-72390J0D01*
G01*
X18248610Y-9345910D02*
X18393390Y-9490690D01*
X18393390Y-9345910D02*
X18248610Y-9490690D01*
X18393390Y-9418300D02*
G75*
G03*
X18393390Y-9418300I-72390J0D01*
G01*
X18248610Y-10361910D02*
X18393390Y-10506690D01*
X18393390Y-10361910D02*
X18248610Y-10506690D01*
X18393390Y-10434300D02*
G75*
G03*
X18393390Y-10434300I-72390J0D01*
G01*
X18248610Y-11123910D02*
X18393390Y-11268690D01*
X18393390Y-11123910D02*
X18248610Y-11268690D01*
X18393390Y-11196300D02*
G75*
G03*
X18393390Y-11196300I-72390J0D01*
G01*
X19239210Y-9345910D02*
X19383990Y-9490690D01*
X19383990Y-9345910D02*
X19239210Y-9490690D01*
X19383990Y-9418300D02*
G75*
G03*
X19383990Y-9418300I-72390J0D01*
G01*
X19239210Y-10361910D02*
X19383990Y-10506690D01*
X19383990Y-10361910D02*
X19239210Y-10506690D01*
X19383990Y-10434300D02*
G75*
G03*
X19383990Y-10434300I-72390J0D01*
G01*
D17*
X6160000Y-6277900D02*
X6310000Y-6427900D01*
X6310000Y-6277900D02*
X6160000Y-6427900D01*
X6235000Y-6277900D02*
X6235000Y-6427900D01*
X6160000Y-6352900D02*
X6310000Y-6352900D01*
X6410000Y-5287900D02*
X6560000Y-5437900D01*
X6560000Y-5287900D02*
X6410000Y-5437900D01*
X6485000Y-5287900D02*
X6485000Y-5437900D01*
X6410000Y-5362900D02*
X6560000Y-5362900D01*
X6410000Y-6527900D02*
X6560000Y-6677900D01*
X6560000Y-6527900D02*
X6410000Y-6677900D01*
X6485000Y-6527900D02*
X6485000Y-6677900D01*
X6410000Y-6602900D02*
X6560000Y-6602900D01*
X6910000Y-6277900D02*
X7060000Y-6427900D01*
X7060000Y-6277900D02*
X6910000Y-6427900D01*
X6985000Y-6277900D02*
X6985000Y-6427900D01*
X6910000Y-6352900D02*
X7060000Y-6352900D01*
X7410000Y-5287900D02*
X7560000Y-5437900D01*
X7560000Y-5287900D02*
X7410000Y-5437900D01*
X7485000Y-5287900D02*
X7485000Y-5437900D01*
X7410000Y-5362900D02*
X7560000Y-5362900D01*
X7410000Y-6527900D02*
X7560000Y-6677900D01*
X7560000Y-6527900D02*
X7410000Y-6677900D01*
X7485000Y-6527900D02*
X7485000Y-6677900D01*
X7410000Y-6602900D02*
X7560000Y-6602900D01*
X7660000Y-6277900D02*
X7810000Y-6427900D01*
X7810000Y-6277900D02*
X7660000Y-6427900D01*
X7735000Y-6277900D02*
X7735000Y-6427900D01*
X7660000Y-6352900D02*
X7810000Y-6352900D01*
X8700000Y-6277900D02*
X8850000Y-6427900D01*
X8850000Y-6277900D02*
X8700000Y-6427900D01*
X8775000Y-6277900D02*
X8775000Y-6427900D01*
X8700000Y-6352900D02*
X8850000Y-6352900D01*
X8950000Y-5287900D02*
X9100000Y-5437900D01*
X9100000Y-5287900D02*
X8950000Y-5437900D01*
X9025000Y-5287900D02*
X9025000Y-5437900D01*
X8950000Y-5362900D02*
X9100000Y-5362900D01*
X8950000Y-6527900D02*
X9100000Y-6677900D01*
X9100000Y-6527900D02*
X8950000Y-6677900D01*
X9025000Y-6527900D02*
X9025000Y-6677900D01*
X8950000Y-6602900D02*
X9100000Y-6602900D01*
X9450000Y-6277900D02*
X9600000Y-6427900D01*
X9600000Y-6277900D02*
X9450000Y-6427900D01*
X9525000Y-6277900D02*
X9525000Y-6427900D01*
X9450000Y-6352900D02*
X9600000Y-6352900D01*
X9950000Y-5287900D02*
X10100000Y-5437900D01*
X10100000Y-5287900D02*
X9950000Y-5437900D01*
X10025000Y-5287900D02*
X10025000Y-5437900D01*
X9950000Y-5362900D02*
X10100000Y-5362900D01*
X9950000Y-6527900D02*
X10100000Y-6677900D01*
X10100000Y-6527900D02*
X9950000Y-6677900D01*
X10025000Y-6527900D02*
X10025000Y-6677900D01*
X9950000Y-6602900D02*
X10100000Y-6602900D01*
X10200000Y-6277900D02*
X10350000Y-6427900D01*
X10350000Y-6277900D02*
X10200000Y-6427900D01*
X10275000Y-6277900D02*
X10275000Y-6427900D01*
X10200000Y-6352900D02*
X10350000Y-6352900D01*
X11240000Y-6277900D02*
X11390000Y-6427900D01*
X11390000Y-6277900D02*
X11240000Y-6427900D01*
X11315000Y-6277900D02*
X11315000Y-6427900D01*
X11240000Y-6352900D02*
X11390000Y-6352900D01*
X11490000Y-5287900D02*
X11640000Y-5437900D01*
X11640000Y-5287900D02*
X11490000Y-5437900D01*
X11565000Y-5287900D02*
X11565000Y-5437900D01*
X11490000Y-5362900D02*
X11640000Y-5362900D01*
X11490000Y-6527900D02*
X11640000Y-6677900D01*
X11640000Y-6527900D02*
X11490000Y-6677900D01*
X11565000Y-6527900D02*
X11565000Y-6677900D01*
X11490000Y-6602900D02*
X11640000Y-6602900D01*
X11990000Y-6277900D02*
X12140000Y-6427900D01*
X12140000Y-6277900D02*
X11990000Y-6427900D01*
X12065000Y-6277900D02*
X12065000Y-6427900D01*
X11990000Y-6352900D02*
X12140000Y-6352900D01*
X12490000Y-5287900D02*
X12640000Y-5437900D01*
X12640000Y-5287900D02*
X12490000Y-5437900D01*
X12565000Y-5287900D02*
X12565000Y-5437900D01*
X12490000Y-5362900D02*
X12640000Y-5362900D01*
X12490000Y-6527900D02*
X12640000Y-6677900D01*
X12640000Y-6527900D02*
X12490000Y-6677900D01*
X12565000Y-6527900D02*
X12565000Y-6677900D01*
X12490000Y-6602900D02*
X12640000Y-6602900D01*
X12740000Y-6277900D02*
X12890000Y-6427900D01*
X12890000Y-6277900D02*
X12740000Y-6427900D01*
X12815000Y-6277900D02*
X12815000Y-6427900D01*
X12740000Y-6352900D02*
X12890000Y-6352900D01*
D18*
X13545100Y-6002600D02*
X13775100Y-6232600D01*
X13775100Y-6002600D02*
X13545100Y-6232600D01*
X13741418Y-6198918D02*
X13741418Y-6036282D01*
X13578782Y-6036282D01*
X13578782Y-6198918D01*
X13741418Y-6198918D01*
X14749100Y-6002600D02*
X14979100Y-6232600D01*
X14979100Y-6002600D02*
X14749100Y-6232600D01*
X14945418Y-6198918D02*
X14945418Y-6036282D01*
X14782782Y-6036282D01*
X14782782Y-6198918D01*
X14945418Y-6198918D01*
D19*
X3799000Y-5685000D02*
X4329000Y-6215000D01*
X4329000Y-5685000D02*
X3799000Y-6215000D01*
X4064000Y-6215000D02*
X4329000Y-5950000D01*
X4064000Y-5685000D01*
X3799000Y-5950000D01*
X4064000Y-6215000D01*
X3799000Y-11057000D02*
X4329000Y-11587000D01*
X4329000Y-11057000D02*
X3799000Y-11587000D01*
X4064000Y-11587000D02*
X4329000Y-11322000D01*
X4064000Y-11057000D01*
X3799000Y-11322000D01*
X4064000Y-11587000D01*
X24119000Y-5685000D02*
X24649000Y-6215000D01*
X24649000Y-5685000D02*
X24119000Y-6215000D01*
X24384000Y-6215000D02*
X24649000Y-5950000D01*
X24384000Y-5685000D01*
X24119000Y-5950000D01*
X24384000Y-6215000D01*
X24119000Y-11057000D02*
X24649000Y-11587000D01*
X24649000Y-11057000D02*
X24119000Y-11587000D01*
X24384000Y-11587000D02*
X24649000Y-11322000D01*
X24384000Y-11057000D01*
X24119000Y-11322000D01*
X24384000Y-11587000D01*
D11*
X3427619Y-12526476D02*
X3427619Y-12326476D01*
X3475238Y-12326476D01*
X3503809Y-12336000D01*
X3522857Y-12355048D01*
X3532381Y-12374095D01*
X3541905Y-12412190D01*
X3541905Y-12440762D01*
X3532381Y-12478857D01*
X3522857Y-12497905D01*
X3503809Y-12516952D01*
X3475238Y-12526476D01*
X3427619Y-12526476D01*
X3627619Y-12526476D02*
X3627619Y-12393143D01*
X3627619Y-12431238D02*
X3637143Y-12412190D01*
X3646667Y-12402667D01*
X3665714Y-12393143D01*
X3684762Y-12393143D01*
X3751428Y-12526476D02*
X3751428Y-12393143D01*
X3751428Y-12326476D02*
X3741905Y-12336000D01*
X3751428Y-12345524D01*
X3760952Y-12336000D01*
X3751428Y-12326476D01*
X3751428Y-12345524D01*
X3875238Y-12526476D02*
X3856190Y-12516952D01*
X3846667Y-12497905D01*
X3846667Y-12326476D01*
X3980000Y-12526476D02*
X3960952Y-12516952D01*
X3951428Y-12497905D01*
X3951428Y-12326476D01*
X4208571Y-12526476D02*
X4208571Y-12326476D01*
X4275238Y-12469333D01*
X4341905Y-12326476D01*
X4341905Y-12526476D01*
X4522857Y-12526476D02*
X4522857Y-12421714D01*
X4513333Y-12402667D01*
X4494286Y-12393143D01*
X4456190Y-12393143D01*
X4437143Y-12402667D01*
X4522857Y-12516952D02*
X4503810Y-12526476D01*
X4456190Y-12526476D01*
X4437143Y-12516952D01*
X4427619Y-12497905D01*
X4427619Y-12478857D01*
X4437143Y-12459809D01*
X4456190Y-12450286D01*
X4503810Y-12450286D01*
X4522857Y-12440762D01*
X4618095Y-12393143D02*
X4618095Y-12593143D01*
X4618095Y-12402667D02*
X4637143Y-12393143D01*
X4675238Y-12393143D01*
X4694286Y-12402667D01*
X4703810Y-12412190D01*
X4713333Y-12431238D01*
X4713333Y-12488381D01*
X4703810Y-12507428D01*
X4694286Y-12516952D01*
X4675238Y-12526476D01*
X4637143Y-12526476D01*
X4618095Y-12516952D01*
X4799048Y-12507428D02*
X4808571Y-12516952D01*
X4799048Y-12526476D01*
X4789524Y-12516952D01*
X4799048Y-12507428D01*
X4799048Y-12526476D01*
X4799048Y-12402667D02*
X4808571Y-12412190D01*
X4799048Y-12421714D01*
X4789524Y-12412190D01*
X4799048Y-12402667D01*
X4799048Y-12421714D01*
D12*
X3130000Y-12836000D02*
X3170000Y-12876000D01*
X3170000Y-12836000D02*
X3130000Y-12876000D01*
D11*
X3465714Y-12746476D02*
X3484762Y-12746476D01*
X3503809Y-12756000D01*
X3513333Y-12765524D01*
X3522857Y-12784571D01*
X3532381Y-12822667D01*
X3532381Y-12870286D01*
X3522857Y-12908381D01*
X3513333Y-12927428D01*
X3503809Y-12936952D01*
X3484762Y-12946476D01*
X3465714Y-12946476D01*
X3446667Y-12936952D01*
X3437143Y-12927428D01*
X3427619Y-12908381D01*
X3418095Y-12870286D01*
X3418095Y-12822667D01*
X3427619Y-12784571D01*
X3437143Y-12765524D01*
X3446667Y-12756000D01*
X3465714Y-12746476D01*
X3618095Y-12927428D02*
X3627619Y-12936952D01*
X3618095Y-12946476D01*
X3608571Y-12936952D01*
X3618095Y-12927428D01*
X3618095Y-12946476D01*
X3799048Y-12813143D02*
X3799048Y-12946476D01*
X3751428Y-12736952D02*
X3703809Y-12879809D01*
X3827619Y-12879809D01*
X3941905Y-12746476D02*
X3960952Y-12746476D01*
X3980000Y-12756000D01*
X3989524Y-12765524D01*
X3999048Y-12784571D01*
X4008571Y-12822667D01*
X4008571Y-12870286D01*
X3999048Y-12908381D01*
X3989524Y-12927428D01*
X3980000Y-12936952D01*
X3960952Y-12946476D01*
X3941905Y-12946476D01*
X3922857Y-12936952D01*
X3913333Y-12927428D01*
X3903809Y-12908381D01*
X3894286Y-12870286D01*
X3894286Y-12822667D01*
X3903809Y-12784571D01*
X3913333Y-12765524D01*
X3922857Y-12756000D01*
X3941905Y-12746476D01*
X4132381Y-12746476D02*
X4151428Y-12746476D01*
X4170476Y-12756000D01*
X4180000Y-12765524D01*
X4189524Y-12784571D01*
X4199048Y-12822667D01*
X4199048Y-12870286D01*
X4189524Y-12908381D01*
X4180000Y-12927428D01*
X4170476Y-12936952D01*
X4151428Y-12946476D01*
X4132381Y-12946476D01*
X4113333Y-12936952D01*
X4103809Y-12927428D01*
X4094286Y-12908381D01*
X4084762Y-12870286D01*
X4084762Y-12822667D01*
X4094286Y-12784571D01*
X4103809Y-12765524D01*
X4113333Y-12756000D01*
X4132381Y-12746476D01*
X4284762Y-12946476D02*
X4284762Y-12813143D01*
X4284762Y-12832190D02*
X4294286Y-12822667D01*
X4313333Y-12813143D01*
X4341905Y-12813143D01*
X4360952Y-12822667D01*
X4370476Y-12841714D01*
X4370476Y-12946476D01*
X4370476Y-12841714D02*
X4380000Y-12822667D01*
X4399048Y-12813143D01*
X4427619Y-12813143D01*
X4446667Y-12822667D01*
X4456190Y-12841714D01*
X4456190Y-12946476D01*
X4551429Y-12946476D02*
X4551429Y-12813143D01*
X4551429Y-12832190D02*
X4560952Y-12822667D01*
X4580000Y-12813143D01*
X4608571Y-12813143D01*
X4627619Y-12822667D01*
X4637143Y-12841714D01*
X4637143Y-12946476D01*
X4637143Y-12841714D02*
X4646667Y-12822667D01*
X4665714Y-12813143D01*
X4694286Y-12813143D01*
X4713333Y-12822667D01*
X4722857Y-12841714D01*
X4722857Y-12946476D01*
X5113333Y-12736952D02*
X4941905Y-12994095D01*
X5370476Y-12746476D02*
X5389524Y-12746476D01*
X5408571Y-12756000D01*
X5418095Y-12765524D01*
X5427619Y-12784571D01*
X5437143Y-12822667D01*
X5437143Y-12870286D01*
X5427619Y-12908381D01*
X5418095Y-12927428D01*
X5408571Y-12936952D01*
X5389524Y-12946476D01*
X5370476Y-12946476D01*
X5351429Y-12936952D01*
X5341905Y-12927428D01*
X5332381Y-12908381D01*
X5322857Y-12870286D01*
X5322857Y-12822667D01*
X5332381Y-12784571D01*
X5341905Y-12765524D01*
X5351429Y-12756000D01*
X5370476Y-12746476D01*
X5522857Y-12927428D02*
X5532381Y-12936952D01*
X5522857Y-12946476D01*
X5513333Y-12936952D01*
X5522857Y-12927428D01*
X5522857Y-12946476D01*
X5656190Y-12746476D02*
X5675238Y-12746476D01*
X5694286Y-12756000D01*
X5703809Y-12765524D01*
X5713333Y-12784571D01*
X5722857Y-12822667D01*
X5722857Y-12870286D01*
X5713333Y-12908381D01*
X5703809Y-12927428D01*
X5694286Y-12936952D01*
X5675238Y-12946476D01*
X5656190Y-12946476D01*
X5637143Y-12936952D01*
X5627619Y-12927428D01*
X5618095Y-12908381D01*
X5608571Y-12870286D01*
X5608571Y-12822667D01*
X5618095Y-12784571D01*
X5627619Y-12765524D01*
X5637143Y-12756000D01*
X5656190Y-12746476D01*
X5913333Y-12946476D02*
X5799048Y-12946476D01*
X5856190Y-12946476D02*
X5856190Y-12746476D01*
X5837143Y-12775048D01*
X5818095Y-12794095D01*
X5799048Y-12803619D01*
X6094286Y-12746476D02*
X5999048Y-12746476D01*
X5989524Y-12841714D01*
X5999048Y-12832190D01*
X6018095Y-12822667D01*
X6065714Y-12822667D01*
X6084762Y-12832190D01*
X6094286Y-12841714D01*
X6103809Y-12860762D01*
X6103809Y-12908381D01*
X6094286Y-12927428D01*
X6084762Y-12936952D01*
X6065714Y-12946476D01*
X6018095Y-12946476D01*
X5999048Y-12936952D01*
X5989524Y-12927428D01*
X6170476Y-12746476D02*
X6303809Y-12746476D01*
X6218095Y-12946476D01*
X6370476Y-12746476D02*
X6370476Y-12784571D01*
X6446667Y-12746476D02*
X6446667Y-12784571D01*
X6741905Y-13022667D02*
X6732381Y-13013143D01*
X6713333Y-12984571D01*
X6703809Y-12965524D01*
X6694286Y-12936952D01*
X6684762Y-12889333D01*
X6684762Y-12851238D01*
X6694286Y-12803619D01*
X6703809Y-12775048D01*
X6713333Y-12756000D01*
X6732381Y-12727428D01*
X6741905Y-12717905D01*
X6903809Y-12813143D02*
X6903809Y-12946476D01*
X6856190Y-12736952D02*
X6808571Y-12879809D01*
X6932381Y-12879809D01*
X6989524Y-12746476D02*
X7122857Y-12746476D01*
X7037143Y-12946476D01*
X7351428Y-12946476D02*
X7351428Y-12746476D01*
X7437143Y-12946476D02*
X7437143Y-12841714D01*
X7427619Y-12822667D01*
X7408571Y-12813143D01*
X7380000Y-12813143D01*
X7360952Y-12822667D01*
X7351428Y-12832190D01*
X7560952Y-12946476D02*
X7541905Y-12936952D01*
X7532381Y-12927428D01*
X7522857Y-12908381D01*
X7522857Y-12851238D01*
X7532381Y-12832190D01*
X7541905Y-12822667D01*
X7560952Y-12813143D01*
X7589524Y-12813143D01*
X7608571Y-12822667D01*
X7618095Y-12832190D01*
X7627619Y-12851238D01*
X7627619Y-12908381D01*
X7618095Y-12927428D01*
X7608571Y-12936952D01*
X7589524Y-12946476D01*
X7560952Y-12946476D01*
X7741905Y-12946476D02*
X7722857Y-12936952D01*
X7713333Y-12917905D01*
X7713333Y-12746476D01*
X7894286Y-12936952D02*
X7875238Y-12946476D01*
X7837143Y-12946476D01*
X7818095Y-12936952D01*
X7808571Y-12917905D01*
X7808571Y-12841714D01*
X7818095Y-12822667D01*
X7837143Y-12813143D01*
X7875238Y-12813143D01*
X7894286Y-12822667D01*
X7903809Y-12841714D01*
X7903809Y-12860762D01*
X7808571Y-12879809D01*
X7980000Y-12936952D02*
X7999048Y-12946476D01*
X8037143Y-12946476D01*
X8056190Y-12936952D01*
X8065714Y-12917905D01*
X8065714Y-12908381D01*
X8056190Y-12889333D01*
X8037143Y-12879809D01*
X8008571Y-12879809D01*
X7989524Y-12870286D01*
X7980000Y-12851238D01*
X7980000Y-12841714D01*
X7989524Y-12822667D01*
X8008571Y-12813143D01*
X8037143Y-12813143D01*
X8056190Y-12822667D01*
X8132381Y-13022667D02*
X8141905Y-13013143D01*
X8160952Y-12984571D01*
X8170476Y-12965524D01*
X8180000Y-12936952D01*
X8189524Y-12889333D01*
X8189524Y-12851238D01*
X8180000Y-12803619D01*
X8170476Y-12775048D01*
X8160952Y-12756000D01*
X8141905Y-12727428D01*
X8132381Y-12717905D01*
D13*
X3170000Y-13120000D02*
G75*
G03*
X3170000Y-13120000I-40000J0D01*
G01*
D11*
X3465714Y-13010476D02*
X3484762Y-13010476D01*
X3503809Y-13020000D01*
X3513333Y-13029524D01*
X3522857Y-13048571D01*
X3532381Y-13086667D01*
X3532381Y-13134286D01*
X3522857Y-13172381D01*
X3513333Y-13191428D01*
X3503809Y-13200952D01*
X3484762Y-13210476D01*
X3465714Y-13210476D01*
X3446667Y-13200952D01*
X3437143Y-13191428D01*
X3427619Y-13172381D01*
X3418095Y-13134286D01*
X3418095Y-13086667D01*
X3427619Y-13048571D01*
X3437143Y-13029524D01*
X3446667Y-13020000D01*
X3465714Y-13010476D01*
X3618095Y-13191428D02*
X3627619Y-13200952D01*
X3618095Y-13210476D01*
X3608571Y-13200952D01*
X3618095Y-13191428D01*
X3618095Y-13210476D01*
X3741905Y-13096190D02*
X3722857Y-13086667D01*
X3713333Y-13077143D01*
X3703809Y-13058095D01*
X3703809Y-13048571D01*
X3713333Y-13029524D01*
X3722857Y-13020000D01*
X3741905Y-13010476D01*
X3780000Y-13010476D01*
X3799048Y-13020000D01*
X3808571Y-13029524D01*
X3818095Y-13048571D01*
X3818095Y-13058095D01*
X3808571Y-13077143D01*
X3799048Y-13086667D01*
X3780000Y-13096190D01*
X3741905Y-13096190D01*
X3722857Y-13105714D01*
X3713333Y-13115238D01*
X3703809Y-13134286D01*
X3703809Y-13172381D01*
X3713333Y-13191428D01*
X3722857Y-13200952D01*
X3741905Y-13210476D01*
X3780000Y-13210476D01*
X3799048Y-13200952D01*
X3808571Y-13191428D01*
X3818095Y-13172381D01*
X3818095Y-13134286D01*
X3808571Y-13115238D01*
X3799048Y-13105714D01*
X3780000Y-13096190D01*
X3941905Y-13010476D02*
X3960952Y-13010476D01*
X3980000Y-13020000D01*
X3989524Y-13029524D01*
X3999048Y-13048571D01*
X4008571Y-13086667D01*
X4008571Y-13134286D01*
X3999048Y-13172381D01*
X3989524Y-13191428D01*
X3980000Y-13200952D01*
X3960952Y-13210476D01*
X3941905Y-13210476D01*
X3922857Y-13200952D01*
X3913333Y-13191428D01*
X3903809Y-13172381D01*
X3894286Y-13134286D01*
X3894286Y-13086667D01*
X3903809Y-13048571D01*
X3913333Y-13029524D01*
X3922857Y-13020000D01*
X3941905Y-13010476D01*
X4132381Y-13010476D02*
X4151428Y-13010476D01*
X4170476Y-13020000D01*
X4180000Y-13029524D01*
X4189524Y-13048571D01*
X4199048Y-13086667D01*
X4199048Y-13134286D01*
X4189524Y-13172381D01*
X4180000Y-13191428D01*
X4170476Y-13200952D01*
X4151428Y-13210476D01*
X4132381Y-13210476D01*
X4113333Y-13200952D01*
X4103809Y-13191428D01*
X4094286Y-13172381D01*
X4084762Y-13134286D01*
X4084762Y-13086667D01*
X4094286Y-13048571D01*
X4103809Y-13029524D01*
X4113333Y-13020000D01*
X4132381Y-13010476D01*
X4284762Y-13210476D02*
X4284762Y-13077143D01*
X4284762Y-13096190D02*
X4294286Y-13086667D01*
X4313333Y-13077143D01*
X4341905Y-13077143D01*
X4360952Y-13086667D01*
X4370476Y-13105714D01*
X4370476Y-13210476D01*
X4370476Y-13105714D02*
X4380000Y-13086667D01*
X4399048Y-13077143D01*
X4427619Y-13077143D01*
X4446667Y-13086667D01*
X4456190Y-13105714D01*
X4456190Y-13210476D01*
X4551429Y-13210476D02*
X4551429Y-13077143D01*
X4551429Y-13096190D02*
X4560952Y-13086667D01*
X4580000Y-13077143D01*
X4608571Y-13077143D01*
X4627619Y-13086667D01*
X4637143Y-13105714D01*
X4637143Y-13210476D01*
X4637143Y-13105714D02*
X4646667Y-13086667D01*
X4665714Y-13077143D01*
X4694286Y-13077143D01*
X4713333Y-13086667D01*
X4722857Y-13105714D01*
X4722857Y-13210476D01*
X5113333Y-13000952D02*
X4941905Y-13258095D01*
X5370476Y-13010476D02*
X5389524Y-13010476D01*
X5408571Y-13020000D01*
X5418095Y-13029524D01*
X5427619Y-13048571D01*
X5437143Y-13086667D01*
X5437143Y-13134286D01*
X5427619Y-13172381D01*
X5418095Y-13191428D01*
X5408571Y-13200952D01*
X5389524Y-13210476D01*
X5370476Y-13210476D01*
X5351429Y-13200952D01*
X5341905Y-13191428D01*
X5332381Y-13172381D01*
X5322857Y-13134286D01*
X5322857Y-13086667D01*
X5332381Y-13048571D01*
X5341905Y-13029524D01*
X5351429Y-13020000D01*
X5370476Y-13010476D01*
X5522857Y-13191428D02*
X5532381Y-13200952D01*
X5522857Y-13210476D01*
X5513333Y-13200952D01*
X5522857Y-13191428D01*
X5522857Y-13210476D01*
X5656190Y-13010476D02*
X5675238Y-13010476D01*
X5694286Y-13020000D01*
X5703809Y-13029524D01*
X5713333Y-13048571D01*
X5722857Y-13086667D01*
X5722857Y-13134286D01*
X5713333Y-13172381D01*
X5703809Y-13191428D01*
X5694286Y-13200952D01*
X5675238Y-13210476D01*
X5656190Y-13210476D01*
X5637143Y-13200952D01*
X5627619Y-13191428D01*
X5618095Y-13172381D01*
X5608571Y-13134286D01*
X5608571Y-13086667D01*
X5618095Y-13048571D01*
X5627619Y-13029524D01*
X5637143Y-13020000D01*
X5656190Y-13010476D01*
X5789524Y-13010476D02*
X5913333Y-13010476D01*
X5846667Y-13086667D01*
X5875238Y-13086667D01*
X5894286Y-13096190D01*
X5903809Y-13105714D01*
X5913333Y-13124762D01*
X5913333Y-13172381D01*
X5903809Y-13191428D01*
X5894286Y-13200952D01*
X5875238Y-13210476D01*
X5818095Y-13210476D01*
X5799048Y-13200952D01*
X5789524Y-13191428D01*
X6103809Y-13210476D02*
X5989524Y-13210476D01*
X6046667Y-13210476D02*
X6046667Y-13010476D01*
X6027619Y-13039048D01*
X6008571Y-13058095D01*
X5989524Y-13067619D01*
X6284762Y-13010476D02*
X6189524Y-13010476D01*
X6180000Y-13105714D01*
X6189524Y-13096190D01*
X6208571Y-13086667D01*
X6256190Y-13086667D01*
X6275238Y-13096190D01*
X6284762Y-13105714D01*
X6294286Y-13124762D01*
X6294286Y-13172381D01*
X6284762Y-13191428D01*
X6275238Y-13200952D01*
X6256190Y-13210476D01*
X6208571Y-13210476D01*
X6189524Y-13200952D01*
X6180000Y-13191428D01*
X6370476Y-13010476D02*
X6370476Y-13048571D01*
X6446667Y-13010476D02*
X6446667Y-13048571D01*
X6741905Y-13286667D02*
X6732381Y-13277143D01*
X6713333Y-13248571D01*
X6703809Y-13229524D01*
X6694286Y-13200952D01*
X6684762Y-13153333D01*
X6684762Y-13115238D01*
X6694286Y-13067619D01*
X6703809Y-13039048D01*
X6713333Y-13020000D01*
X6732381Y-12991428D01*
X6741905Y-12981905D01*
X6808571Y-13029524D02*
X6818095Y-13020000D01*
X6837143Y-13010476D01*
X6884762Y-13010476D01*
X6903809Y-13020000D01*
X6913333Y-13029524D01*
X6922857Y-13048571D01*
X6922857Y-13067619D01*
X6913333Y-13096190D01*
X6799048Y-13210476D01*
X6922857Y-13210476D01*
X7160952Y-13210476D02*
X7160952Y-13010476D01*
X7246667Y-13210476D02*
X7246667Y-13105714D01*
X7237143Y-13086667D01*
X7218095Y-13077143D01*
X7189524Y-13077143D01*
X7170476Y-13086667D01*
X7160952Y-13096190D01*
X7370476Y-13210476D02*
X7351428Y-13200952D01*
X7341905Y-13191428D01*
X7332381Y-13172381D01*
X7332381Y-13115238D01*
X7341905Y-13096190D01*
X7351428Y-13086667D01*
X7370476Y-13077143D01*
X7399048Y-13077143D01*
X7418095Y-13086667D01*
X7427619Y-13096190D01*
X7437143Y-13115238D01*
X7437143Y-13172381D01*
X7427619Y-13191428D01*
X7418095Y-13200952D01*
X7399048Y-13210476D01*
X7370476Y-13210476D01*
X7551428Y-13210476D02*
X7532381Y-13200952D01*
X7522857Y-13181905D01*
X7522857Y-13010476D01*
X7703809Y-13200952D02*
X7684762Y-13210476D01*
X7646667Y-13210476D01*
X7627619Y-13200952D01*
X7618095Y-13181905D01*
X7618095Y-13105714D01*
X7627619Y-13086667D01*
X7646667Y-13077143D01*
X7684762Y-13077143D01*
X7703809Y-13086667D01*
X7713333Y-13105714D01*
X7713333Y-13124762D01*
X7618095Y-13143809D01*
X7789524Y-13200952D02*
X7808571Y-13210476D01*
X7846667Y-13210476D01*
X7865714Y-13200952D01*
X7875238Y-13181905D01*
X7875238Y-13172381D01*
X7865714Y-13153333D01*
X7846667Y-13143809D01*
X7818095Y-13143809D01*
X7799048Y-13134286D01*
X7789524Y-13115238D01*
X7789524Y-13105714D01*
X7799048Y-13086667D01*
X7818095Y-13077143D01*
X7846667Y-13077143D01*
X7865714Y-13086667D01*
X7941905Y-13286667D02*
X7951428Y-13277143D01*
X7970476Y-13248571D01*
X7980000Y-13229524D01*
X7989524Y-13200952D01*
X7999048Y-13153333D01*
X7999048Y-13115238D01*
X7989524Y-13067619D01*
X7980000Y-13039048D01*
X7970476Y-13020000D01*
X7951428Y-12991428D01*
X7941905Y-12981905D01*
D14*
X3129360Y-13343360D02*
X3129360Y-13424640D01*
X3088720Y-13384000D02*
X3170000Y-13384000D01*
D11*
X3465714Y-13274476D02*
X3484762Y-13274476D01*
X3503809Y-13284000D01*
X3513333Y-13293524D01*
X3522857Y-13312571D01*
X3532381Y-13350667D01*
X3532381Y-13398286D01*
X3522857Y-13436381D01*
X3513333Y-13455428D01*
X3503809Y-13464952D01*
X3484762Y-13474476D01*
X3465714Y-13474476D01*
X3446667Y-13464952D01*
X3437143Y-13455428D01*
X3427619Y-13436381D01*
X3418095Y-13398286D01*
X3418095Y-13350667D01*
X3427619Y-13312571D01*
X3437143Y-13293524D01*
X3446667Y-13284000D01*
X3465714Y-13274476D01*
X3618095Y-13455428D02*
X3627619Y-13464952D01*
X3618095Y-13474476D01*
X3608571Y-13464952D01*
X3618095Y-13455428D01*
X3618095Y-13474476D01*
X3741905Y-13360190D02*
X3722857Y-13350667D01*
X3713333Y-13341143D01*
X3703809Y-13322095D01*
X3703809Y-13312571D01*
X3713333Y-13293524D01*
X3722857Y-13284000D01*
X3741905Y-13274476D01*
X3780000Y-13274476D01*
X3799048Y-13284000D01*
X3808571Y-13293524D01*
X3818095Y-13312571D01*
X3818095Y-13322095D01*
X3808571Y-13341143D01*
X3799048Y-13350667D01*
X3780000Y-13360190D01*
X3741905Y-13360190D01*
X3722857Y-13369714D01*
X3713333Y-13379238D01*
X3703809Y-13398286D01*
X3703809Y-13436381D01*
X3713333Y-13455428D01*
X3722857Y-13464952D01*
X3741905Y-13474476D01*
X3780000Y-13474476D01*
X3799048Y-13464952D01*
X3808571Y-13455428D01*
X3818095Y-13436381D01*
X3818095Y-13398286D01*
X3808571Y-13379238D01*
X3799048Y-13369714D01*
X3780000Y-13360190D01*
X4008571Y-13474476D02*
X3894286Y-13474476D01*
X3951428Y-13474476D02*
X3951428Y-13274476D01*
X3932381Y-13303048D01*
X3913333Y-13322095D01*
X3894286Y-13331619D01*
X4075238Y-13274476D02*
X4199048Y-13274476D01*
X4132381Y-13350667D01*
X4160952Y-13350667D01*
X4180000Y-13360190D01*
X4189524Y-13369714D01*
X4199048Y-13388762D01*
X4199048Y-13436381D01*
X4189524Y-13455428D01*
X4180000Y-13464952D01*
X4160952Y-13474476D01*
X4103809Y-13474476D01*
X4084762Y-13464952D01*
X4075238Y-13455428D01*
X4284762Y-13474476D02*
X4284762Y-13341143D01*
X4284762Y-13360190D02*
X4294286Y-13350667D01*
X4313333Y-13341143D01*
X4341905Y-13341143D01*
X4360952Y-13350667D01*
X4370476Y-13369714D01*
X4370476Y-13474476D01*
X4370476Y-13369714D02*
X4380000Y-13350667D01*
X4399048Y-13341143D01*
X4427619Y-13341143D01*
X4446667Y-13350667D01*
X4456190Y-13369714D01*
X4456190Y-13474476D01*
X4551429Y-13474476D02*
X4551429Y-13341143D01*
X4551429Y-13360190D02*
X4560952Y-13350667D01*
X4580000Y-13341143D01*
X4608571Y-13341143D01*
X4627619Y-13350667D01*
X4637143Y-13369714D01*
X4637143Y-13474476D01*
X4637143Y-13369714D02*
X4646667Y-13350667D01*
X4665714Y-13341143D01*
X4694286Y-13341143D01*
X4713333Y-13350667D01*
X4722857Y-13369714D01*
X4722857Y-13474476D01*
X5113333Y-13264952D02*
X4941905Y-13522095D01*
X5370476Y-13274476D02*
X5389524Y-13274476D01*
X5408571Y-13284000D01*
X5418095Y-13293524D01*
X5427619Y-13312571D01*
X5437143Y-13350667D01*
X5437143Y-13398286D01*
X5427619Y-13436381D01*
X5418095Y-13455428D01*
X5408571Y-13464952D01*
X5389524Y-13474476D01*
X5370476Y-13474476D01*
X5351429Y-13464952D01*
X5341905Y-13455428D01*
X5332381Y-13436381D01*
X5322857Y-13398286D01*
X5322857Y-13350667D01*
X5332381Y-13312571D01*
X5341905Y-13293524D01*
X5351429Y-13284000D01*
X5370476Y-13274476D01*
X5522857Y-13455428D02*
X5532381Y-13464952D01*
X5522857Y-13474476D01*
X5513333Y-13464952D01*
X5522857Y-13455428D01*
X5522857Y-13474476D01*
X5656190Y-13274476D02*
X5675238Y-13274476D01*
X5694286Y-13284000D01*
X5703809Y-13293524D01*
X5713333Y-13312571D01*
X5722857Y-13350667D01*
X5722857Y-13398286D01*
X5713333Y-13436381D01*
X5703809Y-13455428D01*
X5694286Y-13464952D01*
X5675238Y-13474476D01*
X5656190Y-13474476D01*
X5637143Y-13464952D01*
X5627619Y-13455428D01*
X5618095Y-13436381D01*
X5608571Y-13398286D01*
X5608571Y-13350667D01*
X5618095Y-13312571D01*
X5627619Y-13293524D01*
X5637143Y-13284000D01*
X5656190Y-13274476D01*
X5789524Y-13274476D02*
X5913333Y-13274476D01*
X5846667Y-13350667D01*
X5875238Y-13350667D01*
X5894286Y-13360190D01*
X5903809Y-13369714D01*
X5913333Y-13388762D01*
X5913333Y-13436381D01*
X5903809Y-13455428D01*
X5894286Y-13464952D01*
X5875238Y-13474476D01*
X5818095Y-13474476D01*
X5799048Y-13464952D01*
X5789524Y-13455428D01*
X5989524Y-13293524D02*
X5999048Y-13284000D01*
X6018095Y-13274476D01*
X6065714Y-13274476D01*
X6084762Y-13284000D01*
X6094286Y-13293524D01*
X6103809Y-13312571D01*
X6103809Y-13331619D01*
X6094286Y-13360190D01*
X5980000Y-13474476D01*
X6103809Y-13474476D01*
X6227619Y-13274476D02*
X6246667Y-13274476D01*
X6265714Y-13284000D01*
X6275238Y-13293524D01*
X6284762Y-13312571D01*
X6294286Y-13350667D01*
X6294286Y-13398286D01*
X6284762Y-13436381D01*
X6275238Y-13455428D01*
X6265714Y-13464952D01*
X6246667Y-13474476D01*
X6227619Y-13474476D01*
X6208571Y-13464952D01*
X6199048Y-13455428D01*
X6189524Y-13436381D01*
X6180000Y-13398286D01*
X6180000Y-13350667D01*
X6189524Y-13312571D01*
X6199048Y-13293524D01*
X6208571Y-13284000D01*
X6227619Y-13274476D01*
X6370476Y-13274476D02*
X6370476Y-13312571D01*
X6446667Y-13274476D02*
X6446667Y-13312571D01*
X6741905Y-13550667D02*
X6732381Y-13541143D01*
X6713333Y-13512571D01*
X6703809Y-13493524D01*
X6694286Y-13464952D01*
X6684762Y-13417333D01*
X6684762Y-13379238D01*
X6694286Y-13331619D01*
X6703809Y-13303048D01*
X6713333Y-13284000D01*
X6732381Y-13255428D01*
X6741905Y-13245905D01*
X6903809Y-13341143D02*
X6903809Y-13474476D01*
X6856190Y-13264952D02*
X6808571Y-13407809D01*
X6932381Y-13407809D01*
X7046667Y-13274476D02*
X7065714Y-13274476D01*
X7084762Y-13284000D01*
X7094286Y-13293524D01*
X7103809Y-13312571D01*
X7113333Y-13350667D01*
X7113333Y-13398286D01*
X7103809Y-13436381D01*
X7094286Y-13455428D01*
X7084762Y-13464952D01*
X7065714Y-13474476D01*
X7046667Y-13474476D01*
X7027619Y-13464952D01*
X7018095Y-13455428D01*
X7008571Y-13436381D01*
X6999048Y-13398286D01*
X6999048Y-13350667D01*
X7008571Y-13312571D01*
X7018095Y-13293524D01*
X7027619Y-13284000D01*
X7046667Y-13274476D01*
X7351428Y-13474476D02*
X7351428Y-13274476D01*
X7437143Y-13474476D02*
X7437143Y-13369714D01*
X7427619Y-13350667D01*
X7408571Y-13341143D01*
X7380000Y-13341143D01*
X7360952Y-13350667D01*
X7351428Y-13360190D01*
X7560952Y-13474476D02*
X7541905Y-13464952D01*
X7532381Y-13455428D01*
X7522857Y-13436381D01*
X7522857Y-13379238D01*
X7532381Y-13360190D01*
X7541905Y-13350667D01*
X7560952Y-13341143D01*
X7589524Y-13341143D01*
X7608571Y-13350667D01*
X7618095Y-13360190D01*
X7627619Y-13379238D01*
X7627619Y-13436381D01*
X7618095Y-13455428D01*
X7608571Y-13464952D01*
X7589524Y-13474476D01*
X7560952Y-13474476D01*
X7741905Y-13474476D02*
X7722857Y-13464952D01*
X7713333Y-13445905D01*
X7713333Y-13274476D01*
X7894286Y-13464952D02*
X7875238Y-13474476D01*
X7837143Y-13474476D01*
X7818095Y-13464952D01*
X7808571Y-13445905D01*
X7808571Y-13369714D01*
X7818095Y-13350667D01*
X7837143Y-13341143D01*
X7875238Y-13341143D01*
X7894286Y-13350667D01*
X7903809Y-13369714D01*
X7903809Y-13388762D01*
X7808571Y-13407809D01*
X7980000Y-13464952D02*
X7999048Y-13474476D01*
X8037143Y-13474476D01*
X8056190Y-13464952D01*
X8065714Y-13445905D01*
X8065714Y-13436381D01*
X8056190Y-13417333D01*
X8037143Y-13407809D01*
X8008571Y-13407809D01*
X7989524Y-13398286D01*
X7980000Y-13379238D01*
X7980000Y-13369714D01*
X7989524Y-13350667D01*
X8008571Y-13341143D01*
X8037143Y-13341143D01*
X8056190Y-13350667D01*
X8132381Y-13550667D02*
X8141905Y-13541143D01*
X8160952Y-13512571D01*
X8170476Y-13493524D01*
X8180000Y-13464952D01*
X8189524Y-13417333D01*
X8189524Y-13379238D01*
X8180000Y-13331619D01*
X8170476Y-13303048D01*
X8160952Y-13284000D01*
X8141905Y-13255428D01*
X8132381Y-13245905D01*
D15*
X3156527Y-13680527D02*
X3156527Y-13615473D01*
X3091473Y-13615473D01*
X3091473Y-13680527D01*
X3156527Y-13680527D01*
D11*
X3465714Y-13538476D02*
X3484762Y-13538476D01*
X3503809Y-13548000D01*
X3513333Y-13557524D01*
X3522857Y-13576571D01*
X3532381Y-13614667D01*
X3532381Y-13662286D01*
X3522857Y-13700381D01*
X3513333Y-13719428D01*
X3503809Y-13728952D01*
X3484762Y-13738476D01*
X3465714Y-13738476D01*
X3446667Y-13728952D01*
X3437143Y-13719428D01*
X3427619Y-13700381D01*
X3418095Y-13662286D01*
X3418095Y-13614667D01*
X3427619Y-13576571D01*
X3437143Y-13557524D01*
X3446667Y-13548000D01*
X3465714Y-13538476D01*
X3618095Y-13719428D02*
X3627619Y-13728952D01*
X3618095Y-13738476D01*
X3608571Y-13728952D01*
X3618095Y-13719428D01*
X3618095Y-13738476D01*
X3722857Y-13738476D02*
X3760952Y-13738476D01*
X3780000Y-13728952D01*
X3789524Y-13719428D01*
X3808571Y-13690857D01*
X3818095Y-13652762D01*
X3818095Y-13576571D01*
X3808571Y-13557524D01*
X3799048Y-13548000D01*
X3780000Y-13538476D01*
X3741905Y-13538476D01*
X3722857Y-13548000D01*
X3713333Y-13557524D01*
X3703809Y-13576571D01*
X3703809Y-13624190D01*
X3713333Y-13643238D01*
X3722857Y-13652762D01*
X3741905Y-13662286D01*
X3780000Y-13662286D01*
X3799048Y-13652762D01*
X3808571Y-13643238D01*
X3818095Y-13624190D01*
X3894286Y-13557524D02*
X3903809Y-13548000D01*
X3922857Y-13538476D01*
X3970476Y-13538476D01*
X3989524Y-13548000D01*
X3999048Y-13557524D01*
X4008571Y-13576571D01*
X4008571Y-13595619D01*
X3999048Y-13624190D01*
X3884762Y-13738476D01*
X4008571Y-13738476D01*
X4132381Y-13538476D02*
X4151428Y-13538476D01*
X4170476Y-13548000D01*
X4180000Y-13557524D01*
X4189524Y-13576571D01*
X4199048Y-13614667D01*
X4199048Y-13662286D01*
X4189524Y-13700381D01*
X4180000Y-13719428D01*
X4170476Y-13728952D01*
X4151428Y-13738476D01*
X4132381Y-13738476D01*
X4113333Y-13728952D01*
X4103809Y-13719428D01*
X4094286Y-13700381D01*
X4084762Y-13662286D01*
X4084762Y-13614667D01*
X4094286Y-13576571D01*
X4103809Y-13557524D01*
X4113333Y-13548000D01*
X4132381Y-13538476D01*
X4284762Y-13738476D02*
X4284762Y-13605143D01*
X4284762Y-13624190D02*
X4294286Y-13614667D01*
X4313333Y-13605143D01*
X4341905Y-13605143D01*
X4360952Y-13614667D01*
X4370476Y-13633714D01*
X4370476Y-13738476D01*
X4370476Y-13633714D02*
X4380000Y-13614667D01*
X4399048Y-13605143D01*
X4427619Y-13605143D01*
X4446667Y-13614667D01*
X4456190Y-13633714D01*
X4456190Y-13738476D01*
X4551429Y-13738476D02*
X4551429Y-13605143D01*
X4551429Y-13624190D02*
X4560952Y-13614667D01*
X4580000Y-13605143D01*
X4608571Y-13605143D01*
X4627619Y-13614667D01*
X4637143Y-13633714D01*
X4637143Y-13738476D01*
X4637143Y-13633714D02*
X4646667Y-13614667D01*
X4665714Y-13605143D01*
X4694286Y-13605143D01*
X4713333Y-13614667D01*
X4722857Y-13633714D01*
X4722857Y-13738476D01*
X5113333Y-13528952D02*
X4941905Y-13786095D01*
X5370476Y-13538476D02*
X5389524Y-13538476D01*
X5408571Y-13548000D01*
X5418095Y-13557524D01*
X5427619Y-13576571D01*
X5437143Y-13614667D01*
X5437143Y-13662286D01*
X5427619Y-13700381D01*
X5418095Y-13719428D01*
X5408571Y-13728952D01*
X5389524Y-13738476D01*
X5370476Y-13738476D01*
X5351429Y-13728952D01*
X5341905Y-13719428D01*
X5332381Y-13700381D01*
X5322857Y-13662286D01*
X5322857Y-13614667D01*
X5332381Y-13576571D01*
X5341905Y-13557524D01*
X5351429Y-13548000D01*
X5370476Y-13538476D01*
X5522857Y-13719428D02*
X5532381Y-13728952D01*
X5522857Y-13738476D01*
X5513333Y-13728952D01*
X5522857Y-13719428D01*
X5522857Y-13738476D01*
X5656190Y-13538476D02*
X5675238Y-13538476D01*
X5694286Y-13548000D01*
X5703809Y-13557524D01*
X5713333Y-13576571D01*
X5722857Y-13614667D01*
X5722857Y-13662286D01*
X5713333Y-13700381D01*
X5703809Y-13719428D01*
X5694286Y-13728952D01*
X5675238Y-13738476D01*
X5656190Y-13738476D01*
X5637143Y-13728952D01*
X5627619Y-13719428D01*
X5618095Y-13700381D01*
X5608571Y-13662286D01*
X5608571Y-13614667D01*
X5618095Y-13576571D01*
X5627619Y-13557524D01*
X5637143Y-13548000D01*
X5656190Y-13538476D01*
X5789524Y-13538476D02*
X5913333Y-13538476D01*
X5846667Y-13614667D01*
X5875238Y-13614667D01*
X5894286Y-13624190D01*
X5903809Y-13633714D01*
X5913333Y-13652762D01*
X5913333Y-13700381D01*
X5903809Y-13719428D01*
X5894286Y-13728952D01*
X5875238Y-13738476D01*
X5818095Y-13738476D01*
X5799048Y-13728952D01*
X5789524Y-13719428D01*
X6084762Y-13538476D02*
X6046667Y-13538476D01*
X6027619Y-13548000D01*
X6018095Y-13557524D01*
X5999048Y-13586095D01*
X5989524Y-13624190D01*
X5989524Y-13700381D01*
X5999048Y-13719428D01*
X6008571Y-13728952D01*
X6027619Y-13738476D01*
X6065714Y-13738476D01*
X6084762Y-13728952D01*
X6094286Y-13719428D01*
X6103809Y-13700381D01*
X6103809Y-13652762D01*
X6094286Y-13633714D01*
X6084762Y-13624190D01*
X6065714Y-13614667D01*
X6027619Y-13614667D01*
X6008571Y-13624190D01*
X5999048Y-13633714D01*
X5989524Y-13652762D01*
X6180000Y-13557524D02*
X6189524Y-13548000D01*
X6208571Y-13538476D01*
X6256190Y-13538476D01*
X6275238Y-13548000D01*
X6284762Y-13557524D01*
X6294286Y-13576571D01*
X6294286Y-13595619D01*
X6284762Y-13624190D01*
X6170476Y-13738476D01*
X6294286Y-13738476D01*
X6370476Y-13538476D02*
X6370476Y-13576571D01*
X6446667Y-13538476D02*
X6446667Y-13576571D01*
X6741905Y-13814667D02*
X6732381Y-13805143D01*
X6713333Y-13776571D01*
X6703809Y-13757524D01*
X6694286Y-13728952D01*
X6684762Y-13681333D01*
X6684762Y-13643238D01*
X6694286Y-13595619D01*
X6703809Y-13567048D01*
X6713333Y-13548000D01*
X6732381Y-13519428D01*
X6741905Y-13509905D01*
X6903809Y-13605143D02*
X6903809Y-13738476D01*
X6856190Y-13528952D02*
X6808571Y-13671809D01*
X6932381Y-13671809D01*
X7160952Y-13738476D02*
X7160952Y-13538476D01*
X7246667Y-13738476D02*
X7246667Y-13633714D01*
X7237143Y-13614667D01*
X7218095Y-13605143D01*
X7189524Y-13605143D01*
X7170476Y-13614667D01*
X7160952Y-13624190D01*
X7370476Y-13738476D02*
X7351428Y-13728952D01*
X7341905Y-13719428D01*
X7332381Y-13700381D01*
X7332381Y-13643238D01*
X7341905Y-13624190D01*
X7351428Y-13614667D01*
X7370476Y-13605143D01*
X7399048Y-13605143D01*
X7418095Y-13614667D01*
X7427619Y-13624190D01*
X7437143Y-13643238D01*
X7437143Y-13700381D01*
X7427619Y-13719428D01*
X7418095Y-13728952D01*
X7399048Y-13738476D01*
X7370476Y-13738476D01*
X7551428Y-13738476D02*
X7532381Y-13728952D01*
X7522857Y-13709905D01*
X7522857Y-13538476D01*
X7703809Y-13728952D02*
X7684762Y-13738476D01*
X7646667Y-13738476D01*
X7627619Y-13728952D01*
X7618095Y-13709905D01*
X7618095Y-13633714D01*
X7627619Y-13614667D01*
X7646667Y-13605143D01*
X7684762Y-13605143D01*
X7703809Y-13614667D01*
X7713333Y-13633714D01*
X7713333Y-13652762D01*
X7618095Y-13671809D01*
X7789524Y-13728952D02*
X7808571Y-13738476D01*
X7846667Y-13738476D01*
X7865714Y-13728952D01*
X7875238Y-13709905D01*
X7875238Y-13700381D01*
X7865714Y-13681333D01*
X7846667Y-13671809D01*
X7818095Y-13671809D01*
X7799048Y-13662286D01*
X7789524Y-13643238D01*
X7789524Y-13633714D01*
X7799048Y-13614667D01*
X7818095Y-13605143D01*
X7846667Y-13605143D01*
X7865714Y-13614667D01*
X7941905Y-13814667D02*
X7951428Y-13805143D01*
X7970476Y-13776571D01*
X7980000Y-13757524D01*
X7989524Y-13728952D01*
X7999048Y-13681333D01*
X7999048Y-13643238D01*
X7989524Y-13595619D01*
X7980000Y-13567048D01*
X7970476Y-13548000D01*
X7951428Y-13519428D01*
X7941905Y-13509905D01*
D10*
X3120000Y-13962000D02*
X3170000Y-13912000D01*
X3120000Y-13862000D01*
X3070000Y-13912000D01*
X3120000Y-13962000D01*
D11*
X3532381Y-14002476D02*
X3418095Y-14002476D01*
X3475238Y-14002476D02*
X3475238Y-13802476D01*
X3456190Y-13831048D01*
X3437143Y-13850095D01*
X3418095Y-13859619D01*
X3618095Y-13983428D02*
X3627619Y-13992952D01*
X3618095Y-14002476D01*
X3608571Y-13992952D01*
X3618095Y-13983428D01*
X3618095Y-14002476D01*
X3751428Y-13802476D02*
X3770476Y-13802476D01*
X3789524Y-13812000D01*
X3799048Y-13821524D01*
X3808571Y-13840571D01*
X3818095Y-13878667D01*
X3818095Y-13926286D01*
X3808571Y-13964381D01*
X3799048Y-13983428D01*
X3789524Y-13992952D01*
X3770476Y-14002476D01*
X3751428Y-14002476D01*
X3732381Y-13992952D01*
X3722857Y-13983428D01*
X3713333Y-13964381D01*
X3703809Y-13926286D01*
X3703809Y-13878667D01*
X3713333Y-13840571D01*
X3722857Y-13821524D01*
X3732381Y-13812000D01*
X3751428Y-13802476D01*
X3941905Y-13802476D02*
X3960952Y-13802476D01*
X3980000Y-13812000D01*
X3989524Y-13821524D01*
X3999048Y-13840571D01*
X4008571Y-13878667D01*
X4008571Y-13926286D01*
X3999048Y-13964381D01*
X3989524Y-13983428D01*
X3980000Y-13992952D01*
X3960952Y-14002476D01*
X3941905Y-14002476D01*
X3922857Y-13992952D01*
X3913333Y-13983428D01*
X3903809Y-13964381D01*
X3894286Y-13926286D01*
X3894286Y-13878667D01*
X3903809Y-13840571D01*
X3913333Y-13821524D01*
X3922857Y-13812000D01*
X3941905Y-13802476D01*
X4132381Y-13802476D02*
X4151428Y-13802476D01*
X4170476Y-13812000D01*
X4180000Y-13821524D01*
X4189524Y-13840571D01*
X4199048Y-13878667D01*
X4199048Y-13926286D01*
X4189524Y-13964381D01*
X4180000Y-13983428D01*
X4170476Y-13992952D01*
X4151428Y-14002476D01*
X4132381Y-14002476D01*
X4113333Y-13992952D01*
X4103809Y-13983428D01*
X4094286Y-13964381D01*
X4084762Y-13926286D01*
X4084762Y-13878667D01*
X4094286Y-13840571D01*
X4103809Y-13821524D01*
X4113333Y-13812000D01*
X4132381Y-13802476D01*
X4284762Y-14002476D02*
X4284762Y-13869143D01*
X4284762Y-13888190D02*
X4294286Y-13878667D01*
X4313333Y-13869143D01*
X4341905Y-13869143D01*
X4360952Y-13878667D01*
X4370476Y-13897714D01*
X4370476Y-14002476D01*
X4370476Y-13897714D02*
X4380000Y-13878667D01*
X4399048Y-13869143D01*
X4427619Y-13869143D01*
X4446667Y-13878667D01*
X4456190Y-13897714D01*
X4456190Y-14002476D01*
X4551429Y-14002476D02*
X4551429Y-13869143D01*
X4551429Y-13888190D02*
X4560952Y-13878667D01*
X4580000Y-13869143D01*
X4608571Y-13869143D01*
X4627619Y-13878667D01*
X4637143Y-13897714D01*
X4637143Y-14002476D01*
X4637143Y-13897714D02*
X4646667Y-13878667D01*
X4665714Y-13869143D01*
X4694286Y-13869143D01*
X4713333Y-13878667D01*
X4722857Y-13897714D01*
X4722857Y-14002476D01*
X5113333Y-13792952D02*
X4941905Y-14050095D01*
X5370476Y-13802476D02*
X5389524Y-13802476D01*
X5408571Y-13812000D01*
X5418095Y-13821524D01*
X5427619Y-13840571D01*
X5437143Y-13878667D01*
X5437143Y-13926286D01*
X5427619Y-13964381D01*
X5418095Y-13983428D01*
X5408571Y-13992952D01*
X5389524Y-14002476D01*
X5370476Y-14002476D01*
X5351429Y-13992952D01*
X5341905Y-13983428D01*
X5332381Y-13964381D01*
X5322857Y-13926286D01*
X5322857Y-13878667D01*
X5332381Y-13840571D01*
X5341905Y-13821524D01*
X5351429Y-13812000D01*
X5370476Y-13802476D01*
X5522857Y-13983428D02*
X5532381Y-13992952D01*
X5522857Y-14002476D01*
X5513333Y-13992952D01*
X5522857Y-13983428D01*
X5522857Y-14002476D01*
X5656190Y-13802476D02*
X5675238Y-13802476D01*
X5694286Y-13812000D01*
X5703809Y-13821524D01*
X5713333Y-13840571D01*
X5722857Y-13878667D01*
X5722857Y-13926286D01*
X5713333Y-13964381D01*
X5703809Y-13983428D01*
X5694286Y-13992952D01*
X5675238Y-14002476D01*
X5656190Y-14002476D01*
X5637143Y-13992952D01*
X5627619Y-13983428D01*
X5618095Y-13964381D01*
X5608571Y-13926286D01*
X5608571Y-13878667D01*
X5618095Y-13840571D01*
X5627619Y-13821524D01*
X5637143Y-13812000D01*
X5656190Y-13802476D01*
X5789524Y-13802476D02*
X5913333Y-13802476D01*
X5846667Y-13878667D01*
X5875238Y-13878667D01*
X5894286Y-13888190D01*
X5903809Y-13897714D01*
X5913333Y-13916762D01*
X5913333Y-13964381D01*
X5903809Y-13983428D01*
X5894286Y-13992952D01*
X5875238Y-14002476D01*
X5818095Y-14002476D01*
X5799048Y-13992952D01*
X5789524Y-13983428D01*
X6008571Y-14002476D02*
X6046667Y-14002476D01*
X6065714Y-13992952D01*
X6075238Y-13983428D01*
X6094286Y-13954857D01*
X6103809Y-13916762D01*
X6103809Y-13840571D01*
X6094286Y-13821524D01*
X6084762Y-13812000D01*
X6065714Y-13802476D01*
X6027619Y-13802476D01*
X6008571Y-13812000D01*
X5999048Y-13821524D01*
X5989524Y-13840571D01*
X5989524Y-13888190D01*
X5999048Y-13907238D01*
X6008571Y-13916762D01*
X6027619Y-13926286D01*
X6065714Y-13926286D01*
X6084762Y-13916762D01*
X6094286Y-13907238D01*
X6103809Y-13888190D01*
X6275238Y-13869143D02*
X6275238Y-14002476D01*
X6227619Y-13792952D02*
X6180000Y-13935809D01*
X6303809Y-13935809D01*
X6370476Y-13802476D02*
X6370476Y-13840571D01*
X6446667Y-13802476D02*
X6446667Y-13840571D01*
X6741905Y-14078667D02*
X6732381Y-14069143D01*
X6713333Y-14040571D01*
X6703809Y-14021524D01*
X6694286Y-13992952D01*
X6684762Y-13945333D01*
X6684762Y-13907238D01*
X6694286Y-13859619D01*
X6703809Y-13831048D01*
X6713333Y-13812000D01*
X6732381Y-13783428D01*
X6741905Y-13773905D01*
X6799048Y-13802476D02*
X6922857Y-13802476D01*
X6856190Y-13878667D01*
X6884762Y-13878667D01*
X6903809Y-13888190D01*
X6913333Y-13897714D01*
X6922857Y-13916762D01*
X6922857Y-13964381D01*
X6913333Y-13983428D01*
X6903809Y-13992952D01*
X6884762Y-14002476D01*
X6827619Y-14002476D01*
X6808571Y-13992952D01*
X6799048Y-13983428D01*
X7018095Y-14002476D02*
X7056190Y-14002476D01*
X7075238Y-13992952D01*
X7084762Y-13983428D01*
X7103809Y-13954857D01*
X7113333Y-13916762D01*
X7113333Y-13840571D01*
X7103809Y-13821524D01*
X7094286Y-13812000D01*
X7075238Y-13802476D01*
X7037143Y-13802476D01*
X7018095Y-13812000D01*
X7008571Y-13821524D01*
X6999048Y-13840571D01*
X6999048Y-13888190D01*
X7008571Y-13907238D01*
X7018095Y-13916762D01*
X7037143Y-13926286D01*
X7075238Y-13926286D01*
X7094286Y-13916762D01*
X7103809Y-13907238D01*
X7113333Y-13888190D01*
X7351428Y-14002476D02*
X7351428Y-13802476D01*
X7437143Y-14002476D02*
X7437143Y-13897714D01*
X7427619Y-13878667D01*
X7408571Y-13869143D01*
X7380000Y-13869143D01*
X7360952Y-13878667D01*
X7351428Y-13888190D01*
X7560952Y-14002476D02*
X7541905Y-13992952D01*
X7532381Y-13983428D01*
X7522857Y-13964381D01*
X7522857Y-13907238D01*
X7532381Y-13888190D01*
X7541905Y-13878667D01*
X7560952Y-13869143D01*
X7589524Y-13869143D01*
X7608571Y-13878667D01*
X7618095Y-13888190D01*
X7627619Y-13907238D01*
X7627619Y-13964381D01*
X7618095Y-13983428D01*
X7608571Y-13992952D01*
X7589524Y-14002476D01*
X7560952Y-14002476D01*
X7741905Y-14002476D02*
X7722857Y-13992952D01*
X7713333Y-13973905D01*
X7713333Y-13802476D01*
X7894286Y-13992952D02*
X7875238Y-14002476D01*
X7837143Y-14002476D01*
X7818095Y-13992952D01*
X7808571Y-13973905D01*
X7808571Y-13897714D01*
X7818095Y-13878667D01*
X7837143Y-13869143D01*
X7875238Y-13869143D01*
X7894286Y-13878667D01*
X7903809Y-13897714D01*
X7903809Y-13916762D01*
X7808571Y-13935809D01*
X7980000Y-13992952D02*
X7999048Y-14002476D01*
X8037143Y-14002476D01*
X8056190Y-13992952D01*
X8065714Y-13973905D01*
X8065714Y-13964381D01*
X8056190Y-13945333D01*
X8037143Y-13935809D01*
X8008571Y-13935809D01*
X7989524Y-13926286D01*
X7980000Y-13907238D01*
X7980000Y-13897714D01*
X7989524Y-13878667D01*
X8008571Y-13869143D01*
X8037143Y-13869143D01*
X8056190Y-13878667D01*
X8132381Y-14078667D02*
X8141905Y-14069143D01*
X8160952Y-14040571D01*
X8170476Y-14021524D01*
X8180000Y-13992952D01*
X8189524Y-13945333D01*
X8189524Y-13907238D01*
X8180000Y-13859619D01*
X8170476Y-13831048D01*
X8160952Y-13812000D01*
X8141905Y-13783428D01*
X8132381Y-13773905D01*
D16*
X3025220Y-14103610D02*
X3170000Y-14248390D01*
X3170000Y-14103610D02*
X3025220Y-14248390D01*
X3170000Y-14176000D02*
G75*
G03*
X3170000Y-14176000I-72390J0D01*
G01*
D11*
X3532381Y-14266476D02*
X3418095Y-14266476D01*
X3475238Y-14266476D02*
X3475238Y-14066476D01*
X3456190Y-14095048D01*
X3437143Y-14114095D01*
X3418095Y-14123619D01*
X3618095Y-14247428D02*
X3627619Y-14256952D01*
X3618095Y-14266476D01*
X3608571Y-14256952D01*
X3618095Y-14247428D01*
X3618095Y-14266476D01*
X3799048Y-14133143D02*
X3799048Y-14266476D01*
X3751428Y-14056952D02*
X3703809Y-14199809D01*
X3827619Y-14199809D01*
X3989524Y-14133143D02*
X3989524Y-14266476D01*
X3941905Y-14056952D02*
X3894286Y-14199809D01*
X4018095Y-14199809D01*
X4122857Y-14152190D02*
X4103809Y-14142667D01*
X4094286Y-14133143D01*
X4084762Y-14114095D01*
X4084762Y-14104571D01*
X4094286Y-14085524D01*
X4103809Y-14076000D01*
X4122857Y-14066476D01*
X4160952Y-14066476D01*
X4180000Y-14076000D01*
X4189524Y-14085524D01*
X4199048Y-14104571D01*
X4199048Y-14114095D01*
X4189524Y-14133143D01*
X4180000Y-14142667D01*
X4160952Y-14152190D01*
X4122857Y-14152190D01*
X4103809Y-14161714D01*
X4094286Y-14171238D01*
X4084762Y-14190286D01*
X4084762Y-14228381D01*
X4094286Y-14247428D01*
X4103809Y-14256952D01*
X4122857Y-14266476D01*
X4160952Y-14266476D01*
X4180000Y-14256952D01*
X4189524Y-14247428D01*
X4199048Y-14228381D01*
X4199048Y-14190286D01*
X4189524Y-14171238D01*
X4180000Y-14161714D01*
X4160952Y-14152190D01*
X4284762Y-14266476D02*
X4284762Y-14133143D01*
X4284762Y-14152190D02*
X4294286Y-14142667D01*
X4313333Y-14133143D01*
X4341905Y-14133143D01*
X4360952Y-14142667D01*
X4370476Y-14161714D01*
X4370476Y-14266476D01*
X4370476Y-14161714D02*
X4380000Y-14142667D01*
X4399048Y-14133143D01*
X4427619Y-14133143D01*
X4446667Y-14142667D01*
X4456190Y-14161714D01*
X4456190Y-14266476D01*
X4551429Y-14266476D02*
X4551429Y-14133143D01*
X4551429Y-14152190D02*
X4560952Y-14142667D01*
X4580000Y-14133143D01*
X4608571Y-14133143D01*
X4627619Y-14142667D01*
X4637143Y-14161714D01*
X4637143Y-14266476D01*
X4637143Y-14161714D02*
X4646667Y-14142667D01*
X4665714Y-14133143D01*
X4694286Y-14133143D01*
X4713333Y-14142667D01*
X4722857Y-14161714D01*
X4722857Y-14266476D01*
X5113333Y-14056952D02*
X4941905Y-14314095D01*
X5370476Y-14066476D02*
X5389524Y-14066476D01*
X5408571Y-14076000D01*
X5418095Y-14085524D01*
X5427619Y-14104571D01*
X5437143Y-14142667D01*
X5437143Y-14190286D01*
X5427619Y-14228381D01*
X5418095Y-14247428D01*
X5408571Y-14256952D01*
X5389524Y-14266476D01*
X5370476Y-14266476D01*
X5351429Y-14256952D01*
X5341905Y-14247428D01*
X5332381Y-14228381D01*
X5322857Y-14190286D01*
X5322857Y-14142667D01*
X5332381Y-14104571D01*
X5341905Y-14085524D01*
X5351429Y-14076000D01*
X5370476Y-14066476D01*
X5522857Y-14247428D02*
X5532381Y-14256952D01*
X5522857Y-14266476D01*
X5513333Y-14256952D01*
X5522857Y-14247428D01*
X5522857Y-14266476D01*
X5656190Y-14066476D02*
X5675238Y-14066476D01*
X5694286Y-14076000D01*
X5703809Y-14085524D01*
X5713333Y-14104571D01*
X5722857Y-14142667D01*
X5722857Y-14190286D01*
X5713333Y-14228381D01*
X5703809Y-14247428D01*
X5694286Y-14256952D01*
X5675238Y-14266476D01*
X5656190Y-14266476D01*
X5637143Y-14256952D01*
X5627619Y-14247428D01*
X5618095Y-14228381D01*
X5608571Y-14190286D01*
X5608571Y-14142667D01*
X5618095Y-14104571D01*
X5627619Y-14085524D01*
X5637143Y-14076000D01*
X5656190Y-14066476D01*
X5903809Y-14066476D02*
X5808571Y-14066476D01*
X5799048Y-14161714D01*
X5808571Y-14152190D01*
X5827619Y-14142667D01*
X5875238Y-14142667D01*
X5894286Y-14152190D01*
X5903809Y-14161714D01*
X5913333Y-14180762D01*
X5913333Y-14228381D01*
X5903809Y-14247428D01*
X5894286Y-14256952D01*
X5875238Y-14266476D01*
X5827619Y-14266476D01*
X5808571Y-14256952D01*
X5799048Y-14247428D01*
X5980000Y-14066476D02*
X6113333Y-14066476D01*
X6027619Y-14266476D01*
X6227619Y-14066476D02*
X6246667Y-14066476D01*
X6265714Y-14076000D01*
X6275238Y-14085524D01*
X6284762Y-14104571D01*
X6294286Y-14142667D01*
X6294286Y-14190286D01*
X6284762Y-14228381D01*
X6275238Y-14247428D01*
X6265714Y-14256952D01*
X6246667Y-14266476D01*
X6227619Y-14266476D01*
X6208571Y-14256952D01*
X6199048Y-14247428D01*
X6189524Y-14228381D01*
X6180000Y-14190286D01*
X6180000Y-14142667D01*
X6189524Y-14104571D01*
X6199048Y-14085524D01*
X6208571Y-14076000D01*
X6227619Y-14066476D01*
X6370476Y-14066476D02*
X6370476Y-14104571D01*
X6446667Y-14066476D02*
X6446667Y-14104571D01*
X6741905Y-14342667D02*
X6732381Y-14333143D01*
X6713333Y-14304571D01*
X6703809Y-14285524D01*
X6694286Y-14256952D01*
X6684762Y-14209333D01*
X6684762Y-14171238D01*
X6694286Y-14123619D01*
X6703809Y-14095048D01*
X6713333Y-14076000D01*
X6732381Y-14047428D01*
X6741905Y-14037905D01*
X6922857Y-14266476D02*
X6808571Y-14266476D01*
X6865714Y-14266476D02*
X6865714Y-14066476D01*
X6846667Y-14095048D01*
X6827619Y-14114095D01*
X6808571Y-14123619D01*
X7046667Y-14066476D02*
X7065714Y-14066476D01*
X7084762Y-14076000D01*
X7094286Y-14085524D01*
X7103809Y-14104571D01*
X7113333Y-14142667D01*
X7113333Y-14190286D01*
X7103809Y-14228381D01*
X7094286Y-14247428D01*
X7084762Y-14256952D01*
X7065714Y-14266476D01*
X7046667Y-14266476D01*
X7027619Y-14256952D01*
X7018095Y-14247428D01*
X7008571Y-14228381D01*
X6999048Y-14190286D01*
X6999048Y-14142667D01*
X7008571Y-14104571D01*
X7018095Y-14085524D01*
X7027619Y-14076000D01*
X7046667Y-14066476D01*
X7351428Y-14266476D02*
X7351428Y-14066476D01*
X7437143Y-14266476D02*
X7437143Y-14161714D01*
X7427619Y-14142667D01*
X7408571Y-14133143D01*
X7380000Y-14133143D01*
X7360952Y-14142667D01*
X7351428Y-14152190D01*
X7560952Y-14266476D02*
X7541905Y-14256952D01*
X7532381Y-14247428D01*
X7522857Y-14228381D01*
X7522857Y-14171238D01*
X7532381Y-14152190D01*
X7541905Y-14142667D01*
X7560952Y-14133143D01*
X7589524Y-14133143D01*
X7608571Y-14142667D01*
X7618095Y-14152190D01*
X7627619Y-14171238D01*
X7627619Y-14228381D01*
X7618095Y-14247428D01*
X7608571Y-14256952D01*
X7589524Y-14266476D01*
X7560952Y-14266476D01*
X7741905Y-14266476D02*
X7722857Y-14256952D01*
X7713333Y-14237905D01*
X7713333Y-14066476D01*
X7894286Y-14256952D02*
X7875238Y-14266476D01*
X7837143Y-14266476D01*
X7818095Y-14256952D01*
X7808571Y-14237905D01*
X7808571Y-14161714D01*
X7818095Y-14142667D01*
X7837143Y-14133143D01*
X7875238Y-14133143D01*
X7894286Y-14142667D01*
X7903809Y-14161714D01*
X7903809Y-14180762D01*
X7808571Y-14199809D01*
X7980000Y-14256952D02*
X7999048Y-14266476D01*
X8037143Y-14266476D01*
X8056190Y-14256952D01*
X8065714Y-14237905D01*
X8065714Y-14228381D01*
X8056190Y-14209333D01*
X8037143Y-14199809D01*
X8008571Y-14199809D01*
X7989524Y-14190286D01*
X7980000Y-14171238D01*
X7980000Y-14161714D01*
X7989524Y-14142667D01*
X8008571Y-14133143D01*
X8037143Y-14133143D01*
X8056190Y-14142667D01*
X8132381Y-14342667D02*
X8141905Y-14333143D01*
X8160952Y-14304571D01*
X8170476Y-14285524D01*
X8180000Y-14256952D01*
X8189524Y-14209333D01*
X8189524Y-14171238D01*
X8180000Y-14123619D01*
X8170476Y-14095048D01*
X8160952Y-14076000D01*
X8141905Y-14047428D01*
X8132381Y-14037905D01*
D17*
X3020000Y-14365780D02*
X3170000Y-14515780D01*
X3170000Y-14365780D02*
X3020000Y-14515780D01*
X3095000Y-14365780D02*
X3095000Y-14515780D01*
X3020000Y-14440780D02*
X3170000Y-14440780D01*
D11*
X3532381Y-14531256D02*
X3418095Y-14531256D01*
X3475238Y-14531256D02*
X3475238Y-14331256D01*
X3456190Y-14359828D01*
X3437143Y-14378875D01*
X3418095Y-14388399D01*
X3618095Y-14512208D02*
X3627619Y-14521732D01*
X3618095Y-14531256D01*
X3608571Y-14521732D01*
X3618095Y-14512208D01*
X3618095Y-14531256D01*
X3808571Y-14331256D02*
X3713333Y-14331256D01*
X3703809Y-14426494D01*
X3713333Y-14416970D01*
X3732381Y-14407447D01*
X3780000Y-14407447D01*
X3799048Y-14416970D01*
X3808571Y-14426494D01*
X3818095Y-14445542D01*
X3818095Y-14493161D01*
X3808571Y-14512208D01*
X3799048Y-14521732D01*
X3780000Y-14531256D01*
X3732381Y-14531256D01*
X3713333Y-14521732D01*
X3703809Y-14512208D01*
X3941905Y-14331256D02*
X3960952Y-14331256D01*
X3980000Y-14340780D01*
X3989524Y-14350304D01*
X3999048Y-14369351D01*
X4008571Y-14407447D01*
X4008571Y-14455066D01*
X3999048Y-14493161D01*
X3989524Y-14512208D01*
X3980000Y-14521732D01*
X3960952Y-14531256D01*
X3941905Y-14531256D01*
X3922857Y-14521732D01*
X3913333Y-14512208D01*
X3903809Y-14493161D01*
X3894286Y-14455066D01*
X3894286Y-14407447D01*
X3903809Y-14369351D01*
X3913333Y-14350304D01*
X3922857Y-14340780D01*
X3941905Y-14331256D01*
X4132381Y-14331256D02*
X4151428Y-14331256D01*
X4170476Y-14340780D01*
X4180000Y-14350304D01*
X4189524Y-14369351D01*
X4199048Y-14407447D01*
X4199048Y-14455066D01*
X4189524Y-14493161D01*
X4180000Y-14512208D01*
X4170476Y-14521732D01*
X4151428Y-14531256D01*
X4132381Y-14531256D01*
X4113333Y-14521732D01*
X4103809Y-14512208D01*
X4094286Y-14493161D01*
X4084762Y-14455066D01*
X4084762Y-14407447D01*
X4094286Y-14369351D01*
X4103809Y-14350304D01*
X4113333Y-14340780D01*
X4132381Y-14331256D01*
X4284762Y-14531256D02*
X4284762Y-14397923D01*
X4284762Y-14416970D02*
X4294286Y-14407447D01*
X4313333Y-14397923D01*
X4341905Y-14397923D01*
X4360952Y-14407447D01*
X4370476Y-14426494D01*
X4370476Y-14531256D01*
X4370476Y-14426494D02*
X4380000Y-14407447D01*
X4399048Y-14397923D01*
X4427619Y-14397923D01*
X4446667Y-14407447D01*
X4456190Y-14426494D01*
X4456190Y-14531256D01*
X4551429Y-14531256D02*
X4551429Y-14397923D01*
X4551429Y-14416970D02*
X4560952Y-14407447D01*
X4580000Y-14397923D01*
X4608571Y-14397923D01*
X4627619Y-14407447D01*
X4637143Y-14426494D01*
X4637143Y-14531256D01*
X4637143Y-14426494D02*
X4646667Y-14407447D01*
X4665714Y-14397923D01*
X4694286Y-14397923D01*
X4713333Y-14407447D01*
X4722857Y-14426494D01*
X4722857Y-14531256D01*
X5113333Y-14321732D02*
X4941905Y-14578875D01*
X5370476Y-14331256D02*
X5389524Y-14331256D01*
X5408571Y-14340780D01*
X5418095Y-14350304D01*
X5427619Y-14369351D01*
X5437143Y-14407447D01*
X5437143Y-14455066D01*
X5427619Y-14493161D01*
X5418095Y-14512208D01*
X5408571Y-14521732D01*
X5389524Y-14531256D01*
X5370476Y-14531256D01*
X5351429Y-14521732D01*
X5341905Y-14512208D01*
X5332381Y-14493161D01*
X5322857Y-14455066D01*
X5322857Y-14407447D01*
X5332381Y-14369351D01*
X5341905Y-14350304D01*
X5351429Y-14340780D01*
X5370476Y-14331256D01*
X5522857Y-14512208D02*
X5532381Y-14521732D01*
X5522857Y-14531256D01*
X5513333Y-14521732D01*
X5522857Y-14512208D01*
X5522857Y-14531256D01*
X5656190Y-14331256D02*
X5675238Y-14331256D01*
X5694286Y-14340780D01*
X5703809Y-14350304D01*
X5713333Y-14369351D01*
X5722857Y-14407447D01*
X5722857Y-14455066D01*
X5713333Y-14493161D01*
X5703809Y-14512208D01*
X5694286Y-14521732D01*
X5675238Y-14531256D01*
X5656190Y-14531256D01*
X5637143Y-14521732D01*
X5627619Y-14512208D01*
X5618095Y-14493161D01*
X5608571Y-14455066D01*
X5608571Y-14407447D01*
X5618095Y-14369351D01*
X5627619Y-14350304D01*
X5637143Y-14340780D01*
X5656190Y-14331256D01*
X5903809Y-14331256D02*
X5808571Y-14331256D01*
X5799048Y-14426494D01*
X5808571Y-14416970D01*
X5827619Y-14407447D01*
X5875238Y-14407447D01*
X5894286Y-14416970D01*
X5903809Y-14426494D01*
X5913333Y-14445542D01*
X5913333Y-14493161D01*
X5903809Y-14512208D01*
X5894286Y-14521732D01*
X5875238Y-14531256D01*
X5827619Y-14531256D01*
X5808571Y-14521732D01*
X5799048Y-14512208D01*
X6008571Y-14531256D02*
X6046667Y-14531256D01*
X6065714Y-14521732D01*
X6075238Y-14512208D01*
X6094286Y-14483637D01*
X6103809Y-14445542D01*
X6103809Y-14369351D01*
X6094286Y-14350304D01*
X6084762Y-14340780D01*
X6065714Y-14331256D01*
X6027619Y-14331256D01*
X6008571Y-14340780D01*
X5999048Y-14350304D01*
X5989524Y-14369351D01*
X5989524Y-14416970D01*
X5999048Y-14436018D01*
X6008571Y-14445542D01*
X6027619Y-14455066D01*
X6065714Y-14455066D01*
X6084762Y-14445542D01*
X6094286Y-14436018D01*
X6103809Y-14416970D01*
X6294286Y-14531256D02*
X6180000Y-14531256D01*
X6237143Y-14531256D02*
X6237143Y-14331256D01*
X6218095Y-14359828D01*
X6199048Y-14378875D01*
X6180000Y-14388399D01*
X6370476Y-14331256D02*
X6370476Y-14369351D01*
X6446667Y-14331256D02*
X6446667Y-14369351D01*
X6741905Y-14607447D02*
X6732381Y-14597923D01*
X6713333Y-14569351D01*
X6703809Y-14550304D01*
X6694286Y-14521732D01*
X6684762Y-14474113D01*
X6684762Y-14436018D01*
X6694286Y-14388399D01*
X6703809Y-14359828D01*
X6713333Y-14340780D01*
X6732381Y-14312208D01*
X6741905Y-14302685D01*
X6808571Y-14350304D02*
X6818095Y-14340780D01*
X6837143Y-14331256D01*
X6884762Y-14331256D01*
X6903809Y-14340780D01*
X6913333Y-14350304D01*
X6922857Y-14369351D01*
X6922857Y-14388399D01*
X6913333Y-14416970D01*
X6799048Y-14531256D01*
X6922857Y-14531256D01*
X7113333Y-14531256D02*
X6999048Y-14531256D01*
X7056190Y-14531256D02*
X7056190Y-14331256D01*
X7037143Y-14359828D01*
X7018095Y-14378875D01*
X6999048Y-14388399D01*
X7351428Y-14531256D02*
X7351428Y-14331256D01*
X7437143Y-14531256D02*
X7437143Y-14426494D01*
X7427619Y-14407447D01*
X7408571Y-14397923D01*
X7380000Y-14397923D01*
X7360952Y-14407447D01*
X7351428Y-14416970D01*
X7560952Y-14531256D02*
X7541905Y-14521732D01*
X7532381Y-14512208D01*
X7522857Y-14493161D01*
X7522857Y-14436018D01*
X7532381Y-14416970D01*
X7541905Y-14407447D01*
X7560952Y-14397923D01*
X7589524Y-14397923D01*
X7608571Y-14407447D01*
X7618095Y-14416970D01*
X7627619Y-14436018D01*
X7627619Y-14493161D01*
X7618095Y-14512208D01*
X7608571Y-14521732D01*
X7589524Y-14531256D01*
X7560952Y-14531256D01*
X7741905Y-14531256D02*
X7722857Y-14521732D01*
X7713333Y-14502685D01*
X7713333Y-14331256D01*
X7894286Y-14521732D02*
X7875238Y-14531256D01*
X7837143Y-14531256D01*
X7818095Y-14521732D01*
X7808571Y-14502685D01*
X7808571Y-14426494D01*
X7818095Y-14407447D01*
X7837143Y-14397923D01*
X7875238Y-14397923D01*
X7894286Y-14407447D01*
X7903809Y-14426494D01*
X7903809Y-14445542D01*
X7808571Y-14464589D01*
X7980000Y-14521732D02*
X7999048Y-14531256D01*
X8037143Y-14531256D01*
X8056190Y-14521732D01*
X8065714Y-14502685D01*
X8065714Y-14493161D01*
X8056190Y-14474113D01*
X8037143Y-14464589D01*
X8008571Y-14464589D01*
X7989524Y-14455066D01*
X7980000Y-14436018D01*
X7980000Y-14426494D01*
X7989524Y-14407447D01*
X8008571Y-14397923D01*
X8037143Y-14397923D01*
X8056190Y-14407447D01*
X8132381Y-14607447D02*
X8141905Y-14597923D01*
X8160952Y-14569351D01*
X8170476Y-14550304D01*
X8180000Y-14521732D01*
X8189524Y-14474113D01*
X8189524Y-14436018D01*
X8180000Y-14388399D01*
X8170476Y-14359828D01*
X8160952Y-14340780D01*
X8141905Y-14312208D01*
X8132381Y-14302685D01*
X2970000Y-14610780D02*
X3170000Y-14810780D01*
X3170000Y-14610780D02*
X2970000Y-14810780D01*
X3140711Y-14781491D02*
X3140711Y-14640069D01*
X2999289Y-14640069D01*
X2999289Y-14781491D01*
X3140711Y-14781491D01*
X3418095Y-14620304D02*
X3427619Y-14610780D01*
X3446667Y-14601256D01*
X3494286Y-14601256D01*
X3513333Y-14610780D01*
X3522857Y-14620304D01*
X3532381Y-14639351D01*
X3532381Y-14658399D01*
X3522857Y-14686970D01*
X3408571Y-14801256D01*
X3532381Y-14801256D01*
X3618095Y-14782208D02*
X3627619Y-14791732D01*
X3618095Y-14801256D01*
X3608571Y-14791732D01*
X3618095Y-14782208D01*
X3618095Y-14801256D01*
X3694286Y-14601256D02*
X3818095Y-14601256D01*
X3751428Y-14677447D01*
X3780000Y-14677447D01*
X3799048Y-14686970D01*
X3808571Y-14696494D01*
X3818095Y-14715542D01*
X3818095Y-14763161D01*
X3808571Y-14782208D01*
X3799048Y-14791732D01*
X3780000Y-14801256D01*
X3722857Y-14801256D01*
X3703809Y-14791732D01*
X3694286Y-14782208D01*
X3941905Y-14601256D02*
X3960952Y-14601256D01*
X3980000Y-14610780D01*
X3989524Y-14620304D01*
X3999048Y-14639351D01*
X4008571Y-14677447D01*
X4008571Y-14725066D01*
X3999048Y-14763161D01*
X3989524Y-14782208D01*
X3980000Y-14791732D01*
X3960952Y-14801256D01*
X3941905Y-14801256D01*
X3922857Y-14791732D01*
X3913333Y-14782208D01*
X3903809Y-14763161D01*
X3894286Y-14725066D01*
X3894286Y-14677447D01*
X3903809Y-14639351D01*
X3913333Y-14620304D01*
X3922857Y-14610780D01*
X3941905Y-14601256D01*
X4132381Y-14601256D02*
X4151428Y-14601256D01*
X4170476Y-14610780D01*
X4180000Y-14620304D01*
X4189524Y-14639351D01*
X4199048Y-14677447D01*
X4199048Y-14725066D01*
X4189524Y-14763161D01*
X4180000Y-14782208D01*
X4170476Y-14791732D01*
X4151428Y-14801256D01*
X4132381Y-14801256D01*
X4113333Y-14791732D01*
X4103809Y-14782208D01*
X4094286Y-14763161D01*
X4084762Y-14725066D01*
X4084762Y-14677447D01*
X4094286Y-14639351D01*
X4103809Y-14620304D01*
X4113333Y-14610780D01*
X4132381Y-14601256D01*
X4284762Y-14801256D02*
X4284762Y-14667923D01*
X4284762Y-14686970D02*
X4294286Y-14677447D01*
X4313333Y-14667923D01*
X4341905Y-14667923D01*
X4360952Y-14677447D01*
X4370476Y-14696494D01*
X4370476Y-14801256D01*
X4370476Y-14696494D02*
X4380000Y-14677447D01*
X4399048Y-14667923D01*
X4427619Y-14667923D01*
X4446667Y-14677447D01*
X4456190Y-14696494D01*
X4456190Y-14801256D01*
X4551429Y-14801256D02*
X4551429Y-14667923D01*
X4551429Y-14686970D02*
X4560952Y-14677447D01*
X4580000Y-14667923D01*
X4608571Y-14667923D01*
X4627619Y-14677447D01*
X4637143Y-14696494D01*
X4637143Y-14801256D01*
X4637143Y-14696494D02*
X4646667Y-14677447D01*
X4665714Y-14667923D01*
X4694286Y-14667923D01*
X4713333Y-14677447D01*
X4722857Y-14696494D01*
X4722857Y-14801256D01*
X5113333Y-14591732D02*
X4941905Y-14848875D01*
X5370476Y-14601256D02*
X5389524Y-14601256D01*
X5408571Y-14610780D01*
X5418095Y-14620304D01*
X5427619Y-14639351D01*
X5437143Y-14677447D01*
X5437143Y-14725066D01*
X5427619Y-14763161D01*
X5418095Y-14782208D01*
X5408571Y-14791732D01*
X5389524Y-14801256D01*
X5370476Y-14801256D01*
X5351429Y-14791732D01*
X5341905Y-14782208D01*
X5332381Y-14763161D01*
X5322857Y-14725066D01*
X5322857Y-14677447D01*
X5332381Y-14639351D01*
X5341905Y-14620304D01*
X5351429Y-14610780D01*
X5370476Y-14601256D01*
X5522857Y-14782208D02*
X5532381Y-14791732D01*
X5522857Y-14801256D01*
X5513333Y-14791732D01*
X5522857Y-14782208D01*
X5522857Y-14801256D01*
X5656190Y-14601256D02*
X5675238Y-14601256D01*
X5694286Y-14610780D01*
X5703809Y-14620304D01*
X5713333Y-14639351D01*
X5722857Y-14677447D01*
X5722857Y-14725066D01*
X5713333Y-14763161D01*
X5703809Y-14782208D01*
X5694286Y-14791732D01*
X5675238Y-14801256D01*
X5656190Y-14801256D01*
X5637143Y-14791732D01*
X5627619Y-14782208D01*
X5618095Y-14763161D01*
X5608571Y-14725066D01*
X5608571Y-14677447D01*
X5618095Y-14639351D01*
X5627619Y-14620304D01*
X5637143Y-14610780D01*
X5656190Y-14601256D01*
X5818095Y-14801256D02*
X5856190Y-14801256D01*
X5875238Y-14791732D01*
X5884762Y-14782208D01*
X5903809Y-14753637D01*
X5913333Y-14715542D01*
X5913333Y-14639351D01*
X5903809Y-14620304D01*
X5894286Y-14610780D01*
X5875238Y-14601256D01*
X5837143Y-14601256D01*
X5818095Y-14610780D01*
X5808571Y-14620304D01*
X5799048Y-14639351D01*
X5799048Y-14686970D01*
X5808571Y-14706018D01*
X5818095Y-14715542D01*
X5837143Y-14725066D01*
X5875238Y-14725066D01*
X5894286Y-14715542D01*
X5903809Y-14706018D01*
X5913333Y-14686970D01*
X6037143Y-14601256D02*
X6056190Y-14601256D01*
X6075238Y-14610780D01*
X6084762Y-14620304D01*
X6094286Y-14639351D01*
X6103809Y-14677447D01*
X6103809Y-14725066D01*
X6094286Y-14763161D01*
X6084762Y-14782208D01*
X6075238Y-14791732D01*
X6056190Y-14801256D01*
X6037143Y-14801256D01*
X6018095Y-14791732D01*
X6008571Y-14782208D01*
X5999048Y-14763161D01*
X5989524Y-14725066D01*
X5989524Y-14677447D01*
X5999048Y-14639351D01*
X6008571Y-14620304D01*
X6018095Y-14610780D01*
X6037143Y-14601256D01*
X6275238Y-14601256D02*
X6237143Y-14601256D01*
X6218095Y-14610780D01*
X6208571Y-14620304D01*
X6189524Y-14648875D01*
X6180000Y-14686970D01*
X6180000Y-14763161D01*
X6189524Y-14782208D01*
X6199048Y-14791732D01*
X6218095Y-14801256D01*
X6256190Y-14801256D01*
X6275238Y-14791732D01*
X6284762Y-14782208D01*
X6294286Y-14763161D01*
X6294286Y-14715542D01*
X6284762Y-14696494D01*
X6275238Y-14686970D01*
X6256190Y-14677447D01*
X6218095Y-14677447D01*
X6199048Y-14686970D01*
X6189524Y-14696494D01*
X6180000Y-14715542D01*
X6370476Y-14601256D02*
X6370476Y-14639351D01*
X6446667Y-14601256D02*
X6446667Y-14639351D01*
X6741905Y-14877447D02*
X6732381Y-14867923D01*
X6713333Y-14839351D01*
X6703809Y-14820304D01*
X6694286Y-14791732D01*
X6684762Y-14744113D01*
X6684762Y-14706018D01*
X6694286Y-14658399D01*
X6703809Y-14629828D01*
X6713333Y-14610780D01*
X6732381Y-14582208D01*
X6741905Y-14572685D01*
X6808571Y-14620304D02*
X6818095Y-14610780D01*
X6837143Y-14601256D01*
X6884762Y-14601256D01*
X6903809Y-14610780D01*
X6913333Y-14620304D01*
X6922857Y-14639351D01*
X6922857Y-14658399D01*
X6913333Y-14686970D01*
X6799048Y-14801256D01*
X6922857Y-14801256D01*
X7160952Y-14801256D02*
X7160952Y-14601256D01*
X7246667Y-14801256D02*
X7246667Y-14696494D01*
X7237143Y-14677447D01*
X7218095Y-14667923D01*
X7189524Y-14667923D01*
X7170476Y-14677447D01*
X7160952Y-14686970D01*
X7370476Y-14801256D02*
X7351428Y-14791732D01*
X7341905Y-14782208D01*
X7332381Y-14763161D01*
X7332381Y-14706018D01*
X7341905Y-14686970D01*
X7351428Y-14677447D01*
X7370476Y-14667923D01*
X7399048Y-14667923D01*
X7418095Y-14677447D01*
X7427619Y-14686970D01*
X7437143Y-14706018D01*
X7437143Y-14763161D01*
X7427619Y-14782208D01*
X7418095Y-14791732D01*
X7399048Y-14801256D01*
X7370476Y-14801256D01*
X7551428Y-14801256D02*
X7532381Y-14791732D01*
X7522857Y-14772685D01*
X7522857Y-14601256D01*
X7703809Y-14791732D02*
X7684762Y-14801256D01*
X7646667Y-14801256D01*
X7627619Y-14791732D01*
X7618095Y-14772685D01*
X7618095Y-14696494D01*
X7627619Y-14677447D01*
X7646667Y-14667923D01*
X7684762Y-14667923D01*
X7703809Y-14677447D01*
X7713333Y-14696494D01*
X7713333Y-14715542D01*
X7618095Y-14734589D01*
X7789524Y-14791732D02*
X7808571Y-14801256D01*
X7846667Y-14801256D01*
X7865714Y-14791732D01*
X7875238Y-14772685D01*
X7875238Y-14763161D01*
X7865714Y-14744113D01*
X7846667Y-14734589D01*
X7818095Y-14734589D01*
X7799048Y-14725066D01*
X7789524Y-14706018D01*
X7789524Y-14696494D01*
X7799048Y-14677447D01*
X7818095Y-14667923D01*
X7846667Y-14667923D01*
X7865714Y-14677447D01*
X7941905Y-14877447D02*
X7951428Y-14867923D01*
X7970476Y-14839351D01*
X7980000Y-14820304D01*
X7989524Y-14791732D01*
X7999048Y-14744113D01*
X7999048Y-14706018D01*
X7989524Y-14658399D01*
X7980000Y-14629828D01*
X7970476Y-14610780D01*
X7951428Y-14582208D01*
X7941905Y-14572685D01*
X2970000Y-14930780D02*
X3170000Y-15130780D01*
X3170000Y-14930780D02*
X2970000Y-15130780D01*
X3070000Y-15130780D02*
X3170000Y-15030780D01*
X3070000Y-14930780D01*
X2970000Y-15030780D01*
X3070000Y-15130780D01*
X3522857Y-14921256D02*
X3427619Y-14921256D01*
X3418095Y-15016494D01*
X3427619Y-15006970D01*
X3446667Y-14997447D01*
X3494286Y-14997447D01*
X3513333Y-15006970D01*
X3522857Y-15016494D01*
X3532381Y-15035542D01*
X3532381Y-15083161D01*
X3522857Y-15102208D01*
X3513333Y-15111732D01*
X3494286Y-15121256D01*
X3446667Y-15121256D01*
X3427619Y-15111732D01*
X3418095Y-15102208D01*
X3618095Y-15102208D02*
X3627619Y-15111732D01*
X3618095Y-15121256D01*
X3608571Y-15111732D01*
X3618095Y-15102208D01*
X3618095Y-15121256D01*
X3694286Y-14921256D02*
X3818095Y-14921256D01*
X3751428Y-14997447D01*
X3780000Y-14997447D01*
X3799048Y-15006970D01*
X3808571Y-15016494D01*
X3818095Y-15035542D01*
X3818095Y-15083161D01*
X3808571Y-15102208D01*
X3799048Y-15111732D01*
X3780000Y-15121256D01*
X3722857Y-15121256D01*
X3703809Y-15111732D01*
X3694286Y-15102208D01*
X3941905Y-14921256D02*
X3960952Y-14921256D01*
X3980000Y-14930780D01*
X3989524Y-14940304D01*
X3999048Y-14959351D01*
X4008571Y-14997447D01*
X4008571Y-15045066D01*
X3999048Y-15083161D01*
X3989524Y-15102208D01*
X3980000Y-15111732D01*
X3960952Y-15121256D01*
X3941905Y-15121256D01*
X3922857Y-15111732D01*
X3913333Y-15102208D01*
X3903809Y-15083161D01*
X3894286Y-15045066D01*
X3894286Y-14997447D01*
X3903809Y-14959351D01*
X3913333Y-14940304D01*
X3922857Y-14930780D01*
X3941905Y-14921256D01*
X4132381Y-14921256D02*
X4151428Y-14921256D01*
X4170476Y-14930780D01*
X4180000Y-14940304D01*
X4189524Y-14959351D01*
X4199048Y-14997447D01*
X4199048Y-15045066D01*
X4189524Y-15083161D01*
X4180000Y-15102208D01*
X4170476Y-15111732D01*
X4151428Y-15121256D01*
X4132381Y-15121256D01*
X4113333Y-15111732D01*
X4103809Y-15102208D01*
X4094286Y-15083161D01*
X4084762Y-15045066D01*
X4084762Y-14997447D01*
X4094286Y-14959351D01*
X4103809Y-14940304D01*
X4113333Y-14930780D01*
X4132381Y-14921256D01*
X4284762Y-15121256D02*
X4284762Y-14987923D01*
X4284762Y-15006970D02*
X4294286Y-14997447D01*
X4313333Y-14987923D01*
X4341905Y-14987923D01*
X4360952Y-14997447D01*
X4370476Y-15016494D01*
X4370476Y-15121256D01*
X4370476Y-15016494D02*
X4380000Y-14997447D01*
X4399048Y-14987923D01*
X4427619Y-14987923D01*
X4446667Y-14997447D01*
X4456190Y-15016494D01*
X4456190Y-15121256D01*
X4551429Y-15121256D02*
X4551429Y-14987923D01*
X4551429Y-15006970D02*
X4560952Y-14997447D01*
X4580000Y-14987923D01*
X4608571Y-14987923D01*
X4627619Y-14997447D01*
X4637143Y-15016494D01*
X4637143Y-15121256D01*
X4637143Y-15016494D02*
X4646667Y-14997447D01*
X4665714Y-14987923D01*
X4694286Y-14987923D01*
X4713333Y-14997447D01*
X4722857Y-15016494D01*
X4722857Y-15121256D01*
X5113333Y-14911732D02*
X4941905Y-15168875D01*
X5370476Y-14921256D02*
X5389524Y-14921256D01*
X5408571Y-14930780D01*
X5418095Y-14940304D01*
X5427619Y-14959351D01*
X5437143Y-14997447D01*
X5437143Y-15045066D01*
X5427619Y-15083161D01*
X5418095Y-15102208D01*
X5408571Y-15111732D01*
X5389524Y-15121256D01*
X5370476Y-15121256D01*
X5351429Y-15111732D01*
X5341905Y-15102208D01*
X5332381Y-15083161D01*
X5322857Y-15045066D01*
X5322857Y-14997447D01*
X5332381Y-14959351D01*
X5341905Y-14940304D01*
X5351429Y-14930780D01*
X5370476Y-14921256D01*
X5522857Y-15102208D02*
X5532381Y-15111732D01*
X5522857Y-15121256D01*
X5513333Y-15111732D01*
X5522857Y-15102208D01*
X5522857Y-15121256D01*
X5608571Y-14940304D02*
X5618095Y-14930780D01*
X5637143Y-14921256D01*
X5684762Y-14921256D01*
X5703809Y-14930780D01*
X5713333Y-14940304D01*
X5722857Y-14959351D01*
X5722857Y-14978399D01*
X5713333Y-15006970D01*
X5599048Y-15121256D01*
X5722857Y-15121256D01*
X5846667Y-14921256D02*
X5865714Y-14921256D01*
X5884762Y-14930780D01*
X5894286Y-14940304D01*
X5903809Y-14959351D01*
X5913333Y-14997447D01*
X5913333Y-15045066D01*
X5903809Y-15083161D01*
X5894286Y-15102208D01*
X5884762Y-15111732D01*
X5865714Y-15121256D01*
X5846667Y-15121256D01*
X5827619Y-15111732D01*
X5818095Y-15102208D01*
X5808571Y-15083161D01*
X5799048Y-15045066D01*
X5799048Y-14997447D01*
X5808571Y-14959351D01*
X5818095Y-14940304D01*
X5827619Y-14930780D01*
X5846667Y-14921256D01*
X6027619Y-15006970D02*
X6008571Y-14997447D01*
X5999048Y-14987923D01*
X5989524Y-14968875D01*
X5989524Y-14959351D01*
X5999048Y-14940304D01*
X6008571Y-14930780D01*
X6027619Y-14921256D01*
X6065714Y-14921256D01*
X6084762Y-14930780D01*
X6094286Y-14940304D01*
X6103809Y-14959351D01*
X6103809Y-14968875D01*
X6094286Y-14987923D01*
X6084762Y-14997447D01*
X6065714Y-15006970D01*
X6027619Y-15006970D01*
X6008571Y-15016494D01*
X5999048Y-15026018D01*
X5989524Y-15045066D01*
X5989524Y-15083161D01*
X5999048Y-15102208D01*
X6008571Y-15111732D01*
X6027619Y-15121256D01*
X6065714Y-15121256D01*
X6084762Y-15111732D01*
X6094286Y-15102208D01*
X6103809Y-15083161D01*
X6103809Y-15045066D01*
X6094286Y-15026018D01*
X6084762Y-15016494D01*
X6065714Y-15006970D01*
X6170476Y-14921256D02*
X6303809Y-14921256D01*
X6218095Y-15121256D01*
X6370476Y-14921256D02*
X6370476Y-14959351D01*
X6446667Y-14921256D02*
X6446667Y-14959351D01*
X6741905Y-15197447D02*
X6732381Y-15187923D01*
X6713333Y-15159351D01*
X6703809Y-15140304D01*
X6694286Y-15111732D01*
X6684762Y-15064113D01*
X6684762Y-15026018D01*
X6694286Y-14978399D01*
X6703809Y-14949828D01*
X6713333Y-14930780D01*
X6732381Y-14902208D01*
X6741905Y-14892685D01*
X6903809Y-14987923D02*
X6903809Y-15121256D01*
X6856190Y-14911732D02*
X6808571Y-15054589D01*
X6932381Y-15054589D01*
X7160952Y-15121256D02*
X7160952Y-14921256D01*
X7246667Y-15121256D02*
X7246667Y-15016494D01*
X7237143Y-14997447D01*
X7218095Y-14987923D01*
X7189524Y-14987923D01*
X7170476Y-14997447D01*
X7160952Y-15006970D01*
X7370476Y-15121256D02*
X7351428Y-15111732D01*
X7341905Y-15102208D01*
X7332381Y-15083161D01*
X7332381Y-15026018D01*
X7341905Y-15006970D01*
X7351428Y-14997447D01*
X7370476Y-14987923D01*
X7399048Y-14987923D01*
X7418095Y-14997447D01*
X7427619Y-15006970D01*
X7437143Y-15026018D01*
X7437143Y-15083161D01*
X7427619Y-15102208D01*
X7418095Y-15111732D01*
X7399048Y-15121256D01*
X7370476Y-15121256D01*
X7551428Y-15121256D02*
X7532381Y-15111732D01*
X7522857Y-15092685D01*
X7522857Y-14921256D01*
X7703809Y-15111732D02*
X7684762Y-15121256D01*
X7646667Y-15121256D01*
X7627619Y-15111732D01*
X7618095Y-15092685D01*
X7618095Y-15016494D01*
X7627619Y-14997447D01*
X7646667Y-14987923D01*
X7684762Y-14987923D01*
X7703809Y-14997447D01*
X7713333Y-15016494D01*
X7713333Y-15035542D01*
X7618095Y-15054589D01*
X7789524Y-15111732D02*
X7808571Y-15121256D01*
X7846667Y-15121256D01*
X7865714Y-15111732D01*
X7875238Y-15092685D01*
X7875238Y-15083161D01*
X7865714Y-15064113D01*
X7846667Y-15054589D01*
X7818095Y-15054589D01*
X7799048Y-15045066D01*
X7789524Y-15026018D01*
X7789524Y-15016494D01*
X7799048Y-14997447D01*
X7818095Y-14987923D01*
X7846667Y-14987923D01*
X7865714Y-14997447D01*
X7941905Y-15197447D02*
X7951428Y-15187923D01*
X7970476Y-15159351D01*
X7980000Y-15140304D01*
X7989524Y-15111732D01*
X7999048Y-15064113D01*
X7999048Y-15026018D01*
X7989524Y-14978399D01*
X7980000Y-14949828D01*
X7970476Y-14930780D01*
X7951428Y-14902208D01*
X7941905Y-14892685D01*
M02*
